<?xml version="1.0" encoding="utf-8"?>
<!-- Generator: Adobe Illustrator 27.0.0, SVG Export Plug-In . SVG Version: 6.00 Build 0)  -->
<svg version="1.1" id="Capa_1" xmlns="http://www.w3.org/2000/svg" xmlns:xlink="http://www.w3.org/1999/xlink" x="0px" y="0px"
	 viewBox="0 0 1024 768" style="enable-background:new 0 0 1024 768;" xml:space="preserve">
<style type="text/css">
	.st0{fill:#B2B2B2;}
	.st1{fill:#DADADA;}
	.st2{fill:none;stroke:#010101;stroke-width:0.5;}
	.st3{fill:none;stroke:#010101;stroke-width:1.5;}
	.st4{fill:none;stroke:#000000;stroke-width:1.5;stroke-miterlimit:10;}
	.st5{fill:none;stroke:#000000;stroke-width:0.5;stroke-miterlimit:10;}
	.st6{fill:#DADADA;stroke:#000000;stroke-width:0.5;stroke-miterlimit:10;}
	.st7{fill:#B2B2B2;stroke:#000000;stroke-width:0.5;stroke-miterlimit:10;}
	.st8{fill:#4D4D4D;stroke:#000000;stroke-width:0.5;stroke-miterlimit:10;}
	.st9{fill:none;stroke:#000000;stroke-width:0.5;stroke-linecap:round;stroke-linejoin:round;stroke-miterlimit:10;}
	.st10{fill:#4D4D4D;stroke:#000000;stroke-width:0.5;stroke-linecap:round;stroke-linejoin:round;stroke-miterlimit:10;}
	.st11{fill:none;stroke:#000000;stroke-width:1.5;stroke-linecap:round;stroke-linejoin:round;stroke-miterlimit:10;}
	.st12{font-family:'MyriadPro-Regular';}
	.st13{font-size:12px;}
</style>
<g id="STARSHIP">
	<path class="st0" d="M750.49,612.15l14.25-28l-0.62-210.5l-2.63-17.25l2.57-10.25v-18h7.75v3h5.75v-3h14.5v3h5c-0.25-1-0.6-3,0-3h7
		l0.25,18c0.41,3.48,1.16,6.92,2.25,10.25l-2.5,16.25v211.5l14.75,28v13.75l-2.75,0.75l-10-5.5l0.2,3.5h-2.75l2.75,4h-43.81l2-4
		h-2.25l0.21-3.5l-7.21,5.5l-4.75-0.75L750.49,612.15z"/>
	<path class="st1" d="M740.98,302.15l23-61.5c-0.06-20.72,0-56.09,0.48-79l-15.73-3.75v-10.76l27.65-38.5
		c3.11-7.09,6.21-12.5,8.35-12.5c2.14,0,5.61,5.38,8.93,12.5l26.57,38.5v11.5l-16,3c0.37,20.56,0.71,51.34,0.71,79l22.5,61.5v22.25
		l-16.25,3.75h-13.7v3h-5.5v-3h-14.5v3h-5.75v-3h-14.75l-16-3.75L740.98,302.15z"/>
	<path class="st2" d="M763.99,240.65l-23,61.5v22.25l16,3.75 M763.99,240.65c-0.06-20.72,0-56.09,0.48-79 M763.99,240.65l4.75,78.5
		l-4.75,9 M763.99,240.65l-7,87.5 M804.99,240.65l22.5,61.5v22.25l-16.25,3.75 M804.99,240.65c0-27.67-0.34-58.45-0.71-79
		 M804.99,240.65l-4.25,78.5l3.25,9 M804.99,240.65l6.25,87.5 M756.99,328.15h7 M763.99,328.15h8 M763.99,328.15v17.75
		 M764.69,584.15l-14.25,28v13.75l4.75,0.75l7.21-5.5 M764.69,584.15l-2.29,37 M764.69,584.15l-0.61-208 M803.94,584.15l14.75,28
		v13.75l-2.75,0.75l-10-5.5 M803.94,584.15l2,37 M803.94,584.15v-208 M803.94,328.15h7.25 M803.94,328.15h-6.81 M803.94,328.15
		l0.08,17.75 M776.39,108.64c-4.92,11.21-9.83,26.61-10.9,31.5c-0.46,2.1-0.79,10.32-1,21.5 M776.41,108.64
		c3.11-7.09,6.21-12.5,8.35-12.5s5.61,5.38,8.93,12.5 M776.41,108.64l-27.65,38.5v10.75l15.73,3.75 M793.69,108.64
		c5,10.66,9.77,25.21,10.07,31.5c0.16,3.5,0.36,11.23,0.54,21.5 M793.69,108.64l26.57,38.5v11.5l-16,3 M762.45,621.15l-0.21,3.5
		h2.25 M806.04,621.15l0.2,3.5h-2.75 M764.49,624.65l-2,4h43.79l-2.75-4 M764.53,624.65h2.75 M803.53,624.65h-1.5 M772.03,328.15
		c0.47-12.95,3.58-23.58,5.2-27.5v27.5 M772.03,328.15c0,1.07,0,2.15,0,3.25h5.25v-3.25 M777.28,328.15h14.75 M792.03,328.15v3.25
		h5.25c0-1.1,0-2.18-0.06-3.25 M792.03,328.15v-27.5c1.61,3.92,4.72,14.55,5.19,27.5 M764.06,345.9h5.7l4.25,15.25l-4.25,15h-5.61
		 M764.06,345.9l-2.55,10.5l2.64,19.75 M804.06,345.9h-5.69l-4.25,15.25l4.25,15h5.61 M804.06,345.9l2.56,10.5l-2.64,19.75
		 M777.98,624.65l-0.75-41.75l-10,30.25v11.5 M777.98,624.65l-10.75,2v-2 M777.98,624.65h12.75 M790.73,624.65l11.25,2v-2
		 M790.73,624.65l0.75-42l10.5,30.5v11.5 M771.48,130.39h26.75c-2.59-9.25-8.9-27.7-13.5-27.5c-4.6,0.2-10.74,18.42-13.24,27.5
		L771.48,130.39z"/>
	<path class="st3" d="M740.98,302.15l23-61.5c-0.06-20.72,0-56.09,0.48-79l-15.73-3.75v-10.76l27.65-38.5
		c3.11-7.09,6.21-12.5,8.35-12.5c2.14,0,5.61,5.38,8.93,12.5l26.57,38.5v11.5l-16,3c0.37,20.56,0.71,51.34,0.71,79l22.5,61.5v22.25
		l-16.25,3.75h-7.25v256l14.75,28v13.75l-2.75,0.75l-10-5.5l0.2,3.5h-2.75l2.75,4h-43.69l2-4h-2.25l0.21-3.5l-7.21,5.5l-4.75-0.75
		v-13.74l14.25-28l-0.75-256h-7l-16-3.75L740.98,302.15z"/>
</g>
<line class="st4" x1="809.62" y1="330.14" x2="809.62" y2="344.9"/>
<line class="st5" x1="811.89" y1="308.95" x2="812.89" y2="321.95"/>
<path class="st6" d="M160.39,539.45v8.8h7.3v-8.8l-2.96-5.89c-0.29-0.57-1.1-0.57-1.39,0L160.39,539.45z"/>
<polygon class="st7" points="164.05,548.25 159.37,548.25 159.37,614.45 164.05,614.45 168.37,614.45 168.37,548.25 "/>
<line class="st5" x1="159.39" y1="550.45" x2="168.37" y2="550.45"/>
<rect x="159.37" y="556.95" class="st8" width="9.01" height="14.74"/>
<polygon class="st9" points="159.37,614.45 163.87,620.84 168.37,614.45 "/>
<polyline class="st9" points="168.37,614.45 163.87,618.08 159.37,614.45 "/>
<rect x="162.39" y="620.45" class="st8" width="3" height="2"/>
<path class="st8" d="M166.58,627.27"/>
<polygon class="st10" points="161.42,627.27 163.89,622.45 166.58,627.27 "/>
<path class="st11" d="M164.03,622.45c0.76,0,1.37-0.61,1.37-1.37v-0.63h-1.24l3.98-5.65c0.16-0.23,0.25-0.51,0.25-0.79v-65.76h-0.68
	v-8.47c0-0.22-0.05-0.43-0.15-0.62l-2.39-4.67c-0.52-1.01-1.97-0.99-2.46,0.04l-2.18,4.65c-0.09,0.18-0.13,0.38-0.13,0.58v8.5h-1.02
	v65.76c0,0.28,0.09,0.56,0.25,0.79l3.98,5.65h-1.2v0.63c0,0.76,0.61,1.37,1.37,1.37H164.03z"/>
<polygon class="st11" points="161.42,627.27 166.58,627.27 163.89,622.45 "/>
<rect x="227.89" y="433.95" class="st7" width="18.11" height="188"/>
<rect x="227.89" y="420.45" class="st6" width="17.36" height="13.5"/>
<rect x="228.5" y="418.5" class="st6" width="17" height="2"/>
<path class="st6" d="M229.39,435.45v-15.11c0,0-0.89-1.84-2.11,0v13.17C227.28,433.51,227.39,434.45,229.39,435.45z"/>
<path class="st6" d="M244.25,435.45V420.4c0,0,1.25-1.9,2.33,0v13.54C246.58,433.95,246,435.39,244.25,435.45z"/>
<polygon class="st6" points="228.5,418.5 231.5,407.5 242.5,407.5 245.5,418.5 "/>
<path class="st6" d="M231.5,407.5c0-6,5.5-5.99,5.5-5.99s5.5-0.01,5.5,5.99H231.5z"/>
<polygon class="st10" points="236.93,621.95 234.5,627.5 239.4,627.5 "/>
<polygon class="st10" points="229.55,621.95 227.12,627.5 232.02,627.5 "/>
<polygon class="st10" points="244.16,621.95 241.73,627.5 246.63,627.5 "/>
<path class="st9" d="M245.25,457.5"/>
<line class="st9" x1="227.89" y1="457.25" x2="246" y2="457.25"/>
<line class="st9" x1="227.89" y1="485.34" x2="246" y2="485.34"/>
<line class="st9" x1="227.89" y1="617.13" x2="245.25" y2="617.13"/>
<path class="st7" d="M224.64,622.5h4.59l-1.66-7.58c-0.22-0.99-1.65-0.95-1.8,0.06L224.64,622.5z"/>
<path class="st7" d="M248.62,622.5h-4.59l1.66-7.58c0.22-0.99,1.65-0.95,1.8,0.06L248.62,622.5z"/>
<path class="st11" d="M246,434.74l0.58-0.79V420.4c0,0-0.08-0.9-1.08-0.9v-1l-3-11c0,0,0-5.99-5.5-5.99c0,0-5.5-0.01-5.5,5.99l-3,11
	v0.79c0,0-1,0.21-1.22,1.05v13.17l0.61,0.93v180.1c0,0-1.69-1.64-2.04,0.16l-1.21,7.8h4.59l-2.11,5h4.9l-2.47-5.55h7.38l-2.43,5.55
	h4.9l-2.27-5.55h7.04l-2.43,5.55h4.9l-2.22-5h4.22l-1.12-7.52c0,0,0-1.08-1.5-0.78V434.74z"/>
<path class="st11" d="M246,434.74l0.58-0.79V420.4c0,0-0.08-0.9-1.08-0.9v-1l-3-11c0,0,0-5.99-5.5-5.99c0,0-5.5-0.01-5.5,5.99l-3,11
	v0.79c0,0-1,0.21-1.22,1.05v13.17l0.61,0.93v180.1c0,0-1.69-1.64-2.04,0.16l-1.21,7.8h4.59l-2.11,5h4.9l-2.47-5.55h7.38l-2.43,5.55
	h4.9l-2.27-5.55h7.04l-2.43,5.55h4.9l-2.22-5h4.22l-1.12-7.52c0,0,0-1.08-1.5-0.78V434.74z"/>
<rect x="316.42" y="369.05" class="st7" width="18.11" height="249.95"/>
<rect x="316.42" y="355.55" class="st6" width="17.36" height="13.5"/>
<rect x="317.02" y="353.6" class="st6" width="17" height="2"/>
<path class="st6" d="M317.92,370.55v-15.11c0,0-0.89-1.84-2.11,0v13.17C315.8,368.61,315.92,369.55,317.92,370.55z"/>
<path class="st6" d="M332.77,370.55v-15.04c0,0,1.25-1.9,2.33,0v13.54C335.1,369.05,334.52,370.5,332.77,370.55z"/>
<polygon class="st6" points="317.02,353.6 320.02,342.6 331.02,342.6 334.02,353.6 "/>
<path class="st6" d="M320.02,342.6c0-6,5.5-5.99,5.5-5.99s5.5-0.01,5.5,5.99H320.02z"/>
<rect x="317.5" y="618.5" class="st7" width="16" height="4"/>
<polygon class="st8" points="318.72,621.73 317.07,626.91 334.07,626.91 332.15,621.73 "/>
<rect x="322.38" y="626.91" class="st8" width="5.99" height="0.97"/>
<polygon class="st10" points="332.15,621.73 328.37,626.91 325.57,621.73 322.38,626.91 318.72,621.73 "/>
<path class="st11" d="M317.07,626.91h5.31v0.97h5.99v-0.97h5.7l-1.64-4.41h1.07v-4h2.95l-1.77-48.73V370.31l0.58-0.79v-13.54
	c0,0-0.08-0.9-1.08-0.9v-1l-3-11c0,0,0-5.99-5.5-5.99c0,0-5.5-0.01-5.5,5.99l-3,11v0.79c0,0-1,0.21-1.22,1.05v13.17l0.61,0.93v200.1
	l-1.32,48.39h2.25v4h0.97L317.07,626.91z"/>
<text transform="matrix(1 0 0 1 144.3296 643.6079)" class="st12 st13">Falcon 1</text>
<text transform="matrix(1 0 0 1 208.0261 643.7558)" class="st12 st13">Falcon 9 v1.0</text>
<text transform="matrix(1 0 0 1 287.4706 644.7557)" class="st12 st13">Falcon 9 v1.1</text>
<text transform="matrix(1 0 0 1 366.4416 646.1149)" class="st12 st13">Falcon 9 v1.2 </text>
<text transform="matrix(1 0 0 1 448.767 644.8984)" class="st12 st13">Falcon 9 Block 5 </text>
<text transform="matrix(1 0 0 1 559.5115 646.6499)" class="st12 st13">Falcon Heavy </text>
<text transform="matrix(1 0 0 1 638.7166 646.1412)" class="st12 st13">Falcon Heavy B5 </text>
<g>
	<polygon class="st6" points="477,361 493,361 496.5,355.5 473.59,355.5 	"/>
	<path class="st6" d="M494.91,315.36l-2.88-9.91c-2.12-7.29-12.5-7.17-14.44,0.18l-2.6,9.85c-0.94,3.55-1.41,7.2-1.41,10.87v29.15
		h22.91v-28.98C496.5,322.74,495.97,318.98,494.91,315.36z"/>
	<line class="st6" x1="485" y1="300" x2="485" y2="355.5"/>
	<g>
		<polygon class="st8" points="478.44,622.14 476.79,627.32 493.79,627.32 491.87,622.14 		"/>
		<rect x="482.1" y="627.32" class="st8" width="5.99" height="0.97"/>
		<polygon class="st10" points="491.87,622.14 488.09,627.32 485.29,622.14 482.1,627.32 478.44,622.14 		"/>
	</g>
	<rect x="477.5" y="606.5" class="st8" width="16" height="16"/>
	<polygon class="st7" points="476.5,433.5 493.5,433.5 493.5,606.5 477.5,606.5 	"/>
	<g>
		<path class="st8" d="M476.5,571.63l-1.7,47.65h10.28l-6.09-47.76C478.8,569.99,476.56,570.1,476.5,571.63z"/>
		<path class="st8" d="M485.92,619.28H496l-1.89-47.29c-0.06-1.54-2.32-1.63-2.5-0.1L485.92,619.28z"/>
		<path class="st8" d="M483.93,619.28l-4.65-17.58c-0.44-1.65-2.83-1.44-2.98,0.26l-1.5,17.32H496l-1.99-17.58
			c-0.18-1.62-2.49-1.75-2.85-0.16l-4.08,17.74"/>
		<line class="st8" x1="477.29" y1="600.57" x2="477.8" y2="570.43"/>
		<line class="st8" x1="492.56" y1="600.57" x2="493.09" y2="570.81"/>
	</g>
	<rect x="476.5" y="401.5" class="st8" width="17" height="32"/>
	<path class="st8" d="M475.5,439.5h5.85v-7.7l0,0c-0.81-2.98-5.04-2.98-5.85,0l0,0V439.5z"/>
	<path class="st8" d="M488.78,439.5h6.24v-7.98l0,0c-0.91-3.05-5.25-3.03-6.12,0.04l-0.12,0.42V439.5z"/>
	<rect x="476.5" y="360.5" class="st7" width="17" height="41"/>
</g>
<g>
	<polygon class="st6" points="581.58,361.64 597.58,361.64 601.08,356.14 578.17,356.14 	"/>
	<path class="st6" d="M599.5,316l-2.88-9.91c-2.12-7.29-12.5-7.17-14.44,0.18l-2.6,9.85c-0.94,3.55-1.41,7.2-1.41,10.87v29.15h22.91
		v-28.98C601.08,323.38,600.55,319.62,599.5,316z"/>
	<line class="st6" x1="589.58" y1="300.64" x2="589.58" y2="356.14"/>
	<g>
		<polygon class="st8" points="583.02,622.78 581.38,627.96 598.38,627.96 596.45,622.78 		"/>
		<rect x="586.68" y="627.96" class="st8" width="5.99" height="0.97"/>
		<polygon class="st10" points="596.45,622.78 592.68,627.96 589.88,622.78 586.68,627.96 583.02,622.78 		"/>
	</g>
	<rect x="582.08" y="607.14" class="st8" width="16" height="16"/>
	<polygon class="st7" points="581.08,434.14 598.08,434.14 598.08,607.14 582.08,607.14 	"/>
	<g>
		<path class="st7" d="M581.09,572.27l-1.7,47.65h10.28l-6.09-47.76C583.38,570.63,581.14,570.73,581.09,572.27z"/>
		<path class="st7" d="M590.51,619.92h10.07l-1.89-47.29c-0.06-1.54-2.32-1.63-2.5-0.1L590.51,619.92z"/>
		<path class="st7" d="M588.51,619.92l-4.65-17.58c-0.44-1.65-2.83-1.44-2.98,0.26l-1.5,17.32h21.2l-1.99-17.58
			c-0.18-1.62-2.49-1.75-2.85-0.16l-4.08,17.74"/>
		<line class="st7" x1="581.87" y1="601.21" x2="582.39" y2="571.06"/>
		<line class="st7" x1="597.14" y1="601.21" x2="597.67" y2="571.45"/>
	</g>
	<rect x="581.08" y="402.14" class="st7" width="17" height="32"/>
	<path class="st8" d="M580.08,440.14h5.85v-7.7v0c-0.81-2.98-5.04-2.98-5.85,0v0V440.14z"/>
	<path class="st8" d="M592.36,440.14h6.24v-7.98v0c-0.91-3.05-5.25-3.03-6.12,0.04l-0.12,0.42V440.14z"/>
	<rect x="581.08" y="361.14" class="st7" width="17" height="41"/>
	<path class="st7" d="M562.33,435.5h16.17v-3.64c0-3.83-0.62-7.64-1.82-11.28v0c-2.05-6.18-10.84-6.03-12.68,0.21v0
		c-0.99,3.35-1.52,6.82-1.58,10.31L562.33,435.5z"/>
	<path class="st7" d="M600.33,435.5h16.17v-3.64c0-3.83-0.62-7.64-1.82-11.28v0c-2.05-6.18-10.84-6.03-12.68,0.21v0
		c-0.99,3.35-1.52,6.82-1.58,10.31L600.33,435.5z"/>
	<rect x="561.5" y="435.5" class="st7" width="17" height="184"/>
	<rect x="600.5" y="435.5" class="st7" width="17" height="184"/>
	<path class="st8" d="M560.65,441.56h5.85v-7.7l0,0c-0.81-2.98-5.04-2.98-5.85,0l0,0V441.56z"/>
	<path class="st8" d="M572.93,441.56h6.24v-7.98l0,0c-0.91-3.05-5.25-3.03-6.12,0.04l-0.12,0.42V441.56z"/>
	<path class="st8" d="M599.65,441.56h5.85v-7.7l0,0c-0.81-2.98-5.04-2.98-5.85,0l0,0V441.56z"/>
	<rect x="562.59" y="607.34" class="st8" width="16" height="16"/>
	<path class="st8" d="M611.93,441.56h6.24v-7.98l0,0c-0.91-3.05-5.25-3.03-6.12,0.04l-0.12,0.42V441.56z"/>
	<rect x="601.59" y="607.34" class="st8" width="16" height="16"/>
	<g>
		<path class="st7" d="M561.35,572.96l-1.7,47.65h10.28l-6.09-47.76C563.64,571.32,561.4,571.42,561.35,572.96z"/>
		<path class="st7" d="M570.77,620.61h10.07l-1.89-47.29c-0.06-1.54-2.32-1.63-2.5-0.1L570.77,620.61z"/>
		<path class="st7" d="M568.77,620.61l-4.65-17.58c-0.44-1.65-2.83-1.44-2.98,0.26l-1.5,17.32h21.2l-1.99-17.58
			c-0.18-1.62-2.49-1.75-2.85-0.16l-4.08,17.74"/>
		<line class="st7" x1="562.13" y1="601.9" x2="562.65" y2="571.75"/>
		<line class="st7" x1="577.93" y1="572.14" x2="577.4" y2="601.9"/>
	</g>
	<g>
		<path class="st7" d="M600.16,573.11l-1.7,47.65h10.28L602.66,573C602.46,571.47,600.22,571.58,600.16,573.11z"/>
		<path class="st7" d="M609.59,620.76h10.07l-1.89-47.29c-0.06-1.54-2.32-1.63-2.5-0.1L609.59,620.76z"/>
		<path class="st7" d="M607.59,620.76l-4.65-17.58c-0.44-1.65-2.83-1.44-2.98,0.26l-1.5,17.32h21.2l-1.99-17.58
			c-0.18-1.62-2.49-1.75-2.85-0.16l-4.08,17.74"/>
		<line class="st7" x1="600.95" y1="602.05" x2="601.47" y2="571.91"/>
		<line class="st7" x1="616.22" y1="602.05" x2="616.75" y2="572.29"/>
	</g>
	<g>
		<polygon class="st8" points="602.53,622.98 600.89,628.16 617.89,628.16 615.96,622.98 		"/>
		<rect x="606.2" y="628.16" class="st8" width="5.99" height="0.97"/>
		<polygon class="st10" points="615.96,622.98 612.19,628.16 609.39,622.98 606.2,628.16 602.53,622.98 		"/>
	</g>
	<g>
		<polygon class="st8" points="563.53,622.98 561.89,628.16 578.89,628.16 576.96,622.98 		"/>
		<rect x="567.2" y="628.16" class="st8" width="5.99" height="0.97"/>
		<polygon class="st10" points="576.96,622.98 573.19,628.16 570.39,622.98 567.2,628.16 563.53,622.98 		"/>
	</g>
	<rect x="569.5" y="427.5" class="st7" width="39" height="1"/>
</g>
<polygon class="st6" points="672.01,362.31 688.01,362.31 691.51,356.81 668.6,356.81 "/>
<path class="st6" d="M689.92,316.67l-2.88-9.91c-2.12-7.3-12.5-7.17-14.44,0.18l-2.6,9.85c-0.94,3.55-1.41,7.2-1.41,10.87v29.15
	h22.91v-28.98C691.51,324.05,690.97,320.29,689.92,316.67z"/>
<line class="st6" x1="680.01" y1="301.31" x2="680.01" y2="356.81"/>
<g>
	<polygon class="st8" points="673.45,623.45 671.8,628.62 688.8,628.62 686.88,623.45 	"/>
	<rect x="677.11" y="628.62" class="st8" width="5.99" height="0.97"/>
	<polygon class="st10" points="686.88,623.45 683.1,628.62 680.3,623.45 677.11,628.62 673.45,623.45 	"/>
</g>
<rect x="672.51" y="607.81" class="st8" width="16" height="16"/>
<polygon class="st7" points="671.51,434.81 688.51,434.81 688.51,607.81 672.51,607.81 "/>
<rect x="671.51" y="402.81" class="st7" width="17" height="32"/>
<path class="st8" d="M670.51,440.81h5.85v-7.7l0,0c-0.81-2.98-5.04-2.98-5.85,0l0,0V440.81z"/>
<path class="st8" d="M682.79,440.81h6.24v-7.98l0,0c-0.91-3.05-5.25-3.03-6.12,0.04l-0.12,0.42V440.81z"/>
<rect x="671.51" y="361.81" class="st7" width="17" height="41"/>
<path class="st7" d="M652.76,436.17h16.17v-3.64c0-3.83-0.62-7.64-1.82-11.28l0,0c-2.05-6.18-10.84-6.03-12.68,0.21v0
	c-0.99,3.35-1.52,6.82-1.58,10.31L652.76,436.17z"/>
<path class="st7" d="M690.76,436.17h16.17v-3.64c0-3.83-0.62-7.64-1.82-11.28l0,0c-2.05-6.18-10.84-6.03-12.68,0.21v0
	c-0.99,3.35-1.52,6.82-1.58,10.31L690.76,436.17z"/>
<rect x="651.93" y="436.17" class="st7" width="17" height="184"/>
<rect x="690.93" y="436.17" class="st7" width="17" height="184"/>
<path class="st8" d="M651.08,442.23h5.85v-7.7l0,0c-0.81-2.98-5.04-2.98-5.85,0l0,0V442.23z"/>
<path class="st8" d="M663.35,442.23h6.24v-7.98l0,0c-0.91-3.05-5.25-3.03-6.12,0.04l-0.12,0.42V442.23z"/>
<path class="st8" d="M690.08,442.23h5.85v-7.7l0,0c-0.81-2.98-5.04-2.98-5.85,0l0,0V442.23z"/>
<rect x="653.02" y="608.01" class="st8" width="16" height="16"/>
<path class="st8" d="M702.35,442.23h6.24v-7.98l0,0c-0.91-3.05-5.25-3.03-6.12,0.04l-0.12,0.42V442.23z"/>
<rect x="692.02" y="608.01" class="st8" width="16" height="16"/>
<g>
	<polygon class="st8" points="692.96,623.65 691.31,628.83 708.31,628.83 706.39,623.65 	"/>
	<rect x="696.62" y="628.83" class="st8" width="5.99" height="0.97"/>
	<polygon class="st10" points="706.39,623.65 702.61,628.83 699.81,623.65 696.62,628.83 692.96,623.65 	"/>
</g>
<g>
	<polygon class="st8" points="653.96,623.65 652.31,628.83 669.31,628.83 667.39,623.65 	"/>
	<rect x="657.62" y="628.83" class="st8" width="5.99" height="0.97"/>
	<polygon class="st10" points="667.39,623.65 663.61,628.83 660.81,623.65 657.62,628.83 653.96,623.65 	"/>
</g>
<rect x="660.5" y="428.17" class="st7" width="39" height="1"/>
<line class="st7" x1="661.02" y1="608.01" x2="661.02" y2="429.17"/>
<line class="st7" x1="700.01" y1="608.33" x2="700.01" y2="429.17"/>
<line class="st7" x1="680" y1="428.67" x2="680" y2="608.33"/>
<g>
	<rect x="391" y="361" class="st7" width="16" height="257"/>
	<line class="st7" x1="391" y1="402.13" x2="407" y2="402.13"/>
	<line class="st7" x1="391" y1="432.95" x2="407" y2="432.95"/>
	<rect x="390.5" y="617.5" class="st8" width="17" height="5"/>
	<polygon class="st8" points="392.15,622.5 390.5,627.68 407.5,627.68 405.58,622.5 	"/>
	<rect x="395.81" y="627.68" class="st8" width="5.99" height="0.97"/>
	<polygon class="st10" points="405.58,622.5 401.8,627.68 399,622.5 395.81,627.68 392.15,622.5 	"/>
	<polygon class="st6" points="391.2,360.95 407.2,360.95 410.7,355.45 387.79,355.45 	"/>
	<path class="st6" d="M409.11,315.31l-2.88-9.91c-2.12-7.29-12.5-7.17-14.44,0.18l-2.6,9.85c-0.94,3.55-1.41,7.2-1.41,10.87v29.15
		h22.91v-28.98C410.7,322.69,410.16,318.94,409.11,315.31z"/>
	<line class="st6" x1="399.2" y1="299.95" x2="399.2" y2="355.45"/>
</g>
<polyline class="st11" points="410.7,355.45 407.2,360.95 407,617.5 407.89,617.5 407.89,623.3 406.25,623.3 407.89,627.71 
	402.19,627.71 402.19,628.68 396.2,628.68 396.2,627.71 390.89,627.71 392.29,623.3 390.21,623.3 390.21,617.5 391,617.5 
	391.2,360.95 387.79,355.45 "/>
<path class="st11" d="M390,617"/>
<path class="st4" d="M410.8,355.53v-28.98c0-3.77-0.53-7.53-1.59-11.16l-2.88-9.91c-2.12-7.3-12.5-7.17-14.44,0.18l-2.6,9.85
	c-0.94,3.55-1.41,7.2-1.41,10.87v29.15"/>
<path class="st4" d="M493.5,439.5v131.29l0.61,1.21l1.89,47.29h-2.5v3.22H492l1.79,4.82h-5.7v0.97h-5.99v-0.97h-5.31l1.65-4.82
	h-0.94v-3.22h-2.7l1.7-47.65l0.78-1.21L476.5,439.5h-1v-7.7l1-1.56V360.5l-3.45-5.23v-29.15c0-3.67,0.47-7.32,1.41-10.87l2.6-9.85
	c1.94-7.34,12.32-7.47,14.44-0.18l2.88,9.91c1.05,3.62,1.59,7.38,1.59,11.16v28.98l-2.46,5.23L494,430l1.02,1.52v7.98H493.5z"/>
<path class="st4" d="M598.17,361.05l2.46-5.23v-28.98c0-3.77-0.53-7.53-1.59-11.16l-2.88-9.91c-2.12-7.29-12.5-7.17-14.44,0.18
	l-2.6,9.85c-0.94,3.55-1.41,7.2-1.41,10.87v29.15l3.45,5.23l-0.08,66.45h-2.58c0,0-0.67-11.45-8.08-11.48c0,0-8.63-1.31-8.02,15.83
	l-1.74,2v7.7h0.85l-0.15,131.4l-1.7,47.65h2.95v2.74h0.83l-1.53,4.82h5.31v0.97h5.99v-0.97h5.7l-1.79-4.82h1.5v-2.74h2.25v-0.69
	h1.24v3.22h0.83l-1.53,4.82h5.31v0.97h5.99v-0.97h5.7l-1.79-4.82h1.5v-3.22l0.43,0.01l-0.05,0.83h3.13v2.58h0.83l-1.53,4.82h5.31
	v0.97h5.99v-0.97h5.7l-1.79-4.82h1.5v-2.58h2.07l-2.16-48.47V441.56h0.67v-7.98l-1.67-2.28c0,0,0.34-15.25-8.08-15.28
	c0,0-6.42-2.02-7.92,11.48h-2.42L598.17,361.05z"/>
<path class="st4" d="M688.6,361.54l2.46-5.23v-28.98c0-3.77-0.53-7.53-1.59-11.16l-2.88-9.91c-2.12-7.29-12.5-7.17-14.44,0.18
	l-2.6,9.85c-0.94,3.55-1.41,7.2-1.41,10.87v29.15l3.45,5.23l-0.08,66.45h-2.58c0,0-0.67-11.45-8.08-11.48c0,0-8.63-1.31-8.02,15.83
	l-1.74,2v7.7h0.85l-0.15,131.4l-1.7,47.65h2.95v2.74h0.83l-1.53,4.82h5.31v0.97h5.99v-0.97h5.7l-1.79-4.82h1.5v-2.74h2.25v-0.69
	h1.24v3.22h0.83l-1.53,4.82h5.31v0.97h5.99v-0.97h5.7l-1.79-4.82h1.5v-3.22l0.43,0.01l-0.05,0.83h3.13v2.58h0.83l-1.53,4.82h5.31
	v0.97h5.99v-0.97h5.7l-1.79-4.82h1.5v-2.58h2.07l-2.16-48.47V442.05h0.67v-7.98l-1.67-2.28c0,0,0.34-15.25-8.08-15.28
	c0,0-6.42-2.02-7.92,11.48h-2.42L688.6,361.54z"/>
<g>
	<path class="st8" d="M671.51,572.94l-1.7,47.65h10.28L674,572.83C673.81,571.3,671.57,571.4,671.51,572.94z"/>
	<path class="st8" d="M680.93,620.59h10.07l-1.89-47.29c-0.06-1.54-2.32-1.63-2.5-0.1L680.93,620.59z"/>
	<path class="st8" d="M678.94,620.59l-4.65-17.58c-0.44-1.65-2.83-1.44-2.98,0.26l-1.5,17.32h21.2l-1.99-17.58
		c-0.18-1.62-2.49-1.75-2.85-0.16l-4.08,17.74"/>
	<line class="st8" x1="672.29" y1="601.88" x2="672.81" y2="571.73"/>
	<line class="st8" x1="687.57" y1="601.88" x2="688.1" y2="572.11"/>
</g>
<g>
	<path class="st8" d="M651.77,573.63l-1.7,47.65h10.28l-6.09-47.76C654.07,571.99,651.83,572.09,651.77,573.63z"/>
	<path class="st8" d="M661.19,621.28h10.07l-1.89-47.29c-0.06-1.54-2.32-1.63-2.5-0.1L661.19,621.28z"/>
	<path class="st8" d="M659.2,621.28l-4.65-17.58c-0.44-1.65-2.83-1.44-2.98,0.26l-1.5,17.32h21.2l-1.99-17.58
		c-0.18-1.62-2.49-1.75-2.85-0.16l-4.08,17.74"/>
	<line class="st8" x1="652.55" y1="602.57" x2="653.07" y2="572.42"/>
	<line class="st8" x1="667.83" y1="602.57" x2="668.36" y2="572.8"/>
</g>
<g>
	<path class="st8" d="M690.59,573.78l-1.7,47.65h10.28l-6.09-47.76C692.89,572.14,690.65,572.24,690.59,573.78z"/>
	<path class="st8" d="M700.01,621.43h10.07l-1.89-47.29c-0.06-1.54-2.32-1.63-2.5-0.1L700.01,621.43z"/>
	<path class="st8" d="M698.02,621.43l-4.65-17.58c-0.44-1.65-2.83-1.44-2.98,0.26l-1.5,17.32h21.2l-1.99-17.58
		c-0.18-1.62-2.49-1.75-2.85-0.16l-4.08,17.74"/>
	<line class="st8" x1="691.37" y1="602.72" x2="691.89" y2="572.57"/>
	<line class="st8" x1="706.65" y1="602.72" x2="707.18" y2="572.96"/>
</g>
<polyline class="st4" points="578.2,428.5 578.5,431.86 579.17,433.58 579.17,441.56 578.5,441.56 578.5,571.91 578.95,573.32 
	580.08,594.8 581.09,572.27 581.87,571.06 581.08,440.14 580.08,440.14 580.08,432.43 581.08,430.87 581.08,428.5 "/>
<polyline class="st4" points="598.08,428.5 598.08,431.12 598.6,432.16 598.6,440.14 598.08,440.14 598.08,571.06 598.69,572.63 
	599.42,593.99 600.16,573.11 600.5,571.45 600.5,441.56 599.65,441.56 599.65,433.85 600.5,432.42 600.5,428.5 "/>
<text transform="matrix(1 0 0 1 761.8748 646.5912)" class="st12 st13">Starship </text>
<polyline class="st4" points="688.13,429.44 688.13,432.06 688.65,433.1 688.65,441.08 688.13,441.08 688.13,572.01 688.74,573.57 
	689.47,594.93 690.22,574.05 690.55,572.39 690.55,442.5 689.7,442.5 689.7,434.8 690.55,433.36 690.55,429.44 "/>
<polyline class="st4" points="669.45,429.18 669.75,432.53 670.42,434.25 670.42,442.23 669.75,442.23 669.75,572.58 670.2,573.99 
	671.33,595.48 672.33,572.95 673.12,571.74 672.33,440.81 671.33,440.81 671.33,433.11 672.33,431.55 672.33,429.18 "/>
</svg>
