<svg width="263" height="141" viewBox="0 0 263 141" fill="none" xmlns="http://www.w3.org/2000/svg">
<path d="M103.632 29.3311H110.241L111.687 27.0537H102.223L103.632 29.3311Z" fill="#DADADA" stroke="black" stroke-width="0.5" stroke-miterlimit="10"/>
<path d="M111.03 10.4332L109.841 6.32985C108.965 3.31134 104.677 3.36102 103.876 6.40438L102.802 10.4829C102.413 11.9528 102.219 13.4641 102.219 14.9838V27.0537H111.683V15.0541C111.687 13.489 111.468 11.9321 111.03 10.4332Z" fill="#DADADA" stroke="black" stroke-width="0.5" stroke-miterlimit="10"/>
<path d="M106.937 4.07324V27.0537" stroke="black" stroke-width="0.5" stroke-miterlimit="10"/>
<path d="M104.227 137.459L103.545 139.604H110.568L109.775 137.459H104.227Z" fill="#4D4D4D" stroke="black" stroke-width="0.5" stroke-miterlimit="10"/>
<path d="M108.213 139.604H105.739V140.006H108.213V139.604Z" fill="#4D4D4D" stroke="black" stroke-width="0.5" stroke-miterlimit="10"/>
<path d="M109.775 137.459L108.213 139.604L107.057 137.459L105.739 139.604L104.227 137.459H109.775Z" fill="#4D4D4D" stroke="black" stroke-width="0.5" stroke-miterlimit="10" stroke-linecap="round" stroke-linejoin="round"/>
<path d="M110.448 130.983H103.839V137.608H110.448V130.983Z" fill="#4D4D4D" stroke="black" stroke-width="0.5" stroke-miterlimit="10"/>
<path d="M103.425 59.3506H110.448V130.983H103.839L103.425 59.3506Z" fill="#B2B2B2" stroke="black" stroke-width="0.5" stroke-miterlimit="10"/>
<path d="M103.425 116.545L102.723 136.275H106.97L104.454 116.499C104.376 115.866 103.45 115.912 103.425 116.545Z" fill="#4D4D4D" stroke="black" stroke-width="0.5" stroke-miterlimit="10"/>
<path d="M107.317 136.275H111.481L110.7 116.694C110.675 116.056 109.742 116.019 109.667 116.653L107.317 136.275Z" fill="#4D4D4D" stroke="black" stroke-width="0.5" stroke-miterlimit="10"/>
<path d="M106.495 136.275L104.574 128.996C104.392 128.313 103.405 128.4 103.343 129.104L102.723 136.275H111.481L110.659 128.996C110.584 128.325 109.63 128.271 109.481 128.93L107.796 136.275" fill="#4D4D4D"/>
<path d="M106.495 136.275L104.574 128.996C104.392 128.313 103.405 128.4 103.343 129.104L102.723 136.275H111.481L110.659 128.996C110.584 128.325 109.63 128.271 109.481 128.93L107.796 136.275" stroke="black" stroke-width="0.5" stroke-miterlimit="10"/>
<path d="M103.752 128.528L103.963 116.048" stroke="black" stroke-width="0.5" stroke-miterlimit="10"/>
<path d="M110.06 128.528L110.279 116.206" stroke="black" stroke-width="0.5" stroke-miterlimit="10"/>
<path d="M110.448 46.1006H103.425V59.3506H110.448V46.1006Z" fill="#4D4D4D" stroke="black" stroke-width="0.5" stroke-miterlimit="10"/>
<path d="M103.012 61.835H105.429V58.6467C105.094 57.4128 103.347 57.4128 103.012 58.6467V61.835Z" fill="#4D4D4D" stroke="black" stroke-width="0.5" stroke-miterlimit="10"/>
<path d="M108.498 61.835H111.076V58.5307C110.7 57.2678 108.907 57.2761 108.548 58.5473L108.498 58.7212V61.835Z" fill="#4D4D4D" stroke="black" stroke-width="0.5" stroke-miterlimit="10"/>
<path d="M110.448 29.124H103.425V46.1006H110.448V29.124Z" fill="#B2B2B2" stroke="black" stroke-width="0.5" stroke-miterlimit="10"/>
<path d="M110.448 61.835V116.197L110.7 116.698L111.48 136.279H110.448V137.613H109.828L110.567 139.608H108.213V140.01H105.738V139.608H103.545L104.227 137.613H103.838V136.279H102.723L103.425 116.549L103.747 116.048L103.425 61.835H103.012V58.6467L103.425 58.0007V29.124L102 26.9585V14.8885C102 13.3689 102.194 11.8576 102.582 10.3877L103.656 6.30917C104.458 3.26995 108.746 3.21613 109.621 6.23464L110.811 10.338C111.245 11.8369 111.468 13.3938 111.468 14.9589V26.9585L110.452 29.124L110.654 57.9014L111.075 58.5307V61.835H110.448Z" stroke="black" stroke-width="1.5" stroke-miterlimit="10"/>
<path d="M154.063 29.3699H160.672L162.118 27.0925H152.654L154.063 29.3699Z" fill="#DADADA" stroke="black" stroke-width="0.5" stroke-miterlimit="10"/>
<path d="M161.466 10.472L160.276 6.36868C159.4 3.35017 155.112 3.39985 154.311 6.44321L153.237 10.5217C152.849 11.9917 152.654 13.503 152.654 15.0226V27.0925H162.118V15.093C162.118 13.5278 161.899 11.971 161.466 10.472Z" fill="#DADADA" stroke="black" stroke-width="0.5" stroke-miterlimit="10"/>
<path d="M157.368 4.11205V27.0925" stroke="black" stroke-width="0.5" stroke-miterlimit="10"/>
<path d="M154.658 137.498L153.98 139.643H161.003L160.206 137.498H154.658Z" fill="#4D4D4D" stroke="black" stroke-width="0.5" stroke-miterlimit="10"/>
<path d="M158.644 139.643H156.17V140.045H158.644V139.643Z" fill="#4D4D4D" stroke="black" stroke-width="0.5" stroke-miterlimit="10"/>
<path d="M160.206 137.498L158.648 139.643L157.492 137.498L156.17 139.643L154.658 137.498H160.206Z" fill="#4D4D4D" stroke="black" stroke-width="0.5" stroke-miterlimit="10" stroke-linecap="round" stroke-linejoin="round"/>
<path d="M160.879 131.022H154.27V137.647H160.879V131.022Z" fill="#4D4D4D" stroke="black" stroke-width="0.5" stroke-miterlimit="10"/>
<path d="M153.857 59.3894H160.879V131.022H154.27L153.857 59.3894Z" fill="#B2B2B2" stroke="black" stroke-width="0.5" stroke-miterlimit="10"/>
<path d="M153.861 116.584L153.159 136.314H157.405L154.89 116.538C154.807 115.905 153.882 115.946 153.861 116.584Z" fill="#B2B2B2" stroke="black" stroke-width="0.5" stroke-miterlimit="10"/>
<path d="M157.752 136.314H161.912L161.131 116.733C161.106 116.095 160.173 116.058 160.098 116.692L157.752 136.314Z" fill="#B2B2B2" stroke="black" stroke-width="0.5" stroke-miterlimit="10"/>
<path d="M156.926 136.314L155.005 129.035C154.823 128.352 153.836 128.438 153.774 129.142L153.154 136.314H161.912L161.09 129.035C161.015 128.364 160.061 128.31 159.912 128.968L158.227 136.314" fill="#B2B2B2"/>
<path d="M156.926 136.314L155.005 129.035C154.823 128.352 153.836 128.438 153.774 129.142L153.154 136.314H161.912L161.09 129.035C161.015 128.364 160.061 128.31 159.912 128.968L158.227 136.314" stroke="black" stroke-width="0.5" stroke-miterlimit="10"/>
<path d="M154.183 128.567L154.398 116.083" stroke="black" stroke-width="0.5" stroke-miterlimit="10"/>
<path d="M160.491 128.567L160.71 116.244" stroke="black" stroke-width="0.5" stroke-miterlimit="10"/>
<path d="M160.879 46.1394H153.857V59.3894H160.879V46.1394Z" fill="#B2B2B2" stroke="black" stroke-width="0.5" stroke-miterlimit="10"/>
<path d="M153.443 61.8738H155.86V58.6855C155.525 57.4516 153.778 57.4516 153.443 58.6855V61.8738Z" fill="#4D4D4D" stroke="black" stroke-width="0.5" stroke-miterlimit="10"/>
<path d="M158.516 61.8738H161.094V58.5695C160.718 57.3067 158.925 57.3149 158.566 58.5861L158.516 58.76V61.8738Z" fill="#4D4D4D" stroke="black" stroke-width="0.5" stroke-miterlimit="10"/>
<path d="M160.879 29.1628H153.857V46.1394H160.879V29.1628Z" fill="#B2B2B2" stroke="black" stroke-width="0.5" stroke-miterlimit="10"/>
<path d="M146.111 59.9525H152.791V58.4453C152.791 56.8595 152.535 55.2819 152.039 53.7747C151.192 51.2158 147.561 51.2779 146.801 53.8617C146.392 55.2488 146.173 56.6856 146.148 58.1306L146.111 59.9525Z" fill="#B2B2B2" stroke="black" stroke-width="0.5" stroke-miterlimit="10"/>
<path d="M161.808 59.9525H168.488V58.4453C168.488 56.8595 168.232 55.2819 167.736 53.7747C166.889 51.2158 163.258 51.2779 162.498 53.8617C162.089 55.2488 161.87 56.6856 161.846 58.1306L161.808 59.9525Z" fill="#B2B2B2" stroke="black" stroke-width="0.5" stroke-miterlimit="10"/>
<path d="M152.791 59.9525H145.768V136.14H152.791V59.9525Z" fill="#B2B2B2" stroke="black" stroke-width="0.5" stroke-miterlimit="10"/>
<path d="M168.901 59.9525H161.879V136.14H168.901V59.9525Z" fill="#B2B2B2" stroke="black" stroke-width="0.5" stroke-miterlimit="10"/>
<path d="M145.417 62.4617H147.834V59.2735C147.499 58.0395 145.752 58.0395 145.417 59.2735V62.4617Z" fill="#4D4D4D" stroke="black" stroke-width="0.5" stroke-miterlimit="10"/>
<path d="M150.49 62.4617H153.068V59.1575C152.692 57.8946 150.899 57.9029 150.539 59.1741L150.49 59.348V62.4617Z" fill="#4D4D4D" stroke="black" stroke-width="0.5" stroke-miterlimit="10"/>
<path d="M161.528 62.4617H163.944V59.2735C163.61 58.0395 161.862 58.0395 161.528 59.2735V62.4617Z" fill="#4D4D4D" stroke="black" stroke-width="0.5" stroke-miterlimit="10"/>
<path d="M152.828 131.105H146.219V137.73H152.828V131.105Z" fill="#4D4D4D" stroke="black" stroke-width="0.5" stroke-miterlimit="10"/>
<path d="M166.6 62.4617H169.178V59.1575C168.802 57.8946 167.009 57.9029 166.65 59.1741L166.6 59.348V62.4617Z" fill="#4D4D4D" stroke="black" stroke-width="0.5" stroke-miterlimit="10"/>
<path d="M168.938 131.105H162.329V137.73H168.938V131.105Z" fill="#4D4D4D" stroke="black" stroke-width="0.5" stroke-miterlimit="10"/>
<path d="M145.707 116.87L145.004 136.6H149.251L146.735 116.824C146.653 116.191 145.727 116.232 145.707 116.87Z" fill="#B2B2B2" stroke="black" stroke-width="0.5" stroke-miterlimit="10"/>
<path d="M149.598 136.6H153.757L152.977 117.019C152.952 116.381 152.018 116.344 151.944 116.977L149.598 136.6Z" fill="#B2B2B2" stroke="black" stroke-width="0.5" stroke-miterlimit="10"/>
<path d="M148.771 136.6L146.851 129.32C146.669 128.637 145.682 128.724 145.62 129.428L145 136.6H153.757L152.935 129.32C152.861 128.65 151.907 128.596 151.758 129.254L150.073 136.6" fill="#B2B2B2"/>
<path d="M148.771 136.6L146.851 129.32C146.669 128.637 145.682 128.724 145.62 129.428L145 136.6H153.757L152.935 129.32C152.861 128.65 151.907 128.596 151.758 129.254L150.073 136.6" stroke="black" stroke-width="0.5" stroke-miterlimit="10"/>
<path d="M146.029 128.853L146.244 116.369" stroke="black" stroke-width="0.5" stroke-miterlimit="10"/>
<path d="M152.556 116.53L152.336 128.853" stroke="black" stroke-width="0.5" stroke-miterlimit="10"/>
<path d="M161.738 116.932L161.036 136.662H165.283L162.771 116.886C162.688 116.253 161.763 116.298 161.738 116.932Z" fill="#B2B2B2" stroke="black" stroke-width="0.5" stroke-miterlimit="10"/>
<path d="M165.634 136.662H169.793L169.013 117.081C168.988 116.443 168.054 116.406 167.98 117.039L165.634 136.662Z" fill="#B2B2B2" stroke="black" stroke-width="0.5" stroke-miterlimit="10"/>
<path d="M164.807 136.662L162.887 129.383C162.705 128.699 161.718 128.786 161.656 129.49L161.036 136.662H169.793L168.971 129.383C168.897 128.712 167.943 128.658 167.794 129.316L166.109 136.662" fill="#B2B2B2"/>
<path d="M164.807 136.662L162.887 129.383C162.705 128.699 161.718 128.786 161.656 129.49L161.036 136.662H169.793L168.971 129.383C168.897 128.712 167.943 128.658 167.794 129.316L166.109 136.662" stroke="black" stroke-width="0.5" stroke-miterlimit="10"/>
<path d="M162.065 128.915L162.28 116.435" stroke="black" stroke-width="0.5" stroke-miterlimit="10"/>
<path d="M168.372 128.915L168.592 116.592" stroke="black" stroke-width="0.5" stroke-miterlimit="10"/>
<path d="M162.717 137.581L162.04 139.726H169.062L168.265 137.581H162.717Z" fill="#4D4D4D" stroke="black" stroke-width="0.5" stroke-miterlimit="10"/>
<path d="M166.708 139.726H164.233V140.127H166.708V139.726Z" fill="#4D4D4D" stroke="black" stroke-width="0.5" stroke-miterlimit="10"/>
<path d="M168.265 137.581L166.708 139.726L165.551 137.581L164.233 139.726L162.717 137.581H168.265Z" fill="#4D4D4D" stroke="black" stroke-width="0.5" stroke-miterlimit="10" stroke-linecap="round" stroke-linejoin="round"/>
<path d="M146.607 137.581L145.929 139.726H152.952L152.155 137.581H146.607Z" fill="#4D4D4D" stroke="black" stroke-width="0.5" stroke-miterlimit="10"/>
<path d="M150.597 139.726H148.123V140.127H150.597V139.726Z" fill="#4D4D4D" stroke="black" stroke-width="0.5" stroke-miterlimit="10"/>
<path d="M152.155 137.581L150.597 139.726L149.441 137.581L148.123 139.726L146.607 137.581H152.155Z" fill="#4D4D4D" stroke="black" stroke-width="0.5" stroke-miterlimit="10" stroke-linecap="round" stroke-linejoin="round"/>
<path d="M165.183 56.64H149.073V57.0541H165.183V56.64Z" fill="#B2B2B2" stroke="black" stroke-width="0.5" stroke-miterlimit="10"/>
<path d="M160.916 29.1255L161.932 26.96V14.9605C161.932 13.3995 161.713 11.8426 161.275 10.3395L160.086 6.23617C159.21 3.21766 154.922 3.26735 154.121 6.31071L153.047 10.3892C152.658 11.8591 152.464 13.3705 152.464 14.8901V26.96L153.889 29.1255L153.856 56.64H152.791C152.791 56.64 152.514 51.899 149.453 51.8866C149.453 51.8866 145.888 51.3441 146.14 58.4412L145.421 59.2693V62.4576H145.772L145.71 116.865L145.008 136.595H146.227V137.73H146.57L145.938 139.726H148.131V140.127H150.605V139.726H152.96L152.221 137.73H152.84V136.595H153.77V136.31H154.282V137.643H154.625L153.993 139.639H156.186V140.04H158.661V139.639H161.015L160.276 137.643H160.895V136.31L161.073 136.314L161.052 136.658H162.345V137.726H162.688L162.056 139.722H164.25V140.123H166.724V139.722H169.079L168.339 137.726H168.959V136.658H169.814L168.922 116.588V62.4617H169.198V59.1575L168.509 58.2134C168.509 58.2134 168.649 51.899 165.171 51.8866C165.171 51.8866 162.519 51.0502 161.899 56.64H160.899L160.916 29.1255Z" stroke="black" stroke-width="1.5" stroke-miterlimit="10"/>
<path d="M152.667 57.0541L152.791 58.4453L153.067 59.1575V62.4617H152.791V116.435L152.977 117.019L153.443 125.913L153.861 116.584L154.183 116.083L153.856 61.8738H153.443V58.6813L153.856 58.0354V57.0541" stroke="black" stroke-width="1.5" stroke-miterlimit="10"/>
<path d="M160.879 57.0541V58.1389L161.094 58.5695V61.8738H160.879V116.083L161.131 116.733L161.433 125.577L161.738 116.932L161.879 116.244V62.4617H161.528V59.2693L161.879 58.6772V57.0541" stroke="black" stroke-width="1.5" stroke-miterlimit="10"/>
<path d="M194 4V15H263" stroke="black"/>
<path d="M78 4V15H0" stroke="black"/>
<path d="M194 33V44H263" stroke="black"/>
<path d="M78 33V44H0" stroke="black"/>
<path d="M194 62V73H263" stroke="black"/>
<path d="M78 62V73H0" stroke="black"/>
<path d="M201.856 11.144C203.296 11.144 204.472 10.328 204.472 8.948C204.472 7.916 203.764 7.256 202.852 7.028V6.98C203.68 6.656 204.208 6.08 204.208 5.192C204.208 3.932 203.224 3.212 201.82 3.212C200.908 3.212 200.188 3.608 199.564 4.172L200.2 4.928C200.656 4.484 201.16 4.184 201.772 4.184C202.528 4.184 202.984 4.604 202.984 5.288C202.984 6.032 202.468 6.596 200.92 6.596V7.496C202.696 7.496 203.248 8.048 203.248 8.888C203.248 9.668 202.636 10.148 201.76 10.148C200.944 10.148 200.356 9.752 199.888 9.284L199.3 10.064C199.828 10.652 200.632 11.144 201.856 11.144ZM208.785 11.096C208.945 11.096 209.049 11.072 209.137 11.04L209.057 10.592C208.977 10.608 208.945 10.608 208.913 10.608C208.817 10.608 208.729 10.528 208.729 10.336V5.288H208.153V10.288C208.153 10.816 208.345 11.096 208.785 11.096ZM211.033 11.096C211.521 11.096 211.961 10.84 212.337 10.528H212.361L212.409 11H212.889V8.6C212.889 7.664 212.513 7.024 211.577 7.024C210.953 7.024 210.409 7.312 210.073 7.536L210.305 7.936C210.601 7.736 211.017 7.512 211.481 7.512C212.145 7.512 212.313 8.032 212.313 8.552C210.641 8.736 209.897 9.152 209.897 10C209.897 10.712 210.393 11.096 211.033 11.096ZM211.185 10.624C210.793 10.624 210.473 10.432 210.473 9.968C210.473 9.44 210.937 9.104 212.313 8.944V10.08C211.913 10.432 211.577 10.624 211.185 10.624ZM214.16 11H214.736V8.16C215.144 7.744 215.44 7.536 215.848 7.536C216.392 7.536 216.616 7.864 216.616 8.608V11H217.2V8.536C217.2 7.544 216.832 7.024 216.016 7.024C215.488 7.024 215.088 7.32 214.712 7.696H214.688L214.64 7.12H214.16V11ZM218.064 11H220.976V10.52H218.8L220.904 7.432V7.12H218.296V7.6H220.168L218.064 10.688V11ZM222.54 11.096C223.028 11.096 223.468 10.84 223.844 10.528H223.868L223.916 11H224.396V8.6C224.396 7.664 224.02 7.024 223.084 7.024C222.46 7.024 221.916 7.312 221.58 7.536L221.812 7.936C222.108 7.736 222.524 7.512 222.988 7.512C223.652 7.512 223.82 8.032 223.82 8.552C222.148 8.736 221.404 9.152 221.404 10C221.404 10.712 221.9 11.096 222.54 11.096ZM222.692 10.624C222.3 10.624 221.98 10.432 221.98 9.968C221.98 9.44 222.444 9.104 223.82 8.944V10.08C223.42 10.432 223.084 10.624 222.692 10.624ZM225.668 11H226.244V8.16C226.62 7.744 226.956 7.536 227.268 7.536C227.78 7.536 228.02 7.864 228.02 8.608V11H228.604V8.16C228.98 7.744 229.308 7.536 229.62 7.536C230.14 7.536 230.38 7.864 230.38 8.608V11H230.964V8.536C230.964 7.544 230.58 7.024 229.788 7.024C229.324 7.024 228.916 7.328 228.5 7.776C228.348 7.32 228.028 7.024 227.428 7.024C226.972 7.024 226.564 7.32 226.22 7.696H226.196L226.148 7.12H225.668V11ZM232.566 6.288C232.798 6.288 232.966 6.128 232.966 5.88C232.966 5.648 232.798 5.488 232.566 5.488C232.334 5.488 232.166 5.648 232.166 5.88C232.166 6.128 232.334 6.288 232.566 6.288ZM232.27 11H232.846V7.12H232.27V11ZM237.167 8.84C237.167 7.72 236.607 7.024 235.639 7.024C234.751 7.024 233.903 7.808 233.903 9.064C233.903 10.336 234.727 11.096 235.743 11.096C236.287 11.096 236.679 10.912 237.015 10.696L236.799 10.312C236.511 10.504 236.199 10.624 235.815 10.624C235.111 10.624 234.519 10.136 234.463 9.192H237.143C237.159 9.096 237.167 8.968 237.167 8.84ZM234.479 8.768C234.575 7.896 235.119 7.496 235.647 7.496C236.271 7.496 236.647 7.936 236.647 8.768H234.479ZM238.145 11H238.721V8.16C239.129 7.744 239.425 7.536 239.833 7.536C240.377 7.536 240.601 7.864 240.601 8.608V11H241.185V8.536C241.185 7.544 240.817 7.024 240.001 7.024C239.473 7.024 239.073 7.32 238.697 7.696H238.673L238.625 7.12H238.145V11ZM243.665 11.096C243.889 11.096 244.145 11.024 244.361 10.952L244.241 10.512C244.113 10.56 243.929 10.616 243.793 10.616C243.321 10.616 243.177 10.328 243.177 9.848V7.6H244.241V7.12H243.177V6.024H242.689L242.617 7.12L242.009 7.16V7.6H242.593V9.832C242.593 10.584 242.857 11.096 243.665 11.096ZM246.515 11.096C247.459 11.096 248.299 10.352 248.299 9.064C248.299 7.776 247.459 7.024 246.515 7.024C245.571 7.024 244.731 7.776 244.731 9.064C244.731 10.352 245.571 11.096 246.515 11.096ZM246.515 10.608C245.819 10.608 245.339 9.992 245.339 9.064C245.339 8.144 245.819 7.512 246.515 7.512C247.211 7.512 247.699 8.144 247.699 9.064C247.699 9.992 247.211 10.608 246.515 10.608ZM250.332 11.096C251.228 11.096 251.724 10.576 251.724 9.96C251.724 9.216 251.084 9 250.516 8.784C250.076 8.616 249.644 8.464 249.644 8.08C249.644 7.768 249.884 7.488 250.396 7.488C250.756 7.488 251.028 7.64 251.292 7.832L251.572 7.456C251.276 7.216 250.86 7.024 250.396 7.024C249.564 7.024 249.076 7.504 249.076 8.112C249.076 8.768 249.7 9.024 250.252 9.224C250.692 9.384 251.156 9.576 251.156 9.992C251.156 10.344 250.892 10.64 250.356 10.64C249.868 10.64 249.524 10.44 249.188 10.168L248.892 10.56C249.252 10.864 249.78 11.096 250.332 11.096Z" fill="black"/>
<path d="M6.54 11H11.016V10.004H9.48V3.356H8.568C8.112 3.632 7.596 3.824 6.864 3.956V4.724H8.268V10.004H6.54V11ZM14.6027 11.144C16.1267 11.144 17.1347 10.244 17.1347 9.08C17.1347 8.06 16.5107 7.508 15.8147 7.1V7.052C16.2947 6.704 16.8467 6.044 16.8467 5.264C16.8467 4.052 15.9947 3.212 14.6387 3.212C13.3547 3.212 12.3947 4.004 12.3947 5.216C12.3947 6.02 12.8747 6.584 13.4507 6.992V7.04C12.7307 7.424 12.0467 8.072 12.0467 9.044C12.0467 10.268 13.1387 11.144 14.6027 11.144ZM15.1187 6.752C14.2427 6.404 13.4867 6.044 13.4867 5.216C13.4867 4.52 13.9787 4.088 14.6147 4.088C15.3827 4.088 15.8267 4.628 15.8267 5.336C15.8267 5.852 15.5747 6.32 15.1187 6.752ZM14.6267 10.268C13.7747 10.268 13.1267 9.716 13.1267 8.924C13.1267 8.288 13.5227 7.76 14.0507 7.388C15.1187 7.82 15.9947 8.144 15.9947 9.044C15.9947 9.788 15.4307 10.268 14.6267 10.268ZM18.165 11H22.641V10.004H21.105V3.356H20.193C19.737 3.632 19.221 3.824 18.489 3.956V4.724H19.893V10.004H18.165V11ZM26.894 11.096C27.054 11.096 27.158 11.072 27.246 11.04L27.166 10.592C27.086 10.608 27.054 10.608 27.022 10.608C26.926 10.608 26.838 10.528 26.838 10.336V5.288H26.262V10.288C26.262 10.816 26.454 11.096 26.894 11.096ZM29.142 11.096C29.63 11.096 30.07 10.84 30.446 10.528H30.47L30.518 11H30.998V8.6C30.998 7.664 30.622 7.024 29.686 7.024C29.062 7.024 28.518 7.312 28.182 7.536L28.414 7.936C28.71 7.736 29.126 7.512 29.59 7.512C30.254 7.512 30.422 8.032 30.422 8.552C28.75 8.736 28.006 9.152 28.006 10C28.006 10.712 28.502 11.096 29.142 11.096ZM29.294 10.624C28.902 10.624 28.582 10.432 28.582 9.968C28.582 9.44 29.046 9.104 30.422 8.944V10.08C30.022 10.432 29.686 10.624 29.294 10.624ZM32.2698 11H32.8458V8.16C33.2538 7.744 33.5498 7.536 33.9578 7.536C34.5018 7.536 34.7258 7.864 34.7258 8.608V11H35.3098V8.536C35.3098 7.544 34.9418 7.024 34.1258 7.024C33.5978 7.024 33.1978 7.32 32.8218 7.696H32.7978L32.7498 7.12H32.2698V11ZM36.1736 11H39.0856V10.52H36.9096L39.0136 7.432V7.12H36.4056V7.6H38.2776L36.1736 10.688V11ZM40.6498 11.096C41.1378 11.096 41.5778 10.84 41.9538 10.528H41.9778L42.0258 11H42.5058V8.6C42.5058 7.664 42.1298 7.024 41.1938 7.024C40.5698 7.024 40.0258 7.312 39.6898 7.536L39.9218 7.936C40.2178 7.736 40.6338 7.512 41.0978 7.512C41.7618 7.512 41.9298 8.032 41.9298 8.552C40.2578 8.736 39.5138 9.152 39.5138 10C39.5138 10.712 40.0098 11.096 40.6498 11.096ZM40.8018 10.624C40.4098 10.624 40.0898 10.432 40.0898 9.968C40.0898 9.44 40.5538 9.104 41.9298 8.944V10.08C41.5298 10.432 41.1938 10.624 40.8018 10.624ZM43.7777 11H44.3537V8.16C44.7297 7.744 45.0657 7.536 45.3777 7.536C45.8897 7.536 46.1297 7.864 46.1297 8.608V11H46.7137V8.16C47.0897 7.744 47.4177 7.536 47.7297 7.536C48.2497 7.536 48.4897 7.864 48.4897 8.608V11H49.0737V8.536C49.0737 7.544 48.6897 7.024 47.8977 7.024C47.4337 7.024 47.0257 7.328 46.6097 7.776C46.4577 7.32 46.1377 7.024 45.5377 7.024C45.0817 7.024 44.6737 7.32 44.3297 7.696H44.3057L44.2577 7.12H43.7777V11ZM50.6752 6.288C50.9072 6.288 51.0752 6.128 51.0752 5.88C51.0752 5.648 50.9072 5.488 50.6752 5.488C50.4432 5.488 50.2752 5.648 50.2752 5.88C50.2752 6.128 50.4432 6.288 50.6752 6.288ZM50.3792 11H50.9552V7.12H50.3792V11ZM55.2767 8.84C55.2767 7.72 54.7167 7.024 53.7487 7.024C52.8607 7.024 52.0127 7.808 52.0127 9.064C52.0127 10.336 52.8367 11.096 53.8527 11.096C54.3967 11.096 54.7887 10.912 55.1247 10.696L54.9087 10.312C54.6207 10.504 54.3087 10.624 53.9247 10.624C53.2207 10.624 52.6287 10.136 52.5727 9.192H55.2527C55.2687 9.096 55.2767 8.968 55.2767 8.84ZM52.5887 8.768C52.6847 7.896 53.2287 7.496 53.7567 7.496C54.3807 7.496 54.7567 7.936 54.7567 8.768H52.5887ZM56.2542 11H56.8302V8.16C57.2382 7.744 57.5342 7.536 57.9422 7.536C58.4862 7.536 58.7102 7.864 58.7102 8.608V11H59.2942V8.536C59.2942 7.544 58.9262 7.024 58.1102 7.024C57.5822 7.024 57.1822 7.32 56.8062 7.696H56.7822L56.7342 7.12H56.2542V11ZM61.774 11.096C61.998 11.096 62.254 11.024 62.47 10.952L62.35 10.512C62.222 10.56 62.038 10.616 61.902 10.616C61.43 10.616 61.286 10.328 61.286 9.848V7.6H62.35V7.12H61.286V6.024H60.798L60.726 7.12L60.118 7.16V7.6H60.702V9.832C60.702 10.584 60.966 11.096 61.774 11.096ZM64.6248 11.096C65.5688 11.096 66.4088 10.352 66.4088 9.064C66.4088 7.776 65.5688 7.024 64.6248 7.024C63.6808 7.024 62.8408 7.776 62.8408 9.064C62.8408 10.352 63.6808 11.096 64.6248 11.096ZM64.6248 10.608C63.9288 10.608 63.4488 9.992 63.4488 9.064C63.4488 8.144 63.9288 7.512 64.6248 7.512C65.3208 7.512 65.8088 8.144 65.8088 9.064C65.8088 9.992 65.3208 10.608 64.6248 10.608ZM68.4415 11.096C69.3375 11.096 69.8335 10.576 69.8335 9.96C69.8335 9.216 69.1935 9 68.6255 8.784C68.1855 8.616 67.7535 8.464 67.7535 8.08C67.7535 7.768 67.9935 7.488 68.5055 7.488C68.8655 7.488 69.1375 7.64 69.4015 7.832L69.6815 7.456C69.3855 7.216 68.9695 7.024 68.5055 7.024C67.6735 7.024 67.1855 7.504 67.1855 8.112C67.1855 8.768 67.8095 9.024 68.3615 9.224C68.8015 9.384 69.2655 9.576 69.2655 9.992C69.2655 10.344 69.0015 10.64 68.4655 10.64C67.9775 10.64 67.6335 10.44 67.2975 10.168L67.0015 10.56C67.3615 10.864 67.8895 11.096 68.4415 11.096Z" fill="black"/>
<path d="M201.064 41C201.112 40.072 201.208 39.24 201.352 38.504C201.504 37.768 201.728 37.072 202.024 36.416C202.328 35.752 202.728 35.076 203.224 34.388H199.528V33.356H204.568V34.1C204.112 34.66 203.744 35.2 203.464 35.72C203.184 36.232 202.964 36.752 202.804 37.28C202.652 37.808 202.536 38.372 202.456 38.972C202.384 39.572 202.332 40.248 202.3 41H201.064ZM209.033 41.096C208.819 41.096 208.627 41.0533 208.457 40.968C208.286 40.8827 208.15 40.76 208.049 40.6C207.947 40.4347 207.897 40.2347 207.897 40C207.897 39.5787 208.089 39.256 208.473 39.032C208.862 38.8027 209.475 38.6427 210.313 38.552C210.313 38.376 210.289 38.208 210.241 38.048C210.198 37.888 210.115 37.76 209.993 37.664C209.875 37.5627 209.705 37.512 209.481 37.512C209.246 37.512 209.027 37.5573 208.825 37.648C208.627 37.7387 208.454 37.8347 208.305 37.936L208.073 37.536C208.185 37.4613 208.318 37.384 208.473 37.304C208.627 37.224 208.798 37.1573 208.985 37.104C209.171 37.0507 209.369 37.024 209.577 37.024C209.891 37.024 210.145 37.0907 210.337 37.224C210.529 37.3573 210.667 37.5413 210.753 37.776C210.843 38.0107 210.889 38.2853 210.889 38.6V41H210.409L210.361 40.528H210.337C210.15 40.6827 209.947 40.816 209.729 40.928C209.51 41.04 209.278 41.096 209.033 41.096ZM209.185 40.624C209.387 40.624 209.574 40.5787 209.745 40.488C209.921 40.392 210.11 40.256 210.313 40.08V38.944C209.854 38.9973 209.491 39.072 209.225 39.168C208.958 39.2587 208.766 39.3707 208.649 39.504C208.531 39.6373 208.473 39.792 208.473 39.968C208.473 40.1973 208.542 40.3653 208.681 40.472C208.825 40.5733 208.993 40.624 209.185 40.624ZM213.336 41.096C212.936 41.096 212.656 40.9787 212.496 40.744C212.342 40.5093 212.264 40.2053 212.264 39.832V37.6H211.68V37.16L212.288 37.12L212.36 36.024H212.848V37.12H213.912V37.6H212.848V39.848C212.848 40.088 212.891 40.2773 212.976 40.416C213.067 40.5493 213.23 40.616 213.464 40.616C213.534 40.616 213.608 40.6053 213.688 40.584C213.774 40.5627 213.848 40.5387 213.912 40.512L214.032 40.952C213.926 40.9893 213.811 41.0213 213.688 41.048C213.566 41.08 213.448 41.096 213.336 41.096ZM216.345 41.096C216.009 41.096 215.7 41.016 215.417 40.856C215.14 40.6907 214.918 40.4587 214.753 40.16C214.588 39.856 214.505 39.4907 214.505 39.064C214.505 38.6427 214.588 38.28 214.753 37.976C214.918 37.672 215.132 37.4373 215.393 37.272C215.66 37.1067 215.942 37.024 216.241 37.024C216.561 37.024 216.836 37.0987 217.065 37.248C217.294 37.3973 217.468 37.608 217.585 37.88C217.708 38.1467 217.769 38.4667 217.769 38.84C217.769 38.904 217.766 38.968 217.761 39.032C217.761 39.0907 217.756 39.144 217.745 39.192H214.961L214.953 38.768H217.249C217.249 38.352 217.161 38.0373 216.985 37.824C216.809 37.6053 216.564 37.496 216.249 37.496C216.057 37.496 215.87 37.552 215.689 37.664C215.508 37.776 215.358 37.9467 215.241 38.176C215.124 38.4053 215.065 38.7013 215.065 39.064C215.065 39.4107 215.126 39.6987 215.249 39.928C215.372 40.1573 215.534 40.3307 215.737 40.448C215.945 40.5653 216.172 40.624 216.417 40.624C216.614 40.624 216.79 40.5947 216.945 40.536C217.105 40.4773 217.257 40.4027 217.401 40.312L217.617 40.696C217.452 40.8027 217.265 40.896 217.057 40.976C216.854 41.056 216.617 41.096 216.345 41.096ZM218.746 41V37.12H219.226L219.274 37.832H219.298C219.432 37.5867 219.592 37.392 219.778 37.248C219.97 37.0987 220.178 37.024 220.402 37.024C220.482 37.024 220.554 37.032 220.618 37.048C220.682 37.0587 220.744 37.0773 220.802 37.104L220.69 37.616C220.626 37.5947 220.568 37.5787 220.514 37.568C220.466 37.5573 220.402 37.552 220.322 37.552C220.157 37.552 219.984 37.6213 219.802 37.76C219.621 37.8933 219.461 38.1307 219.322 38.472V41H218.746ZM221.465 41V37.12H221.945L221.993 37.832H222.017C222.15 37.5867 222.31 37.392 222.497 37.248C222.689 37.0987 222.897 37.024 223.121 37.024C223.201 37.024 223.273 37.032 223.337 37.048C223.401 37.0587 223.462 37.0773 223.521 37.104L223.409 37.616C223.345 37.5947 223.286 37.5787 223.233 37.568C223.185 37.5573 223.121 37.552 223.041 37.552C222.876 37.552 222.702 37.6213 222.521 37.76C222.34 37.8933 222.18 38.1307 222.041 38.472V41H221.465ZM224.184 41V37.12H224.76V41H224.184ZM224.48 36.288C224.368 36.288 224.272 36.2507 224.192 36.176C224.117 36.1013 224.08 36.0027 224.08 35.88C224.08 35.7627 224.117 35.6693 224.192 35.6C224.272 35.5253 224.368 35.488 224.48 35.488C224.597 35.488 224.693 35.5253 224.768 35.6C224.843 35.6693 224.88 35.7627 224.88 35.88C224.88 36.0027 224.843 36.1013 224.768 36.176C224.693 36.2507 224.597 36.288 224.48 36.288ZM225.681 41V40.688L227.785 37.6H225.913V37.12H228.521V37.432L226.417 40.52H228.593V41H225.681ZM230.353 41.096C230.14 41.096 229.948 41.0533 229.777 40.968C229.606 40.8827 229.47 40.76 229.369 40.6C229.268 40.4347 229.217 40.2347 229.217 40C229.217 39.5787 229.409 39.256 229.793 39.032C230.182 38.8027 230.796 38.6427 231.633 38.552C231.633 38.376 231.609 38.208 231.561 38.048C231.518 37.888 231.436 37.76 231.313 37.664C231.196 37.5627 231.025 37.512 230.801 37.512C230.566 37.512 230.348 37.5573 230.145 37.648C229.948 37.7387 229.774 37.8347 229.625 37.936L229.393 37.536C229.505 37.4613 229.638 37.384 229.793 37.304C229.948 37.224 230.118 37.1573 230.305 37.104C230.492 37.0507 230.689 37.024 230.897 37.024C231.212 37.024 231.465 37.0907 231.657 37.224C231.849 37.3573 231.988 37.5413 232.073 37.776C232.164 38.0107 232.209 38.2853 232.209 38.6V41H231.729L231.681 40.528H231.657C231.47 40.6827 231.268 40.816 231.049 40.928C230.83 41.04 230.598 41.096 230.353 41.096ZM230.505 40.624C230.708 40.624 230.894 40.5787 231.065 40.488C231.241 40.392 231.43 40.256 231.633 40.08V38.944C231.174 38.9973 230.812 39.072 230.545 39.168C230.278 39.2587 230.086 39.3707 229.969 39.504C229.852 39.6373 229.793 39.792 229.793 39.968C229.793 40.1973 229.862 40.3653 230.001 40.472C230.145 40.5733 230.313 40.624 230.505 40.624ZM233.065 42.76C232.953 42.76 232.851 42.7493 232.761 42.728C232.665 42.7067 232.582 42.6853 232.513 42.664L232.633 42.216C232.681 42.232 232.737 42.2453 232.801 42.256C232.87 42.272 232.939 42.28 233.009 42.28C233.206 42.28 233.337 42.208 233.401 42.064C233.465 41.9253 233.497 41.7387 233.497 41.504L233.505 37.12H234.081V41.512C234.081 41.7733 234.046 41.9973 233.977 42.184C233.907 42.3707 233.798 42.512 233.649 42.608C233.499 42.7093 233.305 42.76 233.065 42.76ZM233.065 42.76C232.953 42.76 232.851 42.7493 232.761 42.728C232.665 42.7067 232.582 42.6853 232.513 42.664L232.633 42.216C232.681 42.232 232.737 42.2453 232.801 42.256C232.87 42.272 232.939 42.28 233.009 42.28C233.206 42.28 233.337 42.208 233.401 42.064C233.465 41.9253 233.497 41.7387 233.497 41.504L233.505 37.12H234.081V41.512C234.081 41.7733 234.046 41.9973 233.977 42.184C233.907 42.3707 233.798 42.512 233.649 42.608C233.499 42.7093 233.305 42.76 233.065 42.76ZM233.777 36.288C233.665 36.288 233.569 36.2507 233.489 36.176C233.414 36.1013 233.377 36.0027 233.377 35.88C233.377 35.7627 233.414 35.6693 233.489 35.6C233.569 35.5253 233.665 35.488 233.777 35.488C233.894 35.488 233.99 35.5253 234.065 35.6C234.139 35.6693 234.177 35.7627 234.177 35.88C234.177 36.0027 234.139 36.1013 234.065 36.176C233.99 36.2507 233.894 36.288 233.777 36.288ZM236.954 41.096C236.618 41.096 236.309 41.016 236.026 40.856C235.749 40.6907 235.528 40.4587 235.362 40.16C235.197 39.856 235.114 39.4907 235.114 39.064C235.114 38.6427 235.197 38.28 235.362 37.976C235.528 37.672 235.741 37.4373 236.002 37.272C236.269 37.1067 236.552 37.024 236.85 37.024C237.17 37.024 237.445 37.0987 237.674 37.248C237.904 37.3973 238.077 37.608 238.194 37.88C238.317 38.1467 238.378 38.4667 238.378 38.84C238.378 38.904 238.376 38.968 238.37 39.032C238.37 39.0907 238.365 39.144 238.354 39.192H235.57L235.562 38.768H237.858C237.858 38.352 237.77 38.0373 237.594 37.824C237.418 37.6053 237.173 37.496 236.858 37.496C236.666 37.496 236.48 37.552 236.298 37.664C236.117 37.776 235.968 37.9467 235.85 38.176C235.733 38.4053 235.674 38.7013 235.674 39.064C235.674 39.4107 235.736 39.6987 235.858 39.928C235.981 40.1573 236.144 40.3307 236.346 40.448C236.554 40.5653 236.781 40.624 237.026 40.624C237.224 40.624 237.4 40.5947 237.554 40.536C237.714 40.4773 237.866 40.4027 238.01 40.312L238.226 40.696C238.061 40.8027 237.874 40.896 237.666 40.976C237.464 41.056 237.226 41.096 236.954 41.096ZM240.348 41.096C240.07 41.096 239.806 41.0453 239.556 40.944C239.305 40.8373 239.089 40.7093 238.908 40.56L239.204 40.168C239.374 40.3013 239.55 40.4133 239.732 40.504C239.913 40.5947 240.126 40.64 240.372 40.64C240.638 40.64 240.838 40.576 240.972 40.448C241.105 40.32 241.172 40.168 241.172 39.992C241.172 39.8533 241.126 39.7387 241.036 39.648C240.945 39.552 240.83 39.472 240.692 39.408C240.553 39.3387 240.412 39.2773 240.268 39.224C240.086 39.16 239.905 39.0827 239.724 38.992C239.542 38.9013 239.39 38.7867 239.268 38.648C239.15 38.5093 239.092 38.3307 239.092 38.112C239.092 37.808 239.206 37.552 239.436 37.344C239.67 37.1307 239.996 37.024 240.412 37.024C240.646 37.024 240.865 37.0667 241.068 37.152C241.27 37.2373 241.444 37.3387 241.588 37.456L241.308 37.832C241.174 37.736 241.036 37.656 240.892 37.592C240.753 37.5227 240.593 37.488 240.412 37.488C240.156 37.488 239.966 37.5493 239.844 37.672C239.721 37.7893 239.66 37.9253 239.66 38.08C239.66 38.208 239.7 38.3147 239.78 38.4C239.865 38.48 239.974 38.5493 240.108 38.608C240.241 38.6667 240.382 38.7253 240.532 38.784C240.724 38.8533 240.91 38.9333 241.092 39.024C241.278 39.1093 241.433 39.224 241.556 39.368C241.678 39.512 241.74 39.7093 241.74 39.96C241.74 40.1627 241.686 40.352 241.58 40.528C241.473 40.6987 241.316 40.8373 241.108 40.944C240.9 41.0453 240.646 41.096 240.348 41.096Z" fill="black"/>
<path d="M6.54 40H11.016V39.004H9.48V32.356H8.568C8.112 32.632 7.596 32.824 6.864 32.956V33.724H8.268V39.004H6.54V40ZM17.3027 37.024H16.3067V32.356H14.9027L11.7707 37.156V37.972H15.1667V40H16.3067V37.972H17.3027V37.024ZM12.9947 37.024L14.5547 34.684C14.7707 34.288 14.9867 33.928 15.1787 33.544H15.2267C15.2027 33.964 15.1667 34.648 15.1667 35.08V37.024H12.9947ZM18.165 40H22.641V39.004H21.105V32.356H20.193C19.737 32.632 19.221 32.824 18.489 32.956V33.724H19.893V39.004H18.165V40ZM27.142 40.096C27.63 40.096 28.07 39.84 28.446 39.528H28.47L28.518 40H28.998V37.6C28.998 36.664 28.622 36.024 27.686 36.024C27.062 36.024 26.518 36.312 26.182 36.536L26.414 36.936C26.71 36.736 27.126 36.512 27.59 36.512C28.254 36.512 28.422 37.032 28.422 37.552C26.75 37.736 26.006 38.152 26.006 39C26.006 39.712 26.502 40.096 27.142 40.096ZM27.294 39.624C26.902 39.624 26.582 39.432 26.582 38.968C26.582 38.44 27.046 38.104 28.422 37.944V39.08C28.022 39.432 27.686 39.624 27.294 39.624ZM31.3443 40.096C31.5683 40.096 31.8243 40.024 32.0403 39.952L31.9203 39.512C31.7923 39.56 31.6083 39.616 31.4723 39.616C31.0003 39.616 30.8563 39.328 30.8563 38.848V36.6H31.9203V36.12H30.8563V35.024H30.3683L30.2963 36.12L29.6883 36.16V36.6H30.2723V38.832C30.2723 39.584 30.5363 40.096 31.3443 40.096ZM35.6752 37.84C35.6752 36.72 35.1152 36.024 34.1472 36.024C33.2592 36.024 32.4112 36.808 32.4112 38.064C32.4112 39.336 33.2352 40.096 34.2512 40.096C34.7952 40.096 35.1872 39.912 35.5232 39.696L35.3072 39.312C35.0192 39.504 34.7072 39.624 34.3232 39.624C33.6192 39.624 33.0272 39.136 32.9712 38.192H35.6512C35.6672 38.096 35.6752 37.968 35.6752 37.84ZM32.9872 37.768C33.0832 36.896 33.6272 36.496 34.1552 36.496C34.7792 36.496 35.1552 36.936 35.1552 37.768H32.9872ZM36.6527 40H37.2287V37.472C37.5007 36.8 37.9007 36.552 38.2287 36.552C38.3807 36.552 38.4687 36.576 38.5967 36.616L38.7087 36.104C38.5887 36.048 38.4687 36.024 38.3087 36.024C37.8607 36.024 37.4687 36.344 37.2047 36.832H37.1807L37.1327 36.12H36.6527V40ZM39.3714 40H39.9474V37.472C40.2194 36.8 40.6194 36.552 40.9474 36.552C41.0994 36.552 41.1874 36.576 41.3154 36.616L41.4274 36.104C41.3074 36.048 41.1874 36.024 41.0274 36.024C40.5794 36.024 40.1874 36.344 39.9234 36.832H39.8994L39.8514 36.12H39.3714V40ZM42.3862 35.288C42.6182 35.288 42.7862 35.128 42.7862 34.88C42.7862 34.648 42.6182 34.488 42.3862 34.488C42.1542 34.488 41.9862 34.648 41.9862 34.88C41.9862 35.128 42.1542 35.288 42.3862 35.288ZM42.0902 40H42.6662V36.12H42.0902V40ZM43.5877 40H46.4997V39.52H44.3237L46.4277 36.432V36.12H43.8197V36.6H45.6917L43.5877 39.688V40ZM48.0639 40.096C48.5519 40.096 48.9919 39.84 49.3679 39.528H49.3919L49.4399 40H49.9199V37.6C49.9199 36.664 49.5439 36.024 48.6079 36.024C47.9839 36.024 47.4399 36.312 47.1039 36.536L47.3359 36.936C47.6319 36.736 48.0479 36.512 48.5119 36.512C49.1759 36.512 49.3439 37.032 49.3439 37.552C47.6719 37.736 46.9279 38.152 46.9279 39C46.9279 39.712 47.4239 40.096 48.0639 40.096ZM48.2159 39.624C47.8239 39.624 47.5039 39.432 47.5039 38.968C47.5039 38.44 47.9679 38.104 49.3439 37.944V39.08C48.9439 39.432 48.6079 39.624 48.2159 39.624ZM51.4877 35.288C51.7197 35.288 51.8877 35.128 51.8877 34.88C51.8877 34.648 51.7197 34.488 51.4877 34.488C51.2557 34.488 51.0877 34.648 51.0877 34.88C51.0877 35.128 51.2557 35.288 51.4877 35.288ZM51.2077 40.504C51.2077 40.976 51.1197 41.28 50.7197 41.28C50.5757 41.28 50.4397 41.248 50.3437 41.216L50.2237 41.664C50.3517 41.712 50.5517 41.76 50.7757 41.76C51.5037 41.76 51.7917 41.296 51.7917 40.512V36.12H51.2157L51.2077 40.504ZM56.0892 37.84C56.0892 36.72 55.5292 36.024 54.5612 36.024C53.6732 36.024 52.8252 36.808 52.8252 38.064C52.8252 39.336 53.6492 40.096 54.6652 40.096C55.2092 40.096 55.6012 39.912 55.9372 39.696L55.7212 39.312C55.4332 39.504 55.1212 39.624 54.7372 39.624C54.0332 39.624 53.4412 39.136 53.3852 38.192H56.0652C56.0812 38.096 56.0892 37.968 56.0892 37.84ZM53.4012 37.768C53.4972 36.896 54.0412 36.496 54.5692 36.496C55.1932 36.496 55.5692 36.936 55.5692 37.768H53.4012ZM58.0587 40.096C58.9547 40.096 59.4507 39.576 59.4507 38.96C59.4507 38.216 58.8107 38 58.2427 37.784C57.8027 37.616 57.3707 37.464 57.3707 37.08C57.3707 36.768 57.6107 36.488 58.1227 36.488C58.4827 36.488 58.7547 36.64 59.0187 36.832L59.2987 36.456C59.0027 36.216 58.5867 36.024 58.1227 36.024C57.2907 36.024 56.8027 36.504 56.8027 37.112C56.8027 37.768 57.4267 38.024 57.9787 38.224C58.4187 38.384 58.8827 38.576 58.8827 38.992C58.8827 39.344 58.6187 39.64 58.0827 39.64C57.5947 39.64 57.2507 39.44 56.9147 39.168L56.6187 39.56C56.9787 39.864 57.5067 40.096 58.0587 40.096Z" fill="black"/>
<path d="M204.748 66.024H203.752V61.356H202.348L199.216 66.156V66.972H202.612V69H203.752V66.972H204.748V66.024ZM200.44 66.024L202 63.684C202.216 63.288 202.432 62.928 202.624 62.544H202.672C202.648 62.964 202.612 63.648 202.612 64.08V66.024H200.44ZM208.153 69H208.729V66.472C209.001 65.8 209.401 65.552 209.729 65.552C209.881 65.552 209.969 65.576 210.097 65.616L210.209 65.104C210.089 65.048 209.969 65.024 209.809 65.024C209.361 65.024 208.969 65.344 208.705 65.832H208.681L208.633 65.12H208.153V69ZM213.753 66.84C213.753 65.72 213.193 65.024 212.225 65.024C211.337 65.024 210.489 65.808 210.489 67.064C210.489 68.336 211.313 69.096 212.329 69.096C212.873 69.096 213.265 68.912 213.601 68.696L213.385 68.312C213.097 68.504 212.785 68.624 212.401 68.624C211.697 68.624 211.105 68.136 211.049 67.192H213.729C213.745 67.096 213.753 66.968 213.753 66.84ZM211.065 66.768C211.161 65.896 211.705 65.496 212.233 65.496C212.857 65.496 213.233 65.936 213.233 66.768H211.065ZM214.457 67.224H216.273V66.768H214.457V67.224ZM218.055 69H218.727L220.119 65.12H219.543L218.775 67.384L218.407 68.52H218.375L218.007 67.384L217.239 65.12H216.639L218.055 69ZM222.015 69.096C222.551 69.096 222.943 68.808 223.303 68.384H223.327L223.375 69H223.863V65.12H223.279V67.904C222.887 68.384 222.599 68.592 222.191 68.592C221.647 68.592 221.415 68.256 221.415 67.512V65.12H220.839V67.584C220.839 68.576 221.207 69.096 222.015 69.096ZM228.175 66.84C228.175 65.72 227.615 65.024 226.647 65.024C225.759 65.024 224.911 65.808 224.911 67.064C224.911 68.336 225.735 69.096 226.751 69.096C227.295 69.096 227.687 68.912 228.023 68.696L227.807 68.312C227.519 68.504 227.207 68.624 226.823 68.624C226.119 68.624 225.527 68.136 225.471 67.192H228.151C228.167 67.096 228.175 66.968 228.175 66.84ZM225.487 66.768C225.583 65.896 226.127 65.496 226.655 65.496C227.279 65.496 227.655 65.936 227.655 66.768H225.487ZM229.785 69.096C229.945 69.096 230.049 69.072 230.137 69.04L230.057 68.592C229.977 68.608 229.945 68.608 229.913 68.608C229.817 68.608 229.729 68.528 229.729 68.336V63.288H229.153V68.288C229.153 68.816 229.345 69.096 229.785 69.096ZM232.633 69.096C233.577 69.096 234.417 68.352 234.417 67.064C234.417 65.776 233.577 65.024 232.633 65.024C231.689 65.024 230.849 65.776 230.849 67.064C230.849 68.352 231.689 69.096 232.633 69.096ZM232.633 68.608C231.937 68.608 231.457 67.992 231.457 67.064C231.457 66.144 231.937 65.512 232.633 65.512C233.329 65.512 233.817 66.144 233.817 67.064C233.817 67.992 233.329 68.608 232.633 68.608ZM236.449 69.096C237.345 69.096 237.841 68.576 237.841 67.96C237.841 67.216 237.201 67 236.633 66.784C236.193 66.616 235.761 66.464 235.761 66.08C235.761 65.768 236.001 65.488 236.513 65.488C236.873 65.488 237.145 65.64 237.409 65.832L237.689 65.456C237.393 65.216 236.977 65.024 236.513 65.024C235.681 65.024 235.193 65.504 235.193 66.112C235.193 66.768 235.817 67.024 236.369 67.224C236.809 67.384 237.273 67.576 237.273 67.992C237.273 68.344 237.009 68.64 236.473 68.64C235.985 68.64 235.641 68.44 235.305 68.168L235.009 68.56C235.369 68.864 235.897 69.096 236.449 69.096Z" fill="black"/>
<path d="M210.673 96.338C210.799 96.338 210.932 96.366 211.065 96.422L211.177 96.03C211.023 95.967 210.827 95.918 210.631 95.918C209.987 95.918 209.672 96.331 209.672 97.017V97.605L209.21 97.64V98.025H209.672V101H210.183V98.025H210.918V97.605H210.183V97.024C210.183 96.569 210.344 96.338 210.673 96.338ZM212.218 101.084C212.645 101.084 213.03 100.86 213.359 100.587H213.38L213.422 101H213.842V98.9C213.842 98.081 213.513 97.521 212.694 97.521C212.148 97.521 211.672 97.773 211.378 97.969L211.581 98.319C211.84 98.144 212.204 97.948 212.61 97.948C213.191 97.948 213.338 98.403 213.338 98.858C211.875 99.019 211.224 99.383 211.224 100.125C211.224 100.748 211.658 101.084 212.218 101.084ZM212.351 100.671C212.008 100.671 211.728 100.503 211.728 100.097C211.728 99.635 212.134 99.341 213.338 99.201V100.195C212.988 100.503 212.694 100.671 212.351 100.671ZM215.822 101.084C216.606 101.084 217.04 100.629 217.04 100.09C217.04 99.439 216.48 99.25 215.983 99.061C215.598 98.914 215.22 98.781 215.22 98.445C215.22 98.172 215.43 97.927 215.878 97.927C216.193 97.927 216.431 98.06 216.662 98.228L216.907 97.899C216.648 97.689 216.284 97.521 215.878 97.521C215.15 97.521 214.723 97.941 214.723 98.473C214.723 99.047 215.269 99.271 215.752 99.446C216.137 99.586 216.543 99.754 216.543 100.118C216.543 100.426 216.312 100.685 215.843 100.685C215.416 100.685 215.115 100.51 214.821 100.272L214.562 100.615C214.877 100.881 215.339 101.084 215.822 101.084ZM220.456 99.11C220.456 98.13 219.966 97.521 219.119 97.521C218.342 97.521 217.6 98.207 217.6 99.306C217.6 100.419 218.321 101.084 219.21 101.084C219.686 101.084 220.029 100.923 220.323 100.734L220.134 100.398C219.882 100.566 219.609 100.671 219.273 100.671C218.657 100.671 218.139 100.244 218.09 99.418H220.435C220.449 99.334 220.456 99.222 220.456 99.11ZM218.104 99.047C218.188 98.284 218.664 97.934 219.126 97.934C219.672 97.934 220.001 98.319 220.001 99.047H218.104ZM222.461 101H224.932V100.573H224.001V96.534H223.609C223.371 96.674 223.077 96.779 222.678 96.849V97.178H223.49V100.573H222.461V101Z" fill="black"/>
<path d="M47.673 96.338C47.799 96.338 47.932 96.366 48.065 96.422L48.177 96.03C48.023 95.967 47.827 95.918 47.631 95.918C46.987 95.918 46.672 96.331 46.672 97.017V97.605L46.21 97.64V98.025H46.672V101H47.183V98.025H47.918V97.605H47.183V97.024C47.183 96.569 47.344 96.338 47.673 96.338ZM49.2175 101.084C49.6445 101.084 50.0295 100.86 50.3585 100.587H50.3795L50.4215 101H50.8415V98.9C50.8415 98.081 50.5125 97.521 49.6935 97.521C49.1475 97.521 48.6715 97.773 48.3775 97.969L48.5805 98.319C48.8395 98.144 49.2035 97.948 49.6095 97.948C50.1905 97.948 50.3375 98.403 50.3375 98.858C48.8745 99.019 48.2235 99.383 48.2235 100.125C48.2235 100.748 48.6575 101.084 49.2175 101.084ZM49.3505 100.671C49.0075 100.671 48.7275 100.503 48.7275 100.097C48.7275 99.635 49.1335 99.341 50.3375 99.201V100.195C49.9875 100.503 49.6935 100.671 49.3505 100.671ZM52.8224 101.084C53.6064 101.084 54.0404 100.629 54.0404 100.09C54.0404 99.439 53.4804 99.25 52.9834 99.061C52.5984 98.914 52.2204 98.781 52.2204 98.445C52.2204 98.172 52.4304 97.927 52.8784 97.927C53.1934 97.927 53.4314 98.06 53.6624 98.228L53.9074 97.899C53.6484 97.689 53.2844 97.521 52.8784 97.521C52.1504 97.521 51.7234 97.941 51.7234 98.473C51.7234 99.047 52.2694 99.271 52.7524 99.446C53.1374 99.586 53.5434 99.754 53.5434 100.118C53.5434 100.426 53.3124 100.685 52.8434 100.685C52.4164 100.685 52.1154 100.51 51.8214 100.272L51.5624 100.615C51.8774 100.881 52.3394 101.084 52.8224 101.084ZM57.4565 99.11C57.4565 98.13 56.9665 97.521 56.1195 97.521C55.3425 97.521 54.6005 98.207 54.6005 99.306C54.6005 100.419 55.3215 101.084 56.2105 101.084C56.6865 101.084 57.0295 100.923 57.3235 100.734L57.1345 100.398C56.8825 100.566 56.6095 100.671 56.2735 100.671C55.6575 100.671 55.1395 100.244 55.0905 99.418H57.4355C57.4495 99.334 57.4565 99.222 57.4565 99.11ZM55.1045 99.047C55.1885 98.284 55.6645 97.934 56.1265 97.934C56.6725 97.934 57.0015 98.319 57.0015 99.047H55.1045ZM59.4612 101H61.9322V100.573H61.0012V96.534H60.6092C60.3712 96.674 60.0772 96.779 59.6782 96.849V97.178H60.4902V100.573H59.4612V101Z" fill="black"/>
<path d="M210.673 114.338C210.799 114.338 210.932 114.366 211.065 114.422L211.177 114.03C211.023 113.967 210.827 113.918 210.631 113.918C209.987 113.918 209.672 114.331 209.672 115.017V115.605L209.21 115.64V116.025H209.672V119H210.183V116.025H210.918V115.605H210.183V115.024C210.183 114.569 210.344 114.338 210.673 114.338ZM212.218 119.084C212.645 119.084 213.03 118.86 213.359 118.587H213.38L213.422 119H213.842V116.9C213.842 116.081 213.513 115.521 212.694 115.521C212.148 115.521 211.672 115.773 211.378 115.969L211.581 116.319C211.84 116.144 212.204 115.948 212.61 115.948C213.191 115.948 213.338 116.403 213.338 116.858C211.875 117.019 211.224 117.383 211.224 118.125C211.224 118.748 211.658 119.084 212.218 119.084ZM212.351 118.671C212.008 118.671 211.728 118.503 211.728 118.097C211.728 117.635 212.134 117.341 213.338 117.201V118.195C212.988 118.503 212.694 118.671 212.351 118.671ZM215.822 119.084C216.606 119.084 217.04 118.629 217.04 118.09C217.04 117.439 216.48 117.25 215.983 117.061C215.598 116.914 215.22 116.781 215.22 116.445C215.22 116.172 215.43 115.927 215.878 115.927C216.193 115.927 216.431 116.06 216.662 116.228L216.907 115.899C216.648 115.689 216.284 115.521 215.878 115.521C215.15 115.521 214.723 115.941 214.723 116.473C214.723 117.047 215.269 117.271 215.752 117.446C216.137 117.586 216.543 117.754 216.543 118.118C216.543 118.426 216.312 118.685 215.843 118.685C215.416 118.685 215.115 118.51 214.821 118.272L214.562 118.615C214.877 118.881 215.339 119.084 215.822 119.084ZM220.456 117.11C220.456 116.13 219.966 115.521 219.119 115.521C218.342 115.521 217.6 116.207 217.6 117.306C217.6 118.419 218.321 119.084 219.21 119.084C219.686 119.084 220.029 118.923 220.323 118.734L220.134 118.398C219.882 118.566 219.609 118.671 219.273 118.671C218.657 118.671 218.139 118.244 218.09 117.418H220.435C220.449 117.334 220.456 117.222 220.456 117.11ZM218.104 117.047C218.188 116.284 218.664 115.934 219.126 115.934C219.672 115.934 220.001 116.319 220.001 117.047H218.104ZM222.398 119H225.247V118.559H223.896C223.665 118.559 223.392 118.58 223.147 118.594C224.246 117.439 225.03 116.599 225.03 115.745C225.03 114.961 224.526 114.45 223.707 114.45C223.14 114.45 222.734 114.723 222.37 115.122L222.671 115.416C222.93 115.108 223.266 114.87 223.644 114.87C224.246 114.87 224.526 115.248 224.526 115.766C224.526 116.508 223.77 117.32 222.398 118.699V119Z" fill="black"/>
<path d="M47.673 114.338C47.799 114.338 47.932 114.366 48.065 114.422L48.177 114.03C48.023 113.967 47.827 113.918 47.631 113.918C46.987 113.918 46.672 114.331 46.672 115.017V115.605L46.21 115.64V116.025H46.672V119H47.183V116.025H47.918V115.605H47.183V115.024C47.183 114.569 47.344 114.338 47.673 114.338ZM49.2175 119.084C49.6445 119.084 50.0295 118.86 50.3585 118.587H50.3795L50.4215 119H50.8415V116.9C50.8415 116.081 50.5125 115.521 49.6935 115.521C49.1475 115.521 48.6715 115.773 48.3775 115.969L48.5805 116.319C48.8395 116.144 49.2035 115.948 49.6095 115.948C50.1905 115.948 50.3375 116.403 50.3375 116.858C48.8745 117.019 48.2235 117.383 48.2235 118.125C48.2235 118.748 48.6575 119.084 49.2175 119.084ZM49.3505 118.671C49.0075 118.671 48.7275 118.503 48.7275 118.097C48.7275 117.635 49.1335 117.341 50.3375 117.201V118.195C49.9875 118.503 49.6935 118.671 49.3505 118.671ZM52.8224 119.084C53.6064 119.084 54.0404 118.629 54.0404 118.09C54.0404 117.439 53.4804 117.25 52.9834 117.061C52.5984 116.914 52.2204 116.781 52.2204 116.445C52.2204 116.172 52.4304 115.927 52.8784 115.927C53.1934 115.927 53.4314 116.06 53.6624 116.228L53.9074 115.899C53.6484 115.689 53.2844 115.521 52.8784 115.521C52.1504 115.521 51.7234 115.941 51.7234 116.473C51.7234 117.047 52.2694 117.271 52.7524 117.446C53.1374 117.586 53.5434 117.754 53.5434 118.118C53.5434 118.426 53.3124 118.685 52.8434 118.685C52.4164 118.685 52.1154 118.51 51.8214 118.272L51.5624 118.615C51.8774 118.881 52.3394 119.084 52.8224 119.084ZM57.4565 117.11C57.4565 116.13 56.9665 115.521 56.1195 115.521C55.3425 115.521 54.6005 116.207 54.6005 117.306C54.6005 118.419 55.3215 119.084 56.2105 119.084C56.6865 119.084 57.0295 118.923 57.3235 118.734L57.1345 118.398C56.8825 118.566 56.6095 118.671 56.2735 118.671C55.6575 118.671 55.1395 118.244 55.0905 117.418H57.4355C57.4495 117.334 57.4565 117.222 57.4565 117.11ZM55.1045 117.047C55.1885 116.284 55.6645 115.934 56.1265 115.934C56.6725 115.934 57.0015 116.319 57.0015 117.047H55.1045ZM59.3982 119H62.2472V118.559H60.8962C60.6652 118.559 60.3922 118.58 60.1472 118.594C61.2462 117.439 62.0302 116.599 62.0302 115.745C62.0302 114.961 61.5262 114.45 60.7072 114.45C60.1402 114.45 59.7342 114.723 59.3702 115.122L59.6712 115.416C59.9302 115.108 60.2662 114.87 60.6442 114.87C61.2462 114.87 61.5262 115.248 61.5262 115.766C61.5262 116.508 60.7702 117.32 59.3982 118.699V119Z" fill="black"/>
<path d="M210.673 132.338C210.799 132.338 210.932 132.366 211.065 132.422L211.177 132.03C211.023 131.967 210.827 131.918 210.631 131.918C209.987 131.918 209.672 132.331 209.672 133.017V133.605L209.21 133.64V134.025H209.672V137H210.183V134.025H210.918V133.605H210.183V133.024C210.183 132.569 210.344 132.338 210.673 132.338ZM212.218 137.084C212.645 137.084 213.03 136.86 213.359 136.587H213.38L213.422 137H213.842V134.9C213.842 134.081 213.513 133.521 212.694 133.521C212.148 133.521 211.672 133.773 211.378 133.969L211.581 134.319C211.84 134.144 212.204 133.948 212.61 133.948C213.191 133.948 213.338 134.403 213.338 134.858C211.875 135.019 211.224 135.383 211.224 136.125C211.224 136.748 211.658 137.084 212.218 137.084ZM212.351 136.671C212.008 136.671 211.728 136.503 211.728 136.097C211.728 135.635 212.134 135.341 213.338 135.201V136.195C212.988 136.503 212.694 136.671 212.351 136.671ZM215.822 137.084C216.606 137.084 217.04 136.629 217.04 136.09C217.04 135.439 216.48 135.25 215.983 135.061C215.598 134.914 215.22 134.781 215.22 134.445C215.22 134.172 215.43 133.927 215.878 133.927C216.193 133.927 216.431 134.06 216.662 134.228L216.907 133.899C216.648 133.689 216.284 133.521 215.878 133.521C215.15 133.521 214.723 133.941 214.723 134.473C214.723 135.047 215.269 135.271 215.752 135.446C216.137 135.586 216.543 135.754 216.543 136.118C216.543 136.426 216.312 136.685 215.843 136.685C215.416 136.685 215.115 136.51 214.821 136.272L214.562 136.615C214.877 136.881 215.339 137.084 215.822 137.084ZM220.456 135.11C220.456 134.13 219.966 133.521 219.119 133.521C218.342 133.521 217.6 134.207 217.6 135.306C217.6 136.419 218.321 137.084 219.21 137.084C219.686 137.084 220.029 136.923 220.323 136.734L220.134 136.398C219.882 136.566 219.609 136.671 219.273 136.671C218.657 136.671 218.139 136.244 218.09 135.418H220.435C220.449 135.334 220.456 135.222 220.456 135.11ZM218.104 135.047C218.188 134.284 218.664 133.934 219.126 133.934C219.672 133.934 220.001 134.319 220.001 135.047H218.104ZM223.763 137.084C224.568 137.084 225.212 136.601 225.212 135.81C225.212 135.194 224.771 134.795 224.225 134.669V134.641C224.715 134.466 225.051 134.116 225.051 133.57C225.051 132.856 224.498 132.45 223.742 132.45C223.217 132.45 222.811 132.688 222.475 133.003L222.755 133.332C223.014 133.059 223.343 132.87 223.728 132.87C224.218 132.87 224.533 133.157 224.533 133.605C224.533 134.088 224.197 134.473 223.231 134.473V134.872C224.309 134.872 224.694 135.243 224.694 135.796C224.694 136.321 224.295 136.657 223.735 136.657C223.189 136.657 222.839 136.398 222.566 136.118L222.307 136.454C222.601 136.776 223.049 137.084 223.763 137.084Z" fill="black"/>
<path d="M47.673 132.338C47.799 132.338 47.932 132.366 48.065 132.422L48.177 132.03C48.023 131.967 47.827 131.918 47.631 131.918C46.987 131.918 46.672 132.331 46.672 133.017V133.605L46.21 133.64V134.025H46.672V137H47.183V134.025H47.918V133.605H47.183V133.024C47.183 132.569 47.344 132.338 47.673 132.338ZM49.2175 137.084C49.6445 137.084 50.0295 136.86 50.3585 136.587H50.3795L50.4215 137H50.8415V134.9C50.8415 134.081 50.5125 133.521 49.6935 133.521C49.1475 133.521 48.6715 133.773 48.3775 133.969L48.5805 134.319C48.8395 134.144 49.2035 133.948 49.6095 133.948C50.1905 133.948 50.3375 134.403 50.3375 134.858C48.8745 135.019 48.2235 135.383 48.2235 136.125C48.2235 136.748 48.6575 137.084 49.2175 137.084ZM49.3505 136.671C49.0075 136.671 48.7275 136.503 48.7275 136.097C48.7275 135.635 49.1335 135.341 50.3375 135.201V136.195C49.9875 136.503 49.6935 136.671 49.3505 136.671ZM52.8224 137.084C53.6064 137.084 54.0404 136.629 54.0404 136.09C54.0404 135.439 53.4804 135.25 52.9834 135.061C52.5984 134.914 52.2204 134.781 52.2204 134.445C52.2204 134.172 52.4304 133.927 52.8784 133.927C53.1934 133.927 53.4314 134.06 53.6624 134.228L53.9074 133.899C53.6484 133.689 53.2844 133.521 52.8784 133.521C52.1504 133.521 51.7234 133.941 51.7234 134.473C51.7234 135.047 52.2694 135.271 52.7524 135.446C53.1374 135.586 53.5434 135.754 53.5434 136.118C53.5434 136.426 53.3124 136.685 52.8434 136.685C52.4164 136.685 52.1154 136.51 51.8214 136.272L51.5624 136.615C51.8774 136.881 52.3394 137.084 52.8224 137.084ZM57.4565 135.11C57.4565 134.13 56.9665 133.521 56.1195 133.521C55.3425 133.521 54.6005 134.207 54.6005 135.306C54.6005 136.419 55.3215 137.084 56.2105 137.084C56.6865 137.084 57.0295 136.923 57.3235 136.734L57.1345 136.398C56.8825 136.566 56.6095 136.671 56.2735 136.671C55.6575 136.671 55.1395 136.244 55.0905 135.418H57.4355C57.4495 135.334 57.4565 135.222 57.4565 135.11ZM55.1045 135.047C55.1885 134.284 55.6645 133.934 56.1265 133.934C56.6725 133.934 57.0015 134.319 57.0015 135.047H55.1045ZM60.7632 137.084C61.5682 137.084 62.2122 136.601 62.2122 135.81C62.2122 135.194 61.7712 134.795 61.2252 134.669V134.641C61.7152 134.466 62.0512 134.116 62.0512 133.57C62.0512 132.856 61.4982 132.45 60.7422 132.45C60.2172 132.45 59.8112 132.688 59.4752 133.003L59.7552 133.332C60.0142 133.059 60.3432 132.87 60.7282 132.87C61.2182 132.87 61.5332 133.157 61.5332 133.605C61.5332 134.088 61.1972 134.473 60.2312 134.473V134.872C61.3092 134.872 61.6942 135.243 61.6942 135.796C61.6942 136.321 61.2952 136.657 60.7352 136.657C60.1892 136.657 59.8392 136.398 59.5662 136.118L59.3072 136.454C59.6012 136.776 60.0492 137.084 60.7632 137.084Z" fill="black"/>
<path d="M6.54 69H11.016V68.004H9.48V61.356H8.568C8.112 61.632 7.596 61.824 6.864 61.956V62.724H8.268V68.004H6.54V69ZM12.0947 69H16.5707V68.004H15.0347V61.356H14.1227C13.6667 61.632 13.1507 61.824 12.4187 61.956V62.724H13.8227V68.004H12.0947V69ZM19.9054 61.212C18.6334 61.212 17.5654 62.196 17.5654 63.696C17.5654 65.28 18.4534 66.06 19.7734 66.06C20.3614 66.06 21.0334 65.712 21.4894 65.136C21.4414 67.38 20.6014 68.148 19.5934 68.148C19.1254 68.148 18.6574 67.908 18.3574 67.56L17.6974 68.304C18.1414 68.772 18.7774 69.144 19.6534 69.144C21.2014 69.144 22.6174 67.932 22.6174 64.92C22.6174 62.4 21.4054 61.212 19.9054 61.212ZM19.9894 65.172C19.1494 65.172 18.6934 64.632 18.6934 63.696C18.6934 62.724 19.2334 62.148 19.9174 62.148C20.7574 62.148 21.3214 62.82 21.4534 64.224C20.9974 64.908 20.4454 65.172 19.9894 65.172ZM26.262 69H26.838V66.472C27.11 65.8 27.51 65.552 27.838 65.552C27.99 65.552 28.078 65.576 28.206 65.616L28.318 65.104C28.198 65.048 28.078 65.024 27.918 65.024C27.47 65.024 27.078 65.344 26.814 65.832H26.79L26.742 65.12H26.262V69ZM31.8627 66.84C31.8627 65.72 31.3027 65.024 30.3347 65.024C29.4467 65.024 28.5987 65.808 28.5987 67.064C28.5987 68.336 29.4227 69.096 30.4387 69.096C30.9827 69.096 31.3747 68.912 31.7107 68.696L31.4947 68.312C31.2067 68.504 30.8947 68.624 30.5107 68.624C29.8067 68.624 29.2147 68.136 29.1587 67.192H31.8387C31.8547 67.096 31.8627 66.968 31.8627 66.84ZM29.1747 66.768C29.2707 65.896 29.8147 65.496 30.3427 65.496C30.9667 65.496 31.3427 65.936 31.3427 66.768H29.1747ZM32.5663 67.224H34.3823V66.768H32.5663V67.224ZM36.1643 69H36.8363L38.2283 65.12H37.6523L36.8843 67.384L36.5163 68.52H36.4843L36.1163 67.384L35.3483 65.12H34.7483L36.1643 69ZM40.1242 69.096C40.6602 69.096 41.0522 68.808 41.4122 68.384H41.4362L41.4842 69H41.9722V65.12H41.3882V67.904C40.9962 68.384 40.7082 68.592 40.3002 68.592C39.7562 68.592 39.5242 68.256 39.5242 67.512V65.12H38.9482V67.584C38.9482 68.576 39.3162 69.096 40.1242 69.096ZM46.2845 66.84C46.2845 65.72 45.7245 65.024 44.7565 65.024C43.8685 65.024 43.0205 65.808 43.0205 67.064C43.0205 68.336 43.8445 69.096 44.8605 69.096C45.4045 69.096 45.7965 68.912 46.1325 68.696L45.9165 68.312C45.6285 68.504 45.3165 68.624 44.9325 68.624C44.2285 68.624 43.6365 68.136 43.5805 67.192H46.2605C46.2765 67.096 46.2845 66.968 46.2845 66.84ZM43.5965 66.768C43.6925 65.896 44.2365 65.496 44.7645 65.496C45.3885 65.496 45.7645 65.936 45.7645 66.768H43.5965ZM47.894 69.096C48.054 69.096 48.158 69.072 48.246 69.04L48.166 68.592C48.086 68.608 48.054 68.608 48.022 68.608C47.926 68.608 47.838 68.528 47.838 68.336V63.288H47.262V68.288C47.262 68.816 47.454 69.096 47.894 69.096ZM50.742 69.096C51.686 69.096 52.526 68.352 52.526 67.064C52.526 65.776 51.686 65.024 50.742 65.024C49.798 65.024 48.958 65.776 48.958 67.064C48.958 68.352 49.798 69.096 50.742 69.096ZM50.742 68.608C50.046 68.608 49.566 67.992 49.566 67.064C49.566 66.144 50.046 65.512 50.742 65.512C51.438 65.512 51.926 66.144 51.926 67.064C51.926 67.992 51.438 68.608 50.742 68.608ZM54.5587 69.096C55.4547 69.096 55.9507 68.576 55.9507 67.96C55.9507 67.216 55.3107 67 54.7427 66.784C54.3027 66.616 53.8707 66.464 53.8707 66.08C53.8707 65.768 54.1107 65.488 54.6227 65.488C54.9827 65.488 55.2547 65.64 55.5187 65.832L55.7987 65.456C55.5027 65.216 55.0867 65.024 54.6227 65.024C53.7907 65.024 53.3027 65.504 53.3027 66.112C53.3027 66.768 53.9267 67.024 54.4787 67.224C54.9187 67.384 55.3827 67.576 55.3827 67.992C55.3827 68.344 55.1187 68.64 54.5827 68.64C54.0947 68.64 53.7507 68.44 53.4147 68.168L53.1187 68.56C53.4787 68.864 54.0067 69.096 54.5587 69.096Z" fill="black"/>
<circle cx="198" cy="99" r="4" fill="#BBECF9"/>
<circle cx="74" cy="99" r="4" fill="#BBECF9"/>
<circle cx="198" cy="117" r="4" fill="#9EE6FF"/>
<circle cx="74" cy="117" r="4" fill="#9EE6FF"/>
<circle cx="198" cy="135" r="4" fill="#73D7F9"/>
<circle cx="74" cy="135" r="4" fill="#73D7F9"/>
</svg>
