<svg width="391" height="320" viewBox="0 0 391 320" fill="none" xmlns="http://www.w3.org/2000/svg">
<path d="M41.61 64V59.842H40.196V59.401H43.535V59.842H42.128V64H41.61ZM43.9993 64V60.605H44.4193L44.4613 61.228H44.4823C44.599 61.0133 44.739 60.843 44.9023 60.717C45.0703 60.5863 45.2523 60.521 45.4483 60.521C45.5183 60.521 45.5813 60.528 45.6373 60.542C45.6933 60.5513 45.747 60.5677 45.7983 60.591L45.7003 61.039C45.6443 61.0203 45.593 61.0063 45.5463 60.997C45.5043 60.9877 45.4483 60.983 45.3783 60.983C45.2336 60.983 45.082 61.0437 44.9233 61.165C44.7646 61.2817 44.6246 61.4893 44.5033 61.788V64H43.9993ZM46.991 64.084C46.8043 64.084 46.6363 64.0467 46.487 63.972C46.3376 63.8973 46.2186 63.79 46.13 63.65C46.0413 63.5053 45.997 63.3303 45.997 63.125C45.997 62.7563 46.165 62.474 46.501 62.278C46.8416 62.0773 47.3783 61.9373 48.111 61.858C48.111 61.704 48.09 61.557 48.048 61.417C48.0106 61.277 47.9383 61.165 47.831 61.081C47.7283 60.9923 47.579 60.948 47.383 60.948C47.1776 60.948 46.9863 60.9877 46.809 61.067C46.6363 61.1463 46.4846 61.2303 46.354 61.319L46.151 60.969C46.249 60.9037 46.3656 60.836 46.501 60.766C46.6363 60.696 46.7856 60.6377 46.949 60.591C47.1123 60.5443 47.285 60.521 47.467 60.521C47.7423 60.521 47.964 60.5793 48.132 60.696C48.3 60.8127 48.4213 60.9737 48.496 61.179C48.5753 61.3843 48.615 61.6247 48.615 61.9V64H48.195L48.153 63.587H48.132C47.9686 63.7223 47.7913 63.839 47.6 63.937C47.4086 64.035 47.2056 64.084 46.991 64.084ZM47.124 63.671C47.3013 63.671 47.4646 63.6313 47.614 63.552C47.768 63.468 47.9336 63.349 48.111 63.195V62.201C47.7096 62.2477 47.3923 62.313 47.159 62.397C46.9256 62.4763 46.7576 62.5743 46.655 62.691C46.5523 62.8077 46.501 62.943 46.501 63.097C46.501 63.2977 46.5616 63.4447 46.683 63.538C46.809 63.6267 46.956 63.671 47.124 63.671ZM49.7278 64V60.605H50.1478L50.1898 61.109H50.2108C50.3741 60.941 50.5468 60.801 50.7288 60.689C50.9155 60.577 51.1231 60.521 51.3518 60.521C51.7111 60.521 51.9725 60.633 52.1358 60.857C52.3038 61.081 52.3878 61.41 52.3878 61.844V64H51.8768V61.907C51.8768 61.5803 51.8231 61.3423 51.7158 61.193C51.6131 61.0437 51.4428 60.969 51.2048 60.969C51.0275 60.969 50.8665 61.0157 50.7218 61.109C50.5771 61.1977 50.4138 61.333 50.2318 61.515V64H49.7278ZM54.3966 64.084C54.1539 64.084 53.9229 64.0397 53.7036 63.951C53.4843 63.8577 53.2953 63.7457 53.1366 63.615L53.3956 63.272C53.5449 63.3887 53.6989 63.4867 53.8576 63.566C54.0163 63.6453 54.2029 63.685 54.4176 63.685C54.6509 63.685 54.8259 63.629 54.9426 63.517C55.0593 63.405 55.1176 63.272 55.1176 63.118C55.1176 62.9967 55.0779 62.8963 54.9986 62.817C54.9193 62.733 54.8189 62.663 54.6976 62.607C54.5763 62.5463 54.4526 62.4927 54.3266 62.446C54.1679 62.39 54.0093 62.3223 53.8506 62.243C53.6919 62.1637 53.5589 62.0633 53.4516 61.942C53.3489 61.8207 53.2976 61.6643 53.2976 61.473C53.2976 61.207 53.3979 60.983 53.5986 60.801C53.8039 60.6143 54.0886 60.521 54.4526 60.521C54.6579 60.521 54.8493 60.5583 55.0266 60.633C55.2039 60.7077 55.3556 60.7963 55.4816 60.899L55.2366 61.228C55.1199 61.144 54.9986 61.074 54.8726 61.018C54.7513 60.9573 54.6113 60.927 54.4526 60.927C54.2286 60.927 54.0629 60.9807 53.9556 61.088C53.8483 61.1907 53.7946 61.3097 53.7946 61.445C53.7946 61.557 53.8296 61.6503 53.8996 61.725C53.9743 61.795 54.0699 61.8557 54.1866 61.907C54.3033 61.9583 54.4269 62.0097 54.5576 62.061C54.7256 62.1217 54.8889 62.1917 55.0476 62.271C55.2109 62.3457 55.3463 62.446 55.4536 62.572C55.5609 62.698 55.6146 62.8707 55.6146 63.09C55.6146 63.2673 55.5679 63.433 55.4746 63.587C55.3813 63.7363 55.2436 63.8577 55.0616 63.951C54.8796 64.0397 54.6579 64.084 54.3966 64.084ZM56.4407 65.456V60.605H56.8607L56.9027 61.011H56.9237C57.0777 60.8757 57.248 60.7613 57.4347 60.668C57.626 60.57 57.822 60.521 58.0227 60.521C58.3167 60.521 58.564 60.5933 58.7647 60.738C58.9654 60.878 59.1147 61.0787 59.2127 61.34C59.3154 61.5967 59.3667 61.9 59.3667 62.25C59.3667 62.6373 59.2967 62.9687 59.1567 63.244C59.0214 63.5147 58.8417 63.7223 58.6177 63.867C58.3937 64.0117 58.1534 64.084 57.8967 64.084C57.7427 64.084 57.584 64.049 57.4207 63.979C57.2574 63.909 57.094 63.811 56.9307 63.685L56.9447 64.287V65.456H56.4407ZM57.8127 63.65C58.0134 63.65 58.1907 63.594 58.3447 63.482C58.4987 63.37 58.62 63.209 58.7087 62.999C58.7974 62.789 58.8417 62.5417 58.8417 62.257C58.8417 62.0003 58.809 61.774 58.7437 61.578C58.683 61.382 58.5827 61.2303 58.4427 61.123C58.3074 61.011 58.1277 60.955 57.9037 60.955C57.7544 60.955 57.6004 60.997 57.4417 61.081C57.2877 61.1603 57.122 61.2817 56.9447 61.445V63.279C57.1127 63.4143 57.2714 63.51 57.4207 63.566C57.57 63.622 57.7007 63.65 57.8127 63.65ZM61.598 64.084C61.3227 64.084 61.066 64.014 60.828 63.874C60.59 63.734 60.3987 63.5333 60.254 63.272C60.1093 63.006 60.037 62.684 60.037 62.306C60.037 61.928 60.1093 61.606 60.254 61.34C60.3987 61.074 60.59 60.871 60.828 60.731C61.066 60.591 61.3227 60.521 61.598 60.521C61.8733 60.521 62.1277 60.591 62.361 60.731C62.599 60.871 62.7903 61.074 62.935 61.34C63.0843 61.606 63.159 61.928 63.159 62.306C63.159 62.684 63.0843 63.006 62.935 63.272C62.7903 63.5333 62.599 63.734 62.361 63.874C62.1277 64.014 61.8733 64.084 61.598 64.084ZM61.598 63.657C61.8033 63.657 61.983 63.601 62.137 63.489C62.2957 63.377 62.417 63.2207 62.501 63.02C62.5897 62.8147 62.634 62.5767 62.634 62.306C62.634 62.04 62.5897 61.8043 62.501 61.599C62.417 61.3937 62.2957 61.235 62.137 61.123C61.983 61.0063 61.8033 60.948 61.598 60.948C61.3973 60.948 61.2177 61.0063 61.059 61.123C60.905 61.235 60.7837 61.3937 60.695 61.599C60.611 61.8043 60.569 62.04 60.569 62.306C60.569 62.5767 60.611 62.8147 60.695 63.02C60.7837 63.2207 60.905 63.377 61.059 63.489C61.2177 63.601 61.3973 63.657 61.598 63.657ZM64.0833 64V60.605H64.5033L64.5453 61.228H64.5663C64.6829 61.0133 64.8229 60.843 64.9863 60.717C65.1543 60.5863 65.3363 60.521 65.5323 60.521C65.6023 60.521 65.6653 60.528 65.7213 60.542C65.7773 60.5513 65.8309 60.5677 65.8823 60.591L65.7843 61.039C65.7283 61.0203 65.6769 61.0063 65.6303 60.997C65.5883 60.9877 65.5323 60.983 65.4623 60.983C65.3176 60.983 65.1659 61.0437 65.0073 61.165C64.8486 61.2817 64.7086 61.4893 64.5873 61.788V64H64.0833ZM67.4912 64.084C67.1412 64.084 66.8962 63.9813 66.7562 63.776C66.6209 63.5707 66.5532 63.3047 66.5532 62.978V61.025H66.0422V60.64L66.5742 60.605L66.6372 59.646H67.0642V60.605H67.9952V61.025H67.0642V62.992C67.0642 63.202 67.1015 63.3677 67.1762 63.489C67.2555 63.6057 67.3979 63.664 67.6032 63.664C67.6639 63.664 67.7292 63.6547 67.7992 63.636C67.8739 63.6173 67.9392 63.5963 67.9952 63.573L68.1002 63.958C68.0069 63.9907 67.9065 64.0187 67.7992 64.042C67.6919 64.07 67.5892 64.084 67.4912 64.084ZM70.0347 64.084C69.7407 64.084 69.47 64.014 69.2227 63.874C68.98 63.7293 68.7864 63.5263 68.6417 63.265C68.497 62.999 68.4247 62.6793 68.4247 62.306C68.4247 61.9373 68.497 61.62 68.6417 61.354C68.7864 61.088 68.973 60.8827 69.2017 60.738C69.435 60.5933 69.6824 60.521 69.9437 60.521C70.2237 60.521 70.464 60.5863 70.6647 60.717C70.8654 60.8477 71.017 61.032 71.1197 61.27C71.227 61.5033 71.2807 61.7833 71.2807 62.11C71.2807 62.166 71.2784 62.222 71.2737 62.278C71.2737 62.3293 71.269 62.376 71.2597 62.418H68.8237L68.8167 62.047H70.8257C70.8257 61.683 70.7487 61.4077 70.5947 61.221C70.4407 61.0297 70.226 60.934 69.9507 60.934C69.7827 60.934 69.6194 60.983 69.4607 61.081C69.302 61.179 69.1714 61.3283 69.0687 61.529C68.966 61.7297 68.9147 61.9887 68.9147 62.306C68.9147 62.6093 68.9684 62.8613 69.0757 63.062C69.183 63.2627 69.3254 63.4143 69.5027 63.517C69.6847 63.6197 69.883 63.671 70.0977 63.671C70.2704 63.671 70.4244 63.6453 70.5597 63.594C70.6997 63.5427 70.8327 63.4773 70.9587 63.398L71.1477 63.734C71.003 63.8273 70.8397 63.909 70.6577 63.979C70.4804 64.049 70.2727 64.084 70.0347 64.084ZM74.6784 64.084C74.2537 64.084 73.9154 63.93 73.6634 63.622C73.4114 63.3093 73.2854 62.8707 73.2854 62.306C73.2854 61.942 73.353 61.627 73.4884 61.361C73.6284 61.095 73.8104 60.8897 74.0344 60.745C74.2584 60.5957 74.501 60.521 74.7624 60.521C74.963 60.521 75.1357 60.556 75.2804 60.626C75.425 60.696 75.5744 60.794 75.7284 60.92L75.7074 60.332V59.002H76.2114V64H75.7914L75.7494 63.587H75.7284C75.5977 63.7223 75.4414 63.839 75.2594 63.937C75.082 64.035 74.8884 64.084 74.6784 64.084ZM74.7904 63.65C74.9537 63.65 75.11 63.6103 75.2594 63.531C75.4087 63.447 75.558 63.3257 75.7074 63.167V61.326C75.5534 61.1907 75.4064 61.095 75.2664 61.039C75.1264 60.983 74.984 60.955 74.8394 60.955C74.648 60.955 74.473 61.0133 74.3144 61.13C74.1604 61.242 74.0367 61.4007 73.9434 61.606C73.8547 61.8067 73.8104 62.04 73.8104 62.306C73.8104 62.7213 73.8944 63.0503 74.0624 63.293C74.235 63.531 74.4777 63.65 74.7904 63.65ZM78.7437 64.084C78.4497 64.084 78.179 64.014 77.9317 63.874C77.689 63.7293 77.4954 63.5263 77.3507 63.265C77.206 62.999 77.1337 62.6793 77.1337 62.306C77.1337 61.9373 77.206 61.62 77.3507 61.354C77.4954 61.088 77.682 60.8827 77.9107 60.738C78.144 60.5933 78.3914 60.521 78.6527 60.521C78.9327 60.521 79.173 60.5863 79.3737 60.717C79.5744 60.8477 79.726 61.032 79.8287 61.27C79.936 61.5033 79.9897 61.7833 79.9897 62.11C79.9897 62.166 79.9874 62.222 79.9827 62.278C79.9827 62.3293 79.978 62.376 79.9687 62.418H77.5327L77.5257 62.047H79.5347C79.5347 61.683 79.4577 61.4077 79.3037 61.221C79.1497 61.0297 78.935 60.934 78.6597 60.934C78.4917 60.934 78.3284 60.983 78.1697 61.081C78.011 61.179 77.8804 61.3283 77.7777 61.529C77.675 61.7297 77.6237 61.9887 77.6237 62.306C77.6237 62.6093 77.6774 62.8613 77.7847 63.062C77.892 63.2627 78.0344 63.4143 78.2117 63.517C78.3937 63.6197 78.592 63.671 78.8067 63.671C78.9794 63.671 79.1334 63.6453 79.2687 63.594C79.4087 63.5427 79.5417 63.4773 79.6677 63.398L79.8567 63.734C79.712 63.8273 79.5487 63.909 79.3667 63.979C79.1894 64.049 78.9817 64.084 78.7437 64.084ZM83.5624 64.084C83.2637 64.084 82.9954 64.014 82.7574 63.874C82.5194 63.734 82.3304 63.5333 82.1904 63.272C82.0504 63.006 81.9804 62.684 81.9804 62.306C81.9804 61.928 82.055 61.606 82.2044 61.34C82.3584 61.074 82.5567 60.871 82.7994 60.731C83.042 60.591 83.308 60.521 83.5974 60.521C83.8214 60.521 84.0127 60.563 84.1714 60.647C84.33 60.7263 84.4677 60.8197 84.5844 60.927L84.3184 61.263C84.2204 61.1697 84.113 61.095 83.9964 61.039C83.8844 60.9783 83.7584 60.948 83.6184 60.948C83.4037 60.948 83.2124 61.0063 83.0444 61.123C82.881 61.235 82.7504 61.3937 82.6524 61.599C82.559 61.8043 82.5124 62.04 82.5124 62.306C82.5124 62.5767 82.5567 62.8147 82.6454 63.02C82.7387 63.2207 82.867 63.377 83.0304 63.489C83.1937 63.601 83.385 63.657 83.6044 63.657C83.7677 63.657 83.9194 63.622 84.0594 63.552C84.1994 63.482 84.323 63.4003 84.4304 63.307L84.6544 63.65C84.505 63.7853 84.337 63.8927 84.1504 63.972C83.9637 64.0467 83.7677 64.084 83.5624 64.084ZM86.1267 64.084C85.9401 64.084 85.7721 64.0467 85.6227 63.972C85.4734 63.8973 85.3544 63.79 85.2657 63.65C85.1771 63.5053 85.1327 63.3303 85.1327 63.125C85.1327 62.7563 85.3007 62.474 85.6367 62.278C85.9774 62.0773 86.5141 61.9373 87.2467 61.858C87.2467 61.704 87.2257 61.557 87.1837 61.417C87.1464 61.277 87.0741 61.165 86.9667 61.081C86.8641 60.9923 86.7147 60.948 86.5187 60.948C86.3134 60.948 86.1221 60.9877 85.9447 61.067C85.7721 61.1463 85.6204 61.2303 85.4897 61.319L85.2867 60.969C85.3847 60.9037 85.5014 60.836 85.6367 60.766C85.7721 60.696 85.9214 60.6377 86.0847 60.591C86.2481 60.5443 86.4207 60.521 86.6027 60.521C86.8781 60.521 87.0997 60.5793 87.2677 60.696C87.4357 60.8127 87.5571 60.9737 87.6317 61.179C87.7111 61.3843 87.7507 61.6247 87.7507 61.9V64H87.3307L87.2887 63.587H87.2677C87.1044 63.7223 86.9271 63.839 86.7357 63.937C86.5444 64.035 86.3414 64.084 86.1267 64.084ZM86.2597 63.671C86.4371 63.671 86.6004 63.6313 86.7497 63.552C86.9037 63.468 87.0694 63.349 87.2467 63.195V62.201C86.8454 62.2477 86.5281 62.313 86.2947 62.397C86.0614 62.4763 85.8934 62.5743 85.7907 62.691C85.6881 62.8077 85.6367 62.943 85.6367 63.097C85.6367 63.2977 85.6974 63.4447 85.8187 63.538C85.9447 63.6267 86.0917 63.671 86.2597 63.671ZM88.8636 64V60.605H89.2836L89.3256 61.228H89.3466C89.4632 61.0133 89.6032 60.843 89.7666 60.717C89.9346 60.5863 90.1166 60.521 90.3126 60.521C90.3826 60.521 90.4456 60.528 90.5016 60.542C90.5576 60.5513 90.6112 60.5677 90.6626 60.591L90.5646 61.039C90.5086 61.0203 90.4572 61.0063 90.4106 60.997C90.3686 60.9877 90.3126 60.983 90.2426 60.983C90.0979 60.983 89.9462 61.0437 89.7876 61.165C89.6289 61.2817 89.4889 61.4893 89.3676 61.788V64H88.8636ZM92.3081 65.582C92.0281 65.582 91.7831 65.5447 91.5731 65.47C91.3631 65.3953 91.1998 65.2903 91.0831 65.155C90.9664 65.0197 90.9081 64.8563 90.9081 64.665C90.9081 64.5157 90.9524 64.3733 91.0411 64.238C91.1298 64.1027 91.2511 63.9837 91.4051 63.881V63.853C91.3211 63.797 91.2488 63.7247 91.1881 63.636C91.1321 63.5427 91.1041 63.4307 91.1041 63.3C91.1041 63.1553 91.1438 63.0293 91.2231 62.922C91.3071 62.8147 91.3911 62.7307 91.4751 62.67V62.642C91.3678 62.5533 91.2674 62.4297 91.1741 62.271C91.0854 62.1123 91.0411 61.9327 91.0411 61.732C91.0411 61.4847 91.0971 61.2723 91.2091 61.095C91.3258 60.913 91.4774 60.773 91.6641 60.675C91.8554 60.5723 92.0654 60.521 92.2941 60.521C92.3874 60.521 92.4738 60.5303 92.5531 60.549C92.6371 60.563 92.7071 60.5817 92.7631 60.605H93.9391V61.004H93.2181C93.3068 61.088 93.3791 61.193 93.4351 61.319C93.4911 61.445 93.5191 61.585 93.5191 61.739C93.5191 61.9817 93.4631 62.1917 93.3511 62.369C93.2438 62.5463 93.0968 62.684 92.9101 62.782C92.7281 62.8753 92.5228 62.922 92.2941 62.922C92.2101 62.922 92.1214 62.9127 92.0281 62.894C91.9394 62.8707 91.8554 62.8403 91.7761 62.803C91.7108 62.8543 91.6548 62.9127 91.6081 62.978C91.5661 63.0433 91.5451 63.125 91.5451 63.223C91.5451 63.335 91.5871 63.4283 91.6711 63.503C91.7598 63.573 91.9184 63.608 92.1471 63.608H92.8261C93.2181 63.608 93.5098 63.6733 93.7011 63.804C93.8971 63.93 93.9951 64.133 93.9951 64.413C93.9951 64.6183 93.9251 64.8097 93.7851 64.987C93.6498 65.1643 93.4561 65.3067 93.2041 65.414C92.9521 65.526 92.6534 65.582 92.3081 65.582ZM92.3781 65.218C92.6021 65.218 92.7958 65.183 92.9591 65.113C93.1271 65.043 93.2578 64.952 93.3511 64.84C93.4444 64.728 93.4911 64.609 93.4911 64.483C93.4911 64.3197 93.4304 64.2053 93.3091 64.14C93.1924 64.0747 93.0174 64.042 92.7841 64.042H92.1611C92.1098 64.042 92.0444 64.0373 91.9651 64.028C91.8904 64.0187 91.8111 64.0047 91.7271 63.986C91.5964 64.0793 91.5008 64.1773 91.4401 64.28C91.3841 64.3873 91.3561 64.4923 91.3561 64.595C91.3561 64.7863 91.4471 64.938 91.6291 65.05C91.8111 65.162 92.0608 65.218 92.3781 65.218ZM92.2941 62.572C92.4294 62.572 92.5531 62.537 92.6651 62.467C92.7818 62.397 92.8751 62.299 92.9451 62.173C93.0151 62.047 93.0501 61.9 93.0501 61.732C93.0501 61.5593 93.0151 61.4123 92.9451 61.291C92.8798 61.165 92.7888 61.0693 92.6721 61.004C92.5601 60.934 92.4341 60.899 92.2941 60.899C92.0841 60.899 91.9044 60.9737 91.7551 61.123C91.6058 61.2677 91.5311 61.4707 91.5311 61.732C91.5311 61.9 91.5661 62.047 91.6361 62.173C91.7061 62.299 91.7994 62.397 91.9161 62.467C92.0328 62.537 92.1588 62.572 92.2941 62.572ZM95.3347 64.084C95.1481 64.084 94.9801 64.0467 94.8307 63.972C94.6814 63.8973 94.5624 63.79 94.4737 63.65C94.3851 63.5053 94.3407 63.3303 94.3407 63.125C94.3407 62.7563 94.5087 62.474 94.8447 62.278C95.1854 62.0773 95.7221 61.9373 96.4547 61.858C96.4547 61.704 96.4337 61.557 96.3917 61.417C96.3544 61.277 96.2821 61.165 96.1747 61.081C96.0721 60.9923 95.9227 60.948 95.7267 60.948C95.5214 60.948 95.3301 60.9877 95.1527 61.067C94.9801 61.1463 94.8284 61.2303 94.6977 61.319L94.4947 60.969C94.5927 60.9037 94.7094 60.836 94.8447 60.766C94.9801 60.696 95.1294 60.6377 95.2927 60.591C95.4561 60.5443 95.6287 60.521 95.8107 60.521C96.0861 60.521 96.3077 60.5793 96.4757 60.696C96.6437 60.8127 96.7651 60.9737 96.8397 61.179C96.9191 61.3843 96.9587 61.6247 96.9587 61.9V64H96.5387L96.4967 63.587H96.4757C96.3124 63.7223 96.1351 63.839 95.9437 63.937C95.7524 64.035 95.5494 64.084 95.3347 64.084ZM95.4677 63.671C95.6451 63.671 95.8084 63.6313 95.9577 63.552C96.1117 63.468 96.2774 63.349 96.4547 63.195V62.201C96.0534 62.2477 95.7361 62.313 95.5027 62.397C95.2694 62.4763 95.1014 62.5743 94.9987 62.691C94.8961 62.8077 94.8447 62.943 94.8447 63.097C94.8447 63.2977 94.9054 63.4447 95.0267 63.538C95.1527 63.6267 95.2997 63.671 95.4677 63.671ZM99.4799 65.484C99.4053 65.484 99.3353 65.477 99.2699 65.463C99.2046 65.449 99.1463 65.4327 99.0949 65.414L99.1929 65.001C99.2303 65.015 99.2723 65.0267 99.3189 65.036C99.3703 65.05 99.4169 65.057 99.4589 65.057C99.6549 65.057 99.8183 64.9823 99.9489 64.833C100.08 64.6883 100.18 64.504 100.25 64.28L100.334 64.021L98.9619 60.605H99.4869L100.215 62.551C100.271 62.6957 100.327 62.852 100.383 63.02C100.444 63.1833 100.5 63.3443 100.551 63.503H100.579C100.63 63.349 100.682 63.1903 100.733 63.027C100.784 62.859 100.831 62.7003 100.873 62.551L101.51 60.605H102.007L100.719 64.315C100.64 64.5297 100.546 64.7257 100.439 64.903C100.332 65.0803 100.199 65.2203 100.04 65.323C99.8859 65.4303 99.6993 65.484 99.4799 65.484ZM104.087 65.456V60.605H104.507L104.549 61.011H104.57C104.724 60.8757 104.895 60.7613 105.081 60.668C105.273 60.57 105.469 60.521 105.669 60.521C105.963 60.521 106.211 60.5933 106.411 60.738C106.612 60.878 106.761 61.0787 106.859 61.34C106.962 61.5967 107.013 61.9 107.013 62.25C107.013 62.6373 106.943 62.9687 106.803 63.244C106.668 63.5147 106.488 63.7223 106.264 63.867C106.04 64.0117 105.8 64.084 105.543 64.084C105.389 64.084 105.231 64.049 105.067 63.979C104.904 63.909 104.741 63.811 104.577 63.685L104.591 64.287V65.456H104.087ZM105.459 63.65C105.66 63.65 105.837 63.594 105.991 63.482C106.145 63.37 106.267 63.209 106.355 62.999C106.444 62.789 106.488 62.5417 106.488 62.257C106.488 62.0003 106.456 61.774 106.39 61.578C106.33 61.382 106.229 61.2303 106.089 61.123C105.954 61.011 105.774 60.955 105.55 60.955C105.401 60.955 105.247 60.997 105.088 61.081C104.934 61.1603 104.769 61.2817 104.591 61.445V63.279C104.759 63.4143 104.918 63.51 105.067 63.566C105.217 63.622 105.347 63.65 105.459 63.65ZM108.624 64.084C108.437 64.084 108.269 64.0467 108.12 63.972C107.97 63.8973 107.851 63.79 107.763 63.65C107.674 63.5053 107.63 63.3303 107.63 63.125C107.63 62.7563 107.798 62.474 108.134 62.278C108.474 62.0773 109.011 61.9373 109.744 61.858C109.744 61.704 109.723 61.557 109.681 61.417C109.643 61.277 109.571 61.165 109.464 61.081C109.361 60.9923 109.212 60.948 109.016 60.948C108.81 60.948 108.619 60.9877 108.442 61.067C108.269 61.1463 108.117 61.2303 107.987 61.319L107.784 60.969C107.882 60.9037 107.998 60.836 108.134 60.766C108.269 60.696 108.418 60.6377 108.582 60.591C108.745 60.5443 108.918 60.521 109.1 60.521C109.375 60.521 109.597 60.5793 109.765 60.696C109.933 60.8127 110.054 60.9737 110.129 61.179C110.208 61.3843 110.248 61.6247 110.248 61.9V64H109.828L109.786 63.587H109.765C109.601 63.7223 109.424 63.839 109.233 63.937C109.041 64.035 108.838 64.084 108.624 64.084ZM108.757 63.671C108.934 63.671 109.097 63.6313 109.247 63.552C109.401 63.468 109.566 63.349 109.744 63.195V62.201C109.342 62.2477 109.025 62.313 108.792 62.397C108.558 62.4763 108.39 62.5743 108.288 62.691C108.185 62.8077 108.134 62.943 108.134 63.097C108.134 63.2977 108.194 63.4447 108.316 63.538C108.442 63.6267 108.589 63.671 108.757 63.671ZM112.229 64.084C111.986 64.084 111.755 64.0397 111.536 63.951C111.316 63.8577 111.127 63.7457 110.969 63.615L111.228 63.272C111.377 63.3887 111.531 63.4867 111.69 63.566C111.848 63.6453 112.035 63.685 112.25 63.685C112.483 63.685 112.658 63.629 112.775 63.517C112.891 63.405 112.95 63.272 112.95 63.118C112.95 62.9967 112.91 62.8963 112.831 62.817C112.751 62.733 112.651 62.663 112.53 62.607C112.408 62.5463 112.285 62.4927 112.159 62.446C112 62.39 111.841 62.3223 111.683 62.243C111.524 62.1637 111.391 62.0633 111.284 61.942C111.181 61.8207 111.13 61.6643 111.13 61.473C111.13 61.207 111.23 60.983 111.431 60.801C111.636 60.6143 111.921 60.521 112.285 60.521C112.49 60.521 112.681 60.5583 112.859 60.633C113.036 60.7077 113.188 60.7963 113.314 60.899L113.069 61.228C112.952 61.144 112.831 61.074 112.705 61.018C112.583 60.9573 112.443 60.927 112.285 60.927C112.061 60.927 111.895 60.9807 111.788 61.088C111.68 61.1907 111.627 61.3097 111.627 61.445C111.627 61.557 111.662 61.6503 111.732 61.725C111.806 61.795 111.902 61.8557 112.019 61.907C112.135 61.9583 112.259 62.0097 112.39 62.061C112.558 62.1217 112.721 62.1917 112.88 62.271C113.043 62.3457 113.178 62.446 113.286 62.572C113.393 62.698 113.447 62.8707 113.447 63.09C113.447 63.2673 113.4 63.433 113.307 63.587C113.213 63.7363 113.076 63.8577 112.894 63.951C112.712 64.0397 112.49 64.084 112.229 64.084ZM115.043 64.084C114.856 64.084 114.688 64.0467 114.539 63.972C114.389 63.8973 114.27 63.79 114.182 63.65C114.093 63.5053 114.049 63.3303 114.049 63.125C114.049 62.7563 114.217 62.474 114.553 62.278C114.893 62.0773 115.43 61.9373 116.163 61.858C116.163 61.704 116.142 61.557 116.1 61.417C116.062 61.277 115.99 61.165 115.883 61.081C115.78 60.9923 115.631 60.948 115.435 60.948C115.229 60.948 115.038 60.9877 114.861 61.067C114.688 61.1463 114.536 61.2303 114.406 61.319L114.203 60.969C114.301 60.9037 114.417 60.836 114.553 60.766C114.688 60.696 114.837 60.6377 115.001 60.591C115.164 60.5443 115.337 60.521 115.519 60.521C115.794 60.521 116.016 60.5793 116.184 60.696C116.352 60.8127 116.473 60.9737 116.548 61.179C116.627 61.3843 116.667 61.6247 116.667 61.9V64H116.247L116.205 63.587H116.184C116.02 63.7223 115.843 63.839 115.652 63.937C115.46 64.035 115.257 64.084 115.043 64.084ZM115.176 63.671C115.353 63.671 115.516 63.6313 115.666 63.552C115.82 63.468 115.985 63.349 116.163 63.195V62.201C115.761 62.2477 115.444 62.313 115.211 62.397C114.977 62.4763 114.809 62.5743 114.707 62.691C114.604 62.8077 114.553 62.943 114.553 63.097C114.553 63.2977 114.613 63.4447 114.735 63.538C114.861 63.6267 115.008 63.671 115.176 63.671ZM117.416 65.54C117.318 65.54 117.229 65.5307 117.15 65.512C117.066 65.4933 116.993 65.4747 116.933 65.456L117.038 65.064C117.08 65.078 117.129 65.0897 117.185 65.099C117.245 65.113 117.306 65.12 117.367 65.12C117.539 65.12 117.654 65.057 117.71 64.931C117.766 64.8097 117.794 64.6463 117.794 64.441L117.801 60.605H118.305V64.448C118.305 64.6767 118.274 64.8727 118.214 65.036C118.153 65.1993 118.057 65.323 117.927 65.407C117.796 65.4957 117.626 65.54 117.416 65.54ZM117.416 65.54C117.318 65.54 117.229 65.5307 117.15 65.512C117.066 65.4933 116.993 65.4747 116.933 65.456L117.038 65.064C117.08 65.078 117.129 65.0897 117.185 65.099C117.245 65.113 117.306 65.12 117.367 65.12C117.539 65.12 117.654 65.057 117.71 64.931C117.766 64.8097 117.794 64.6463 117.794 64.441L117.801 60.605H118.305V64.448C118.305 64.6767 118.274 64.8727 118.214 65.036C118.153 65.1993 118.057 65.323 117.927 65.407C117.796 65.4957 117.626 65.54 117.416 65.54ZM118.039 59.877C117.941 59.877 117.857 59.8443 117.787 59.779C117.721 59.7137 117.689 59.6273 117.689 59.52C117.689 59.4173 117.721 59.3357 117.787 59.275C117.857 59.2097 117.941 59.177 118.039 59.177C118.141 59.177 118.225 59.2097 118.291 59.275C118.356 59.3357 118.389 59.4173 118.389 59.52C118.389 59.6273 118.356 59.7137 118.291 59.779C118.225 59.8443 118.141 59.877 118.039 59.877ZM120.819 64.084C120.525 64.084 120.254 64.014 120.007 63.874C119.764 63.7293 119.571 63.5263 119.426 63.265C119.281 62.999 119.209 62.6793 119.209 62.306C119.209 61.9373 119.281 61.62 119.426 61.354C119.571 61.088 119.757 60.8827 119.986 60.738C120.219 60.5933 120.467 60.521 120.728 60.521C121.008 60.521 121.248 60.5863 121.449 60.717C121.65 60.8477 121.801 61.032 121.904 61.27C122.011 61.5033 122.065 61.7833 122.065 62.11C122.065 62.166 122.063 62.222 122.058 62.278C122.058 62.3293 122.053 62.376 122.044 62.418H119.608L119.601 62.047H121.61C121.61 61.683 121.533 61.4077 121.379 61.221C121.225 61.0297 121.01 60.934 120.735 60.934C120.567 60.934 120.404 60.983 120.245 61.081C120.086 61.179 119.956 61.3283 119.853 61.529C119.75 61.7297 119.699 61.9887 119.699 62.306C119.699 62.6093 119.753 62.8613 119.86 63.062C119.967 63.2627 120.11 63.4143 120.287 63.517C120.469 63.6197 120.667 63.671 120.882 63.671C121.055 63.671 121.209 63.6453 121.344 63.594C121.484 63.5427 121.617 63.4773 121.743 63.398L121.932 63.734C121.787 63.8273 121.624 63.909 121.442 63.979C121.265 64.049 121.057 64.084 120.819 64.084ZM122.92 64V60.605H123.34L123.382 61.228H123.403C123.52 61.0133 123.66 60.843 123.823 60.717C123.991 60.5863 124.173 60.521 124.369 60.521C124.439 60.521 124.502 60.528 124.558 60.542C124.614 60.5513 124.668 60.5677 124.719 60.591L124.621 61.039C124.565 61.0203 124.514 61.0063 124.467 60.997C124.425 60.9877 124.369 60.983 124.299 60.983C124.155 60.983 124.003 61.0437 123.844 61.165C123.686 61.2817 123.546 61.4893 123.424 61.788V64H122.92ZM126.526 64.084C126.25 64.084 125.994 64.014 125.756 63.874C125.518 63.734 125.326 63.5333 125.182 63.272C125.037 63.006 124.965 62.684 124.965 62.306C124.965 61.928 125.037 61.606 125.182 61.34C125.326 61.074 125.518 60.871 125.756 60.731C125.994 60.591 126.25 60.521 126.526 60.521C126.801 60.521 127.055 60.591 127.289 60.731C127.527 60.871 127.718 61.074 127.863 61.34C128.012 61.606 128.087 61.928 128.087 62.306C128.087 62.684 128.012 63.006 127.863 63.272C127.718 63.5333 127.527 63.734 127.289 63.874C127.055 64.014 126.801 64.084 126.526 64.084ZM126.526 63.657C126.731 63.657 126.911 63.601 127.065 63.489C127.223 63.377 127.345 63.2207 127.429 63.02C127.517 62.8147 127.562 62.5767 127.562 62.306C127.562 62.04 127.517 61.8043 127.429 61.599C127.345 61.3937 127.223 61.235 127.065 61.123C126.911 61.0063 126.731 60.948 126.526 60.948C126.325 60.948 126.145 61.0063 125.987 61.123C125.833 61.235 125.711 61.3937 125.623 61.599C125.539 61.8043 125.497 62.04 125.497 62.306C125.497 62.5767 125.539 62.8147 125.623 63.02C125.711 63.2207 125.833 63.377 125.987 63.489C126.145 63.601 126.325 63.657 126.526 63.657ZM129.865 64.084C129.623 64.084 129.392 64.0397 129.172 63.951C128.953 63.8577 128.764 63.7457 128.605 63.615L128.864 63.272C129.014 63.3887 129.168 63.4867 129.326 63.566C129.485 63.6453 129.672 63.685 129.886 63.685C130.12 63.685 130.295 63.629 130.411 63.517C130.528 63.405 130.586 63.272 130.586 63.118C130.586 62.9967 130.547 62.8963 130.467 62.817C130.388 62.733 130.288 62.663 130.166 62.607C130.045 62.5463 129.921 62.4927 129.795 62.446C129.637 62.39 129.478 62.3223 129.319 62.243C129.161 62.1637 129.028 62.0633 128.92 61.942C128.818 61.8207 128.766 61.6643 128.766 61.473C128.766 61.207 128.867 60.983 129.067 60.801C129.273 60.6143 129.557 60.521 129.921 60.521C130.127 60.521 130.318 60.5583 130.495 60.633C130.673 60.7077 130.824 60.7963 130.95 60.899L130.705 61.228C130.589 61.144 130.467 61.074 130.341 61.018C130.22 60.9573 130.08 60.927 129.921 60.927C129.697 60.927 129.532 60.9807 129.424 61.088C129.317 61.1907 129.263 61.3097 129.263 61.445C129.263 61.557 129.298 61.6503 129.368 61.725C129.443 61.795 129.539 61.8557 129.655 61.907C129.772 61.9583 129.896 62.0097 130.026 62.061C130.194 62.1217 130.358 62.1917 130.516 62.271C130.68 62.3457 130.815 62.446 130.922 62.572C131.03 62.698 131.083 62.8707 131.083 63.09C131.083 63.2673 131.037 63.433 130.943 63.587C130.85 63.7363 130.712 63.8577 130.53 63.951C130.348 64.0397 130.127 64.084 129.865 64.084Z" fill="white"/>
<path d="M41.981 51.132C41.475 51.132 41.0093 51.033 40.584 50.835C40.1587 50.637 39.7883 50.3767 39.473 50.054L39.968 49.493C40.232 49.7717 40.5363 49.9953 40.881 50.164C41.233 50.3327 41.6033 50.417 41.992 50.417C42.4907 50.417 42.8793 50.3033 43.158 50.076C43.4367 49.8413 43.576 49.537 43.576 49.163C43.576 48.9063 43.521 48.701 43.411 48.547C43.301 48.3857 43.1543 48.2537 42.971 48.151C42.7877 48.041 42.5787 47.9347 42.344 47.832L41.299 47.37C41.079 47.2747 40.8553 47.15 40.628 46.996C40.4007 46.842 40.21 46.6477 40.056 46.413C39.9093 46.1783 39.836 45.8813 39.836 45.522C39.836 45.1627 39.9313 44.8437 40.122 44.565C40.3127 44.279 40.5767 44.0553 40.914 43.894C41.2513 43.7253 41.6327 43.641 42.058 43.641C42.4907 43.641 42.8867 43.7253 43.246 43.894C43.6127 44.0627 43.917 44.2753 44.159 44.532L43.719 45.06C43.5063 44.84 43.2607 44.6677 42.982 44.543C42.7107 44.4183 42.4027 44.356 42.058 44.356C41.64 44.356 41.299 44.4587 41.035 44.664C40.7783 44.862 40.65 45.1333 40.65 45.478C40.65 45.72 40.7123 45.918 40.837 46.072C40.9617 46.226 41.1157 46.3543 41.299 46.457C41.4897 46.5523 41.6767 46.6403 41.86 46.721L42.905 47.183C43.191 47.3003 43.444 47.4397 43.664 47.601C43.884 47.7623 44.06 47.964 44.192 48.206C44.3313 48.448 44.401 48.7487 44.401 49.108C44.401 49.482 44.302 49.823 44.104 50.131C43.9133 50.439 43.6347 50.6847 43.268 50.868C42.9087 51.044 42.4797 51.132 41.981 51.132ZM47.1482 51V44.466H44.9262V43.773H50.1732V44.466H47.9622V51H47.1482ZM50.087 51L52.562 43.773H53.464L55.928 51H55.07L53.761 46.908C53.629 46.4973 53.5006 46.094 53.376 45.698C53.2586 45.2947 53.1376 44.8803 53.013 44.455H52.969C52.859 44.8803 52.7416 45.2947 52.617 45.698C52.4996 46.094 52.3713 46.4973 52.232 46.908L50.912 51H50.087ZM51.341 48.723V48.074H54.652V48.723H51.341ZM56.9847 51V43.773H59.1957C59.6797 43.773 60.1087 43.839 60.4827 43.971C60.8567 44.0957 61.15 44.3047 61.3627 44.598C61.5753 44.8913 61.6817 45.2837 61.6817 45.775C61.6817 46.2443 61.5753 46.6367 61.3627 46.952C61.15 47.26 60.8567 47.491 60.4827 47.645C60.1087 47.799 59.6797 47.876 59.1957 47.876H57.7987V51H56.9847ZM60.9557 51L59.0307 47.656L59.6907 47.26L61.8797 51H60.9557ZM57.7987 47.216H59.0637C59.643 47.216 60.0867 47.0987 60.3947 46.864C60.71 46.622 60.8677 46.259 60.8677 45.775C60.8677 45.2837 60.71 44.939 60.3947 44.741C60.0867 44.5357 59.643 44.433 59.0637 44.433H57.7987V47.216ZM65.0015 51.132C64.4955 51.132 64.0298 51.033 63.6045 50.835C63.1792 50.637 62.8088 50.3767 62.4935 50.054L62.9885 49.493C63.2525 49.7717 63.5568 49.9953 63.9015 50.164C64.2535 50.3327 64.6238 50.417 65.0125 50.417C65.5112 50.417 65.8998 50.3033 66.1785 50.076C66.4572 49.8413 66.5965 49.537 66.5965 49.163C66.5965 48.9063 66.5415 48.701 66.4315 48.547C66.3215 48.3857 66.1748 48.2537 65.9915 48.151C65.8082 48.041 65.5992 47.9347 65.3645 47.832L64.3195 47.37C64.0995 47.2747 63.8758 47.15 63.6485 46.996C63.4212 46.842 63.2305 46.6477 63.0765 46.413C62.9298 46.1783 62.8565 45.8813 62.8565 45.522C62.8565 45.1627 62.9518 44.8437 63.1425 44.565C63.3332 44.279 63.5972 44.0553 63.9345 43.894C64.2718 43.7253 64.6532 43.641 65.0785 43.641C65.5112 43.641 65.9072 43.7253 66.2665 43.894C66.6332 44.0627 66.9375 44.2753 67.1795 44.532L66.7395 45.06C66.5268 44.84 66.2812 44.6677 66.0025 44.543C65.7312 44.4183 65.4232 44.356 65.0785 44.356C64.6605 44.356 64.3195 44.4587 64.0555 44.664C63.7988 44.862 63.6705 45.1333 63.6705 45.478C63.6705 45.72 63.7328 45.918 63.8575 46.072C63.9822 46.226 64.1362 46.3543 64.3195 46.457C64.5102 46.5523 64.6972 46.6403 64.8805 46.721L65.9255 47.183C66.2115 47.3003 66.4645 47.4397 66.6845 47.601C66.9045 47.7623 67.0805 47.964 67.2125 48.206C67.3518 48.448 67.4215 48.7487 67.4215 49.108C67.4215 49.482 67.3225 49.823 67.1245 50.131C66.9338 50.439 66.6552 50.6847 66.2885 50.868C65.9292 51.044 65.5002 51.132 65.0015 51.132ZM68.8655 51V43.773H69.6795V46.831H73.1665V43.773H73.9805V51H73.1665V47.546H69.6795V51H68.8655ZM75.9983 51V43.773H76.8123V51H75.9983ZM78.8235 51V43.773H80.8255C81.3609 43.773 81.8302 43.8427 82.2335 43.982C82.6369 44.114 82.9485 44.334 83.1685 44.642C83.3959 44.9427 83.5095 45.3533 83.5095 45.874C83.5095 46.3727 83.3995 46.7833 83.1795 47.106C82.9595 47.4287 82.6515 47.6707 82.2555 47.832C81.8595 47.9933 81.3975 48.074 80.8695 48.074H79.6375V51H78.8235ZM79.6375 47.403H80.7485C81.4085 47.403 81.8962 47.282 82.2115 47.04C82.5342 46.7907 82.6955 46.402 82.6955 45.874C82.6955 45.3313 82.5269 44.9573 82.1895 44.752C81.8595 44.5393 81.3645 44.433 80.7045 44.433H79.6375V47.403Z" fill="white"/>
<path d="M143.176 292.15L150.908 276.959L150.571 162.749L149.144 153.39L150.539 147.829V138.062H154.744V139.69H157.863V138.062H165.73V139.69H168.443C168.308 139.148 168.118 138.062 168.443 138.062H172.241L172.377 147.829C172.599 149.717 173.006 151.583 173.598 153.39L172.241 162.206V276.959L180.244 292.15V299.611L178.752 300.018L173.326 297.034L173.435 298.932H171.943L173.435 301.103H149.665L150.75 298.932H149.529L149.643 297.034L145.732 300.018L143.154 299.611L143.176 292.15Z" fill="#B2B2B2"/>
<path d="M138.016 123.956L150.495 90.588C150.463 79.3461 150.495 60.1556 150.756 47.7255L142.221 45.6909V39.8529L157.223 18.9642C158.91 15.1174 160.592 12.1821 161.753 12.1821C162.915 12.1821 164.797 15.1011 166.599 18.9642L181.014 39.8529V46.0924L172.333 47.7201C172.534 58.8752 172.719 75.5753 172.719 90.5826L184.926 123.95V136.022L176.11 138.057H168.677V139.685H165.692V138.057H157.825V139.685H154.706V138.057H146.703L138.022 136.022L138.016 123.956Z" fill="#DADADA"/>
<path d="M150.501 90.588L138.022 123.956V136.028L146.703 138.062M150.501 90.588C150.468 79.3461 150.501 60.1556 150.761 47.7255M150.501 90.588L153.078 133.179L150.501 138.062M150.501 90.588L146.703 138.062M172.746 90.588L184.953 123.956V136.028L176.137 138.062M172.746 90.588C172.746 75.5753 172.561 58.8752 172.361 47.7255M172.746 90.588L170.44 133.179L172.203 138.062M172.746 90.588L176.137 138.062M146.703 138.062H150.501M150.501 138.062H154.841M150.501 138.062V147.693M150.88 276.959L143.149 292.15V299.611L145.726 300.018L149.638 297.033M150.88 276.959L149.638 297.033M150.88 276.959L150.55 164.105M172.176 276.959L180.179 292.15V299.611L178.687 300.018L173.261 297.033M172.176 276.959L173.261 297.033M172.176 276.959V164.105M172.176 138.062H176.11M172.176 138.062H168.481M172.176 138.062L172.22 147.693M157.228 18.9642C154.559 25.0463 151.895 33.4018 151.315 36.0549C151.065 37.1943 150.886 41.6542 150.772 47.72M157.239 18.9642C158.927 15.1174 160.609 12.1821 161.77 12.1821C162.931 12.1821 164.814 15.1011 166.615 18.9642M157.239 18.9642L142.237 39.8529V45.6854L150.772 47.72M166.615 18.9642C169.328 24.7479 171.916 32.6422 172.078 36.0549C172.165 37.9539 172.274 42.1479 172.371 47.72M166.615 18.9642L181.031 39.8529V46.0924L172.35 47.72M149.665 297.033L149.551 298.932H150.772M173.315 297.033L173.424 298.932H171.932M150.772 298.932L149.687 301.103H173.446L171.954 298.932M150.794 298.932H152.286M171.954 298.932H171.14M154.863 138.062C155.118 131.036 156.805 125.269 157.684 123.142V138.062M154.863 138.062C154.863 138.643 154.863 139.229 154.863 139.826H157.711V138.062M157.711 138.062H165.714M165.714 138.062V139.826H168.563C168.563 139.229 168.563 138.643 168.53 138.062M165.714 138.062V123.142C166.588 125.269 168.275 131.036 168.53 138.062M150.539 147.693H153.631L155.937 155.967L153.631 164.105H150.588M150.539 147.693L149.155 153.39L150.588 164.105M172.241 147.693H169.154L166.848 155.967L169.154 164.105H172.198M172.241 147.693L173.63 153.39L172.198 164.105M158.091 298.932L157.684 276.28L152.259 292.693V298.932M158.091 298.932L152.259 300.018V298.932M158.091 298.932H165.009M165.009 298.932L171.113 300.018V298.932M165.009 298.932L165.416 276.145L171.113 292.693V298.932M154.564 30.7649H169.078C167.673 25.7462 164.249 15.7359 161.753 15.8444C159.258 15.9529 155.926 25.8385 154.57 30.7649H154.564Z" stroke="#010101" stroke-width="0.5"/>
<path d="M138.016 123.956L150.495 90.588C150.463 79.3461 150.495 60.1556 150.756 47.7255L142.221 45.6909V39.8529L157.223 18.9642C158.91 15.1174 160.592 12.1821 161.753 12.1821C162.915 12.1821 164.797 15.1011 166.599 18.9642L181.014 39.8529V46.0924L172.333 47.72C172.534 58.8752 172.719 75.5753 172.719 90.5826L184.926 123.95V136.022L176.11 138.057H172.176V276.953L180.179 292.145V299.605L178.687 300.012L173.261 297.028L173.37 298.927H171.878L173.37 301.097H149.665L150.75 298.927H149.529L149.643 297.028L145.732 300.012L143.154 299.605V292.15L150.886 276.959L150.479 138.062H146.681L138 136.028L138.016 123.956Z" stroke="#010101" stroke-width="1.5"/>
<path d="M161.5 54.5H39.5" stroke="white"/>
<path d="M241.342 46.532H240.257V111.96H241.342V46.532Z" fill="#B2B2B2" stroke="black" stroke-width="0.5" stroke-miterlimit="10"/>
<path d="M230.713 47.8938H229.628V112.502H230.713V47.8938Z" fill="#B2B2B2" stroke="black" stroke-width="0.5" stroke-miterlimit="10"/>
<path d="M236.682 47.3728H235.596V111.981H236.682V47.3728Z" fill="#B2B2B2" stroke="black" stroke-width="0.5" stroke-miterlimit="10"/>
<path d="M225.065 48.6914H223.98V112.481H225.065V48.6914Z" fill="#B2B2B2" stroke="black" stroke-width="0.5" stroke-miterlimit="10"/>
<path d="M243.192 48.458H242.107V112.323H243.192V48.458Z" fill="#DADADA" stroke="black" stroke-width="0.5" stroke-miterlimit="10"/>
<path d="M239.394 46.8954H238.309V112.323H239.394V46.8954Z" fill="#DADADA" stroke="black" stroke-width="0.5" stroke-miterlimit="10"/>
<path d="M227.458 47.7147H226.373V112.323H227.458V47.7147Z" fill="#DADADA" stroke="black" stroke-width="0.5" stroke-miterlimit="10"/>
<path d="M233.426 47.7147H232.341V112.323H233.426V47.7147Z" fill="#DADADA" stroke="black" stroke-width="0.5" stroke-miterlimit="10"/>
<path d="M235.217 12.752H229.455V39.5546H235.217V12.752Z" fill="#DADADA" stroke="black" stroke-width="0.5" stroke-miterlimit="10"/>
<path d="M228.321 301.043V119.317L245.905 117.798V298.178L228.321 301.043Z" fill="#DADADA" stroke="black" stroke-width="0.5" stroke-miterlimit="10"/>
<path d="M223.117 48.5339H222.032V112.323H223.117V48.5339Z" fill="#DADADA" stroke="black" stroke-width="0.5" stroke-miterlimit="10"/>
<path d="M218.685 117.798L228.321 119.317V301.043L218.685 298.102V117.798Z" fill="#DADADA" stroke="black" stroke-width="0.5" stroke-miterlimit="10"/>
<path d="M215.793 119.1C215.793 119.1 232.341 123.533 248.591 119.1L249.974 107.63C249.974 107.63 227.74 105.547 214.171 107.63L215.793 119.1Z" fill="#DADADA" stroke="black" stroke-width="0.5" stroke-miterlimit="10"/>
<path d="M244.277 76.0908H220.947V84.9509H244.277V76.0908Z" fill="#DADADA" stroke="black" stroke-width="0.5" stroke-miterlimit="10"/>
<path d="M214.171 78.234C214.171 78.234 238.309 74.5283 249.974 79.1184V69.1298C249.974 69.1298 232.341 65.6682 214.171 69.1298V78.234Z" fill="#DADADA" stroke="black" stroke-width="0.5" stroke-miterlimit="10"/>
<path d="M216.607 103.056C216.607 103.056 235.255 103.962 247.902 103.056V89.3891C247.902 89.3891 229.628 87.0453 216.607 89.3891V103.056Z" fill="#DADADA" stroke="black" stroke-width="0.5" stroke-miterlimit="10"/>
<path d="M250.484 54.1713C238.819 52.7172 214.681 53.8945 214.681 53.8945V52.511C214.681 52.511 232.818 48.7402 250.484 52.511V54.1713Z" fill="#DADADA" stroke="black" stroke-width="0.5" stroke-miterlimit="10"/>
<path d="M222.032 48.9842C222.032 48.9842 231.798 47.4217 243.192 48.9842V42.799C243.192 42.799 231.798 39.7444 222.032 42.799V48.9842Z" fill="#DADADA" stroke="black" stroke-width="0.5" stroke-miterlimit="10"/>
<path d="M250.381 63.9753C238.716 62.5213 214.577 63.6986 214.577 63.6986V62.3151C214.577 62.3151 232.715 58.5443 250.381 62.3151V63.9753Z" fill="#DADADA" stroke="black" stroke-width="0.5" stroke-miterlimit="10"/>
<path d="M220.676 41.4211V45.0725C220.676 45.0725 233.849 41.9419 244.082 45.0725V41.4428C244.082 41.4428 233.969 36.9938 220.676 41.4211Z" fill="#DADADA" stroke="black" stroke-width="0.5" stroke-miterlimit="10"/>
<path d="M238.309 36.9935H226.915V40.1241H238.309V36.9935Z" fill="#DADADA" stroke="black" stroke-width="0.5" stroke-miterlimit="10"/>
<path d="M232.336 1.00537L231.739 12.7519H233.426L232.336 1.00537Z" fill="#DADADA" stroke="black" stroke-width="0.5" stroke-miterlimit="10"/>
<path d="M250.246 87.5607H214.436V90.6913H250.246V87.5607Z" fill="#DADADA" stroke="black" stroke-width="0.5" stroke-miterlimit="10"/>
<path d="M228.321 301.043L218.679 298.102V119.735L215.787 119.1L214.165 107.63L222.027 106.881V103.262L216.601 103.056V90.6858H214.431V87.5552H222.027V84.9509H220.942V77.4309C220.942 77.4309 213.899 78.2882 214.165 78.2285V69.1189L222.027 68.012V63.4165L214.572 63.6878V62.3151L222.027 61.2354V53.6232L214.675 53.8945V52.511L222.027 51.4421V44.7903L220.67 45.0724V41.421C220.67 41.421 224.74 40.2056 226.91 39.9018V36.9882H229.449V12.7465H231.733L232.33 1L233.421 12.7465H235.211V36.9882H238.304V39.9072C238.304 39.9072 242.796 40.6777 244.077 41.4373V45.067L243.187 44.812V51.3445L250.479 52.5056V54.1658L243.187 53.6124V61.1595L250.376 62.3097V63.9699L243.187 63.4219V68.1802L249.969 69.1189V79.1075C249.969 79.1075 245.357 77.5666 244.272 77.6046V84.9454H243.187V87.5498H250.24V90.6803H247.896V103.051L243.187 103.3V107.131L249.969 107.625L248.585 119.094L245.9 119.751V298.173L228.321 301.043Z" stroke="#010101" stroke-width="1.5"/>
<path d="M153.23 311V310.573H154.259V307.178H153.447V306.849C153.647 306.816 153.822 306.774 153.972 306.723C154.121 306.667 154.256 306.604 154.378 306.534H154.77V310.573H155.701V311H153.23ZM156.325 311V310.699C156.782 310.237 157.17 309.833 157.487 309.488C157.804 309.138 158.045 308.825 158.208 308.55C158.371 308.275 158.453 308.013 158.453 307.766C158.453 307.505 158.381 307.29 158.236 307.122C158.096 306.954 157.874 306.87 157.571 306.87C157.384 306.87 157.207 306.921 157.039 307.024C156.876 307.127 156.729 307.257 156.598 307.416L156.297 307.122C156.484 306.921 156.682 306.76 156.892 306.639C157.102 306.513 157.349 306.45 157.634 306.45C157.905 306.45 158.138 306.504 158.334 306.611C158.535 306.718 158.689 306.87 158.796 307.066C158.903 307.257 158.957 307.484 158.957 307.745C158.957 308.03 158.875 308.317 158.712 308.606C158.553 308.895 158.332 309.203 158.047 309.53C157.767 309.852 157.443 310.207 157.074 310.594C157.195 310.585 157.321 310.578 157.452 310.573C157.583 310.564 157.706 310.559 157.823 310.559H159.174V311H156.325ZM161.212 311.084C160.774 311.084 160.428 310.883 160.176 310.482C159.929 310.076 159.805 309.5 159.805 308.753C159.805 308.002 159.929 307.43 160.176 307.038C160.428 306.646 160.774 306.45 161.212 306.45C161.656 306.45 162.001 306.648 162.248 307.045C162.496 307.437 162.619 308.006 162.619 308.753C162.619 309.5 162.496 310.076 162.248 310.482C162.001 310.883 161.656 311.084 161.212 311.084ZM161.212 310.671C161.394 310.671 161.553 310.603 161.688 310.468C161.828 310.333 161.936 310.123 162.01 309.838C162.085 309.553 162.122 309.192 162.122 308.753C162.122 308.31 162.085 307.95 162.01 307.675C161.936 307.395 161.828 307.19 161.688 307.059C161.553 306.928 161.394 306.863 161.212 306.863C161.03 306.863 160.872 306.928 160.736 307.059C160.601 307.19 160.494 307.395 160.414 307.675C160.34 307.95 160.302 308.31 160.302 308.753C160.302 309.192 160.34 309.553 160.414 309.838C160.494 310.123 160.601 310.333 160.736 310.468C160.872 310.603 161.03 310.671 161.212 310.671ZM164.932 311V307.605H165.352L165.394 308.109H165.415C165.564 307.946 165.728 307.808 165.905 307.696C166.087 307.579 166.276 307.521 166.472 307.521C166.738 307.521 166.943 307.582 167.088 307.703C167.237 307.82 167.345 307.978 167.41 308.179C167.592 307.983 167.774 307.824 167.956 307.703C168.143 307.582 168.336 307.521 168.537 307.521C168.887 307.521 169.146 307.633 169.314 307.857C169.482 308.081 169.566 308.41 169.566 308.844V311H169.055V308.907C169.055 308.58 169.001 308.342 168.894 308.193C168.787 308.044 168.619 307.969 168.39 307.969C168.255 307.969 168.112 308.016 167.963 308.109C167.818 308.198 167.664 308.333 167.501 308.515V311H166.99V308.907C166.99 308.58 166.936 308.342 166.829 308.193C166.726 308.044 166.561 307.969 166.332 307.969C166.061 307.969 165.763 308.151 165.436 308.515V311H164.932Z" fill="white"/>
<path d="M221.159 311V310.573H222.188V307.178H221.376V306.849C221.577 306.816 221.752 306.774 221.901 306.723C222.051 306.667 222.186 306.604 222.307 306.534H222.699V310.573H223.63V311H221.159ZM224.255 311V310.699C224.712 310.237 225.099 309.833 225.417 309.488C225.734 309.138 225.974 308.825 226.138 308.55C226.301 308.275 226.383 308.013 226.383 307.766C226.383 307.505 226.31 307.29 226.166 307.122C226.026 306.954 225.804 306.87 225.501 306.87C225.314 306.87 225.137 306.921 224.969 307.024C224.805 307.127 224.658 307.257 224.528 307.416L224.227 307.122C224.413 306.921 224.612 306.76 224.822 306.639C225.032 306.513 225.279 306.45 225.564 306.45C225.834 306.45 226.068 306.504 226.264 306.611C226.464 306.718 226.618 306.87 226.726 307.066C226.833 307.257 226.887 307.484 226.887 307.745C226.887 308.03 226.805 308.317 226.642 308.606C226.483 308.895 226.261 309.203 225.977 309.53C225.697 309.852 225.372 310.207 225.004 310.594C225.125 310.585 225.251 310.578 225.382 310.573C225.512 310.564 225.636 310.559 225.753 310.559H227.104V311H224.255ZM228.68 311C228.703 310.431 228.762 309.92 228.855 309.467C228.948 309.014 229.086 308.59 229.268 308.193C229.45 307.792 229.688 307.386 229.982 306.975H227.728V306.534H230.57V306.842C230.304 307.183 230.087 307.512 229.919 307.829C229.751 308.142 229.618 308.459 229.52 308.781C229.427 309.103 229.357 309.444 229.31 309.803C229.263 310.162 229.228 310.561 229.205 311H228.68ZM231.327 312.162L231.194 311.854C231.386 311.77 231.535 311.653 231.642 311.504C231.75 311.355 231.803 311.182 231.803 310.986L231.733 310.496L232.006 310.895C231.974 310.942 231.932 310.974 231.88 310.993C231.834 311.007 231.785 311.014 231.733 311.014C231.626 311.014 231.533 310.981 231.453 310.916C231.379 310.851 231.341 310.757 231.341 310.636C231.341 310.519 231.381 310.428 231.46 310.363C231.544 310.298 231.638 310.265 231.74 310.265C231.885 310.265 231.997 310.321 232.076 310.433C232.156 310.545 232.195 310.699 232.195 310.895C232.195 311.184 232.116 311.439 231.957 311.658C231.803 311.877 231.593 312.045 231.327 312.162ZM234.206 311.084C233.968 311.084 233.758 311.054 233.576 310.993C233.394 310.932 233.235 310.855 233.1 310.762C232.964 310.664 232.848 310.561 232.75 310.454L233.009 310.118C233.144 310.258 233.303 310.384 233.485 310.496C233.671 310.603 233.902 310.657 234.178 310.657C234.458 310.657 234.686 310.58 234.864 310.426C235.046 310.267 235.137 310.057 235.137 309.796C235.137 309.614 235.088 309.453 234.99 309.313C234.896 309.173 234.742 309.066 234.528 308.991C234.318 308.912 234.033 308.872 233.674 308.872V308.473C233.996 308.473 234.25 308.436 234.437 308.361C234.628 308.282 234.766 308.177 234.85 308.046C234.934 307.915 234.976 307.768 234.976 307.605C234.976 307.381 234.903 307.204 234.759 307.073C234.614 306.938 234.418 306.87 234.171 306.87C233.979 306.87 233.802 306.914 233.639 307.003C233.475 307.087 233.328 307.197 233.198 307.332L232.918 307.003C233.09 306.844 233.279 306.714 233.485 306.611C233.69 306.504 233.923 306.45 234.185 306.45C234.437 306.45 234.661 306.494 234.857 306.583C235.053 306.672 235.207 306.8 235.319 306.968C235.435 307.131 235.494 307.332 235.494 307.57C235.494 307.845 235.417 308.072 235.263 308.249C235.113 308.422 234.915 308.552 234.668 308.641V308.669C234.85 308.711 235.015 308.783 235.165 308.886C235.314 308.984 235.433 309.112 235.522 309.271C235.61 309.425 235.655 309.605 235.655 309.81C235.655 310.076 235.589 310.305 235.459 310.496C235.328 310.683 235.153 310.827 234.934 310.93C234.714 311.033 234.472 311.084 234.206 311.084ZM238.002 311V307.605H238.422L238.464 308.109H238.485C238.635 307.946 238.798 307.808 238.975 307.696C239.157 307.579 239.346 307.521 239.542 307.521C239.808 307.521 240.014 307.582 240.158 307.703C240.308 307.82 240.415 307.978 240.48 308.179C240.662 307.983 240.844 307.824 241.026 307.703C241.213 307.582 241.407 307.521 241.607 307.521C241.957 307.521 242.216 307.633 242.384 307.857C242.552 308.081 242.636 308.41 242.636 308.844V311H242.125V308.907C242.125 308.58 242.072 308.342 241.964 308.193C241.857 308.044 241.689 307.969 241.46 307.969C241.325 307.969 241.183 308.016 241.033 308.109C240.889 308.198 240.735 308.333 240.571 308.515V311H240.06V308.907C240.06 308.58 240.007 308.342 239.899 308.193C239.797 308.044 239.631 307.969 239.402 307.969C239.132 307.969 238.833 308.151 238.506 308.515V311H238.002Z" fill="white"/>
<circle cx="161.5" cy="54.5" r="1.5" fill="white"/>
<path d="M40.644 223V218.401H41.918C42.2587 218.401 42.5573 218.445 42.814 218.534C43.0707 218.618 43.269 218.758 43.409 218.954C43.5537 219.145 43.626 219.407 43.626 219.738C43.626 220.055 43.556 220.317 43.416 220.522C43.276 220.727 43.08 220.881 42.828 220.984C42.576 221.087 42.282 221.138 41.946 221.138H41.162V223H40.644ZM41.162 220.711H41.869C42.289 220.711 42.5993 220.634 42.8 220.48C43.0053 220.321 43.108 220.074 43.108 219.738C43.108 219.393 43.0007 219.155 42.786 219.024C42.576 218.889 42.261 218.821 41.841 218.821H41.162V220.711ZM44.5257 223V219.605H44.9457L44.9877 220.228H45.0087C45.1253 220.013 45.2653 219.843 45.4287 219.717C45.5967 219.586 45.7787 219.521 45.9747 219.521C46.0447 219.521 46.1077 219.528 46.1637 219.542C46.2197 219.551 46.2733 219.568 46.3247 219.591L46.2267 220.039C46.1707 220.02 46.1193 220.006 46.0727 219.997C46.0307 219.988 45.9747 219.983 45.9047 219.983C45.76 219.983 45.6083 220.044 45.4497 220.165C45.291 220.282 45.151 220.489 45.0297 220.788V223H44.5257ZM48.1312 223.084C47.8559 223.084 47.5992 223.014 47.3612 222.874C47.1232 222.734 46.9319 222.533 46.7872 222.272C46.6425 222.006 46.5702 221.684 46.5702 221.306C46.5702 220.928 46.6425 220.606 46.7872 220.34C46.9319 220.074 47.1232 219.871 47.3612 219.731C47.5992 219.591 47.8559 219.521 48.1312 219.521C48.4065 219.521 48.6609 219.591 48.8942 219.731C49.1322 219.871 49.3235 220.074 49.4682 220.34C49.6175 220.606 49.6922 220.928 49.6922 221.306C49.6922 221.684 49.6175 222.006 49.4682 222.272C49.3235 222.533 49.1322 222.734 48.8942 222.874C48.6609 223.014 48.4065 223.084 48.1312 223.084ZM48.1312 222.657C48.3365 222.657 48.5162 222.601 48.6702 222.489C48.8289 222.377 48.9502 222.221 49.0342 222.02C49.1229 221.815 49.1672 221.577 49.1672 221.306C49.1672 221.04 49.1229 220.804 49.0342 220.599C48.9502 220.394 48.8289 220.235 48.6702 220.123C48.5162 220.006 48.3365 219.948 48.1312 219.948C47.9305 219.948 47.7509 220.006 47.5922 220.123C47.4382 220.235 47.3169 220.394 47.2282 220.599C47.1442 220.804 47.1022 221.04 47.1022 221.306C47.1022 221.577 47.1442 221.815 47.2282 222.02C47.3169 222.221 47.4382 222.377 47.5922 222.489C47.7509 222.601 47.9305 222.657 48.1312 222.657ZM50.6165 224.456V219.605H51.0365L51.0785 220.011H51.0995C51.2535 219.876 51.4238 219.761 51.6105 219.668C51.8018 219.57 51.9978 219.521 52.1985 219.521C52.4925 219.521 52.7398 219.593 52.9405 219.738C53.1412 219.878 53.2905 220.079 53.3885 220.34C53.4912 220.597 53.5425 220.9 53.5425 221.25C53.5425 221.637 53.4725 221.969 53.3325 222.244C53.1972 222.515 53.0175 222.722 52.7935 222.867C52.5695 223.012 52.3292 223.084 52.0725 223.084C51.9185 223.084 51.7598 223.049 51.5965 222.979C51.4332 222.909 51.2698 222.811 51.1065 222.685L51.1205 223.287V224.456H50.6165ZM51.9885 222.65C52.1892 222.65 52.3665 222.594 52.5205 222.482C52.6745 222.37 52.7958 222.209 52.8845 221.999C52.9732 221.789 53.0175 221.542 53.0175 221.257C53.0175 221 52.9848 220.774 52.9195 220.578C52.8588 220.382 52.7585 220.23 52.6185 220.123C52.4832 220.011 52.3035 219.955 52.0795 219.955C51.9302 219.955 51.7762 219.997 51.6175 220.081C51.4635 220.16 51.2978 220.282 51.1205 220.445V222.279C51.2885 222.414 51.4472 222.51 51.5965 222.566C51.7458 222.622 51.8765 222.65 51.9885 222.65ZM55.4588 223.084C55.1088 223.084 54.8498 222.972 54.6818 222.748C54.5138 222.524 54.4298 222.195 54.4298 221.761V219.605H54.9338V221.698C54.9338 222.025 54.9875 222.265 55.0948 222.419C55.2021 222.568 55.3748 222.643 55.6128 222.643C55.7901 222.643 55.9511 222.596 56.0958 222.503C56.2405 222.405 56.3968 222.251 56.5648 222.041V219.605H57.0758V223H56.6488L56.6068 222.461H56.5858C56.4271 222.648 56.2591 222.799 56.0818 222.916C55.9045 223.028 55.6968 223.084 55.4588 223.084ZM58.8121 223.084C58.6861 223.084 58.5811 223.056 58.4971 223C58.4131 222.949 58.3524 222.872 58.3151 222.769C58.2777 222.662 58.2591 222.531 58.2591 222.377V218.002H58.7631V222.419C58.7631 222.503 58.7794 222.564 58.8121 222.601C58.8447 222.638 58.8821 222.657 58.9241 222.657C58.9381 222.657 58.9544 222.657 58.9731 222.657C58.9917 222.652 59.0174 222.648 59.0501 222.643L59.1201 223.035C59.0827 223.044 59.0384 223.054 58.9871 223.063C58.9404 223.077 58.8821 223.084 58.8121 223.084ZM60.8771 223.084C60.6344 223.084 60.4034 223.04 60.1841 222.951C59.9647 222.858 59.7757 222.746 59.6171 222.615L59.8761 222.272C60.0254 222.389 60.1794 222.487 60.3381 222.566C60.4967 222.645 60.6834 222.685 60.8981 222.685C61.1314 222.685 61.3064 222.629 61.4231 222.517C61.5397 222.405 61.5981 222.272 61.5981 222.118C61.5981 221.997 61.5584 221.896 61.4791 221.817C61.3997 221.733 61.2994 221.663 61.1781 221.607C61.0567 221.546 60.9331 221.493 60.8071 221.446C60.6484 221.39 60.4897 221.322 60.3311 221.243C60.1724 221.164 60.0394 221.063 59.9321 220.942C59.8294 220.821 59.7781 220.664 59.7781 220.473C59.7781 220.207 59.8784 219.983 60.0791 219.801C60.2844 219.614 60.5691 219.521 60.9331 219.521C61.1384 219.521 61.3297 219.558 61.5071 219.633C61.6844 219.708 61.8361 219.796 61.9621 219.899L61.7171 220.228C61.6004 220.144 61.4791 220.074 61.3531 220.018C61.2317 219.957 61.0917 219.927 60.9331 219.927C60.7091 219.927 60.5434 219.981 60.4361 220.088C60.3287 220.191 60.2751 220.31 60.2751 220.445C60.2751 220.557 60.3101 220.65 60.3801 220.725C60.4547 220.795 60.5504 220.856 60.6671 220.907C60.7837 220.958 60.9074 221.01 61.0381 221.061C61.2061 221.122 61.3694 221.192 61.5281 221.271C61.6914 221.346 61.8267 221.446 61.9341 221.572C62.0414 221.698 62.0951 221.871 62.0951 222.09C62.0951 222.267 62.0484 222.433 61.9551 222.587C61.8617 222.736 61.7241 222.858 61.5421 222.951C61.3601 223.04 61.1384 223.084 60.8771 223.084ZM64.2162 223.084C63.9408 223.084 63.6842 223.014 63.4462 222.874C63.2082 222.734 63.0168 222.533 62.8722 222.272C62.7275 222.006 62.6552 221.684 62.6552 221.306C62.6552 220.928 62.7275 220.606 62.8722 220.34C63.0168 220.074 63.2082 219.871 63.4462 219.731C63.6842 219.591 63.9408 219.521 64.2162 219.521C64.4915 219.521 64.7458 219.591 64.9792 219.731C65.2172 219.871 65.4085 220.074 65.5532 220.34C65.7025 220.606 65.7772 220.928 65.7772 221.306C65.7772 221.684 65.7025 222.006 65.5532 222.272C65.4085 222.533 65.2172 222.734 64.9792 222.874C64.7458 223.014 64.4915 223.084 64.2162 223.084ZM64.2162 222.657C64.4215 222.657 64.6012 222.601 64.7552 222.489C64.9138 222.377 65.0352 222.221 65.1192 222.02C65.2078 221.815 65.2522 221.577 65.2522 221.306C65.2522 221.04 65.2078 220.804 65.1192 220.599C65.0352 220.394 64.9138 220.235 64.7552 220.123C64.6012 220.006 64.4215 219.948 64.2162 219.948C64.0155 219.948 63.8358 220.006 63.6772 220.123C63.5232 220.235 63.4018 220.394 63.3132 220.599C63.2292 220.804 63.1872 221.04 63.1872 221.306C63.1872 221.577 63.2292 221.815 63.3132 222.02C63.4018 222.221 63.5232 222.377 63.6772 222.489C63.8358 222.601 64.0155 222.657 64.2162 222.657ZM66.7014 223V219.605H67.1214L67.1634 220.228H67.1844C67.3011 220.013 67.4411 219.843 67.6044 219.717C67.7724 219.586 67.9544 219.521 68.1504 219.521C68.2204 219.521 68.2834 219.528 68.3394 219.542C68.3954 219.551 68.4491 219.568 68.5004 219.591L68.4024 220.039C68.3464 220.02 68.2951 220.006 68.2484 219.997C68.2064 219.988 68.1504 219.983 68.0804 219.983C67.9358 219.983 67.7841 220.044 67.6254 220.165C67.4668 220.282 67.3268 220.489 67.2054 220.788V223H66.7014ZM71.6227 223.084C71.1981 223.084 70.8597 222.93 70.6077 222.622C70.3557 222.309 70.2297 221.871 70.2297 221.306C70.2297 220.942 70.2974 220.627 70.4327 220.361C70.5727 220.095 70.7547 219.89 70.9787 219.745C71.2027 219.596 71.4454 219.521 71.7067 219.521C71.9074 219.521 72.0801 219.556 72.2247 219.626C72.3694 219.696 72.5187 219.794 72.6727 219.92L72.6517 219.332V218.002H73.1557V223H72.7357L72.6937 222.587H72.6727C72.5421 222.722 72.3857 222.839 72.2037 222.937C72.0264 223.035 71.8327 223.084 71.6227 223.084ZM71.7347 222.65C71.8981 222.65 72.0544 222.61 72.2037 222.531C72.3531 222.447 72.5024 222.326 72.6517 222.167V220.326C72.4977 220.191 72.3507 220.095 72.2107 220.039C72.0707 219.983 71.9284 219.955 71.7837 219.955C71.5924 219.955 71.4174 220.013 71.2587 220.13C71.1047 220.242 70.9811 220.401 70.8877 220.606C70.7991 220.807 70.7547 221.04 70.7547 221.306C70.7547 221.721 70.8387 222.05 71.0067 222.293C71.1794 222.531 71.4221 222.65 71.7347 222.65ZM75.688 223.084C75.394 223.084 75.1234 223.014 74.876 222.874C74.6334 222.729 74.4397 222.526 74.295 222.265C74.1504 221.999 74.078 221.679 74.078 221.306C74.078 220.937 74.1504 220.62 74.295 220.354C74.4397 220.088 74.6264 219.883 74.855 219.738C75.0884 219.593 75.3357 219.521 75.597 219.521C75.877 219.521 76.1174 219.586 76.318 219.717C76.5187 219.848 76.6704 220.032 76.773 220.27C76.8804 220.503 76.934 220.783 76.934 221.11C76.934 221.166 76.9317 221.222 76.927 221.278C76.927 221.329 76.9224 221.376 76.913 221.418H74.477L74.47 221.047H76.479C76.479 220.683 76.402 220.408 76.248 220.221C76.094 220.03 75.8794 219.934 75.604 219.934C75.436 219.934 75.2727 219.983 75.114 220.081C74.9554 220.179 74.8247 220.328 74.722 220.529C74.6194 220.73 74.568 220.989 74.568 221.306C74.568 221.609 74.6217 221.861 74.729 222.062C74.8364 222.263 74.9787 222.414 75.156 222.517C75.338 222.62 75.5364 222.671 75.751 222.671C75.9237 222.671 76.0777 222.645 76.213 222.594C76.353 222.543 76.486 222.477 76.612 222.398L76.801 222.734C76.6564 222.827 76.493 222.909 76.311 222.979C76.1337 223.049 75.926 223.084 75.688 223.084ZM79.7437 223.084C79.6177 223.084 79.5127 223.056 79.4287 223C79.3447 222.949 79.284 222.872 79.2467 222.769C79.2094 222.662 79.1907 222.531 79.1907 222.377V218.002H79.6947V222.419C79.6947 222.503 79.711 222.564 79.7437 222.601C79.7764 222.638 79.8137 222.657 79.8557 222.657C79.8697 222.657 79.886 222.657 79.9047 222.657C79.9234 222.652 79.949 222.648 79.9817 222.643L80.0517 223.035C80.0144 223.044 79.97 223.054 79.9187 223.063C79.872 223.077 79.8137 223.084 79.7437 223.084ZM81.7107 223.084C81.524 223.084 81.356 223.047 81.2067 222.972C81.0574 222.897 80.9384 222.79 80.8497 222.65C80.761 222.505 80.7167 222.33 80.7167 222.125C80.7167 221.756 80.8847 221.474 81.2207 221.278C81.5614 221.077 82.098 220.937 82.8307 220.858C82.8307 220.704 82.8097 220.557 82.7677 220.417C82.7304 220.277 82.658 220.165 82.5507 220.081C82.448 219.992 82.2987 219.948 82.1027 219.948C81.8974 219.948 81.706 219.988 81.5287 220.067C81.356 220.146 81.2044 220.23 81.0737 220.319L80.8707 219.969C80.9687 219.904 81.0854 219.836 81.2207 219.766C81.356 219.696 81.5054 219.638 81.6687 219.591C81.832 219.544 82.0047 219.521 82.1867 219.521C82.462 219.521 82.6837 219.579 82.8517 219.696C83.0197 219.813 83.141 219.974 83.2157 220.179C83.295 220.384 83.3347 220.625 83.3347 220.9V223H82.9147L82.8727 222.587H82.8517C82.6884 222.722 82.511 222.839 82.3197 222.937C82.1284 223.035 81.9254 223.084 81.7107 223.084ZM81.8437 222.671C82.021 222.671 82.1844 222.631 82.3337 222.552C82.4877 222.468 82.6534 222.349 82.8307 222.195V221.201C82.4294 221.248 82.112 221.313 81.8787 221.397C81.6454 221.476 81.4774 221.574 81.3747 221.691C81.272 221.808 81.2207 221.943 81.2207 222.097C81.2207 222.298 81.2814 222.445 81.4027 222.538C81.5287 222.627 81.6757 222.671 81.8437 222.671ZM84.4475 223V219.605H84.8675L84.9095 220.109H84.9305C85.0939 219.941 85.2665 219.801 85.4485 219.689C85.6352 219.577 85.8429 219.521 86.0715 219.521C86.4309 219.521 86.6922 219.633 86.8555 219.857C87.0235 220.081 87.1075 220.41 87.1075 220.844V223H86.5965V220.907C86.5965 220.58 86.5429 220.342 86.4355 220.193C86.3329 220.044 86.1625 219.969 85.9245 219.969C85.7472 219.969 85.5862 220.016 85.4415 220.109C85.2969 220.198 85.1335 220.333 84.9515 220.515V223H84.4475ZM87.8633 223V222.727L89.7043 220.025H88.0663V219.605H90.3483V219.878L88.5073 222.58H90.4113V223H87.8633ZM91.78 223.084C91.5934 223.084 91.4254 223.047 91.276 222.972C91.1267 222.897 91.0077 222.79 90.919 222.65C90.8304 222.505 90.786 222.33 90.786 222.125C90.786 221.756 90.954 221.474 91.29 221.278C91.6307 221.077 92.1674 220.937 92.9 220.858C92.9 220.704 92.879 220.557 92.837 220.417C92.7997 220.277 92.7274 220.165 92.62 220.081C92.5174 219.992 92.368 219.948 92.172 219.948C91.9667 219.948 91.7754 219.988 91.598 220.067C91.4254 220.146 91.2737 220.23 91.143 220.319L90.94 219.969C91.038 219.904 91.1547 219.836 91.29 219.766C91.4254 219.696 91.5747 219.638 91.738 219.591C91.9014 219.544 92.074 219.521 92.256 219.521C92.5314 219.521 92.753 219.579 92.921 219.696C93.089 219.813 93.2104 219.974 93.285 220.179C93.3644 220.384 93.404 220.625 93.404 220.9V223H92.984L92.942 222.587H92.921C92.7577 222.722 92.5804 222.839 92.389 222.937C92.1977 223.035 91.9947 223.084 91.78 223.084ZM91.913 222.671C92.0904 222.671 92.2537 222.631 92.403 222.552C92.557 222.468 92.7227 222.349 92.9 222.195V221.201C92.4987 221.248 92.1814 221.313 91.948 221.397C91.7147 221.476 91.5467 221.574 91.444 221.691C91.3414 221.808 91.29 221.943 91.29 222.097C91.29 222.298 91.3507 222.445 91.472 222.538C91.598 222.627 91.745 222.671 91.913 222.671ZM94.5169 223V219.605H94.9369L94.9789 220.109H94.9999C95.1492 219.946 95.3125 219.808 95.4899 219.696C95.6719 219.579 95.8609 219.521 96.0569 219.521C96.3229 219.521 96.5282 219.582 96.6729 219.703C96.8222 219.82 96.9295 219.978 96.9949 220.179C97.1769 219.983 97.3589 219.824 97.5409 219.703C97.7275 219.582 97.9212 219.521 98.1219 219.521C98.4719 219.521 98.7309 219.633 98.8989 219.857C99.0669 220.081 99.1509 220.41 99.1509 220.844V223H98.6399V220.907C98.6399 220.58 98.5862 220.342 98.4789 220.193C98.3715 220.044 98.2035 219.969 97.9749 219.969C97.8395 219.969 97.6972 220.016 97.5479 220.109C97.4032 220.198 97.2492 220.333 97.0859 220.515V223H96.5749V220.907C96.5749 220.58 96.5212 220.342 96.4139 220.193C96.3112 220.044 96.1455 219.969 95.9169 219.969C95.6462 219.969 95.3475 220.151 95.0209 220.515V223H94.5169ZM100.293 223V219.605H100.797V223H100.293ZM100.552 218.877C100.454 218.877 100.37 218.844 100.3 218.779C100.235 218.714 100.202 218.627 100.202 218.52C100.202 218.417 100.235 218.336 100.3 218.275C100.37 218.21 100.454 218.177 100.552 218.177C100.655 218.177 100.739 218.21 100.804 218.275C100.87 218.336 100.902 218.417 100.902 218.52C100.902 218.627 100.87 218.714 100.804 218.779C100.739 218.844 100.655 218.877 100.552 218.877ZM103.333 223.084C103.039 223.084 102.768 223.014 102.521 222.874C102.278 222.729 102.084 222.526 101.94 222.265C101.795 221.999 101.723 221.679 101.723 221.306C101.723 220.937 101.795 220.62 101.94 220.354C102.084 220.088 102.271 219.883 102.5 219.738C102.733 219.593 102.98 219.521 103.242 219.521C103.522 219.521 103.762 219.586 103.963 219.717C104.163 219.848 104.315 220.032 104.418 220.27C104.525 220.503 104.579 220.783 104.579 221.11C104.579 221.166 104.576 221.222 104.572 221.278C104.572 221.329 104.567 221.376 104.558 221.418H102.122L102.115 221.047H104.124C104.124 220.683 104.047 220.408 103.893 220.221C103.739 220.03 103.524 219.934 103.249 219.934C103.081 219.934 102.917 219.983 102.759 220.081C102.6 220.179 102.469 220.328 102.367 220.529C102.264 220.73 102.213 220.989 102.213 221.306C102.213 221.609 102.266 221.861 102.374 222.062C102.481 222.263 102.623 222.414 102.801 222.517C102.983 222.62 103.181 222.671 103.396 222.671C103.568 222.671 103.722 222.645 103.858 222.594C103.998 222.543 104.131 222.477 104.257 222.398L104.446 222.734C104.301 222.827 104.138 222.909 103.956 222.979C103.778 223.049 103.571 223.084 103.333 223.084ZM105.434 223V219.605H105.854L105.896 220.109H105.917C106.08 219.941 106.253 219.801 106.435 219.689C106.622 219.577 106.829 219.521 107.058 219.521C107.417 219.521 107.679 219.633 107.842 219.857C108.01 220.081 108.094 220.41 108.094 220.844V223H107.583V220.907C107.583 220.58 107.529 220.342 107.422 220.193C107.319 220.044 107.149 219.969 106.911 219.969C106.734 219.969 106.573 220.016 106.428 220.109C106.283 220.198 106.12 220.333 105.938 220.515V223H105.434ZM110.264 223.084C109.914 223.084 109.669 222.981 109.529 222.776C109.393 222.571 109.326 222.305 109.326 221.978V220.025H108.815V219.64L109.347 219.605L109.41 218.646H109.837V219.605H110.768V220.025H109.837V221.992C109.837 222.202 109.874 222.368 109.949 222.489C110.028 222.606 110.17 222.664 110.376 222.664C110.436 222.664 110.502 222.655 110.572 222.636C110.646 222.617 110.712 222.596 110.768 222.573L110.873 222.958C110.779 222.991 110.679 223.019 110.572 223.042C110.464 223.07 110.362 223.084 110.264 223.084ZM112.758 223.084C112.483 223.084 112.226 223.014 111.988 222.874C111.75 222.734 111.559 222.533 111.414 222.272C111.269 222.006 111.197 221.684 111.197 221.306C111.197 220.928 111.269 220.606 111.414 220.34C111.559 220.074 111.75 219.871 111.988 219.731C112.226 219.591 112.483 219.521 112.758 219.521C113.033 219.521 113.288 219.591 113.521 219.731C113.759 219.871 113.95 220.074 114.095 220.34C114.244 220.606 114.319 220.928 114.319 221.306C114.319 221.684 114.244 222.006 114.095 222.272C113.95 222.533 113.759 222.734 113.521 222.874C113.288 223.014 113.033 223.084 112.758 223.084ZM112.758 222.657C112.963 222.657 113.143 222.601 113.297 222.489C113.456 222.377 113.577 222.221 113.661 222.02C113.75 221.815 113.794 221.577 113.794 221.306C113.794 221.04 113.75 220.804 113.661 220.599C113.577 220.394 113.456 220.235 113.297 220.123C113.143 220.006 112.963 219.948 112.758 219.948C112.557 219.948 112.378 220.006 112.219 220.123C112.065 220.235 111.944 220.394 111.855 220.599C111.771 220.804 111.729 221.04 111.729 221.306C111.729 221.577 111.771 221.815 111.855 222.02C111.944 222.221 112.065 222.377 112.219 222.489C112.378 222.601 112.557 222.657 112.758 222.657ZM40.595 233.456V228.605H41.015L41.057 229.011H41.078C41.232 228.876 41.4023 228.761 41.589 228.668C41.7803 228.57 41.9763 228.521 42.177 228.521C42.471 228.521 42.7183 228.593 42.919 228.738C43.1197 228.878 43.269 229.079 43.367 229.34C43.4697 229.597 43.521 229.9 43.521 230.25C43.521 230.637 43.451 230.969 43.311 231.244C43.1757 231.515 42.996 231.722 42.772 231.867C42.548 232.012 42.3077 232.084 42.051 232.084C41.897 232.084 41.7383 232.049 41.575 231.979C41.4117 231.909 41.2483 231.811 41.085 231.685L41.099 232.287V233.456H40.595ZM41.967 231.65C42.1677 231.65 42.345 231.594 42.499 231.482C42.653 231.37 42.7743 231.209 42.863 230.999C42.9517 230.789 42.996 230.542 42.996 230.257C42.996 230 42.9633 229.774 42.898 229.578C42.8373 229.382 42.737 229.23 42.597 229.123C42.4617 229.011 42.282 228.955 42.058 228.955C41.9087 228.955 41.7547 228.997 41.596 229.081C41.442 229.16 41.2763 229.282 41.099 229.445V231.279C41.267 231.414 41.4257 231.51 41.575 231.566C41.7243 231.622 41.855 231.65 41.967 231.65ZM45.7523 232.084C45.477 232.084 45.2203 232.014 44.9823 231.874C44.7443 231.734 44.553 231.533 44.4083 231.272C44.2636 231.006 44.1913 230.684 44.1913 230.306C44.1913 229.928 44.2636 229.606 44.4083 229.34C44.553 229.074 44.7443 228.871 44.9823 228.731C45.2203 228.591 45.477 228.521 45.7523 228.521C46.0276 228.521 46.282 228.591 46.5153 228.731C46.7533 228.871 46.9446 229.074 47.0893 229.34C47.2386 229.606 47.3133 229.928 47.3133 230.306C47.3133 230.684 47.2386 231.006 47.0893 231.272C46.9446 231.533 46.7533 231.734 46.5153 231.874C46.282 232.014 46.0276 232.084 45.7523 232.084ZM45.7523 231.657C45.9576 231.657 46.1373 231.601 46.2913 231.489C46.45 231.377 46.5713 231.221 46.6553 231.02C46.744 230.815 46.7883 230.577 46.7883 230.306C46.7883 230.04 46.744 229.804 46.6553 229.599C46.5713 229.394 46.45 229.235 46.2913 229.123C46.1373 229.006 45.9576 228.948 45.7523 228.948C45.5516 228.948 45.372 229.006 45.2133 229.123C45.0593 229.235 44.938 229.394 44.8493 229.599C44.7653 229.804 44.7233 230.04 44.7233 230.306C44.7233 230.577 44.7653 230.815 44.8493 231.02C44.938 231.221 45.0593 231.377 45.2133 231.489C45.372 231.601 45.5516 231.657 45.7523 231.657ZM49.1572 232.084C48.8072 232.084 48.5622 231.981 48.4222 231.776C48.2869 231.571 48.2192 231.305 48.2192 230.978V229.025H47.7082V228.64L48.2402 228.605L48.3032 227.646H48.7302V228.605H49.6612V229.025H48.7302V230.992C48.7302 231.202 48.7675 231.368 48.8422 231.489C48.9215 231.606 49.0639 231.664 49.2692 231.664C49.3299 231.664 49.3952 231.655 49.4652 231.636C49.5399 231.617 49.6052 231.596 49.6612 231.573L49.7662 231.958C49.6729 231.991 49.5725 232.019 49.4652 232.042C49.3579 232.07 49.2552 232.084 49.1572 232.084ZM51.7007 232.084C51.4067 232.084 51.1361 232.014 50.8887 231.874C50.6461 231.729 50.4524 231.526 50.3077 231.265C50.1631 230.999 50.0907 230.679 50.0907 230.306C50.0907 229.937 50.1631 229.62 50.3077 229.354C50.4524 229.088 50.6391 228.883 50.8677 228.738C51.1011 228.593 51.3484 228.521 51.6097 228.521C51.8897 228.521 52.1301 228.586 52.3307 228.717C52.5314 228.848 52.6831 229.032 52.7857 229.27C52.8931 229.503 52.9467 229.783 52.9467 230.11C52.9467 230.166 52.9444 230.222 52.9397 230.278C52.9397 230.329 52.9351 230.376 52.9257 230.418H50.4897L50.4827 230.047H52.4917C52.4917 229.683 52.4147 229.408 52.2607 229.221C52.1067 229.03 51.8921 228.934 51.6167 228.934C51.4487 228.934 51.2854 228.983 51.1267 229.081C50.9681 229.179 50.8374 229.328 50.7347 229.529C50.6321 229.73 50.5807 229.989 50.5807 230.306C50.5807 230.609 50.6344 230.861 50.7417 231.062C50.8491 231.263 50.9914 231.414 51.1687 231.517C51.3507 231.62 51.5491 231.671 51.7637 231.671C51.9364 231.671 52.0904 231.645 52.2257 231.594C52.3657 231.543 52.4987 231.477 52.6247 231.398L52.8137 231.734C52.6691 231.827 52.5057 231.909 52.3237 231.979C52.1464 232.049 51.9387 232.084 51.7007 232.084ZM53.802 232V228.605H54.222L54.264 229.109H54.285C54.4484 228.941 54.621 228.801 54.803 228.689C54.9897 228.577 55.1974 228.521 55.426 228.521C55.7854 228.521 56.0467 228.633 56.21 228.857C56.378 229.081 56.462 229.41 56.462 229.844V232H55.951V229.907C55.951 229.58 55.8974 229.342 55.79 229.193C55.6874 229.044 55.517 228.969 55.279 228.969C55.1017 228.969 54.9407 229.016 54.796 229.109C54.6514 229.198 54.488 229.333 54.306 229.515V232H53.802ZM58.9188 232.084C58.6201 232.084 58.3518 232.014 58.1138 231.874C57.8758 231.734 57.6868 231.533 57.5468 231.272C57.4068 231.006 57.3368 230.684 57.3368 230.306C57.3368 229.928 57.4115 229.606 57.5608 229.34C57.7148 229.074 57.9131 228.871 58.1558 228.731C58.3985 228.591 58.6645 228.521 58.9538 228.521C59.1778 228.521 59.3691 228.563 59.5278 228.647C59.6865 228.726 59.8241 228.82 59.9408 228.927L59.6748 229.263C59.5768 229.17 59.4695 229.095 59.3528 229.039C59.2408 228.978 59.1148 228.948 58.9748 228.948C58.7601 228.948 58.5688 229.006 58.4008 229.123C58.2375 229.235 58.1068 229.394 58.0088 229.599C57.9155 229.804 57.8688 230.04 57.8688 230.306C57.8688 230.577 57.9131 230.815 58.0018 231.02C58.0951 231.221 58.2235 231.377 58.3868 231.489C58.5501 231.601 58.7415 231.657 58.9608 231.657C59.1241 231.657 59.2758 231.622 59.4158 231.552C59.5558 231.482 59.6795 231.4 59.7868 231.307L60.0108 231.65C59.8615 231.785 59.6935 231.893 59.5068 231.972C59.3201 232.047 59.1241 232.084 58.9188 232.084ZM60.7815 232V228.605H61.2855V232H60.7815ZM61.0405 227.877C60.9425 227.877 60.8585 227.844 60.7885 227.779C60.7232 227.714 60.6905 227.627 60.6905 227.52C60.6905 227.417 60.7232 227.336 60.7885 227.275C60.8585 227.21 60.9425 227.177 61.0405 227.177C61.1432 227.177 61.2272 227.21 61.2925 227.275C61.3579 227.336 61.3905 227.417 61.3905 227.52C61.3905 227.627 61.3579 227.714 61.2925 227.779C61.2272 227.844 61.1432 227.877 61.0405 227.877ZM63.2468 232.084C63.0602 232.084 62.8922 232.047 62.7428 231.972C62.5935 231.897 62.4745 231.79 62.3858 231.65C62.2972 231.505 62.2528 231.33 62.2528 231.125C62.2528 230.756 62.4208 230.474 62.7568 230.278C63.0975 230.077 63.6342 229.937 64.3668 229.858C64.3668 229.704 64.3458 229.557 64.3038 229.417C64.2665 229.277 64.1942 229.165 64.0868 229.081C63.9842 228.992 63.8348 228.948 63.6388 228.948C63.4335 228.948 63.2422 228.988 63.0648 229.067C62.8922 229.146 62.7405 229.23 62.6098 229.319L62.4068 228.969C62.5048 228.904 62.6215 228.836 62.7568 228.766C62.8922 228.696 63.0415 228.638 63.2048 228.591C63.3682 228.544 63.5408 228.521 63.7228 228.521C63.9982 228.521 64.2198 228.579 64.3878 228.696C64.5558 228.813 64.6772 228.974 64.7518 229.179C64.8312 229.384 64.8708 229.625 64.8708 229.9V232H64.4508L64.4088 231.587H64.3878C64.2245 231.722 64.0472 231.839 63.8558 231.937C63.6645 232.035 63.4615 232.084 63.2468 232.084ZM63.3798 231.671C63.5572 231.671 63.7205 231.631 63.8698 231.552C64.0238 231.468 64.1895 231.349 64.3668 231.195V230.201C63.9655 230.248 63.6482 230.313 63.4148 230.397C63.1815 230.476 63.0135 230.574 62.9108 230.691C62.8082 230.808 62.7568 230.943 62.7568 231.097C62.7568 231.298 62.8175 231.445 62.9388 231.538C63.0648 231.627 63.2118 231.671 63.3798 231.671ZM67.1247 232.084C66.7 232.084 66.3617 231.93 66.1097 231.622C65.8577 231.309 65.7317 230.871 65.7317 230.306C65.7317 229.942 65.7993 229.627 65.9347 229.361C66.0747 229.095 66.2567 228.89 66.4807 228.745C66.7047 228.596 66.9473 228.521 67.2087 228.521C67.4093 228.521 67.582 228.556 67.7267 228.626C67.8713 228.696 68.0207 228.794 68.1747 228.92L68.1537 228.332V227.002H68.6577V232H68.2377L68.1957 231.587H68.1747C68.044 231.722 67.8877 231.839 67.7057 231.937C67.5283 232.035 67.3347 232.084 67.1247 232.084ZM67.2367 231.65C67.4 231.65 67.5563 231.61 67.7057 231.531C67.855 231.447 68.0043 231.326 68.1537 231.167V229.326C67.9997 229.191 67.8527 229.095 67.7127 229.039C67.5727 228.983 67.4303 228.955 67.2857 228.955C67.0943 228.955 66.9193 229.013 66.7607 229.13C66.6067 229.242 66.483 229.401 66.3897 229.606C66.301 229.807 66.2567 230.04 66.2567 230.306C66.2567 230.721 66.3407 231.05 66.5087 231.293C66.6813 231.531 66.924 231.65 67.2367 231.65ZM71.141 232.084C70.8656 232.084 70.609 232.014 70.371 231.874C70.133 231.734 69.9416 231.533 69.797 231.272C69.6523 231.006 69.58 230.684 69.58 230.306C69.58 229.928 69.6523 229.606 69.797 229.34C69.9416 229.074 70.133 228.871 70.371 228.731C70.609 228.591 70.8656 228.521 71.141 228.521C71.4163 228.521 71.6706 228.591 71.904 228.731C72.142 228.871 72.3333 229.074 72.478 229.34C72.6273 229.606 72.702 229.928 72.702 230.306C72.702 230.684 72.6273 231.006 72.478 231.272C72.3333 231.533 72.142 231.734 71.904 231.874C71.6706 232.014 71.4163 232.084 71.141 232.084ZM71.141 231.657C71.3463 231.657 71.526 231.601 71.68 231.489C71.8386 231.377 71.96 231.221 72.044 231.02C72.1326 230.815 72.177 230.577 72.177 230.306C72.177 230.04 72.1326 229.804 72.044 229.599C71.96 229.394 71.8386 229.235 71.68 229.123C71.526 229.006 71.3463 228.948 71.141 228.948C70.9403 228.948 70.7606 229.006 70.602 229.123C70.448 229.235 70.3266 229.394 70.238 229.599C70.154 229.804 70.112 230.04 70.112 230.306C70.112 230.577 70.154 230.815 70.238 231.02C70.3266 231.221 70.448 231.377 70.602 231.489C70.7606 231.601 70.9403 231.657 71.141 231.657ZM75.0276 233.456V228.605H75.4476L75.4896 229.011H75.5106C75.6646 228.876 75.835 228.761 76.0216 228.668C76.213 228.57 76.409 228.521 76.6096 228.521C76.9036 228.521 77.151 228.593 77.3516 228.738C77.5523 228.878 77.7016 229.079 77.7996 229.34C77.9023 229.597 77.9536 229.9 77.9536 230.25C77.9536 230.637 77.8836 230.969 77.7436 231.244C77.6083 231.515 77.4286 231.722 77.2046 231.867C76.9806 232.012 76.7403 232.084 76.4836 232.084C76.3296 232.084 76.171 232.049 76.0076 231.979C75.8443 231.909 75.681 231.811 75.5176 231.685L75.5316 232.287V233.456H75.0276ZM76.3996 231.65C76.6003 231.65 76.7776 231.594 76.9316 231.482C77.0856 231.37 77.207 231.209 77.2956 230.999C77.3843 230.789 77.4286 230.542 77.4286 230.257C77.4286 230 77.396 229.774 77.3306 229.578C77.27 229.382 77.1696 229.23 77.0296 229.123C76.8943 229.011 76.7146 228.955 76.4906 228.955C76.3413 228.955 76.1873 228.997 76.0286 229.081C75.8746 229.16 75.709 229.282 75.5316 229.445V231.279C75.6996 231.414 75.8583 231.51 76.0076 231.566C76.157 231.622 76.2876 231.65 76.3996 231.65ZM80.1849 232.084C79.9096 232.084 79.6529 232.014 79.4149 231.874C79.1769 231.734 78.9856 231.533 78.8409 231.272C78.6963 231.006 78.6239 230.684 78.6239 230.306C78.6239 229.928 78.6963 229.606 78.8409 229.34C78.9856 229.074 79.1769 228.871 79.4149 228.731C79.6529 228.591 79.9096 228.521 80.1849 228.521C80.4603 228.521 80.7146 228.591 80.9479 228.731C81.1859 228.871 81.3773 229.074 81.5219 229.34C81.6713 229.606 81.7459 229.928 81.7459 230.306C81.7459 230.684 81.6713 231.006 81.5219 231.272C81.3773 231.533 81.1859 231.734 80.9479 231.874C80.7146 232.014 80.4603 232.084 80.1849 232.084ZM80.1849 231.657C80.3903 231.657 80.5699 231.601 80.7239 231.489C80.8826 231.377 81.0039 231.221 81.0879 231.02C81.1766 230.815 81.2209 230.577 81.2209 230.306C81.2209 230.04 81.1766 229.804 81.0879 229.599C81.0039 229.394 80.8826 229.235 80.7239 229.123C80.5699 229.006 80.3903 228.948 80.1849 228.948C79.9843 228.948 79.8046 229.006 79.6459 229.123C79.4919 229.235 79.3706 229.394 79.2819 229.599C79.1979 229.804 79.1559 230.04 79.1559 230.306C79.1559 230.577 79.1979 230.815 79.2819 231.02C79.3706 231.221 79.4919 231.377 79.6459 231.489C79.8046 231.601 79.9843 231.657 80.1849 231.657ZM82.6702 232V228.605H83.0902L83.1322 229.228H83.1532C83.2699 229.013 83.4099 228.843 83.5732 228.717C83.7412 228.586 83.9232 228.521 84.1192 228.521C84.1892 228.521 84.2522 228.528 84.3082 228.542C84.3642 228.551 84.4179 228.568 84.4692 228.591L84.3712 229.039C84.3152 229.02 84.2639 229.006 84.2172 228.997C84.1752 228.988 84.1192 228.983 84.0492 228.983C83.9045 228.983 83.7529 229.044 83.5942 229.165C83.4355 229.282 83.2955 229.489 83.1742 229.788V232H82.6702ZM87.5005 232.084C87.2625 232.084 87.0525 232.054 86.8705 231.993C86.6885 231.932 86.5298 231.855 86.3945 231.762C86.2591 231.664 86.1425 231.561 86.0445 231.454L86.3035 231.118C86.4388 231.258 86.5975 231.384 86.7795 231.496C86.9661 231.603 87.1971 231.657 87.4725 231.657C87.7525 231.657 87.9811 231.58 88.1585 231.426C88.3405 231.267 88.4315 231.057 88.4315 230.796C88.4315 230.614 88.3825 230.453 88.2845 230.313C88.1911 230.173 88.0371 230.066 87.8225 229.991C87.6125 229.912 87.3278 229.872 86.9685 229.872V229.473C87.2905 229.473 87.5448 229.436 87.7315 229.361C87.9228 229.282 88.0605 229.177 88.1445 229.046C88.2285 228.915 88.2705 228.768 88.2705 228.605C88.2705 228.381 88.1981 228.204 88.0535 228.073C87.9088 227.938 87.7128 227.87 87.4655 227.87C87.2741 227.87 87.0968 227.914 86.9335 228.003C86.7701 228.087 86.6231 228.197 86.4925 228.332L86.2125 228.003C86.3851 227.844 86.5741 227.714 86.7795 227.611C86.9848 227.504 87.2181 227.45 87.4795 227.45C87.7315 227.45 87.9555 227.494 88.1515 227.583C88.3475 227.672 88.5015 227.8 88.6135 227.968C88.7301 228.131 88.7885 228.332 88.7885 228.57C88.7885 228.845 88.7115 229.072 88.5575 229.249C88.4081 229.422 88.2098 229.552 87.9625 229.641V229.669C88.1445 229.711 88.3101 229.783 88.4595 229.886C88.6088 229.984 88.7278 230.112 88.8165 230.271C88.9051 230.425 88.9495 230.605 88.9495 230.81C88.9495 231.076 88.8841 231.305 88.7535 231.496C88.6228 231.683 88.4478 231.827 88.2285 231.93C88.0091 232.033 87.7665 232.084 87.5005 232.084ZM90.9458 232.084C90.7078 232.084 90.4978 232.054 90.3158 231.993C90.1338 231.932 89.9751 231.855 89.8398 231.762C89.7044 231.664 89.5878 231.561 89.4898 231.454L89.7488 231.118C89.8841 231.258 90.0428 231.384 90.2248 231.496C90.4114 231.603 90.6424 231.657 90.9178 231.657C91.1978 231.657 91.4264 231.58 91.6038 231.426C91.7858 231.267 91.8768 231.057 91.8768 230.796C91.8768 230.614 91.8278 230.453 91.7298 230.313C91.6364 230.173 91.4824 230.066 91.2678 229.991C91.0578 229.912 90.7731 229.872 90.4138 229.872V229.473C90.7358 229.473 90.9901 229.436 91.1768 229.361C91.3681 229.282 91.5058 229.177 91.5898 229.046C91.6738 228.915 91.7158 228.768 91.7158 228.605C91.7158 228.381 91.6434 228.204 91.4988 228.073C91.3541 227.938 91.1581 227.87 90.9108 227.87C90.7194 227.87 90.5421 227.914 90.3788 228.003C90.2154 228.087 90.0684 228.197 89.9378 228.332L89.6578 228.003C89.8304 227.844 90.0194 227.714 90.2248 227.611C90.4301 227.504 90.6634 227.45 90.9248 227.45C91.1768 227.45 91.4008 227.494 91.5968 227.583C91.7928 227.672 91.9468 227.8 92.0588 227.968C92.1754 228.131 92.2338 228.332 92.2338 228.57C92.2338 228.845 92.1568 229.072 92.0028 229.249C91.8534 229.422 91.6551 229.552 91.4078 229.641V229.669C91.5898 229.711 91.7554 229.783 91.9048 229.886C92.0541 229.984 92.1731 230.112 92.2618 230.271C92.3504 230.425 92.3948 230.605 92.3948 230.81C92.3948 231.076 92.3294 231.305 92.1988 231.496C92.0681 231.683 91.8931 231.827 91.6738 231.93C91.4544 232.033 91.2118 232.084 90.9458 232.084ZM94.7425 232V228.605H95.1625L95.2045 229.109H95.2255C95.3748 228.946 95.5381 228.808 95.7155 228.696C95.8975 228.579 96.0865 228.521 96.2825 228.521C96.5485 228.521 96.7538 228.582 96.8985 228.703C97.0478 228.82 97.1551 228.978 97.2205 229.179C97.4025 228.983 97.5845 228.824 97.7665 228.703C97.9531 228.582 98.1468 228.521 98.3475 228.521C98.6975 228.521 98.9565 228.633 99.1245 228.857C99.2925 229.081 99.3765 229.41 99.3765 229.844V232H98.8655V229.907C98.8655 229.58 98.8118 229.342 98.7045 229.193C98.5971 229.044 98.4291 228.969 98.2005 228.969C98.0651 228.969 97.9228 229.016 97.7735 229.109C97.6288 229.198 97.4748 229.333 97.3115 229.515V232H96.8005V229.907C96.8005 229.58 96.7468 229.342 96.6395 229.193C96.5368 229.044 96.3711 228.969 96.1425 228.969C95.8718 228.969 95.5731 229.151 95.2465 229.515V232H94.7425ZM101.814 232.084C101.538 232.084 101.282 232.014 101.044 231.874C100.806 231.734 100.614 231.533 100.47 231.272C100.325 231.006 100.253 230.684 100.253 230.306C100.253 229.928 100.325 229.606 100.47 229.34C100.614 229.074 100.806 228.871 101.044 228.731C101.282 228.591 101.538 228.521 101.814 228.521C102.089 228.521 102.343 228.591 102.577 228.731C102.815 228.871 103.006 229.074 103.151 229.34C103.3 229.606 103.375 229.928 103.375 230.306C103.375 230.684 103.3 231.006 103.151 231.272C103.006 231.533 102.815 231.734 102.577 231.874C102.343 232.014 102.089 232.084 101.814 232.084ZM101.814 231.657C102.019 231.657 102.199 231.601 102.353 231.489C102.511 231.377 102.633 231.221 102.717 231.02C102.805 230.815 102.85 230.577 102.85 230.306C102.85 230.04 102.805 229.804 102.717 229.599C102.633 229.394 102.511 229.235 102.353 229.123C102.199 229.006 102.019 228.948 101.814 228.948C101.613 228.948 101.433 229.006 101.275 229.123C101.121 229.235 100.999 229.394 100.911 229.599C100.827 229.804 100.785 230.04 100.785 230.306C100.785 230.577 100.827 230.815 100.911 231.02C100.999 231.221 101.121 231.377 101.275 231.489C101.433 231.601 101.613 231.657 101.814 231.657ZM105.219 232.084C104.869 232.084 104.624 231.981 104.484 231.776C104.348 231.571 104.281 231.305 104.281 230.978V229.025H103.77V228.64L104.302 228.605L104.365 227.646H104.792V228.605H105.723V229.025H104.792V230.992C104.792 231.202 104.829 231.368 104.904 231.489C104.983 231.606 105.125 231.664 105.331 231.664C105.391 231.664 105.457 231.655 105.527 231.636C105.601 231.617 105.667 231.596 105.723 231.573L105.828 231.958C105.734 231.991 105.634 232.019 105.527 232.042C105.419 232.07 105.317 232.084 105.219 232.084ZM107.713 232.084C107.438 232.084 107.181 232.014 106.943 231.874C106.705 231.734 106.514 231.533 106.369 231.272C106.225 231.006 106.152 230.684 106.152 230.306C106.152 229.928 106.225 229.606 106.369 229.34C106.514 229.074 106.705 228.871 106.943 228.731C107.181 228.591 107.438 228.521 107.713 228.521C107.989 228.521 108.243 228.591 108.476 228.731C108.714 228.871 108.906 229.074 109.05 229.34C109.2 229.606 109.274 229.928 109.274 230.306C109.274 230.684 109.2 231.006 109.05 231.272C108.906 231.533 108.714 231.734 108.476 231.874C108.243 232.014 107.989 232.084 107.713 232.084ZM107.713 231.657C107.919 231.657 108.098 231.601 108.252 231.489C108.411 231.377 108.532 231.221 108.616 231.02C108.705 230.815 108.749 230.577 108.749 230.306C108.749 230.04 108.705 229.804 108.616 229.599C108.532 229.394 108.411 229.235 108.252 229.123C108.098 229.006 107.919 228.948 107.713 228.948C107.513 228.948 107.333 229.006 107.174 229.123C107.02 229.235 106.899 229.394 106.81 229.599C106.726 229.804 106.684 230.04 106.684 230.306C106.684 230.577 106.726 230.815 106.81 231.02C106.899 231.221 107.02 231.377 107.174 231.489C107.333 231.601 107.513 231.657 107.713 231.657ZM110.199 232V228.605H110.619L110.661 229.228H110.682C110.798 229.013 110.938 228.843 111.102 228.717C111.27 228.586 111.452 228.521 111.648 228.521C111.718 228.521 111.781 228.528 111.837 228.542C111.893 228.551 111.946 228.568 111.998 228.591L111.9 229.039C111.844 229.02 111.792 229.006 111.746 228.997C111.704 228.988 111.648 228.983 111.578 228.983C111.433 228.983 111.281 229.044 111.123 229.165C110.964 229.282 110.824 229.489 110.703 229.788V232H110.199ZM113.853 232.084C113.559 232.084 113.288 232.014 113.041 231.874C112.798 231.729 112.605 231.526 112.46 231.265C112.315 230.999 112.243 230.679 112.243 230.306C112.243 229.937 112.315 229.62 112.46 229.354C112.605 229.088 112.791 228.883 113.02 228.738C113.253 228.593 113.501 228.521 113.762 228.521C114.042 228.521 114.282 228.586 114.483 228.717C114.684 228.848 114.835 229.032 114.938 229.27C115.045 229.503 115.099 229.783 115.099 230.11C115.099 230.166 115.097 230.222 115.092 230.278C115.092 230.329 115.087 230.376 115.078 230.418H112.642L112.635 230.047H114.644C114.644 229.683 114.567 229.408 114.413 229.221C114.259 229.03 114.044 228.934 113.769 228.934C113.601 228.934 113.438 228.983 113.279 229.081C113.12 229.179 112.99 229.328 112.887 229.529C112.784 229.73 112.733 229.989 112.733 230.306C112.733 230.609 112.787 230.861 112.894 231.062C113.001 231.263 113.144 231.414 113.321 231.517C113.503 231.62 113.701 231.671 113.916 231.671C114.089 231.671 114.243 231.645 114.378 231.594C114.518 231.543 114.651 231.477 114.777 231.398L114.966 231.734C114.821 231.827 114.658 231.909 114.476 231.979C114.299 232.049 114.091 232.084 113.853 232.084ZM116.822 232.084C116.58 232.084 116.349 232.04 116.129 231.951C115.91 231.858 115.721 231.746 115.562 231.615L115.821 231.272C115.971 231.389 116.125 231.487 116.283 231.566C116.442 231.645 116.629 231.685 116.843 231.685C117.077 231.685 117.252 231.629 117.368 231.517C117.485 231.405 117.543 231.272 117.543 231.118C117.543 230.997 117.504 230.896 117.424 230.817C117.345 230.733 117.245 230.663 117.123 230.607C117.002 230.546 116.878 230.493 116.752 230.446C116.594 230.39 116.435 230.322 116.276 230.243C116.118 230.164 115.985 230.063 115.877 229.942C115.775 229.821 115.723 229.664 115.723 229.473C115.723 229.207 115.824 228.983 116.024 228.801C116.23 228.614 116.514 228.521 116.878 228.521C117.084 228.521 117.275 228.558 117.452 228.633C117.63 228.708 117.781 228.796 117.907 228.899L117.662 229.228C117.546 229.144 117.424 229.074 117.298 229.018C117.177 228.957 117.037 228.927 116.878 228.927C116.654 228.927 116.489 228.981 116.381 229.088C116.274 229.191 116.22 229.31 116.22 229.445C116.22 229.557 116.255 229.65 116.325 229.725C116.4 229.795 116.496 229.856 116.612 229.907C116.729 229.958 116.853 230.01 116.983 230.061C117.151 230.122 117.315 230.192 117.473 230.271C117.637 230.346 117.772 230.446 117.879 230.572C117.987 230.698 118.04 230.871 118.04 231.09C118.04 231.267 117.994 231.433 117.9 231.587C117.807 231.736 117.669 231.858 117.487 231.951C117.305 232.04 117.084 232.084 116.822 232.084ZM120.317 232V227.401H121.724C122.032 227.401 122.305 227.443 122.543 227.527C122.781 227.606 122.968 227.739 123.103 227.926C123.238 228.113 123.306 228.362 123.306 228.675C123.306 228.974 123.238 229.223 123.103 229.424C122.968 229.62 122.781 229.767 122.543 229.865C122.305 229.963 122.032 230.012 121.724 230.012H120.835V232H120.317ZM122.844 232L121.619 229.872L122.039 229.62L123.432 232H122.844ZM120.835 229.592H121.64C122.009 229.592 122.291 229.517 122.487 229.368C122.688 229.214 122.788 228.983 122.788 228.675C122.788 228.362 122.688 228.143 122.487 228.017C122.291 227.886 122.009 227.821 121.64 227.821H120.835V229.592ZM124.962 232.084C124.775 232.084 124.607 232.047 124.458 231.972C124.308 231.897 124.189 231.79 124.101 231.65C124.012 231.505 123.968 231.33 123.968 231.125C123.968 230.756 124.136 230.474 124.472 230.278C124.812 230.077 125.349 229.937 126.082 229.858C126.082 229.704 126.061 229.557 126.019 229.417C125.981 229.277 125.909 229.165 125.802 229.081C125.699 228.992 125.55 228.948 125.354 228.948C125.148 228.948 124.957 228.988 124.78 229.067C124.607 229.146 124.455 229.23 124.325 229.319L124.122 228.969C124.22 228.904 124.336 228.836 124.472 228.766C124.607 228.696 124.756 228.638 124.92 228.591C125.083 228.544 125.256 228.521 125.438 228.521C125.713 228.521 125.935 228.579 126.103 228.696C126.271 228.813 126.392 228.974 126.467 229.179C126.546 229.384 126.586 229.625 126.586 229.9V232H126.166L126.124 231.587H126.103C125.939 231.722 125.762 231.839 125.571 231.937C125.379 232.035 125.176 232.084 124.962 232.084ZM125.095 231.671C125.272 231.671 125.435 231.631 125.585 231.552C125.739 231.468 125.904 231.349 126.082 231.195V230.201C125.68 230.248 125.363 230.313 125.13 230.397C124.896 230.476 124.728 230.574 124.626 230.691C124.523 230.808 124.472 230.943 124.472 231.097C124.472 231.298 124.532 231.445 124.654 231.538C124.78 231.627 124.927 231.671 125.095 231.671ZM127.699 233.456V228.605H128.119L128.161 229.011H128.182C128.336 228.876 128.506 228.761 128.693 228.668C128.884 228.57 129.08 228.521 129.281 228.521C129.575 228.521 129.822 228.593 130.023 228.738C130.223 228.878 130.373 229.079 130.471 229.34C130.573 229.597 130.625 229.9 130.625 230.25C130.625 230.637 130.555 230.969 130.415 231.244C130.279 231.515 130.1 231.722 129.876 231.867C129.652 232.012 129.411 232.084 129.155 232.084C129.001 232.084 128.842 232.049 128.679 231.979C128.515 231.909 128.352 231.811 128.189 231.685L128.203 232.287V233.456H127.699ZM129.071 231.65C129.271 231.65 129.449 231.594 129.603 231.482C129.757 231.37 129.878 231.209 129.967 230.999C130.055 230.789 130.1 230.542 130.1 230.257C130.1 230 130.067 229.774 130.002 229.578C129.941 229.382 129.841 229.23 129.701 229.123C129.565 229.011 129.386 228.955 129.162 228.955C129.012 228.955 128.858 228.997 128.7 229.081C128.546 229.16 128.38 229.282 128.203 229.445V231.279C128.371 231.414 128.529 231.51 128.679 231.566C128.828 231.622 128.959 231.65 129.071 231.65ZM132.48 232.084C132.13 232.084 131.885 231.981 131.745 231.776C131.61 231.571 131.542 231.305 131.542 230.978V229.025H131.031V228.64L131.563 228.605L131.626 227.646H132.053V228.605H132.984V229.025H132.053V230.992C132.053 231.202 132.091 231.368 132.165 231.489C132.245 231.606 132.387 231.664 132.592 231.664C132.653 231.664 132.718 231.655 132.788 231.636C132.863 231.617 132.928 231.596 132.984 231.573L133.089 231.958C132.996 231.991 132.896 232.019 132.788 232.042C132.681 232.07 132.578 232.084 132.48 232.084ZM134.975 232.084C134.7 232.084 134.443 232.014 134.205 231.874C133.967 231.734 133.776 231.533 133.631 231.272C133.486 231.006 133.414 230.684 133.414 230.306C133.414 229.928 133.486 229.606 133.631 229.34C133.776 229.074 133.967 228.871 134.205 228.731C134.443 228.591 134.7 228.521 134.975 228.521C135.25 228.521 135.505 228.591 135.738 228.731C135.976 228.871 136.167 229.074 136.312 229.34C136.461 229.606 136.536 229.928 136.536 230.306C136.536 230.684 136.461 231.006 136.312 231.272C136.167 231.533 135.976 231.734 135.738 231.874C135.505 232.014 135.25 232.084 134.975 232.084ZM134.975 231.657C135.18 231.657 135.36 231.601 135.514 231.489C135.673 231.377 135.794 231.221 135.878 231.02C135.967 230.815 136.011 230.577 136.011 230.306C136.011 230.04 135.967 229.804 135.878 229.599C135.794 229.394 135.673 229.235 135.514 229.123C135.36 229.006 135.18 228.948 134.975 228.948C134.774 228.948 134.595 229.006 134.436 229.123C134.282 229.235 134.161 229.394 134.072 229.599C133.988 229.804 133.946 230.04 133.946 230.306C133.946 230.577 133.988 230.815 134.072 231.02C134.161 231.221 134.282 231.377 134.436 231.489C134.595 231.601 134.774 231.657 134.975 231.657ZM137.46 232V228.605H137.88L137.922 229.228H137.943C138.06 229.013 138.2 228.843 138.363 228.717C138.531 228.586 138.713 228.521 138.909 228.521C138.979 228.521 139.042 228.528 139.098 228.542C139.154 228.551 139.208 228.568 139.259 228.591L139.161 229.039C139.105 229.02 139.054 229.006 139.007 228.997C138.965 228.988 138.909 228.983 138.839 228.983C138.695 228.983 138.543 229.044 138.384 229.165C138.226 229.282 138.086 229.489 137.964 229.788V232H137.46Z" fill="white"/>
<path d="M41.981 210.132C41.475 210.132 41.0093 210.033 40.584 209.835C40.1587 209.637 39.7883 209.377 39.473 209.054L39.968 208.493C40.232 208.772 40.5363 208.995 40.881 209.164C41.233 209.333 41.6033 209.417 41.992 209.417C42.4907 209.417 42.8793 209.303 43.158 209.076C43.4367 208.841 43.576 208.537 43.576 208.163C43.576 207.906 43.521 207.701 43.411 207.547C43.301 207.386 43.1543 207.254 42.971 207.151C42.7877 207.041 42.5787 206.935 42.344 206.832L41.299 206.37C41.079 206.275 40.8553 206.15 40.628 205.996C40.4007 205.842 40.21 205.648 40.056 205.413C39.9093 205.178 39.836 204.881 39.836 204.522C39.836 204.163 39.9313 203.844 40.122 203.565C40.3127 203.279 40.5767 203.055 40.914 202.894C41.2513 202.725 41.6327 202.641 42.058 202.641C42.4907 202.641 42.8867 202.725 43.246 202.894C43.6127 203.063 43.917 203.275 44.159 203.532L43.719 204.06C43.5063 203.84 43.2607 203.668 42.982 203.543C42.7107 203.418 42.4027 203.356 42.058 203.356C41.64 203.356 41.299 203.459 41.035 203.664C40.7783 203.862 40.65 204.133 40.65 204.478C40.65 204.72 40.7123 204.918 40.837 205.072C40.9617 205.226 41.1157 205.354 41.299 205.457C41.4897 205.552 41.6767 205.64 41.86 205.721L42.905 206.183C43.191 206.3 43.444 206.44 43.664 206.601C43.884 206.762 44.06 206.964 44.192 207.206C44.3313 207.448 44.401 207.749 44.401 208.108C44.401 208.482 44.302 208.823 44.104 209.131C43.9133 209.439 43.6347 209.685 43.268 209.868C42.9087 210.044 42.4797 210.132 41.981 210.132ZM48.364 210.132C48.012 210.132 47.6783 210.081 47.363 209.978C47.055 209.868 46.7837 209.696 46.549 209.461C46.3217 209.226 46.142 208.915 46.01 208.526C45.878 208.13 45.812 207.646 45.812 207.074V202.773H46.626V207.074C46.626 207.668 46.703 208.137 46.857 208.482C47.0183 208.819 47.2273 209.061 47.484 209.208C47.748 209.347 48.0413 209.417 48.364 209.417C48.694 209.417 48.991 209.347 49.255 209.208C49.5263 209.061 49.7427 208.819 49.904 208.482C50.0653 208.137 50.146 207.668 50.146 207.074V202.773H50.927V207.074C50.927 207.646 50.8573 208.13 50.718 208.526C50.586 208.915 50.4027 209.226 50.168 209.461C49.9407 209.696 49.673 209.868 49.365 209.978C49.057 210.081 48.7233 210.132 48.364 210.132ZM52.9134 210V202.773H54.9154C55.4507 202.773 55.92 202.843 56.3234 202.982C56.7267 203.114 57.0384 203.334 57.2584 203.642C57.4857 203.943 57.5994 204.353 57.5994 204.874C57.5994 205.373 57.4894 205.783 57.2694 206.106C57.0494 206.429 56.7414 206.671 56.3454 206.832C55.9494 206.993 55.4874 207.074 54.9594 207.074H53.7274V210H52.9134ZM53.7274 206.403H54.8384C55.4984 206.403 55.986 206.282 56.3014 206.04C56.624 205.791 56.7854 205.402 56.7854 204.874C56.7854 204.331 56.6167 203.957 56.2794 203.752C55.9494 203.539 55.4544 203.433 54.7944 203.433H53.7274V206.403ZM59.0901 210V202.773H63.1931V203.466H59.9041V205.853H62.6761V206.535H59.9041V209.307H63.3031V210H59.0901ZM64.8587 210V202.773H67.0697C67.5537 202.773 67.9827 202.839 68.3567 202.971C68.7307 203.096 69.024 203.305 69.2367 203.598C69.4493 203.891 69.5557 204.284 69.5557 204.775C69.5557 205.244 69.4493 205.637 69.2367 205.952C69.024 206.26 68.7307 206.491 68.3567 206.645C67.9827 206.799 67.5537 206.876 67.0697 206.876H65.6727V210H64.8587ZM68.8297 210L66.9047 206.656L67.5647 206.26L69.7537 210H68.8297ZM65.6727 206.216H66.9377C67.517 206.216 67.9607 206.099 68.2687 205.864C68.584 205.622 68.7417 205.259 68.7417 204.775C68.7417 204.284 68.584 203.939 68.2687 203.741C67.9607 203.536 67.517 203.433 66.9377 203.433H65.6727V206.216ZM71.0569 210V202.773H71.8709V205.831H75.3579V202.773H76.1719V210H75.3579V206.546H71.8709V210H71.0569ZM78.1897 210V202.773H82.2927V203.466H79.0037V205.853H81.7757V206.535H79.0037V209.307H82.4027V210H78.1897ZM82.9903 210L85.4653 202.773H86.3673L88.8313 210H87.9733L86.6643 205.908C86.5323 205.497 86.404 205.094 86.2793 204.698C86.162 204.295 86.041 203.88 85.9163 203.455H85.8723C85.7623 203.88 85.645 204.295 85.5203 204.698C85.403 205.094 85.2746 205.497 85.1353 205.908L83.8153 210H82.9903ZM84.2443 207.723V207.074H87.5553V207.723H84.2443ZM91.0793 210L88.7473 202.773H89.6163L90.8263 206.755C90.9583 207.188 91.0757 207.591 91.1783 207.965C91.281 208.332 91.3983 208.728 91.5303 209.153H91.5743C91.7137 208.728 91.8347 208.332 91.9373 207.965C92.0473 207.591 92.1647 207.188 92.2893 206.755L93.4993 202.773H94.3243L92.0143 210H91.0793ZM96.5 210V207.162L94.333 202.773H95.202L96.17 204.874C96.2947 205.138 96.412 205.398 96.522 205.655C96.6393 205.912 96.764 206.172 96.896 206.436H96.94C97.0647 206.172 97.1893 205.912 97.314 205.655C97.446 205.398 97.567 205.138 97.677 204.874L98.645 202.773H99.492L97.314 207.162V210H96.5Z" fill="white"/>
<path d="M292.495 132V125.466H290.273V124.773H295.52V125.466H293.309V132H292.495ZM299.224 132.132C298.623 132.132 298.091 131.978 297.629 131.67C297.167 131.362 296.804 130.926 296.54 130.361C296.283 129.796 296.155 129.129 296.155 128.359C296.155 127.589 296.283 126.929 296.54 126.379C296.804 125.822 297.167 125.393 297.629 125.092C298.091 124.791 298.623 124.641 299.224 124.641C299.818 124.641 300.346 124.791 300.808 125.092C301.27 125.393 301.629 125.822 301.886 126.379C302.15 126.929 302.282 127.589 302.282 128.359C302.282 129.129 302.15 129.796 301.886 130.361C301.629 130.926 301.27 131.362 300.808 131.67C300.346 131.978 299.818 132.132 299.224 132.132ZM299.224 131.417C299.664 131.417 300.049 131.292 300.379 131.043C300.716 130.786 300.977 130.431 301.16 129.976C301.343 129.514 301.435 128.975 301.435 128.359C301.435 127.743 301.343 127.211 301.16 126.764C300.977 126.317 300.716 125.972 300.379 125.73C300.049 125.481 299.664 125.356 299.224 125.356C298.777 125.356 298.384 125.481 298.047 125.73C297.717 125.972 297.46 126.317 297.277 126.764C297.094 127.211 297.002 127.743 297.002 128.359C297.002 128.975 297.094 129.514 297.277 129.976C297.46 130.431 297.717 130.786 298.047 131.043C298.384 131.292 298.777 131.417 299.224 131.417ZM303.867 132V124.773H306.078C306.562 124.773 306.991 124.839 307.365 124.971C307.739 125.096 308.033 125.305 308.245 125.598C308.458 125.891 308.564 126.284 308.564 126.775C308.564 127.244 308.458 127.637 308.245 127.952C308.033 128.26 307.739 128.491 307.365 128.645C306.991 128.799 306.562 128.876 306.078 128.876H304.681V132H303.867ZM307.838 132L305.913 128.656L306.573 128.26L308.762 132H307.838ZM304.681 128.216H305.946C306.526 128.216 306.969 128.099 307.277 127.864C307.593 127.622 307.75 127.259 307.75 126.775C307.75 126.284 307.593 125.939 307.277 125.741C306.969 125.536 306.526 125.433 305.946 125.433H304.681V128.216ZM310.066 132V124.773H312.277C312.761 124.773 313.19 124.839 313.564 124.971C313.938 125.096 314.231 125.305 314.444 125.598C314.656 125.891 314.763 126.284 314.763 126.775C314.763 127.244 314.656 127.637 314.444 127.952C314.231 128.26 313.938 128.491 313.564 128.645C313.19 128.799 312.761 128.876 312.277 128.876H310.88V132H310.066ZM314.037 132L312.112 128.656L312.772 128.26L314.961 132H314.037ZM310.88 128.216H312.145C312.724 128.216 313.168 128.099 313.476 127.864C313.791 127.622 313.949 127.259 313.949 126.775C313.949 126.284 313.791 125.939 313.476 125.741C313.168 125.536 312.724 125.433 312.145 125.433H310.88V128.216ZM316.264 132V124.773H320.367V125.466H317.078V127.853H319.85V128.535H317.078V131.307H320.477V132H316.264ZM324.235 132V124.773H328.338V125.466H325.049V127.853H327.821V128.535H325.049V131.307H328.448V132H324.235ZM330.003 132V124.773H330.839L333.567 129.459L334.359 130.944H334.403C334.381 130.577 334.356 130.203 334.326 129.822C334.304 129.433 334.293 129.056 334.293 128.689V124.773H335.063V132H334.227L331.499 127.314L330.707 125.829H330.663C330.693 126.188 330.718 126.555 330.74 126.929C330.762 127.296 330.773 127.666 330.773 128.04V132H330.003ZM338.6 132V125.466H336.378V124.773H341.625V125.466H339.414V132H338.6ZM342.948 132V124.773H347.051V125.466H343.762V127.853H346.534V128.535H343.762V131.307H347.161V132H342.948ZM348.716 132V124.773H349.53V131.307H352.72V132H348.716Z" fill="white"/>
<path d="M161.5 213.5H39.5" stroke="white"/>
<circle cx="161.5" cy="213.5" r="1.5" fill="white"/>
<path d="M232.5 136.5H354.5" stroke="white"/>
<circle r="1.5" transform="matrix(-1 0 0 1 232.5 136.5)" fill="white"/>
</svg>
