<svg width="391" height="318" viewBox="0 0 391 318" fill="none" xmlns="http://www.w3.org/2000/svg">
<path d="M314.941 250.66L320.827 239.067L320.571 151.906L319.485 144.764L320.546 140.52V133.067H323.748V134.309H326.123V133.067H332.113V134.309H334.178C334.075 133.895 333.93 133.067 334.178 133.067H337.07L337.173 140.52C337.342 141.961 337.652 143.385 338.103 144.764L337.07 151.492V239.067L343.163 250.66V256.354L342.027 256.664L337.896 254.387L337.979 255.836H336.843L337.979 257.492H319.881L320.708 255.836H319.778L319.865 254.387L316.886 256.664L314.924 256.354L314.941 250.66Z" fill="#B2B2B2"/>
<path d="M311.013 122.301L320.513 96.8362C320.489 88.2568 320.514 73.6114 320.712 64.1252L314.214 62.5725V58.1172L325.636 42.1758C326.92 39.2401 328.201 37 329.085 37C329.969 37 331.402 39.2277 332.774 42.1758L343.75 58.1172V62.8789L337.14 64.1211C337.293 72.6342 337.433 85.3791 337.433 96.832L346.728 122.297V131.51L340.015 133.063H334.356V134.305H332.084V133.063H326.094V134.305H323.719V133.063H317.626L311.017 131.51L311.013 122.301Z" fill="#DADADA"/>
<path d="M320.518 96.8362L311.017 122.301V131.514L317.626 133.067M320.518 96.8362C320.493 88.2568 320.518 73.6114 320.716 64.1252M320.518 96.8362L322.48 129.34L320.518 133.067M320.518 96.8362L317.626 133.067M337.454 96.8362L346.749 122.301V131.514L340.036 133.067M337.454 96.8362C337.454 85.3791 337.314 72.6342 337.161 64.1252M337.454 96.8362L335.699 129.34L337.041 133.067M337.454 96.8362L340.036 133.067M317.626 133.067H320.518M320.518 133.067H323.823M320.518 133.067V140.416M320.807 239.067L314.921 250.66V256.354L316.883 256.664L319.861 254.387M320.807 239.067L319.861 254.387M320.807 239.067L320.555 152.942M337.021 239.067L343.114 250.66V256.354L341.978 256.664L337.847 254.387M337.021 239.067L337.847 254.387M337.021 239.067V152.942M337.021 133.067H340.016M337.021 133.067H334.208M337.021 133.067L337.054 140.416M325.64 42.1758C323.608 46.8174 321.58 53.194 321.138 55.2187C320.947 56.0883 320.811 59.4919 320.724 64.1211M325.648 42.1758C326.933 39.2401 328.214 37 329.098 37C329.982 37 331.415 39.2277 332.787 42.1758M325.648 42.1758L314.227 58.1172V62.5684L320.724 64.1211M332.787 42.1758C334.852 46.5897 336.822 52.6143 336.946 55.2187C337.012 56.668 337.095 59.8687 337.169 64.1211M332.787 42.1758L343.762 58.1172V62.8789L337.153 64.1211M319.882 254.387L319.795 255.836H320.724M337.888 254.387L337.971 255.836H336.835M320.724 255.836L319.898 257.492H337.987L336.851 255.836M320.741 255.836H321.877M336.851 255.836H336.232M323.839 133.067C324.033 127.705 325.318 123.303 325.987 121.68V133.067M323.839 133.067C323.839 133.51 323.839 133.957 323.839 134.412H326.008V133.067M326.008 133.067H332.101M332.101 133.067V134.412H334.27C334.27 133.957 334.27 133.51 334.245 133.067M332.101 133.067V121.68C332.766 123.303 334.051 127.705 334.245 133.067M320.547 140.416H322.901L324.657 146.731L322.901 152.942H320.584M320.547 140.416L319.493 144.764L320.584 152.942M337.07 140.416H334.72L332.964 146.731L334.72 152.942H337.037M337.07 140.416L338.128 144.764L337.037 152.942M326.297 255.836L325.987 238.549L321.856 251.074V255.836M326.297 255.836L321.856 256.664V255.836M326.297 255.836H331.564M331.564 255.836L336.211 256.664V255.836M331.564 255.836L331.874 238.446L336.211 251.074V255.836M323.612 51.1816H334.662C333.592 47.3516 330.985 39.7121 329.085 39.7949C327.185 39.8777 324.649 47.422 323.616 51.1816H323.612Z" stroke="#010101" stroke-width="0.5"/>
<path d="M311.012 122.301L320.513 96.8362C320.489 88.2568 320.513 73.6114 320.712 64.1252L314.214 62.5725V58.1172L325.636 42.1758C326.92 39.2401 328.201 37 329.085 37C329.969 37 331.402 39.2277 332.774 42.1758L343.749 58.1172V62.8789L337.14 64.1211C337.293 72.6342 337.433 85.3791 337.433 96.832L346.728 122.297V131.51L340.015 133.063H337.02V239.062L343.113 250.656V256.35L341.977 256.66L337.846 254.383L337.929 255.832H336.793L337.929 257.488H319.881L320.708 255.832H319.778L319.865 254.383L316.886 256.66L314.924 256.35V250.66L320.811 239.067L320.501 133.067H317.609L311 131.514L311.012 122.301Z" stroke="#010101" stroke-width="1.5"/>
<path d="M25.2549 220.558V224.202H28.2704V220.558L27.0477 218.119C26.9279 217.883 26.5933 217.883 26.4735 218.119L25.2549 220.558Z" fill="#DADADA" stroke="black" stroke-width="0.5" stroke-miterlimit="10"/>
<path d="M26.7667 224.202H24.8335V251.613H26.7667H28.5513V224.202H26.7667Z" fill="#B2B2B2" stroke="black" stroke-width="0.5" stroke-miterlimit="10"/>
<path d="M24.8418 225.113H28.5513" stroke="black" stroke-width="0.5" stroke-miterlimit="10"/>
<path d="M28.5554 227.804H24.8335V233.907H28.5554V227.804Z" fill="#4D4D4D" stroke="black" stroke-width="0.5" stroke-miterlimit="10"/>
<path d="M24.8335 251.613L26.6924 254.259L28.5513 251.613H24.8335Z" stroke="black" stroke-width="0.5" stroke-miterlimit="10" stroke-linecap="round" stroke-linejoin="round"/>
<path d="M28.5513 251.613L26.6924 253.116L24.8335 251.613" stroke="black" stroke-width="0.5" stroke-miterlimit="10" stroke-linecap="round" stroke-linejoin="round"/>
<path d="M27.3203 254.097H26.0811V254.925H27.3203V254.097Z" fill="#4D4D4D" stroke="black" stroke-width="0.5" stroke-miterlimit="10"/>
<path d="M25.6803 256.921L26.7006 254.925L27.8118 256.921H25.6803Z" fill="#4D4D4D" stroke="black" stroke-width="0.5" stroke-miterlimit="10" stroke-linecap="round" stroke-linejoin="round"/>
<path d="M26.7585 254.925C27.0724 254.925 27.3244 254.673 27.3244 254.358V254.097H26.8122L28.4563 251.758C28.5224 251.662 28.5595 251.547 28.5595 251.431V224.202H28.2787V220.695C28.2787 220.604 28.258 220.517 28.2167 220.438L27.2294 218.504C27.0146 218.086 26.4156 218.094 26.2132 218.521L25.3127 220.446C25.2755 220.521 25.259 220.604 25.259 220.686V224.206H24.8376V251.435C24.8376 251.551 24.8748 251.667 24.9409 251.762L26.585 254.101H26.0893V254.362C26.0893 254.677 26.3413 254.929 26.6552 254.929H26.7585V254.925Z" stroke="black" stroke-width="1.5" stroke-miterlimit="10" stroke-linecap="round" stroke-linejoin="round"/>
<path d="M25.6803 256.921H27.8118L26.7006 254.925L25.6803 256.921Z" stroke="black" stroke-width="1.5" stroke-miterlimit="10" stroke-linecap="round" stroke-linejoin="round"/>
<path d="M60.6192 176.874H53.1382V254.718H60.6192V176.874Z" fill="#B2B2B2" stroke="black" stroke-width="0.5" stroke-miterlimit="10"/>
<path d="M60.3094 171.285H53.1382V176.874H60.3094V171.285Z" fill="#DADADA" stroke="black" stroke-width="0.5" stroke-miterlimit="10"/>
<path d="M60.4126 170.477H53.3901V171.305H60.4126V170.477Z" fill="#DADADA" stroke="black" stroke-width="0.5" stroke-miterlimit="10"/>
<path d="M53.7578 177.496V171.239C53.7578 171.239 53.3902 170.477 52.8862 171.239V176.692C52.8862 176.692 52.9317 177.081 53.7578 177.496Z" fill="#DADADA" stroke="black" stroke-width="0.5" stroke-miterlimit="10"/>
<path d="M59.8962 177.496V171.264C59.8962 171.264 60.4126 170.477 60.8587 171.264V176.87C60.8587 176.874 60.6191 177.471 59.8962 177.496Z" fill="#DADADA" stroke="black" stroke-width="0.5" stroke-miterlimit="10"/>
<path d="M53.3901 170.477L54.6294 165.922H59.1733L60.4126 170.477H53.3901Z" fill="#DADADA" stroke="black" stroke-width="0.5" stroke-miterlimit="10"/>
<path d="M54.6294 165.922C54.6294 163.438 56.9014 163.442 56.9014 163.442C56.9014 163.442 59.1733 163.438 59.1733 165.922H54.6294Z" fill="#DADADA" stroke="black" stroke-width="0.5" stroke-miterlimit="10"/>
<path d="M56.8724 254.718L55.8687 257.016H57.8928L56.8724 254.718Z" fill="#4D4D4D" stroke="black" stroke-width="0.5" stroke-miterlimit="10" stroke-linecap="round" stroke-linejoin="round"/>
<path d="M53.8239 254.718L52.8201 257.016H54.8442L53.8239 254.718Z" fill="#4D4D4D" stroke="black" stroke-width="0.5" stroke-miterlimit="10" stroke-linecap="round" stroke-linejoin="round"/>
<path d="M59.859 254.718L58.8552 257.016H60.8793L59.859 254.718Z" fill="#4D4D4D" stroke="black" stroke-width="0.5" stroke-miterlimit="10" stroke-linecap="round" stroke-linejoin="round"/>
<path d="M53.1382 186.522H60.6192" stroke="black" stroke-width="0.5" stroke-miterlimit="10" stroke-linecap="round" stroke-linejoin="round"/>
<path d="M53.1382 198.153H60.6192" stroke="black" stroke-width="0.5" stroke-miterlimit="10" stroke-linecap="round" stroke-linejoin="round"/>
<path d="M53.1382 252.722H60.3094" stroke="black" stroke-width="0.5" stroke-miterlimit="10" stroke-linecap="round" stroke-linejoin="round"/>
<path d="M51.7957 254.946H53.6917L53.006 251.807C52.9151 251.397 52.3244 251.414 52.2624 251.832L51.7957 254.946Z" fill="#B2B2B2" stroke="black" stroke-width="0.5" stroke-miterlimit="10"/>
<path d="M61.7015 254.946H59.8054L60.4911 251.807C60.582 251.397 61.1727 251.414 61.2347 251.832L61.7015 254.946Z" fill="#B2B2B2" stroke="black" stroke-width="0.5" stroke-miterlimit="10"/>
<path d="M60.6192 177.202L60.8588 176.874V171.264C60.8588 171.264 60.8257 170.891 60.4126 170.891V170.477L59.1734 165.922C59.1734 165.922 59.1734 163.442 56.9014 163.442C56.9014 163.442 54.6294 163.438 54.6294 165.922L53.3902 170.477V170.804C53.3902 170.804 52.9771 170.891 52.8862 171.239V176.692L53.1382 177.077V251.65C53.1382 251.65 52.4401 250.971 52.2955 251.716L51.7957 254.946H53.6917L52.8201 257.016H54.8442L53.8239 254.718H56.8725L55.8687 257.016H57.8928L56.9551 254.718H59.8632L58.8594 257.016H60.8835L59.9665 254.946H61.7097L61.2471 251.832C61.2471 251.832 61.2471 251.385 60.6274 251.509V177.202H60.6192Z" stroke="black" stroke-width="1.5" stroke-miterlimit="10" stroke-linecap="round" stroke-linejoin="round"/>
<path d="M60.6192 177.202L60.8588 176.874V171.264C60.8588 171.264 60.8257 170.891 60.4126 170.891V170.477L59.1734 165.922C59.1734 165.922 59.1734 163.442 56.9014 163.442C56.9014 163.442 54.6294 163.438 54.6294 165.922L53.3902 170.477V170.804C53.3902 170.804 52.9771 170.891 52.8862 171.239V176.692L53.1382 177.077V251.65C53.1382 251.65 52.4401 250.971 52.2955 251.716L51.7957 254.946H53.6917L52.8201 257.016H54.8442L53.8239 254.718H56.8725L55.8687 257.016H57.8928L56.9551 254.718H59.8632L58.8594 257.016H60.8835L59.9665 254.946H61.7097L61.2471 251.832C61.2471 251.832 61.2471 251.385 60.6274 251.509V177.202H60.6192Z" stroke="black" stroke-width="1.5" stroke-miterlimit="10" stroke-linecap="round" stroke-linejoin="round"/>
<path d="M97.1895 150.002H89.7085V253.497H97.1895V150.002Z" fill="#B2B2B2" stroke="black" stroke-width="0.5" stroke-miterlimit="10"/>
<path d="M96.8797 144.412H89.7085V150.002H96.8797V144.412Z" fill="#DADADA" stroke="black" stroke-width="0.5" stroke-miterlimit="10"/>
<path d="M96.979 143.605H89.9565V144.433H96.979V143.605Z" fill="#DADADA" stroke="black" stroke-width="0.5" stroke-miterlimit="10"/>
<path d="M90.3284 150.623V144.366C90.3284 144.366 89.9607 143.605 89.4568 144.366V149.82C89.4526 149.82 89.5022 150.209 90.3284 150.623Z" fill="#DADADA" stroke="black" stroke-width="0.5" stroke-miterlimit="10"/>
<path d="M96.4626 150.623V144.395C96.4626 144.395 96.979 143.609 97.4251 144.395V150.002C97.4251 150.002 97.1855 150.602 96.4626 150.623Z" fill="#DADADA" stroke="black" stroke-width="0.5" stroke-miterlimit="10"/>
<path d="M89.9565 143.604L91.1958 139.05H95.7397L96.979 143.604H89.9565Z" fill="#DADADA" stroke="black" stroke-width="0.5" stroke-miterlimit="10"/>
<path d="M91.1958 139.05C91.1958 136.565 93.4678 136.57 93.4678 136.57C93.4678 136.57 95.7397 136.565 95.7397 139.05H91.1958Z" fill="#DADADA" stroke="black" stroke-width="0.5" stroke-miterlimit="10"/>
<path d="M96.7642 253.29H90.1548V254.946H96.7642V253.29Z" fill="#B2B2B2" stroke="black" stroke-width="0.5" stroke-miterlimit="10"/>
<path d="M90.6586 254.627L89.9771 256.772H96.9995L96.2064 254.627H90.6586Z" fill="#4D4D4D" stroke="black" stroke-width="0.5" stroke-miterlimit="10"/>
<path d="M94.645 256.772H92.1707V257.174H94.645V256.772Z" fill="#4D4D4D" stroke="black" stroke-width="0.5" stroke-miterlimit="10"/>
<path d="M96.2064 254.627L94.645 256.772L93.4883 254.627L92.1706 256.772L90.6587 254.627H96.2064Z" fill="#4D4D4D" stroke="black" stroke-width="0.5" stroke-miterlimit="10" stroke-linecap="round" stroke-linejoin="round"/>
<path d="M89.9772 256.772H92.1706V257.174H94.645V256.772H96.9996L96.3222 254.946H96.7642V253.29H97.9828L97.2516 233.112V150.523L97.4912 150.196V144.59C97.4912 144.59 97.4581 144.217 97.0451 144.217V143.803L95.8058 139.249C95.8058 139.249 95.8058 136.768 93.5338 136.768C93.5338 136.768 91.2619 136.764 91.2619 139.249L90.0226 143.803V144.13C90.0226 144.13 89.6095 144.217 89.5186 144.565V150.018L89.7706 150.403V233.257L89.2253 253.294H90.1548V254.95H90.5555L89.9772 256.772Z" stroke="black" stroke-width="1.5" stroke-miterlimit="10" stroke-linecap="round" stroke-linejoin="round"/>
<path d="M11.644 271V266.401H14.255V266.842H12.162V268.466H13.933V268.9H12.162V271H11.644ZM14.4596 271L16.0346 266.401H16.6086L18.1766 271H17.6306L16.7976 268.396C16.7136 268.135 16.632 267.878 16.5526 267.626C16.478 267.369 16.401 267.106 16.3216 266.835H16.2936C16.2236 267.106 16.149 267.369 16.0696 267.626C15.995 267.878 15.9133 268.135 15.8246 268.396L14.9846 271H14.4596ZM15.2576 269.551V269.138H17.3646V269.551H15.2576ZM18.8491 271V266.401H19.3671V270.559H21.3971V271H18.8491ZM23.9272 271.084C23.5445 271.084 23.2039 270.991 22.9052 270.804C22.6065 270.613 22.3709 270.34 22.1982 269.985C22.0255 269.626 21.9392 269.199 21.9392 268.704C21.9392 268.331 21.9882 267.999 22.0862 267.71C22.1889 267.416 22.3312 267.164 22.5132 266.954C22.6999 266.744 22.9145 266.585 23.1572 266.478C23.4045 266.371 23.6729 266.317 23.9622 266.317C24.2422 266.317 24.4872 266.375 24.6972 266.492C24.9119 266.604 25.0822 266.732 25.2082 266.877L24.9212 267.22C24.7999 267.085 24.6599 266.977 24.5012 266.898C24.3472 266.814 24.1699 266.772 23.9692 266.772C23.6705 266.772 23.4092 266.851 23.1852 267.01C22.9612 267.164 22.7862 267.386 22.6602 267.675C22.5389 267.96 22.4782 268.298 22.4782 268.69C22.4782 269.087 22.5365 269.43 22.6532 269.719C22.7745 270.008 22.9449 270.232 23.1642 270.391C23.3882 270.55 23.6495 270.629 23.9482 270.629C24.1769 270.629 24.3775 270.582 24.5502 270.489C24.7275 270.396 24.8909 270.265 25.0402 270.097L25.3272 270.419C25.1499 270.629 24.9469 270.792 24.7182 270.909C24.4895 271.026 24.2259 271.084 23.9272 271.084ZM27.8775 271.084C27.4949 271.084 27.1565 270.986 26.8625 270.79C26.5685 270.594 26.3375 270.316 26.1695 269.957C26.0062 269.598 25.9245 269.173 25.9245 268.683C25.9245 268.193 26.0062 267.773 26.1695 267.423C26.3375 267.068 26.5685 266.795 26.8625 266.604C27.1565 266.413 27.4949 266.317 27.8775 266.317C28.2555 266.317 28.5915 266.413 28.8855 266.604C29.1795 266.795 29.4082 267.068 29.5715 267.423C29.7395 267.773 29.8235 268.193 29.8235 268.683C29.8235 269.173 29.7395 269.598 29.5715 269.957C29.4082 270.316 29.1795 270.594 28.8855 270.79C28.5915 270.986 28.2555 271.084 27.8775 271.084ZM27.8775 270.629C28.1575 270.629 28.4025 270.55 28.6125 270.391C28.8272 270.228 28.9929 270.001 29.1095 269.712C29.2262 269.418 29.2845 269.075 29.2845 268.683C29.2845 268.291 29.2262 267.953 29.1095 267.668C28.9929 267.383 28.8272 267.164 28.6125 267.01C28.4025 266.851 28.1575 266.772 27.8775 266.772C27.5929 266.772 27.3432 266.851 27.1285 267.01C26.9185 267.164 26.7552 267.383 26.6385 267.668C26.5219 267.953 26.4635 268.291 26.4635 268.683C26.4635 269.075 26.5219 269.418 26.6385 269.712C26.7552 270.001 26.9185 270.228 27.1285 270.391C27.3432 270.55 27.5929 270.629 27.8775 270.629ZM30.8325 271V266.401H31.3645L33.1005 269.383L33.6045 270.328H33.6325C33.6185 270.095 33.6021 269.857 33.5835 269.614C33.5695 269.367 33.5625 269.126 33.5625 268.893V266.401H34.0525V271H33.5205L31.7845 268.018L31.2805 267.073H31.2525C31.2711 267.302 31.2875 267.535 31.3015 267.773C31.3155 268.006 31.3225 268.242 31.3225 268.48V271H30.8325ZM12.414 280.084C12.1807 280.084 11.9777 280.04 11.805 279.951C11.6323 279.862 11.4877 279.753 11.371 279.622L11.658 279.3C11.7513 279.412 11.8633 279.501 11.994 279.566C12.1247 279.627 12.2577 279.657 12.393 279.657C12.617 279.657 12.82 279.592 13.002 279.461C13.1887 279.33 13.3357 279.113 13.443 278.81C13.555 278.507 13.611 278.098 13.611 277.585C13.611 277.221 13.5713 276.911 13.492 276.654C13.4173 276.393 13.303 276.194 13.149 276.059C12.995 275.924 12.8037 275.856 12.575 275.856C12.4257 275.856 12.2903 275.9 12.169 275.989C12.0477 276.073 11.9497 276.192 11.875 276.346C11.805 276.495 11.77 276.67 11.77 276.871C11.77 277.072 11.8003 277.247 11.861 277.396C11.9263 277.545 12.022 277.662 12.148 277.746C12.274 277.825 12.435 277.865 12.631 277.865C12.7803 277.865 12.9437 277.816 13.121 277.718C13.2983 277.615 13.4687 277.445 13.632 277.207L13.646 277.634C13.506 277.821 13.3357 277.972 13.135 278.089C12.939 278.201 12.743 278.257 12.547 278.257C12.2903 278.257 12.0663 278.206 11.875 278.103C11.6837 277.996 11.5367 277.839 11.434 277.634C11.3313 277.429 11.28 277.174 11.28 276.871C11.28 276.591 11.3383 276.344 11.455 276.129C11.5763 275.914 11.735 275.749 11.931 275.632C12.127 275.511 12.3417 275.45 12.575 275.45C12.799 275.45 13.002 275.494 13.184 275.583C13.3707 275.672 13.5317 275.807 13.667 275.989C13.8023 276.166 13.9073 276.39 13.982 276.661C14.0613 276.927 14.101 277.235 14.101 277.585C14.101 278.038 14.0543 278.425 13.961 278.747C13.8677 279.064 13.7417 279.321 13.583 279.517C13.4243 279.713 13.2447 279.858 13.044 279.951C12.8433 280.04 12.6333 280.084 12.414 280.084Z" fill="black"/>
<path d="M42.874 271V266.401H45.485V266.842H43.392V268.466H45.163V268.9H43.392V271H42.874ZM45.6896 271L47.2646 266.401H47.8386L49.4066 271H48.8606L48.0276 268.396C47.9436 268.135 47.862 267.878 47.7826 267.626C47.708 267.369 47.631 267.106 47.5516 266.835H47.5236C47.4536 267.106 47.379 267.369 47.2996 267.626C47.225 267.878 47.1433 268.135 47.0546 268.396L46.2146 271H45.6896ZM46.4876 269.551V269.138H48.5946V269.551H46.4876ZM50.0791 271V266.401H50.5971V270.559H52.6271V271H50.0791ZM55.1572 271.084C54.7745 271.084 54.4338 270.991 54.1352 270.804C53.8365 270.613 53.6008 270.34 53.4282 269.985C53.2555 269.626 53.1692 269.199 53.1692 268.704C53.1692 268.331 53.2182 267.999 53.3162 267.71C53.4188 267.416 53.5612 267.164 53.7432 266.954C53.9298 266.744 54.1445 266.585 54.3872 266.478C54.6345 266.371 54.9028 266.317 55.1922 266.317C55.4722 266.317 55.7172 266.375 55.9272 266.492C56.1418 266.604 56.3122 266.732 56.4382 266.877L56.1512 267.22C56.0298 267.085 55.8898 266.977 55.7312 266.898C55.5772 266.814 55.3998 266.772 55.1992 266.772C54.9005 266.772 54.6392 266.851 54.4152 267.01C54.1912 267.164 54.0162 267.386 53.8902 267.675C53.7688 267.96 53.7082 268.298 53.7082 268.69C53.7082 269.087 53.7665 269.43 53.8832 269.719C54.0045 270.008 54.1748 270.232 54.3942 270.391C54.6182 270.55 54.8795 270.629 55.1782 270.629C55.4068 270.629 55.6075 270.582 55.7802 270.489C55.9575 270.396 56.1208 270.265 56.2702 270.097L56.5572 270.419C56.3798 270.629 56.1768 270.792 55.9482 270.909C55.7195 271.026 55.4558 271.084 55.1572 271.084ZM59.1075 271.084C58.7249 271.084 58.3865 270.986 58.0925 270.79C57.7985 270.594 57.5675 270.316 57.3995 269.957C57.2362 269.598 57.1545 269.173 57.1545 268.683C57.1545 268.193 57.2362 267.773 57.3995 267.423C57.5675 267.068 57.7985 266.795 58.0925 266.604C58.3865 266.413 58.7249 266.317 59.1075 266.317C59.4855 266.317 59.8215 266.413 60.1155 266.604C60.4095 266.795 60.6382 267.068 60.8015 267.423C60.9695 267.773 61.0535 268.193 61.0535 268.683C61.0535 269.173 60.9695 269.598 60.8015 269.957C60.6382 270.316 60.4095 270.594 60.1155 270.79C59.8215 270.986 59.4855 271.084 59.1075 271.084ZM59.1075 270.629C59.3875 270.629 59.6325 270.55 59.8425 270.391C60.0572 270.228 60.2229 270.001 60.3395 269.712C60.4562 269.418 60.5145 269.075 60.5145 268.683C60.5145 268.291 60.4562 267.953 60.3395 267.668C60.2229 267.383 60.0572 267.164 59.8425 267.01C59.6325 266.851 59.3875 266.772 59.1075 266.772C58.8229 266.772 58.5732 266.851 58.3585 267.01C58.1485 267.164 57.9852 267.383 57.8685 267.668C57.7519 267.953 57.6935 268.291 57.6935 268.683C57.6935 269.075 57.7519 269.418 57.8685 269.712C57.9852 270.001 58.1485 270.228 58.3585 270.391C58.5732 270.55 58.8229 270.629 59.1075 270.629ZM62.0625 271V266.401H62.5945L64.3305 269.383L64.8345 270.328H64.8625C64.8485 270.095 64.8321 269.857 64.8135 269.614C64.7995 269.367 64.7925 269.126 64.7925 268.893V266.401H65.2825V271H64.7505L63.0145 268.018L62.5105 267.073H62.4825C62.5011 267.302 62.5175 267.535 62.5315 267.773C62.5455 268.006 62.5525 268.242 62.5525 268.48V271H62.0625ZM68.7387 271.084C68.5054 271.084 68.3024 271.04 68.1297 270.951C67.957 270.862 67.8124 270.753 67.6957 270.622L67.9827 270.3C68.076 270.412 68.188 270.501 68.3187 270.566C68.4494 270.627 68.5824 270.657 68.7177 270.657C68.9417 270.657 69.1447 270.592 69.3267 270.461C69.5134 270.33 69.6604 270.113 69.7677 269.81C69.8797 269.507 69.9357 269.098 69.9357 268.585C69.9357 268.221 69.896 267.911 69.8167 267.654C69.742 267.393 69.6277 267.194 69.4737 267.059C69.3197 266.924 69.1284 266.856 68.8997 266.856C68.7504 266.856 68.615 266.9 68.4937 266.989C68.3724 267.073 68.2744 267.192 68.1997 267.346C68.1297 267.495 68.0947 267.67 68.0947 267.871C68.0947 268.072 68.125 268.247 68.1857 268.396C68.251 268.545 68.3467 268.662 68.4727 268.746C68.5987 268.825 68.7597 268.865 68.9557 268.865C69.105 268.865 69.2684 268.816 69.4457 268.718C69.623 268.615 69.7934 268.445 69.9567 268.207L69.9707 268.634C69.8307 268.821 69.6604 268.972 69.4597 269.089C69.2637 269.201 69.0677 269.257 68.8717 269.257C68.615 269.257 68.391 269.206 68.1997 269.103C68.0084 268.996 67.8614 268.839 67.7587 268.634C67.656 268.429 67.6047 268.174 67.6047 267.871C67.6047 267.591 67.663 267.344 67.7797 267.129C67.901 266.914 68.0597 266.749 68.2557 266.632C68.4517 266.511 68.6664 266.45 68.8997 266.45C69.1237 266.45 69.3267 266.494 69.5087 266.583C69.6954 266.672 69.8564 266.807 69.9917 266.989C70.127 267.166 70.232 267.39 70.3067 267.661C70.386 267.927 70.4257 268.235 70.4257 268.585C70.4257 269.038 70.379 269.425 70.2857 269.747C70.1924 270.064 70.0664 270.321 69.9077 270.517C69.749 270.713 69.5694 270.858 69.3687 270.951C69.168 271.04 68.958 271.084 68.7387 271.084ZM51.3601 280L49.8761 275.401H50.4291L51.1991 277.935C51.2831 278.21 51.3578 278.467 51.4231 278.705C51.4885 278.938 51.5631 279.19 51.6471 279.461H51.6751C51.7638 279.19 51.8408 278.938 51.9061 278.705C51.9761 278.467 52.0508 278.21 52.1301 277.935L52.9001 275.401H53.4251L51.9551 280H51.3601ZM55.175 280V279.573H56.204V276.178H55.392V275.849C55.5927 275.816 55.7677 275.774 55.917 275.723C56.0664 275.667 56.2017 275.604 56.323 275.534H56.715V279.573H57.646V280H55.175ZM58.8372 280.084C58.7346 280.084 58.6436 280.047 58.5642 279.972C58.4896 279.897 58.4522 279.799 58.4522 279.678C58.4522 279.552 58.4896 279.452 58.5642 279.377C58.6436 279.302 58.7346 279.265 58.8372 279.265C58.9446 279.265 59.0356 279.302 59.1102 279.377C59.1849 279.452 59.2222 279.552 59.2222 279.678C59.2222 279.799 59.1849 279.897 59.1102 279.972C59.0356 280.047 58.9446 280.084 58.8372 280.084ZM61.4075 280.084C60.9689 280.084 60.6235 279.883 60.3715 279.482C60.1242 279.076 60.0005 278.5 60.0005 277.753C60.0005 277.002 60.1242 276.43 60.3715 276.038C60.6235 275.646 60.9689 275.45 61.4075 275.45C61.8509 275.45 62.1962 275.648 62.4435 276.045C62.6909 276.437 62.8145 277.006 62.8145 277.753C62.8145 278.5 62.6909 279.076 62.4435 279.482C62.1962 279.883 61.8509 280.084 61.4075 280.084ZM61.4075 279.671C61.5895 279.671 61.7482 279.603 61.8835 279.468C62.0235 279.333 62.1309 279.123 62.2055 278.838C62.2802 278.553 62.3175 278.192 62.3175 277.753C62.3175 277.31 62.2802 276.95 62.2055 276.675C62.1309 276.395 62.0235 276.19 61.8835 276.059C61.7482 275.928 61.5895 275.863 61.4075 275.863C61.2255 275.863 61.0669 275.928 60.9315 276.059C60.7962 276.19 60.6889 276.395 60.6095 276.675C60.5349 276.95 60.4975 277.31 60.4975 277.753C60.4975 278.192 60.5349 278.553 60.6095 278.838C60.6889 279.123 60.7962 279.333 60.9315 279.468C61.0669 279.603 61.2255 279.671 61.4075 279.671Z" fill="black"/>
<path d="M78.874 271V266.401H81.485V266.842H79.392V268.466H81.163V268.9H79.392V271H78.874ZM81.6896 271L83.2646 266.401H83.8386L85.4066 271H84.8606L84.0276 268.396C83.9436 268.135 83.862 267.878 83.7826 267.626C83.708 267.369 83.631 267.106 83.5516 266.835H83.5236C83.4536 267.106 83.379 267.369 83.2996 267.626C83.225 267.878 83.1433 268.135 83.0546 268.396L82.2146 271H81.6896ZM82.4876 269.551V269.138H84.5946V269.551H82.4876ZM86.0791 271V266.401H86.5971V270.559H88.6271V271H86.0791ZM91.1572 271.084C90.7745 271.084 90.4338 270.991 90.1352 270.804C89.8365 270.613 89.6008 270.34 89.4282 269.985C89.2555 269.626 89.1692 269.199 89.1692 268.704C89.1692 268.331 89.2182 267.999 89.3162 267.71C89.4188 267.416 89.5612 267.164 89.7432 266.954C89.9298 266.744 90.1445 266.585 90.3872 266.478C90.6345 266.371 90.9028 266.317 91.1922 266.317C91.4722 266.317 91.7172 266.375 91.9272 266.492C92.1418 266.604 92.3122 266.732 92.4382 266.877L92.1512 267.22C92.0298 267.085 91.8898 266.977 91.7312 266.898C91.5772 266.814 91.3998 266.772 91.1992 266.772C90.9005 266.772 90.6392 266.851 90.4152 267.01C90.1912 267.164 90.0162 267.386 89.8902 267.675C89.7688 267.96 89.7082 268.298 89.7082 268.69C89.7082 269.087 89.7665 269.43 89.8832 269.719C90.0045 270.008 90.1748 270.232 90.3942 270.391C90.6182 270.55 90.8795 270.629 91.1782 270.629C91.4068 270.629 91.6075 270.582 91.7802 270.489C91.9575 270.396 92.1208 270.265 92.2702 270.097L92.5572 270.419C92.3798 270.629 92.1768 270.792 91.9482 270.909C91.7195 271.026 91.4558 271.084 91.1572 271.084ZM95.1075 271.084C94.7249 271.084 94.3865 270.986 94.0925 270.79C93.7985 270.594 93.5675 270.316 93.3995 269.957C93.2362 269.598 93.1545 269.173 93.1545 268.683C93.1545 268.193 93.2362 267.773 93.3995 267.423C93.5675 267.068 93.7985 266.795 94.0925 266.604C94.3865 266.413 94.7249 266.317 95.1075 266.317C95.4855 266.317 95.8215 266.413 96.1155 266.604C96.4095 266.795 96.6382 267.068 96.8015 267.423C96.9695 267.773 97.0535 268.193 97.0535 268.683C97.0535 269.173 96.9695 269.598 96.8015 269.957C96.6382 270.316 96.4095 270.594 96.1155 270.79C95.8215 270.986 95.4855 271.084 95.1075 271.084ZM95.1075 270.629C95.3875 270.629 95.6325 270.55 95.8425 270.391C96.0572 270.228 96.2229 270.001 96.3395 269.712C96.4562 269.418 96.5145 269.075 96.5145 268.683C96.5145 268.291 96.4562 267.953 96.3395 267.668C96.2229 267.383 96.0572 267.164 95.8425 267.01C95.6325 266.851 95.3875 266.772 95.1075 266.772C94.8229 266.772 94.5732 266.851 94.3585 267.01C94.1485 267.164 93.9852 267.383 93.8685 267.668C93.7519 267.953 93.6935 268.291 93.6935 268.683C93.6935 269.075 93.7519 269.418 93.8685 269.712C93.9852 270.001 94.1485 270.228 94.3585 270.391C94.5732 270.55 94.8229 270.629 95.1075 270.629ZM98.0625 271V266.401H98.5945L100.33 269.383L100.834 270.328H100.862C100.848 270.095 100.832 269.857 100.813 269.614C100.799 269.367 100.792 269.126 100.792 268.893V266.401H101.282V271H100.75L99.0145 268.018L98.5105 267.073H98.4825C98.5011 267.302 98.5175 267.535 98.5315 267.773C98.5455 268.006 98.5525 268.242 98.5525 268.48V271H98.0625ZM104.739 271.084C104.505 271.084 104.302 271.04 104.13 270.951C103.957 270.862 103.812 270.753 103.696 270.622L103.983 270.3C104.076 270.412 104.188 270.501 104.319 270.566C104.449 270.627 104.582 270.657 104.718 270.657C104.942 270.657 105.145 270.592 105.327 270.461C105.513 270.33 105.66 270.113 105.768 269.81C105.88 269.507 105.936 269.098 105.936 268.585C105.936 268.221 105.896 267.911 105.817 267.654C105.742 267.393 105.628 267.194 105.474 267.059C105.32 266.924 105.128 266.856 104.9 266.856C104.75 266.856 104.615 266.9 104.494 266.989C104.372 267.073 104.274 267.192 104.2 267.346C104.13 267.495 104.095 267.67 104.095 267.871C104.095 268.072 104.125 268.247 104.186 268.396C104.251 268.545 104.347 268.662 104.473 268.746C104.599 268.825 104.76 268.865 104.956 268.865C105.105 268.865 105.268 268.816 105.446 268.718C105.623 268.615 105.793 268.445 105.957 268.207L105.971 268.634C105.831 268.821 105.66 268.972 105.46 269.089C105.264 269.201 105.068 269.257 104.872 269.257C104.615 269.257 104.391 269.206 104.2 269.103C104.008 268.996 103.861 268.839 103.759 268.634C103.656 268.429 103.605 268.174 103.605 267.871C103.605 267.591 103.663 267.344 103.78 267.129C103.901 266.914 104.06 266.749 104.256 266.632C104.452 266.511 104.666 266.45 104.9 266.45C105.124 266.45 105.327 266.494 105.509 266.583C105.695 266.672 105.856 266.807 105.992 266.989C106.127 267.166 106.232 267.39 106.307 267.661C106.386 267.927 106.426 268.235 106.426 268.585C106.426 269.038 106.379 269.425 106.286 269.747C106.192 270.064 106.066 270.321 105.908 270.517C105.749 270.713 105.569 270.858 105.369 270.951C105.168 271.04 104.958 271.084 104.739 271.084ZM87.5037 280L86.0197 275.401H86.5727L87.3427 277.935C87.4267 278.21 87.5014 278.467 87.5667 278.705C87.632 278.938 87.7067 279.19 87.7907 279.461H87.8187C87.9074 279.19 87.9844 278.938 88.0497 278.705C88.1197 278.467 88.1944 278.21 88.2737 277.935L89.0437 275.401H89.5687L88.0987 280H87.5037ZM91.3186 280V279.573H92.3476V276.178H91.5356V275.849C91.7363 275.816 91.9113 275.774 92.0606 275.723C92.2099 275.667 92.3453 275.604 92.4666 275.534H92.8586V279.573H93.7896V280H91.3186ZM94.9808 280.084C94.8781 280.084 94.7871 280.047 94.7078 279.972C94.6331 279.897 94.5958 279.799 94.5958 279.678C94.5958 279.552 94.6331 279.452 94.7078 279.377C94.7871 279.302 94.8781 279.265 94.9808 279.265C95.0881 279.265 95.1791 279.302 95.2538 279.377C95.3285 279.452 95.3658 279.552 95.3658 279.678C95.3658 279.799 95.3285 279.897 95.2538 279.972C95.1791 280.047 95.0881 280.084 94.9808 280.084ZM96.1721 280V279.573H97.2011V276.178H96.3891V275.849C96.5898 275.816 96.7648 275.774 96.9141 275.723C97.0634 275.667 97.1988 275.604 97.3201 275.534H97.7121V279.573H98.6431V280H96.1721Z" fill="black"/>
<path d="M117.874 271V266.401H120.485V266.842H118.392V268.466H120.163V268.9H118.392V271H117.874ZM120.69 271L122.265 266.401H122.839L124.407 271H123.861L123.028 268.396C122.944 268.135 122.862 267.878 122.783 267.626C122.708 267.369 122.631 267.106 122.552 266.835H122.524C122.454 267.106 122.379 267.369 122.3 267.626C122.225 267.878 122.143 268.135 122.055 268.396L121.215 271H120.69ZM121.488 269.551V269.138H123.595V269.551H121.488ZM125.079 271V266.401H125.597V270.559H127.627V271H125.079ZM130.157 271.084C129.775 271.084 129.434 270.991 129.135 270.804C128.837 270.613 128.601 270.34 128.428 269.985C128.256 269.626 128.169 269.199 128.169 268.704C128.169 268.331 128.218 267.999 128.316 267.71C128.419 267.416 128.561 267.164 128.743 266.954C128.93 266.744 129.145 266.585 129.387 266.478C129.635 266.371 129.903 266.317 130.192 266.317C130.472 266.317 130.717 266.375 130.927 266.492C131.142 266.604 131.312 266.732 131.438 266.877L131.151 267.22C131.03 267.085 130.89 266.977 130.731 266.898C130.577 266.814 130.4 266.772 130.199 266.772C129.901 266.772 129.639 266.851 129.415 267.01C129.191 267.164 129.016 267.386 128.89 267.675C128.769 267.96 128.708 268.298 128.708 268.69C128.708 269.087 128.767 269.43 128.883 269.719C129.005 270.008 129.175 270.232 129.394 270.391C129.618 270.55 129.88 270.629 130.178 270.629C130.407 270.629 130.608 270.582 130.78 270.489C130.958 270.396 131.121 270.265 131.27 270.097L131.557 270.419C131.38 270.629 131.177 270.792 130.948 270.909C130.72 271.026 130.456 271.084 130.157 271.084ZM134.108 271.084C133.725 271.084 133.387 270.986 133.093 270.79C132.799 270.594 132.568 270.316 132.4 269.957C132.236 269.598 132.155 269.173 132.155 268.683C132.155 268.193 132.236 267.773 132.4 267.423C132.568 267.068 132.799 266.795 133.093 266.604C133.387 266.413 133.725 266.317 134.108 266.317C134.486 266.317 134.822 266.413 135.116 266.604C135.41 266.795 135.638 267.068 135.802 267.423C135.97 267.773 136.054 268.193 136.054 268.683C136.054 269.173 135.97 269.598 135.802 269.957C135.638 270.316 135.41 270.594 135.116 270.79C134.822 270.986 134.486 271.084 134.108 271.084ZM134.108 270.629C134.388 270.629 134.633 270.55 134.843 270.391C135.057 270.228 135.223 270.001 135.34 269.712C135.456 269.418 135.515 269.075 135.515 268.683C135.515 268.291 135.456 267.953 135.34 267.668C135.223 267.383 135.057 267.164 134.843 267.01C134.633 266.851 134.388 266.772 134.108 266.772C133.823 266.772 133.573 266.851 133.359 267.01C133.149 267.164 132.985 267.383 132.869 267.668C132.752 267.953 132.694 268.291 132.694 268.683C132.694 269.075 132.752 269.418 132.869 269.712C132.985 270.001 133.149 270.228 133.359 270.391C133.573 270.55 133.823 270.629 134.108 270.629ZM137.062 271V266.401H137.594L139.33 269.383L139.834 270.328H139.862C139.848 270.095 139.832 269.857 139.813 269.614C139.799 269.367 139.792 269.126 139.792 268.893V266.401H140.282V271H139.75L138.014 268.018L137.51 267.073H137.482C137.501 267.302 137.517 267.535 137.531 267.773C137.545 268.006 137.552 268.242 137.552 268.48V271H137.062ZM143.739 271.084C143.505 271.084 143.302 271.04 143.13 270.951C142.957 270.862 142.812 270.753 142.696 270.622L142.983 270.3C143.076 270.412 143.188 270.501 143.319 270.566C143.449 270.627 143.582 270.657 143.718 270.657C143.942 270.657 144.145 270.592 144.327 270.461C144.513 270.33 144.66 270.113 144.768 269.81C144.88 269.507 144.936 269.098 144.936 268.585C144.936 268.221 144.896 267.911 144.817 267.654C144.742 267.393 144.628 267.194 144.474 267.059C144.32 266.924 144.128 266.856 143.9 266.856C143.75 266.856 143.615 266.9 143.494 266.989C143.372 267.073 143.274 267.192 143.2 267.346C143.13 267.495 143.095 267.67 143.095 267.871C143.095 268.072 143.125 268.247 143.186 268.396C143.251 268.545 143.347 268.662 143.473 268.746C143.599 268.825 143.76 268.865 143.956 268.865C144.105 268.865 144.268 268.816 144.446 268.718C144.623 268.615 144.793 268.445 144.957 268.207L144.971 268.634C144.831 268.821 144.66 268.972 144.46 269.089C144.264 269.201 144.068 269.257 143.872 269.257C143.615 269.257 143.391 269.206 143.2 269.103C143.008 268.996 142.861 268.839 142.759 268.634C142.656 268.429 142.605 268.174 142.605 267.871C142.605 267.591 142.663 267.344 142.78 267.129C142.901 266.914 143.06 266.749 143.256 266.632C143.452 266.511 143.666 266.45 143.9 266.45C144.124 266.45 144.327 266.494 144.509 266.583C144.695 266.672 144.856 266.807 144.992 266.989C145.127 267.166 145.232 267.39 145.307 267.661C145.386 267.927 145.426 268.235 145.426 268.585C145.426 269.038 145.379 269.425 145.286 269.747C145.192 270.064 145.066 270.321 144.908 270.517C144.749 270.713 144.569 270.858 144.369 270.951C144.168 271.04 143.958 271.084 143.739 271.084ZM126.36 280L124.876 275.401H125.429L126.199 277.935C126.283 278.21 126.358 278.467 126.423 278.705C126.488 278.938 126.563 279.19 126.647 279.461H126.675C126.764 279.19 126.841 278.938 126.906 278.705C126.976 278.467 127.051 278.21 127.13 277.935L127.9 275.401H128.425L126.955 280H126.36ZM130.175 280V279.573H131.204V276.178H130.392V275.849C130.593 275.816 130.768 275.774 130.917 275.723C131.066 275.667 131.202 275.604 131.323 275.534H131.715V279.573H132.646V280H130.175ZM133.837 280.084C133.735 280.084 133.644 280.047 133.564 279.972C133.49 279.897 133.452 279.799 133.452 279.678C133.452 279.552 133.49 279.452 133.564 279.377C133.644 279.302 133.735 279.265 133.837 279.265C133.945 279.265 134.036 279.302 134.11 279.377C134.185 279.452 134.222 279.552 134.222 279.678C134.222 279.799 134.185 279.897 134.11 279.972C134.036 280.047 133.945 280.084 133.837 280.084ZM134.966 280V279.699C135.423 279.237 135.81 278.833 136.128 278.488C136.445 278.138 136.685 277.825 136.849 277.55C137.012 277.275 137.094 277.013 137.094 276.766C137.094 276.505 137.021 276.29 136.877 276.122C136.737 275.954 136.515 275.87 136.212 275.87C136.025 275.87 135.848 275.921 135.68 276.024C135.516 276.127 135.369 276.257 135.239 276.416L134.938 276.122C135.124 275.921 135.323 275.76 135.533 275.639C135.743 275.513 135.99 275.45 136.275 275.45C136.545 275.45 136.779 275.504 136.975 275.611C137.175 275.718 137.329 275.87 137.437 276.066C137.544 276.257 137.598 276.484 137.598 276.745C137.598 277.03 137.516 277.317 137.353 277.606C137.194 277.895 136.972 278.203 136.688 278.53C136.408 278.852 136.083 279.207 135.715 279.594C135.836 279.585 135.962 279.578 136.093 279.573C136.223 279.564 136.347 279.559 136.464 279.559H137.815V280H134.966Z" fill="black"/>
<path d="M155.874 271V266.401H158.485V266.842H156.392V268.466H158.163V268.9H156.392V271H155.874ZM158.69 271L160.265 266.401H160.839L162.407 271H161.861L161.028 268.396C160.944 268.135 160.862 267.878 160.783 267.626C160.708 267.369 160.631 267.106 160.552 266.835H160.524C160.454 267.106 160.379 267.369 160.3 267.626C160.225 267.878 160.143 268.135 160.055 268.396L159.215 271H158.69ZM159.488 269.551V269.138H161.595V269.551H159.488ZM163.079 271V266.401H163.597V270.559H165.627V271H163.079ZM168.157 271.084C167.775 271.084 167.434 270.991 167.135 270.804C166.837 270.613 166.601 270.34 166.428 269.985C166.256 269.626 166.169 269.199 166.169 268.704C166.169 268.331 166.218 267.999 166.316 267.71C166.419 267.416 166.561 267.164 166.743 266.954C166.93 266.744 167.145 266.585 167.387 266.478C167.635 266.371 167.903 266.317 168.192 266.317C168.472 266.317 168.717 266.375 168.927 266.492C169.142 266.604 169.312 266.732 169.438 266.877L169.151 267.22C169.03 267.085 168.89 266.977 168.731 266.898C168.577 266.814 168.4 266.772 168.199 266.772C167.901 266.772 167.639 266.851 167.415 267.01C167.191 267.164 167.016 267.386 166.89 267.675C166.769 267.96 166.708 268.298 166.708 268.69C166.708 269.087 166.767 269.43 166.883 269.719C167.005 270.008 167.175 270.232 167.394 270.391C167.618 270.55 167.88 270.629 168.178 270.629C168.407 270.629 168.608 270.582 168.78 270.489C168.958 270.396 169.121 270.265 169.27 270.097L169.557 270.419C169.38 270.629 169.177 270.792 168.948 270.909C168.72 271.026 168.456 271.084 168.157 271.084ZM172.108 271.084C171.725 271.084 171.387 270.986 171.093 270.79C170.799 270.594 170.568 270.316 170.4 269.957C170.236 269.598 170.155 269.173 170.155 268.683C170.155 268.193 170.236 267.773 170.4 267.423C170.568 267.068 170.799 266.795 171.093 266.604C171.387 266.413 171.725 266.317 172.108 266.317C172.486 266.317 172.822 266.413 173.116 266.604C173.41 266.795 173.638 267.068 173.802 267.423C173.97 267.773 174.054 268.193 174.054 268.683C174.054 269.173 173.97 269.598 173.802 269.957C173.638 270.316 173.41 270.594 173.116 270.79C172.822 270.986 172.486 271.084 172.108 271.084ZM172.108 270.629C172.388 270.629 172.633 270.55 172.843 270.391C173.057 270.228 173.223 270.001 173.34 269.712C173.456 269.418 173.515 269.075 173.515 268.683C173.515 268.291 173.456 267.953 173.34 267.668C173.223 267.383 173.057 267.164 172.843 267.01C172.633 266.851 172.388 266.772 172.108 266.772C171.823 266.772 171.573 266.851 171.359 267.01C171.149 267.164 170.985 267.383 170.869 267.668C170.752 267.953 170.694 268.291 170.694 268.683C170.694 269.075 170.752 269.418 170.869 269.712C170.985 270.001 171.149 270.228 171.359 270.391C171.573 270.55 171.823 270.629 172.108 270.629ZM175.062 271V266.401H175.594L177.33 269.383L177.834 270.328H177.862C177.848 270.095 177.832 269.857 177.813 269.614C177.799 269.367 177.792 269.126 177.792 268.893V266.401H178.282V271H177.75L176.014 268.018L175.51 267.073H175.482C175.501 267.302 175.517 267.535 175.531 267.773C175.545 268.006 175.552 268.242 175.552 268.48V271H175.062ZM181.739 271.084C181.505 271.084 181.302 271.04 181.13 270.951C180.957 270.862 180.812 270.753 180.696 270.622L180.983 270.3C181.076 270.412 181.188 270.501 181.319 270.566C181.449 270.627 181.582 270.657 181.718 270.657C181.942 270.657 182.145 270.592 182.327 270.461C182.513 270.33 182.66 270.113 182.768 269.81C182.88 269.507 182.936 269.098 182.936 268.585C182.936 268.221 182.896 267.911 182.817 267.654C182.742 267.393 182.628 267.194 182.474 267.059C182.32 266.924 182.128 266.856 181.9 266.856C181.75 266.856 181.615 266.9 181.494 266.989C181.372 267.073 181.274 267.192 181.2 267.346C181.13 267.495 181.095 267.67 181.095 267.871C181.095 268.072 181.125 268.247 181.186 268.396C181.251 268.545 181.347 268.662 181.473 268.746C181.599 268.825 181.76 268.865 181.956 268.865C182.105 268.865 182.268 268.816 182.446 268.718C182.623 268.615 182.793 268.445 182.957 268.207L182.971 268.634C182.831 268.821 182.66 268.972 182.46 269.089C182.264 269.201 182.068 269.257 181.872 269.257C181.615 269.257 181.391 269.206 181.2 269.103C181.008 268.996 180.861 268.839 180.759 268.634C180.656 268.429 180.605 268.174 180.605 267.871C180.605 267.591 180.663 267.344 180.78 267.129C180.901 266.914 181.06 266.749 181.256 266.632C181.452 266.511 181.666 266.45 181.9 266.45C182.124 266.45 182.327 266.494 182.509 266.583C182.695 266.672 182.856 266.807 182.992 266.989C183.127 267.166 183.232 267.39 183.307 267.661C183.386 267.927 183.426 268.235 183.426 268.585C183.426 269.038 183.379 269.425 183.286 269.747C183.192 270.064 183.066 270.321 182.908 270.517C182.749 270.713 182.569 270.858 182.369 270.951C182.168 271.04 181.958 271.084 181.739 271.084ZM158.485 280V275.401H159.815C160.128 275.401 160.401 275.441 160.634 275.52C160.872 275.595 161.057 275.716 161.187 275.884C161.318 276.047 161.383 276.262 161.383 276.528C161.383 276.757 161.325 276.962 161.208 277.144C161.092 277.326 160.921 277.452 160.697 277.522V277.55C160.982 277.601 161.211 277.72 161.383 277.907C161.561 278.089 161.649 278.339 161.649 278.656C161.649 278.955 161.577 279.204 161.432 279.405C161.288 279.606 161.085 279.755 160.823 279.853C160.562 279.951 160.261 280 159.92 280H158.485ZM159.003 279.587H159.836C160.247 279.587 160.567 279.51 160.795 279.356C161.024 279.202 161.138 278.964 161.138 278.642C161.138 278.348 161.026 278.131 160.802 277.991C160.578 277.846 160.256 277.774 159.836 277.774H159.003V279.587ZM159.003 277.375H159.71C160.121 277.375 160.417 277.305 160.599 277.165C160.781 277.025 160.872 276.834 160.872 276.591C160.872 276.306 160.777 276.106 160.585 275.989C160.394 275.872 160.112 275.814 159.738 275.814H159.003V277.375ZM163.084 280.084C162.958 280.084 162.853 280.056 162.769 280C162.685 279.949 162.624 279.872 162.587 279.769C162.55 279.662 162.531 279.531 162.531 279.377V275.002H163.035V279.419C163.035 279.503 163.051 279.564 163.084 279.601C163.117 279.638 163.154 279.657 163.196 279.657C163.21 279.657 163.226 279.657 163.245 279.657C163.264 279.652 163.289 279.648 163.322 279.643L163.392 280.035C163.355 280.044 163.31 280.054 163.259 280.063C163.212 280.077 163.154 280.084 163.084 280.084ZM166.003 280.084C165.62 280.084 165.282 279.986 164.988 279.79C164.694 279.594 164.463 279.316 164.295 278.957C164.132 278.598 164.05 278.173 164.05 277.683C164.05 277.193 164.132 276.773 164.295 276.423C164.463 276.068 164.694 275.795 164.988 275.604C165.282 275.413 165.62 275.317 166.003 275.317C166.381 275.317 166.717 275.413 167.011 275.604C167.305 275.795 167.534 276.068 167.697 276.423C167.865 276.773 167.949 277.193 167.949 277.683C167.949 278.173 167.865 278.598 167.697 278.957C167.534 279.316 167.305 279.594 167.011 279.79C166.717 279.986 166.381 280.084 166.003 280.084ZM166.003 279.629C166.283 279.629 166.528 279.55 166.738 279.391C166.953 279.228 167.118 279.001 167.235 278.712C167.352 278.418 167.41 278.075 167.41 277.683C167.41 277.291 167.352 276.953 167.235 276.668C167.118 276.383 166.953 276.164 166.738 276.01C166.528 275.851 166.283 275.772 166.003 275.772C165.718 275.772 165.469 275.851 165.254 276.01C165.044 276.164 164.881 276.383 164.764 276.668C164.647 276.953 164.589 277.291 164.589 277.683C164.589 278.075 164.647 278.418 164.764 278.712C164.881 279.001 165.044 279.228 165.254 279.391C165.469 279.55 165.718 279.629 166.003 279.629ZM170.666 280.084C170.283 280.084 169.943 279.991 169.644 279.804C169.345 279.613 169.11 279.34 168.937 278.985C168.764 278.626 168.678 278.199 168.678 277.704C168.678 277.331 168.727 276.999 168.825 276.71C168.928 276.416 169.07 276.164 169.252 275.954C169.439 275.744 169.653 275.585 169.896 275.478C170.143 275.371 170.412 275.317 170.701 275.317C170.981 275.317 171.226 275.375 171.436 275.492C171.651 275.604 171.821 275.732 171.947 275.877L171.66 276.22C171.539 276.085 171.399 275.977 171.24 275.898C171.086 275.814 170.909 275.772 170.708 275.772C170.409 275.772 170.148 275.851 169.924 276.01C169.7 276.164 169.525 276.386 169.399 276.675C169.278 276.96 169.217 277.298 169.217 277.69C169.217 278.087 169.275 278.43 169.392 278.719C169.513 279.008 169.684 279.232 169.903 279.391C170.127 279.55 170.388 279.629 170.687 279.629C170.916 279.629 171.116 279.582 171.289 279.489C171.466 279.396 171.63 279.265 171.779 279.097L172.066 279.419C171.889 279.629 171.686 279.792 171.457 279.909C171.228 280.026 170.965 280.084 170.666 280.084ZM172.943 280V275.401H173.461V277.774H173.475L175.47 275.401H176.058L174.609 277.144L176.275 280H175.694L174.287 277.543L173.461 278.516V280H172.943ZM179.337 280.084C179.099 280.084 178.889 280.056 178.707 280C178.53 279.939 178.374 279.862 178.238 279.769C178.108 279.676 177.991 279.578 177.888 279.475L178.147 279.139C178.283 279.27 178.439 279.389 178.616 279.496C178.798 279.603 179.025 279.657 179.295 279.657C179.482 279.657 179.652 279.613 179.806 279.524C179.96 279.435 180.082 279.312 180.17 279.153C180.259 278.994 180.303 278.808 180.303 278.593C180.303 278.271 180.215 278.021 180.037 277.844C179.86 277.662 179.622 277.571 179.323 277.571C179.165 277.571 179.027 277.594 178.91 277.641C178.798 277.688 178.675 277.755 178.539 277.844L178.259 277.669L178.406 275.534H180.597V275.975H178.854L178.728 277.368C178.84 277.307 178.952 277.261 179.064 277.228C179.176 277.191 179.302 277.172 179.442 277.172C179.699 277.172 179.93 277.223 180.135 277.326C180.345 277.424 180.511 277.576 180.632 277.781C180.758 277.986 180.821 278.25 180.821 278.572C180.821 278.894 180.751 279.169 180.611 279.398C180.471 279.622 180.287 279.792 180.058 279.909C179.834 280.026 179.594 280.084 179.337 280.084Z" fill="black"/>
<path d="M208.797 271V266.401H211.408V266.842H209.315V268.466H211.086V268.9H209.315V271H208.797ZM211.613 271L213.188 266.401H213.762L215.33 271H214.784L213.951 268.396C213.867 268.135 213.785 267.878 213.706 267.626C213.631 267.369 213.554 267.106 213.475 266.835H213.447C213.377 267.106 213.302 267.369 213.223 267.626C213.148 267.878 213.067 268.135 212.978 268.396L212.138 271H211.613ZM212.411 269.551V269.138H214.518V269.551H212.411ZM216.002 271V266.401H216.52V270.559H218.55V271H216.002ZM221.081 271.084C220.698 271.084 220.357 270.991 220.059 270.804C219.76 270.613 219.524 270.34 219.352 269.985C219.179 269.626 219.093 269.199 219.093 268.704C219.093 268.331 219.142 267.999 219.24 267.71C219.342 267.416 219.485 267.164 219.667 266.954C219.853 266.744 220.068 266.585 220.311 266.478C220.558 266.371 220.826 266.317 221.116 266.317C221.396 266.317 221.641 266.375 221.851 266.492C222.065 266.604 222.236 266.732 222.362 266.877L222.075 267.22C221.953 267.085 221.813 266.977 221.655 266.898C221.501 266.814 221.323 266.772 221.123 266.772C220.824 266.772 220.563 266.851 220.339 267.01C220.115 267.164 219.94 267.386 219.814 267.675C219.692 267.96 219.632 268.298 219.632 268.69C219.632 269.087 219.69 269.43 219.807 269.719C219.928 270.008 220.098 270.232 220.318 270.391C220.542 270.55 220.803 270.629 221.102 270.629C221.33 270.629 221.531 270.582 221.704 270.489C221.881 270.396 222.044 270.265 222.194 270.097L222.481 270.419C222.303 270.629 222.1 270.792 221.872 270.909C221.643 271.026 221.379 271.084 221.081 271.084ZM225.031 271.084C224.648 271.084 224.31 270.986 224.016 270.79C223.722 270.594 223.491 270.316 223.323 269.957C223.16 269.598 223.078 269.173 223.078 268.683C223.078 268.193 223.16 267.773 223.323 267.423C223.491 267.068 223.722 266.795 224.016 266.604C224.31 266.413 224.648 266.317 225.031 266.317C225.409 266.317 225.745 266.413 226.039 266.604C226.333 266.795 226.562 267.068 226.725 267.423C226.893 267.773 226.977 268.193 226.977 268.683C226.977 269.173 226.893 269.598 226.725 269.957C226.562 270.316 226.333 270.594 226.039 270.79C225.745 270.986 225.409 271.084 225.031 271.084ZM225.031 270.629C225.311 270.629 225.556 270.55 225.766 270.391C225.981 270.228 226.146 270.001 226.263 269.712C226.38 269.418 226.438 269.075 226.438 268.683C226.438 268.291 226.38 267.953 226.263 267.668C226.146 267.383 225.981 267.164 225.766 267.01C225.556 266.851 225.311 266.772 225.031 266.772C224.746 266.772 224.497 266.851 224.282 267.01C224.072 267.164 223.909 267.383 223.792 267.668C223.675 267.953 223.617 268.291 223.617 268.683C223.617 269.075 223.675 269.418 223.792 269.712C223.909 270.001 224.072 270.228 224.282 270.391C224.497 270.55 224.746 270.629 225.031 270.629ZM227.986 271V266.401H228.518L230.254 269.383L230.758 270.328H230.786C230.772 270.095 230.755 269.857 230.737 269.614C230.723 269.367 230.716 269.126 230.716 268.893V266.401H231.206V271H230.674L228.938 268.018L228.434 267.073H228.406C228.424 267.302 228.441 267.535 228.455 267.773C228.469 268.006 228.476 268.242 228.476 268.48V271H227.986ZM211.234 280V275.401H211.752V277.347H213.971V275.401H214.489V280H213.971V277.802H211.752V280H211.234ZM215.773 280V275.401H218.384V275.842H216.291V277.361H218.055V277.795H216.291V279.559H218.454V280H215.773ZM218.828 280L220.403 275.401H220.977L222.545 280H221.999L221.166 277.396C221.082 277.135 221.001 276.878 220.921 276.626C220.847 276.369 220.77 276.106 220.69 275.835H220.662C220.592 276.106 220.518 276.369 220.438 276.626C220.364 276.878 220.282 277.135 220.193 277.396L219.353 280H218.828ZM219.626 278.551V278.138H221.733V278.551H219.626ZM224.065 280L222.581 275.401H223.134L223.904 277.935C223.988 278.21 224.062 278.467 224.128 278.705C224.193 278.938 224.268 279.19 224.352 279.461H224.38C224.468 279.19 224.545 278.938 224.611 278.705C224.681 278.467 224.755 278.21 224.835 277.935L225.605 275.401H226.13L224.66 280H224.065ZM227.514 280V278.194L226.135 275.401H226.688L227.304 276.738C227.384 276.906 227.458 277.072 227.528 277.235C227.603 277.398 227.682 277.564 227.766 277.732H227.794C227.874 277.564 227.953 277.398 228.032 277.235C228.116 277.072 228.193 276.906 228.263 276.738L228.879 275.401H229.418L228.032 278.194V280H227.514Z" fill="black"/>
<path d="M261.297 271V266.401H263.908V266.842H261.815V268.466H263.586V268.9H261.815V271H261.297ZM264.113 271L265.688 266.401H266.262L267.83 271H267.284L266.451 268.396C266.367 268.135 266.285 267.878 266.206 267.626C266.131 267.369 266.054 267.106 265.975 266.835H265.947C265.877 267.106 265.802 267.369 265.723 267.626C265.648 267.878 265.567 268.135 265.478 268.396L264.638 271H264.113ZM264.911 269.551V269.138H267.018V269.551H264.911ZM268.502 271V266.401H269.02V270.559H271.05V271H268.502ZM273.581 271.084C273.198 271.084 272.857 270.991 272.559 270.804C272.26 270.613 272.024 270.34 271.852 269.985C271.679 269.626 271.593 269.199 271.593 268.704C271.593 268.331 271.642 267.999 271.74 267.71C271.842 267.416 271.985 267.164 272.167 266.954C272.353 266.744 272.568 266.585 272.811 266.478C273.058 266.371 273.326 266.317 273.616 266.317C273.896 266.317 274.141 266.375 274.351 266.492C274.565 266.604 274.736 266.732 274.862 266.877L274.575 267.22C274.453 267.085 274.313 266.977 274.155 266.898C274.001 266.814 273.823 266.772 273.623 266.772C273.324 266.772 273.063 266.851 272.839 267.01C272.615 267.164 272.44 267.386 272.314 267.675C272.192 267.96 272.132 268.298 272.132 268.69C272.132 269.087 272.19 269.43 272.307 269.719C272.428 270.008 272.598 270.232 272.818 270.391C273.042 270.55 273.303 270.629 273.602 270.629C273.83 270.629 274.031 270.582 274.204 270.489C274.381 270.396 274.544 270.265 274.694 270.097L274.981 270.419C274.803 270.629 274.6 270.792 274.372 270.909C274.143 271.026 273.879 271.084 273.581 271.084ZM277.531 271.084C277.148 271.084 276.81 270.986 276.516 270.79C276.222 270.594 275.991 270.316 275.823 269.957C275.66 269.598 275.578 269.173 275.578 268.683C275.578 268.193 275.66 267.773 275.823 267.423C275.991 267.068 276.222 266.795 276.516 266.604C276.81 266.413 277.148 266.317 277.531 266.317C277.909 266.317 278.245 266.413 278.539 266.604C278.833 266.795 279.062 267.068 279.225 267.423C279.393 267.773 279.477 268.193 279.477 268.683C279.477 269.173 279.393 269.598 279.225 269.957C279.062 270.316 278.833 270.594 278.539 270.79C278.245 270.986 277.909 271.084 277.531 271.084ZM277.531 270.629C277.811 270.629 278.056 270.55 278.266 270.391C278.481 270.228 278.646 270.001 278.763 269.712C278.88 269.418 278.938 269.075 278.938 268.683C278.938 268.291 278.88 267.953 278.763 267.668C278.646 267.383 278.481 267.164 278.266 267.01C278.056 266.851 277.811 266.772 277.531 266.772C277.246 266.772 276.997 266.851 276.782 267.01C276.572 267.164 276.409 267.383 276.292 267.668C276.175 267.953 276.117 268.291 276.117 268.683C276.117 269.075 276.175 269.418 276.292 269.712C276.409 270.001 276.572 270.228 276.782 270.391C276.997 270.55 277.246 270.629 277.531 270.629ZM280.486 271V266.401H281.018L282.754 269.383L283.258 270.328H283.286C283.272 270.095 283.255 269.857 283.237 269.614C283.223 269.367 283.216 269.126 283.216 268.893V266.401H283.706V271H283.174L281.438 268.018L280.934 267.073H280.906C280.924 267.302 280.941 267.535 280.955 267.773C280.969 268.006 280.976 268.242 280.976 268.48V271H280.486ZM259.264 280V275.401H259.782V277.347H262.001V275.401H262.519V280H262.001V277.802H259.782V280H259.264ZM263.803 280V275.401H266.414V275.842H264.321V277.361H266.085V277.795H264.321V279.559H266.484V280H263.803ZM266.858 280L268.433 275.401H269.007L270.575 280H270.029L269.196 277.396C269.112 277.135 269.03 276.878 268.951 276.626C268.876 276.369 268.799 276.106 268.72 275.835H268.692C268.622 276.106 268.547 276.369 268.468 276.626C268.393 276.878 268.311 277.135 268.223 277.396L267.383 280H266.858ZM267.656 278.551V278.138H269.763V278.551H267.656ZM272.094 280L270.61 275.401H271.163L271.933 277.935C272.017 278.21 272.092 278.467 272.157 278.705C272.222 278.938 272.297 279.19 272.381 279.461H272.409C272.498 279.19 272.575 278.938 272.64 278.705C272.71 278.467 272.785 278.21 272.864 277.935L273.634 275.401H274.159L272.689 280H272.094ZM275.544 280V278.194L274.165 275.401H274.718L275.334 276.738C275.413 276.906 275.488 277.072 275.558 277.235C275.632 277.398 275.712 277.564 275.796 277.732H275.824C275.903 277.564 275.982 277.398 276.062 277.235C276.146 277.072 276.223 276.906 276.293 276.738L276.909 275.401H277.448L276.062 278.194V280H275.544ZM279.484 280V275.401H280.814C281.127 275.401 281.4 275.441 281.633 275.52C281.871 275.595 282.056 275.716 282.186 275.884C282.317 276.047 282.382 276.262 282.382 276.528C282.382 276.757 282.324 276.962 282.207 277.144C282.091 277.326 281.92 277.452 281.696 277.522V277.55C281.981 277.601 282.21 277.72 282.382 277.907C282.56 278.089 282.648 278.339 282.648 278.656C282.648 278.955 282.576 279.204 282.431 279.405C282.287 279.606 282.084 279.755 281.822 279.853C281.561 279.951 281.26 280 280.919 280H279.484ZM280.002 279.587H280.835C281.246 279.587 281.566 279.51 281.794 279.356C282.023 279.202 282.137 278.964 282.137 278.642C282.137 278.348 282.025 278.131 281.801 277.991C281.577 277.846 281.255 277.774 280.835 277.774H280.002V279.587ZM280.002 277.375H280.709C281.12 277.375 281.416 277.305 281.598 277.165C281.78 277.025 281.871 276.834 281.871 276.591C281.871 276.306 281.776 276.106 281.584 275.989C281.393 275.872 281.111 275.814 280.737 275.814H280.002V277.375ZM284.559 280.084C284.321 280.084 284.111 280.056 283.929 280C283.752 279.939 283.595 279.862 283.46 279.769C283.329 279.676 283.213 279.578 283.11 279.475L283.369 279.139C283.504 279.27 283.661 279.389 283.838 279.496C284.02 279.603 284.246 279.657 284.517 279.657C284.704 279.657 284.874 279.613 285.028 279.524C285.182 279.435 285.303 279.312 285.392 279.153C285.481 278.994 285.525 278.808 285.525 278.593C285.525 278.271 285.436 278.021 285.259 277.844C285.082 277.662 284.844 277.571 284.545 277.571C284.386 277.571 284.249 277.594 284.132 277.641C284.02 277.688 283.896 277.755 283.761 277.844L283.481 277.669L283.628 275.534H285.819V275.975H284.076L283.95 277.368C284.062 277.307 284.174 277.261 284.286 277.228C284.398 277.191 284.524 277.172 284.664 277.172C284.921 277.172 285.152 277.223 285.357 277.326C285.567 277.424 285.733 277.576 285.854 277.781C285.98 277.986 286.043 278.25 286.043 278.572C286.043 278.894 285.973 279.169 285.833 279.398C285.693 279.622 285.509 279.792 285.28 279.909C285.056 280.026 284.816 280.084 284.559 280.084Z" fill="black"/>
<path d="M134.94 146.279H128.33V252.693H134.94V146.279Z" fill="#B2B2B2" stroke="black" stroke-width="0.5" stroke-miterlimit="10"/>
<path d="M128.33 163.309H134.94" stroke="black" stroke-width="0.5" stroke-miterlimit="10"/>
<path d="M128.33 176.07H134.94" stroke="black" stroke-width="0.5" stroke-miterlimit="10"/>
<path d="M135.146 252.486H128.124V254.556H135.146V252.486Z" fill="#4D4D4D" stroke="black" stroke-width="0.5" stroke-miterlimit="10"/>
<path d="M128.805 254.556L128.124 256.701H135.146L134.353 254.556H128.805Z" fill="#4D4D4D" stroke="black" stroke-width="0.5" stroke-miterlimit="10"/>
<path d="M132.791 256.701H130.317V257.102H132.791V256.701Z" fill="#4D4D4D" stroke="black" stroke-width="0.5" stroke-miterlimit="10"/>
<path d="M134.353 254.556L132.791 256.701L131.635 254.556L130.317 256.701L128.805 254.556H134.353Z" fill="#4D4D4D" stroke="black" stroke-width="0.5" stroke-miterlimit="10" stroke-linecap="round" stroke-linejoin="round"/>
<path d="M128.413 146.258H135.022L136.468 143.98H127.004L128.413 146.258Z" fill="#DADADA" stroke="black" stroke-width="0.5" stroke-miterlimit="10"/>
<path d="M135.811 127.36L134.621 123.257C133.746 120.238 129.458 120.288 128.656 123.331L127.582 127.41C127.194 128.88 127 130.391 127 131.91V143.98H136.464V131.981C136.468 130.416 136.245 128.863 135.811 127.36Z" fill="#DADADA" stroke="black" stroke-width="0.5" stroke-miterlimit="10"/>
<path d="M131.717 121V143.98" stroke="black" stroke-width="0.5" stroke-miterlimit="10"/>
<path d="M136.468 143.98L135.022 146.258L134.939 252.486H135.307V254.887H134.629L135.307 256.713H132.952V257.115H130.478V256.713H128.284L128.863 254.887H128.004V252.486H128.33L128.413 146.258L127.004 143.98" stroke="black" stroke-width="1.5" stroke-miterlimit="10" stroke-linecap="round" stroke-linejoin="round"/>
<path d="M136.509 144.014V132.014C136.509 130.453 136.29 128.896 135.852 127.393L134.663 123.29C133.787 120.267 129.499 120.321 128.698 123.364L127.624 127.443C127.235 128.913 127.041 130.424 127.041 131.944V144.014" stroke="black" stroke-width="1.5" stroke-miterlimit="10"/>
<path d="M166.632 146.331H173.241L174.687 144.054H165.223L166.632 146.331Z" fill="#DADADA" stroke="black" stroke-width="0.5" stroke-miterlimit="10"/>
<path d="M174.03 127.433L172.841 123.33C171.965 120.311 167.677 120.361 166.876 123.404L165.802 127.483C165.413 128.953 165.219 130.464 165.219 131.984V144.054H174.683V132.054C174.687 130.489 174.468 128.932 174.03 127.433Z" fill="#DADADA" stroke="black" stroke-width="0.5" stroke-miterlimit="10"/>
<path d="M169.937 121.073V144.054" stroke="black" stroke-width="0.5" stroke-miterlimit="10"/>
<path d="M167.227 254.459L166.545 256.604H173.568L172.775 254.459H167.227Z" fill="#4D4D4D" stroke="black" stroke-width="0.5" stroke-miterlimit="10"/>
<path d="M171.213 256.604H168.739V257.006H171.213V256.604Z" fill="#4D4D4D" stroke="black" stroke-width="0.5" stroke-miterlimit="10"/>
<path d="M172.775 254.459L171.213 256.604L170.057 254.459L168.739 256.604L167.227 254.459H172.775Z" fill="#4D4D4D" stroke="black" stroke-width="0.5" stroke-miterlimit="10" stroke-linecap="round" stroke-linejoin="round"/>
<path d="M173.448 247.983H166.839V254.608H173.448V247.983Z" fill="#4D4D4D" stroke="black" stroke-width="0.5" stroke-miterlimit="10"/>
<path d="M166.425 176.351H173.448V247.983H166.839L166.425 176.351Z" fill="#B2B2B2" stroke="black" stroke-width="0.5" stroke-miterlimit="10"/>
<path d="M166.425 233.545L165.723 253.275H169.97L167.454 233.499C167.376 232.866 166.45 232.912 166.425 233.545Z" fill="#4D4D4D" stroke="black" stroke-width="0.5" stroke-miterlimit="10"/>
<path d="M170.317 253.275H174.481L173.7 233.694C173.675 233.056 172.742 233.019 172.667 233.653L170.317 253.275Z" fill="#4D4D4D" stroke="black" stroke-width="0.5" stroke-miterlimit="10"/>
<path d="M169.495 253.275L167.574 245.996C167.392 245.313 166.405 245.4 166.343 246.104L165.723 253.275H174.481L173.659 245.996C173.584 245.325 172.63 245.271 172.481 245.93L170.796 253.275" fill="#4D4D4D"/>
<path d="M169.495 253.275L167.574 245.996C167.392 245.313 166.405 245.4 166.343 246.104L165.723 253.275H174.481L173.659 245.996C173.584 245.325 172.63 245.271 172.481 245.93L170.796 253.275" stroke="black" stroke-width="0.5" stroke-miterlimit="10"/>
<path d="M166.752 245.528L166.963 233.048" stroke="black" stroke-width="0.5" stroke-miterlimit="10"/>
<path d="M173.06 245.528L173.279 233.206" stroke="black" stroke-width="0.5" stroke-miterlimit="10"/>
<path d="M173.448 163.101H166.425V176.351H173.448V163.101Z" fill="#4D4D4D" stroke="black" stroke-width="0.5" stroke-miterlimit="10"/>
<path d="M166.012 178.835H168.429V175.647C168.094 174.413 166.347 174.413 166.012 175.647V178.835Z" fill="#4D4D4D" stroke="black" stroke-width="0.5" stroke-miterlimit="10"/>
<path d="M171.498 178.835H174.076V175.531C173.7 174.268 171.907 174.276 171.548 175.547L171.498 175.721V178.835Z" fill="#4D4D4D" stroke="black" stroke-width="0.5" stroke-miterlimit="10"/>
<path d="M173.448 146.124H166.425V163.101H173.448V146.124Z" fill="#B2B2B2" stroke="black" stroke-width="0.5" stroke-miterlimit="10"/>
<path d="M173.448 178.835V233.197L173.7 233.698L174.48 253.279H173.448V254.613H172.828L173.567 256.608H171.213V257.01H168.738V256.608H166.545L167.227 254.613H166.838V253.279H165.723L166.425 233.549L166.747 233.048L166.425 178.835H166.012V175.647L166.425 175.001V146.124L165 143.958V131.889C165 130.369 165.194 128.858 165.582 127.388L166.656 123.309C167.458 120.27 171.746 120.216 172.621 123.235L173.811 127.338C174.245 128.837 174.468 130.394 174.468 131.959V143.958L173.452 146.124L173.654 174.901L174.075 175.531V178.835H173.448Z" stroke="black" stroke-width="1.5" stroke-miterlimit="10"/>
<path d="M315.826 271.084C315.504 271.084 315.208 271.021 314.937 270.895C314.667 270.769 314.431 270.603 314.23 270.398L314.545 270.041C314.713 270.218 314.907 270.361 315.126 270.468C315.35 270.575 315.586 270.629 315.833 270.629C316.151 270.629 316.398 270.557 316.575 270.412C316.753 270.263 316.841 270.069 316.841 269.831C316.841 269.668 316.806 269.537 316.736 269.439C316.666 269.336 316.573 269.252 316.456 269.187C316.34 269.117 316.207 269.049 316.057 268.984L315.392 268.69C315.252 268.629 315.11 268.55 314.965 268.452C314.821 268.354 314.699 268.23 314.601 268.081C314.508 267.932 314.461 267.743 314.461 267.514C314.461 267.285 314.522 267.082 314.643 266.905C314.765 266.723 314.933 266.581 315.147 266.478C315.362 266.371 315.605 266.317 315.875 266.317C316.151 266.317 316.403 266.371 316.631 266.478C316.865 266.585 317.058 266.721 317.212 266.884L316.932 267.22C316.797 267.08 316.641 266.97 316.463 266.891C316.291 266.812 316.095 266.772 315.875 266.772C315.609 266.772 315.392 266.837 315.224 266.968C315.061 267.094 314.979 267.267 314.979 267.486C314.979 267.64 315.019 267.766 315.098 267.864C315.178 267.962 315.276 268.044 315.392 268.109C315.514 268.17 315.633 268.226 315.749 268.277L316.414 268.571C316.596 268.646 316.757 268.734 316.897 268.837C317.037 268.94 317.149 269.068 317.233 269.222C317.322 269.376 317.366 269.567 317.366 269.796C317.366 270.034 317.303 270.251 317.177 270.447C317.056 270.643 316.879 270.799 316.645 270.916C316.417 271.028 316.144 271.084 315.826 271.084ZM319.251 271V266.842H317.837V266.401H321.176V266.842H319.769V271H319.251ZM321.402 271L322.977 266.401H323.551L325.119 271H324.573L323.74 268.396C323.656 268.135 323.574 267.878 323.495 267.626C323.42 267.369 323.343 267.106 323.264 266.835H323.236C323.166 267.106 323.091 267.369 323.012 267.626C322.937 267.878 322.855 268.135 322.767 268.396L321.927 271H321.402ZM322.2 269.551V269.138H324.307V269.551H322.2ZM325.791 271V266.401H327.198C327.506 266.401 327.779 266.443 328.017 266.527C328.255 266.606 328.442 266.739 328.577 266.926C328.712 267.113 328.78 267.362 328.78 267.675C328.78 267.974 328.712 268.223 328.577 268.424C328.442 268.62 328.255 268.767 328.017 268.865C327.779 268.963 327.506 269.012 327.198 269.012H326.309V271H325.791ZM328.318 271L327.093 268.872L327.513 268.62L328.906 271H328.318ZM326.309 268.592H327.114C327.483 268.592 327.765 268.517 327.961 268.368C328.162 268.214 328.262 267.983 328.262 267.675C328.262 267.362 328.162 267.143 327.961 267.017C327.765 266.886 327.483 266.821 327.114 266.821H326.309V268.592ZM330.988 271.084C330.666 271.084 330.37 271.021 330.099 270.895C329.829 270.769 329.593 270.603 329.392 270.398L329.707 270.041C329.875 270.218 330.069 270.361 330.288 270.468C330.512 270.575 330.748 270.629 330.995 270.629C331.313 270.629 331.56 270.557 331.737 270.412C331.915 270.263 332.003 270.069 332.003 269.831C332.003 269.668 331.968 269.537 331.898 269.439C331.828 269.336 331.735 269.252 331.618 269.187C331.502 269.117 331.369 269.049 331.219 268.984L330.554 268.69C330.414 268.629 330.272 268.55 330.127 268.452C329.983 268.354 329.861 268.23 329.763 268.081C329.67 267.932 329.623 267.743 329.623 267.514C329.623 267.285 329.684 267.082 329.805 266.905C329.927 266.723 330.095 266.581 330.309 266.478C330.524 266.371 330.767 266.317 331.037 266.317C331.313 266.317 331.565 266.371 331.793 266.478C332.027 266.585 332.22 266.721 332.374 266.884L332.094 267.22C331.959 267.08 331.803 266.97 331.625 266.891C331.453 266.812 331.257 266.772 331.037 266.772C330.771 266.772 330.554 266.837 330.386 266.968C330.223 267.094 330.141 267.267 330.141 267.486C330.141 267.64 330.181 267.766 330.26 267.864C330.34 267.962 330.438 268.044 330.554 268.109C330.676 268.17 330.795 268.226 330.911 268.277L331.576 268.571C331.758 268.646 331.919 268.734 332.059 268.837C332.199 268.94 332.311 269.068 332.395 269.222C332.484 269.376 332.528 269.567 332.528 269.796C332.528 270.034 332.465 270.251 332.339 270.447C332.218 270.643 332.041 270.799 331.807 270.916C331.579 271.028 331.306 271.084 330.988 271.084ZM333.447 271V266.401H333.965V268.347H336.184V266.401H336.702V271H336.184V268.802H333.965V271H333.447ZM337.986 271V266.401H338.504V271H337.986ZM339.784 271V266.401H341.058C341.399 266.401 341.697 266.445 341.954 266.534C342.211 266.618 342.409 266.758 342.549 266.954C342.694 267.145 342.766 267.407 342.766 267.738C342.766 268.055 342.696 268.317 342.556 268.522C342.416 268.727 342.22 268.881 341.968 268.984C341.716 269.087 341.422 269.138 341.086 269.138H340.302V271H339.784ZM340.302 268.711H341.009C341.429 268.711 341.739 268.634 341.94 268.48C342.145 268.321 342.248 268.074 342.248 267.738C342.248 267.393 342.141 267.155 341.926 267.024C341.716 266.889 341.401 266.821 340.981 266.821H340.302V268.711Z" fill="black"/>
<path d="M217.063 146.37H223.672L225.118 144.093H215.654L217.063 146.37Z" fill="#DADADA" stroke="black" stroke-width="0.5" stroke-miterlimit="10"/>
<path d="M224.466 127.472L223.276 123.369C222.4 120.35 218.112 120.4 217.311 123.443L216.237 127.522C215.849 128.992 215.654 130.503 215.654 132.023V144.093H225.118V132.093C225.118 130.528 224.899 128.971 224.466 127.472Z" fill="#DADADA" stroke="black" stroke-width="0.5" stroke-miterlimit="10"/>
<path d="M220.368 121.112V144.093" stroke="black" stroke-width="0.5" stroke-miterlimit="10"/>
<path d="M217.658 254.498L216.98 256.643H224.003L223.206 254.498H217.658Z" fill="#4D4D4D" stroke="black" stroke-width="0.5" stroke-miterlimit="10"/>
<path d="M221.644 256.643H219.17V257.045H221.644V256.643Z" fill="#4D4D4D" stroke="black" stroke-width="0.5" stroke-miterlimit="10"/>
<path d="M223.206 254.498L221.648 256.643L220.492 254.498L219.17 256.643L217.658 254.498H223.206Z" fill="#4D4D4D" stroke="black" stroke-width="0.5" stroke-miterlimit="10" stroke-linecap="round" stroke-linejoin="round"/>
<path d="M223.879 248.022H217.27V254.647H223.879V248.022Z" fill="#4D4D4D" stroke="black" stroke-width="0.5" stroke-miterlimit="10"/>
<path d="M216.857 176.389H223.879V248.022H217.27L216.857 176.389Z" fill="#B2B2B2" stroke="black" stroke-width="0.5" stroke-miterlimit="10"/>
<path d="M216.861 233.584L216.159 253.314H220.405L217.89 233.538C217.807 232.905 216.882 232.946 216.861 233.584Z" fill="#B2B2B2" stroke="black" stroke-width="0.5" stroke-miterlimit="10"/>
<path d="M220.752 253.314H224.912L224.131 233.733C224.106 233.095 223.173 233.058 223.098 233.691L220.752 253.314Z" fill="#B2B2B2" stroke="black" stroke-width="0.5" stroke-miterlimit="10"/>
<path d="M219.926 253.314L218.005 246.035C217.823 245.352 216.836 245.438 216.774 246.142L216.154 253.314H224.912L224.09 246.035C224.015 245.364 223.061 245.31 222.912 245.968L221.227 253.314" fill="#B2B2B2"/>
<path d="M219.926 253.314L218.005 246.035C217.823 245.352 216.836 245.438 216.774 246.142L216.154 253.314H224.912L224.09 246.035C224.015 245.364 223.061 245.31 222.912 245.968L221.227 253.314" stroke="black" stroke-width="0.5" stroke-miterlimit="10"/>
<path d="M217.183 245.567L217.398 233.083" stroke="black" stroke-width="0.5" stroke-miterlimit="10"/>
<path d="M223.491 245.567L223.71 233.244" stroke="black" stroke-width="0.5" stroke-miterlimit="10"/>
<path d="M223.879 163.139H216.857V176.389H223.879V163.139Z" fill="#B2B2B2" stroke="black" stroke-width="0.5" stroke-miterlimit="10"/>
<path d="M216.443 178.874H218.86V175.686C218.525 174.452 216.778 174.452 216.443 175.686V178.874Z" fill="#4D4D4D" stroke="black" stroke-width="0.5" stroke-miterlimit="10"/>
<path d="M221.516 178.874H224.094V175.57C223.718 174.307 221.925 174.315 221.566 175.586L221.516 175.76V178.874Z" fill="#4D4D4D" stroke="black" stroke-width="0.5" stroke-miterlimit="10"/>
<path d="M223.879 146.163H216.857V163.139H223.879V146.163Z" fill="#B2B2B2" stroke="black" stroke-width="0.5" stroke-miterlimit="10"/>
<path d="M209.111 176.953H215.791V175.445C215.791 173.859 215.535 172.282 215.039 170.775C214.192 168.216 210.561 168.278 209.801 170.862C209.392 172.249 209.173 173.686 209.148 175.131L209.111 176.953Z" fill="#B2B2B2" stroke="black" stroke-width="0.5" stroke-miterlimit="10"/>
<path d="M224.808 176.953H231.488V175.445C231.488 173.859 231.232 172.282 230.736 170.775C229.889 168.216 226.258 168.278 225.498 170.862C225.089 172.249 224.87 173.686 224.846 175.131L224.808 176.953Z" fill="#B2B2B2" stroke="black" stroke-width="0.5" stroke-miterlimit="10"/>
<path d="M215.791 176.953H208.768V253.14H215.791V176.953Z" fill="#B2B2B2" stroke="black" stroke-width="0.5" stroke-miterlimit="10"/>
<path d="M231.901 176.953H224.879V253.14H231.901V176.953Z" fill="#B2B2B2" stroke="black" stroke-width="0.5" stroke-miterlimit="10"/>
<path d="M208.417 179.462H210.834V176.273C210.499 175.04 208.752 175.04 208.417 176.273V179.462Z" fill="#4D4D4D" stroke="black" stroke-width="0.5" stroke-miterlimit="10"/>
<path d="M213.49 179.462H216.068V176.157C215.692 174.895 213.899 174.903 213.539 176.174L213.49 176.348V179.462Z" fill="#4D4D4D" stroke="black" stroke-width="0.5" stroke-miterlimit="10"/>
<path d="M224.528 179.462H226.944V176.273C226.61 175.04 224.862 175.04 224.528 176.273V179.462Z" fill="#4D4D4D" stroke="black" stroke-width="0.5" stroke-miterlimit="10"/>
<path d="M215.828 248.105H209.219V254.73H215.828V248.105Z" fill="#4D4D4D" stroke="black" stroke-width="0.5" stroke-miterlimit="10"/>
<path d="M229.6 179.462H232.178V176.157C231.802 174.895 230.009 174.903 229.65 176.174L229.6 176.348V179.462Z" fill="#4D4D4D" stroke="black" stroke-width="0.5" stroke-miterlimit="10"/>
<path d="M231.938 248.105H225.329V254.73H231.938V248.105Z" fill="#4D4D4D" stroke="black" stroke-width="0.5" stroke-miterlimit="10"/>
<path d="M208.707 233.87L208.004 253.6H212.251L209.735 233.824C209.653 233.191 208.727 233.232 208.707 233.87Z" fill="#B2B2B2" stroke="black" stroke-width="0.5" stroke-miterlimit="10"/>
<path d="M212.598 253.6H216.757L215.977 234.019C215.952 233.381 215.018 233.344 214.944 233.977L212.598 253.6Z" fill="#B2B2B2" stroke="black" stroke-width="0.5" stroke-miterlimit="10"/>
<path d="M211.771 253.6L209.851 246.32C209.669 245.637 208.682 245.724 208.62 246.428L208 253.6H216.757L215.935 246.32C215.861 245.65 214.907 245.596 214.758 246.254L213.073 253.6" fill="#B2B2B2"/>
<path d="M211.771 253.6L209.851 246.32C209.669 245.637 208.682 245.724 208.62 246.428L208 253.6H216.757L215.935 246.32C215.861 245.65 214.907 245.596 214.758 246.254L213.073 253.6" stroke="black" stroke-width="0.5" stroke-miterlimit="10"/>
<path d="M209.029 245.853L209.244 233.369" stroke="black" stroke-width="0.5" stroke-miterlimit="10"/>
<path d="M215.556 233.53L215.336 245.853" stroke="black" stroke-width="0.5" stroke-miterlimit="10"/>
<path d="M224.738 233.932L224.036 253.662H228.283L225.771 233.886C225.688 233.253 224.763 233.298 224.738 233.932Z" fill="#B2B2B2" stroke="black" stroke-width="0.5" stroke-miterlimit="10"/>
<path d="M228.634 253.662H232.793L232.013 234.081C231.988 233.443 231.054 233.406 230.98 234.039L228.634 253.662Z" fill="#B2B2B2" stroke="black" stroke-width="0.5" stroke-miterlimit="10"/>
<path d="M227.807 253.662L225.887 246.383C225.705 245.699 224.718 245.786 224.656 246.49L224.036 253.662H232.793L231.971 246.383C231.897 245.712 230.943 245.658 230.794 246.316L229.109 253.662" fill="#B2B2B2"/>
<path d="M227.807 253.662L225.887 246.383C225.705 245.699 224.718 245.786 224.656 246.49L224.036 253.662H232.793L231.971 246.383C231.897 245.712 230.943 245.658 230.794 246.316L229.109 253.662" stroke="black" stroke-width="0.5" stroke-miterlimit="10"/>
<path d="M225.065 245.915L225.28 233.435" stroke="black" stroke-width="0.5" stroke-miterlimit="10"/>
<path d="M231.372 245.915L231.592 233.592" stroke="black" stroke-width="0.5" stroke-miterlimit="10"/>
<path d="M225.717 254.581L225.04 256.726H232.062L231.265 254.581H225.717Z" fill="#4D4D4D" stroke="black" stroke-width="0.5" stroke-miterlimit="10"/>
<path d="M229.708 256.726H227.233V257.127H229.708V256.726Z" fill="#4D4D4D" stroke="black" stroke-width="0.5" stroke-miterlimit="10"/>
<path d="M231.265 254.581L229.708 256.726L228.551 254.581L227.233 256.726L225.717 254.581H231.265Z" fill="#4D4D4D" stroke="black" stroke-width="0.5" stroke-miterlimit="10" stroke-linecap="round" stroke-linejoin="round"/>
<path d="M209.607 254.581L208.929 256.726H215.952L215.155 254.581H209.607Z" fill="#4D4D4D" stroke="black" stroke-width="0.5" stroke-miterlimit="10"/>
<path d="M213.597 256.726H211.123V257.127H213.597V256.726Z" fill="#4D4D4D" stroke="black" stroke-width="0.5" stroke-miterlimit="10"/>
<path d="M215.155 254.581L213.597 256.726L212.441 254.581L211.123 256.726L209.607 254.581H215.155Z" fill="#4D4D4D" stroke="black" stroke-width="0.5" stroke-miterlimit="10" stroke-linecap="round" stroke-linejoin="round"/>
<path d="M228.183 173.64H212.073V174.054H228.183V173.64Z" fill="#B2B2B2" stroke="black" stroke-width="0.5" stroke-miterlimit="10"/>
<path d="M223.916 146.126L224.932 143.96V131.96C224.932 130.399 224.713 128.843 224.275 127.34L223.086 123.236C222.21 120.218 217.922 120.267 217.121 123.311L216.047 127.389C215.658 128.859 215.464 130.37 215.464 131.89V143.96L216.889 146.126L216.856 173.64H215.791C215.791 173.64 215.514 168.899 212.453 168.887C212.453 168.887 208.888 168.344 209.14 175.441L208.421 176.269V179.458H208.772L208.71 233.865L208.008 253.595H209.227V254.73H209.57L208.938 256.726H211.131V257.127H213.605V256.726H215.96L215.221 254.73H215.84V253.595H216.77V253.31H217.282V254.643H217.625L216.993 256.639H219.186V257.04H221.661V256.639H224.015L223.276 254.643H223.895V253.31L224.073 253.314L224.052 253.658H225.345V254.726H225.688L225.056 256.722H227.25V257.123H229.724V256.722H232.079L231.339 254.726H231.959V253.658H232.814L231.922 233.588V179.462H232.198V176.157L231.509 175.213C231.509 175.213 231.649 168.899 228.171 168.887C228.171 168.887 225.519 168.05 224.899 173.64H223.899L223.916 146.126Z" stroke="black" stroke-width="1.5" stroke-miterlimit="10"/>
<path d="M215.667 174.054L215.791 175.445L216.067 176.158V179.462H215.791V233.435L215.977 234.019L216.443 242.913L216.861 233.584L217.183 233.083L216.856 178.874H216.443V175.681L216.856 175.035V174.054" stroke="black" stroke-width="1.5" stroke-miterlimit="10"/>
<path d="M223.879 174.054V175.139L224.094 175.57V178.874H223.879V233.083L224.131 233.733L224.433 242.577L224.738 233.932L224.879 233.244V179.462H224.528V176.269L224.879 175.677V174.054" stroke="black" stroke-width="1.5" stroke-miterlimit="10"/>
<path d="M269.063 146.444H275.673L277.118 144.167H267.655L269.063 146.444Z" fill="#DADADA" stroke="black" stroke-width="0.5" stroke-miterlimit="10"/>
<path d="M276.461 127.547L275.272 123.443C274.396 120.421 270.108 120.474 269.307 123.518L268.233 127.596C267.845 129.066 267.65 130.578 267.65 132.097V144.167H277.114V132.168C277.118 130.602 276.895 129.045 276.461 127.547Z" fill="#DADADA" stroke="black" stroke-width="0.5" stroke-miterlimit="10"/>
<path d="M272.368 121.187V144.167" stroke="black" stroke-width="0.5" stroke-miterlimit="10"/>
<path d="M269.658 254.573L268.977 256.713H275.999L275.206 254.573H269.658Z" fill="#4D4D4D" stroke="black" stroke-width="0.5" stroke-miterlimit="10"/>
<path d="M273.644 256.713H271.17V257.115H273.644V256.713Z" fill="#4D4D4D" stroke="black" stroke-width="0.5" stroke-miterlimit="10"/>
<path d="M275.206 254.573L273.644 256.713L272.488 254.573L271.17 256.713L269.658 254.573H275.206Z" fill="#4D4D4D" stroke="black" stroke-width="0.5" stroke-miterlimit="10" stroke-linecap="round" stroke-linejoin="round"/>
<path d="M275.879 248.097H269.27V254.722H275.879V248.097Z" fill="#4D4D4D" stroke="black" stroke-width="0.5" stroke-miterlimit="10"/>
<path d="M268.857 176.464H275.879V248.097H269.27L268.857 176.464Z" fill="#B2B2B2" stroke="black" stroke-width="0.5" stroke-miterlimit="10"/>
<path d="M275.879 163.214H268.857V176.464H275.879V163.214Z" fill="#B2B2B2" stroke="black" stroke-width="0.5" stroke-miterlimit="10"/>
<path d="M268.444 178.948H270.86V175.76C270.526 174.526 268.778 174.526 268.444 175.76V178.948Z" fill="#4D4D4D" stroke="black" stroke-width="0.5" stroke-miterlimit="10"/>
<path d="M273.516 178.948H276.094V175.644C275.718 174.381 273.925 174.389 273.566 175.661L273.516 175.835V178.948Z" fill="#4D4D4D" stroke="black" stroke-width="0.5" stroke-miterlimit="10"/>
<path d="M275.879 146.237H268.857V163.214H275.879V146.237Z" fill="#B2B2B2" stroke="black" stroke-width="0.5" stroke-miterlimit="10"/>
<path d="M261.111 177.027H267.791V175.52C267.791 173.934 267.535 172.356 267.039 170.849C266.192 168.29 262.561 168.352 261.801 170.936C261.392 172.323 261.173 173.76 261.148 175.205L261.111 177.027Z" fill="#B2B2B2" stroke="black" stroke-width="0.5" stroke-miterlimit="10"/>
<path d="M276.809 177.027H283.488V175.52C283.488 173.934 283.232 172.356 282.736 170.849C281.89 168.29 278.259 168.352 277.498 170.936C277.089 172.323 276.871 173.76 276.846 175.205L276.809 177.027Z" fill="#B2B2B2" stroke="black" stroke-width="0.5" stroke-miterlimit="10"/>
<path d="M267.791 177.027H260.769V253.215H267.791V177.027Z" fill="#B2B2B2" stroke="black" stroke-width="0.5" stroke-miterlimit="10"/>
<path d="M283.901 177.027H276.879V253.215H283.901V177.027Z" fill="#B2B2B2" stroke="black" stroke-width="0.5" stroke-miterlimit="10"/>
<path d="M260.417 179.536H262.834V176.348C262.499 175.114 260.752 175.114 260.417 176.348V179.536Z" fill="#4D4D4D" stroke="black" stroke-width="0.5" stroke-miterlimit="10"/>
<path d="M265.486 179.536H268.064V176.232C267.688 174.969 265.895 174.977 265.535 176.249L265.486 176.422V179.536Z" fill="#4D4D4D" stroke="black" stroke-width="0.5" stroke-miterlimit="10"/>
<path d="M276.528 179.536H278.944V176.348C278.61 175.114 276.862 175.114 276.528 176.348V179.536Z" fill="#4D4D4D" stroke="black" stroke-width="0.5" stroke-miterlimit="10"/>
<path d="M267.828 248.18H261.219V254.805H267.828V248.18Z" fill="#4D4D4D" stroke="black" stroke-width="0.5" stroke-miterlimit="10"/>
<path d="M281.596 179.536H284.174V176.232C283.798 174.969 282.005 174.977 281.646 176.249L281.596 176.422V179.536Z" fill="#4D4D4D" stroke="black" stroke-width="0.5" stroke-miterlimit="10"/>
<path d="M283.938 248.18H277.329V254.805H283.938V248.18Z" fill="#4D4D4D" stroke="black" stroke-width="0.5" stroke-miterlimit="10"/>
<path d="M277.717 254.655L277.036 256.8H284.058L283.265 254.655H277.717Z" fill="#4D4D4D" stroke="black" stroke-width="0.5" stroke-miterlimit="10"/>
<path d="M281.704 256.8H279.229V257.202H281.704V256.8Z" fill="#4D4D4D" stroke="black" stroke-width="0.5" stroke-miterlimit="10"/>
<path d="M283.265 254.655L281.703 256.8L280.547 254.655L279.229 256.8L277.717 254.655H283.265Z" fill="#4D4D4D" stroke="black" stroke-width="0.5" stroke-miterlimit="10" stroke-linecap="round" stroke-linejoin="round"/>
<path d="M261.607 254.655L260.925 256.8H267.948L267.155 254.655H261.607Z" fill="#4D4D4D" stroke="black" stroke-width="0.5" stroke-miterlimit="10"/>
<path d="M265.593 256.8H263.119V257.202H265.593V256.8Z" fill="#4D4D4D" stroke="black" stroke-width="0.5" stroke-miterlimit="10"/>
<path d="M267.155 254.655L265.593 256.8L264.437 254.655L263.119 256.8L261.607 254.655H267.155Z" fill="#4D4D4D" stroke="black" stroke-width="0.5" stroke-miterlimit="10" stroke-linecap="round" stroke-linejoin="round"/>
<path d="M280.419 173.715H264.309V174.129H280.419V173.715Z" fill="#B2B2B2" stroke="black" stroke-width="0.5" stroke-miterlimit="10"/>
<path d="M264.523 248.18V174.129" stroke="black" stroke-width="0.5" stroke-miterlimit="10"/>
<path d="M280.63 248.312V174.129" stroke="black" stroke-width="0.5" stroke-miterlimit="10"/>
<path d="M272.364 173.922V248.312" stroke="black" stroke-width="0.5" stroke-miterlimit="10"/>
<path d="M275.916 146.126L276.932 143.96V131.96C276.932 130.399 276.713 128.843 276.276 127.34L275.086 123.236C274.21 120.218 269.922 120.267 269.121 123.311L268.047 127.389C267.659 128.859 267.464 130.37 267.464 131.89V143.96L268.89 146.126L268.857 173.64H267.791C267.791 173.64 267.514 168.899 264.453 168.887C264.453 168.887 260.888 168.344 261.14 175.441L260.421 176.269V179.458H260.772L260.711 233.865L260.008 253.595H261.227V254.73H261.57L260.938 256.726H263.131V257.127H265.606V256.726H267.96L267.221 254.73H267.84V253.595H268.77V253.31H269.282V254.643H269.625L268.993 256.639H271.186V257.04H273.661V256.639H276.015L275.276 254.643H275.896V253.31L276.073 253.314L276.053 253.658H277.346V254.726H277.688L277.056 256.722H279.25V257.123H281.724V256.722H284.079L283.339 254.726H283.959V253.658H284.814L283.922 233.588V179.462H284.199V176.158L283.509 175.213C283.509 175.213 283.649 168.899 280.171 168.887C280.171 168.887 277.519 168.05 276.899 173.64H275.9L275.916 146.126Z" stroke="black" stroke-width="1.5" stroke-miterlimit="10"/>
<path d="M268.857 233.658L268.154 253.388H272.401L269.885 233.613C269.807 232.979 268.881 233.021 268.857 233.658Z" fill="#4D4D4D" stroke="black" stroke-width="0.5" stroke-miterlimit="10"/>
<path d="M272.748 253.388H276.908L276.127 233.807C276.102 233.17 275.168 233.133 275.094 233.766L272.748 253.388Z" fill="#4D4D4D" stroke="black" stroke-width="0.5" stroke-miterlimit="10"/>
<path d="M271.926 253.388L270.005 246.109C269.823 245.426 268.836 245.513 268.774 246.217L268.154 253.388H276.912L276.09 246.109C276.015 245.438 275.061 245.385 274.912 246.043L273.227 253.388" fill="#4D4D4D"/>
<path d="M271.926 253.388L270.005 246.109C269.823 245.426 268.836 245.513 268.774 246.217L268.154 253.388H276.912L276.09 246.109C276.015 245.438 275.061 245.385 274.912 246.043L273.227 253.388" stroke="black" stroke-width="0.5" stroke-miterlimit="10"/>
<path d="M269.179 245.641L269.394 233.157" stroke="black" stroke-width="0.5" stroke-miterlimit="10"/>
<path d="M275.491 245.641L275.71 233.315" stroke="black" stroke-width="0.5" stroke-miterlimit="10"/>
<path d="M260.702 233.944L260 253.674H264.247L261.731 233.899C261.652 233.265 260.727 233.306 260.702 233.944Z" fill="#4D4D4D" stroke="black" stroke-width="0.5" stroke-miterlimit="10"/>
<path d="M264.594 253.674H268.753L267.973 234.093C267.948 233.455 267.014 233.418 266.94 234.052L264.594 253.674Z" fill="#4D4D4D" stroke="black" stroke-width="0.5" stroke-miterlimit="10"/>
<path d="M263.771 253.674L261.851 246.395C261.669 245.712 260.682 245.799 260.62 246.503L260 253.674H268.757L267.935 246.395C267.861 245.724 266.907 245.67 266.758 246.329L265.073 253.674" fill="#4D4D4D"/>
<path d="M263.771 253.674L261.851 246.395C261.669 245.712 260.682 245.799 260.62 246.503L260 253.674H268.757L267.935 246.395C267.861 245.724 266.907 245.67 266.758 246.329L265.073 253.674" stroke="black" stroke-width="0.5" stroke-miterlimit="10"/>
<path d="M261.024 245.927L261.24 233.443" stroke="black" stroke-width="0.5" stroke-miterlimit="10"/>
<path d="M267.336 245.927L267.556 233.6" stroke="black" stroke-width="0.5" stroke-miterlimit="10"/>
<path d="M276.738 234.006L276.036 253.736H280.283L277.767 233.961C277.688 233.327 276.763 233.369 276.738 234.006Z" fill="#4D4D4D" stroke="black" stroke-width="0.5" stroke-miterlimit="10"/>
<path d="M280.63 253.736H284.789L284.009 234.155C283.984 233.518 283.05 233.48 282.976 234.114L280.63 253.736Z" fill="#4D4D4D" stroke="black" stroke-width="0.5" stroke-miterlimit="10"/>
<path d="M279.808 253.736L277.887 246.457C277.705 245.774 276.718 245.861 276.656 246.565L276.036 253.736H284.794L283.971 246.457C283.897 245.786 282.943 245.732 282.794 246.391L281.109 253.736" fill="#4D4D4D"/>
<path d="M279.808 253.736L277.887 246.457C277.705 245.774 276.718 245.861 276.656 246.565L276.036 253.736H284.794L283.971 246.457C283.897 245.786 282.943 245.732 282.794 246.391L281.109 253.736" stroke="black" stroke-width="0.5" stroke-miterlimit="10"/>
<path d="M277.061 245.989L277.276 233.505" stroke="black" stroke-width="0.5" stroke-miterlimit="10"/>
<path d="M283.373 245.989L283.592 233.667" stroke="black" stroke-width="0.5" stroke-miterlimit="10"/>
<path d="M275.722 174.24V175.325L275.937 175.756V179.06H275.722V233.273L275.974 233.919L276.276 242.764L276.586 234.118L276.722 233.431V179.648H276.371V176.46L276.722 175.864V174.24" stroke="black" stroke-width="1.5" stroke-miterlimit="10"/>
<path d="M268.006 174.133L268.13 175.52L268.407 176.232V179.536H268.13V233.509L268.316 234.093L268.782 242.991L269.196 233.662L269.522 233.161L269.196 178.948H268.782V175.76L269.196 175.114V174.133" stroke="black" stroke-width="1.5" stroke-miterlimit="10"/>
<path d="M12 258H357V202.25M360 35H357V90.75M357 146.5H360M357 146.5V90.75M357 146.5V202.25M357 90.75H360M357 202.25H360" stroke="black"/>
<path d="M363.116 37V36.573H364.145V33.178H363.333V32.849C363.534 32.8163 363.709 32.7743 363.858 32.723C364.008 32.667 364.143 32.604 364.264 32.534H364.656V36.573H365.587V37H363.116ZM366.212 37V36.699C366.669 36.237 367.056 35.8333 367.374 35.488C367.691 35.138 367.931 34.8253 368.095 34.55C368.258 34.2747 368.34 34.0133 368.34 33.766C368.34 33.5047 368.267 33.29 368.123 33.122C367.983 32.954 367.761 32.87 367.458 32.87C367.271 32.87 367.094 32.9213 366.926 33.024C366.762 33.1267 366.615 33.2573 366.485 33.416L366.184 33.122C366.37 32.9213 366.569 32.7603 366.779 32.639C366.989 32.513 367.236 32.45 367.521 32.45C367.791 32.45 368.025 32.5037 368.221 32.611C368.421 32.7183 368.575 32.87 368.683 33.066C368.79 33.2573 368.844 33.4837 368.844 33.745C368.844 34.0297 368.762 34.3167 368.599 34.606C368.44 34.8953 368.218 35.2033 367.934 35.53C367.654 35.852 367.329 36.2067 366.961 36.594C367.082 36.5847 367.208 36.5777 367.339 36.573C367.469 36.5637 367.593 36.559 367.71 36.559H369.061V37H366.212ZM371.099 37.084C370.66 37.084 370.315 36.8833 370.063 36.482C369.816 36.076 369.692 35.4997 369.692 34.753C369.692 34.0017 369.816 33.43 370.063 33.038C370.315 32.646 370.66 32.45 371.099 32.45C371.542 32.45 371.888 32.6483 372.135 33.045C372.382 33.437 372.506 34.0063 372.506 34.753C372.506 35.4997 372.382 36.076 372.135 36.482C371.888 36.8833 371.542 37.084 371.099 37.084ZM371.099 36.671C371.281 36.671 371.44 36.6033 371.575 36.468C371.715 36.3327 371.822 36.1227 371.897 35.838C371.972 35.5533 372.009 35.1917 372.009 34.753C372.009 34.3097 371.972 33.9503 371.897 33.675C371.822 33.395 371.715 33.1897 371.575 33.059C371.44 32.9283 371.281 32.863 371.099 32.863C370.917 32.863 370.758 32.9283 370.623 33.059C370.488 33.1897 370.38 33.395 370.301 33.675C370.226 33.9503 370.189 34.3097 370.189 34.753C370.189 35.1917 370.226 35.5533 370.301 35.838C370.38 36.1227 370.488 36.3327 370.623 36.468C370.758 36.6033 370.917 36.671 371.099 36.671ZM374.819 37V33.605H375.239L375.281 34.109H375.302C375.451 33.9457 375.614 33.808 375.792 33.696C375.974 33.5793 376.163 33.521 376.359 33.521C376.625 33.521 376.83 33.5817 376.975 33.703C377.124 33.8197 377.231 33.9783 377.297 34.179C377.479 33.983 377.661 33.8243 377.843 33.703C378.029 33.5817 378.223 33.521 378.424 33.521C378.774 33.521 379.033 33.633 379.201 33.857C379.369 34.081 379.453 34.41 379.453 34.844V37H378.942V34.907C378.942 34.5803 378.888 34.3423 378.781 34.193C378.673 34.0437 378.505 33.969 378.277 33.969C378.141 33.969 377.999 34.0157 377.85 34.109C377.705 34.1977 377.551 34.333 377.388 34.515V37H376.877V34.907C376.877 34.5803 376.823 34.3423 376.716 34.193C376.613 34.0437 376.447 33.969 376.219 33.969C375.948 33.969 375.649 34.151 375.323 34.515V37H374.819Z" fill="black"/>
<path d="M364.346 93.084C364.112 93.084 363.909 93.0397 363.737 92.951C363.564 92.8623 363.419 92.7527 363.303 92.622L363.59 92.3C363.683 92.412 363.795 92.5007 363.926 92.566C364.056 92.6267 364.189 92.657 364.325 92.657C364.549 92.657 364.752 92.5917 364.934 92.461C365.12 92.3303 365.267 92.1133 365.375 91.81C365.487 91.5067 365.543 91.0983 365.543 90.585C365.543 90.221 365.503 89.9107 365.424 89.654C365.349 89.3927 365.235 89.1943 365.081 89.059C364.927 88.9237 364.735 88.856 364.507 88.856C364.357 88.856 364.222 88.9003 364.101 88.989C363.979 89.073 363.881 89.192 363.807 89.346C363.737 89.4953 363.702 89.6703 363.702 89.871C363.702 90.0717 363.732 90.2467 363.793 90.396C363.858 90.5453 363.954 90.662 364.08 90.746C364.206 90.8253 364.367 90.865 364.563 90.865C364.712 90.865 364.875 90.816 365.053 90.718C365.23 90.6153 365.4 90.445 365.564 90.207L365.578 90.634C365.438 90.8207 365.267 90.9723 365.067 91.089C364.871 91.201 364.675 91.257 364.479 91.257C364.222 91.257 363.998 91.2057 363.807 91.103C363.615 90.9957 363.468 90.8393 363.366 90.634C363.263 90.4287 363.212 90.1743 363.212 89.871C363.212 89.591 363.27 89.3437 363.387 89.129C363.508 88.9143 363.667 88.7487 363.863 88.632C364.059 88.5107 364.273 88.45 364.507 88.45C364.731 88.45 364.934 88.4943 365.116 88.583C365.302 88.6717 365.463 88.807 365.599 88.989C365.734 89.1663 365.839 89.3903 365.914 89.661C365.993 89.927 366.033 90.235 366.033 90.585C366.033 91.0377 365.986 91.425 365.893 91.747C365.799 92.0643 365.673 92.321 365.515 92.517C365.356 92.713 365.176 92.8577 364.976 92.951C364.775 93.0397 364.565 93.084 364.346 93.084ZM368.099 93.084C367.66 93.084 367.315 92.8833 367.063 92.482C366.816 92.076 366.692 91.4997 366.692 90.753C366.692 90.0017 366.816 89.43 367.063 89.038C367.315 88.646 367.66 88.45 368.099 88.45C368.542 88.45 368.888 88.6483 369.135 89.045C369.382 89.437 369.506 90.0063 369.506 90.753C369.506 91.4997 369.382 92.076 369.135 92.482C368.888 92.8833 368.542 93.084 368.099 93.084ZM368.099 92.671C368.281 92.671 368.44 92.6033 368.575 92.468C368.715 92.3327 368.822 92.1227 368.897 91.838C368.972 91.5533 369.009 91.1917 369.009 90.753C369.009 90.3097 368.972 89.9503 368.897 89.675C368.822 89.395 368.715 89.1897 368.575 89.059C368.44 88.9283 368.281 88.863 368.099 88.863C367.917 88.863 367.758 88.9283 367.623 89.059C367.488 89.1897 367.38 89.395 367.301 89.675C367.226 89.9503 367.189 90.3097 367.189 90.753C367.189 91.1917 367.226 91.5533 367.301 91.838C367.38 92.1227 367.488 92.3327 367.623 92.468C367.758 92.6033 367.917 92.671 368.099 92.671ZM371.819 93V89.605H372.239L372.281 90.109H372.302C372.451 89.9457 372.614 89.808 372.792 89.696C372.974 89.5793 373.163 89.521 373.359 89.521C373.625 89.521 373.83 89.5817 373.975 89.703C374.124 89.8197 374.231 89.9783 374.297 90.179C374.479 89.983 374.661 89.8243 374.843 89.703C375.029 89.5817 375.223 89.521 375.424 89.521C375.774 89.521 376.033 89.633 376.201 89.857C376.369 90.081 376.453 90.41 376.453 90.844V93H375.942V90.907C375.942 90.5803 375.888 90.3423 375.781 90.193C375.673 90.0437 375.505 89.969 375.277 89.969C375.141 89.969 374.999 90.0157 374.85 90.109C374.705 90.1977 374.551 90.333 374.388 90.515V93H373.877V90.907C373.877 90.5803 373.823 90.3423 373.716 90.193C373.613 90.0437 373.447 89.969 373.219 89.969C372.948 89.969 372.649 90.151 372.323 90.515V93H371.819Z" fill="black"/>
<path d="M364.794 149.084C364.574 149.084 364.371 149.04 364.185 148.951C363.998 148.862 363.837 148.729 363.702 148.552C363.571 148.37 363.466 148.146 363.387 147.88C363.312 147.609 363.275 147.299 363.275 146.949C363.275 146.492 363.321 146.104 363.415 145.787C363.508 145.47 363.632 145.213 363.786 145.017C363.944 144.821 364.124 144.679 364.325 144.59C364.53 144.497 364.742 144.45 364.962 144.45C365.195 144.45 365.396 144.494 365.564 144.583C365.736 144.667 365.883 144.777 366.005 144.912L365.718 145.234C365.624 145.122 365.512 145.036 365.382 144.975C365.256 144.91 365.12 144.877 364.976 144.877C364.756 144.877 364.553 144.942 364.367 145.073C364.185 145.204 364.038 145.421 363.926 145.724C363.814 146.023 363.758 146.431 363.758 146.949C363.758 147.313 363.797 147.626 363.877 147.887C363.956 148.144 364.073 148.34 364.227 148.475C364.381 148.61 364.572 148.678 364.801 148.678C364.95 148.678 365.085 148.636 365.207 148.552C365.333 148.463 365.431 148.342 365.501 148.188C365.571 148.034 365.606 147.859 365.606 147.663C365.606 147.462 365.573 147.287 365.508 147.138C365.447 146.989 365.354 146.874 365.228 146.795C365.102 146.711 364.941 146.669 364.745 146.669C364.595 146.669 364.432 146.718 364.255 146.816C364.077 146.914 363.907 147.082 363.744 147.32L363.73 146.9C363.874 146.709 364.045 146.557 364.241 146.445C364.437 146.333 364.633 146.277 364.829 146.277C365.085 146.277 365.307 146.331 365.494 146.438C365.685 146.541 365.832 146.695 365.935 146.9C366.037 147.101 366.089 147.355 366.089 147.663C366.089 147.943 366.03 148.19 365.914 148.405C365.797 148.615 365.641 148.781 365.445 148.902C365.249 149.023 365.032 149.084 364.794 149.084ZM368.099 149.084C367.66 149.084 367.315 148.883 367.063 148.482C366.816 148.076 366.692 147.5 366.692 146.753C366.692 146.002 366.816 145.43 367.063 145.038C367.315 144.646 367.66 144.45 368.099 144.45C368.542 144.45 368.888 144.648 369.135 145.045C369.382 145.437 369.506 146.006 369.506 146.753C369.506 147.5 369.382 148.076 369.135 148.482C368.888 148.883 368.542 149.084 368.099 149.084ZM368.099 148.671C368.281 148.671 368.44 148.603 368.575 148.468C368.715 148.333 368.822 148.123 368.897 147.838C368.972 147.553 369.009 147.192 369.009 146.753C369.009 146.31 368.972 145.95 368.897 145.675C368.822 145.395 368.715 145.19 368.575 145.059C368.44 144.928 368.281 144.863 368.099 144.863C367.917 144.863 367.758 144.928 367.623 145.059C367.488 145.19 367.38 145.395 367.301 145.675C367.226 145.95 367.189 146.31 367.189 146.753C367.189 147.192 367.226 147.553 367.301 147.838C367.38 148.123 367.488 148.333 367.623 148.468C367.758 148.603 367.917 148.671 368.099 148.671ZM371.819 149V145.605H372.239L372.281 146.109H372.302C372.451 145.946 372.614 145.808 372.792 145.696C372.974 145.579 373.163 145.521 373.359 145.521C373.625 145.521 373.83 145.582 373.975 145.703C374.124 145.82 374.231 145.978 374.297 146.179C374.479 145.983 374.661 145.824 374.843 145.703C375.029 145.582 375.223 145.521 375.424 145.521C375.774 145.521 376.033 145.633 376.201 145.857C376.369 146.081 376.453 146.41 376.453 146.844V149H375.942V146.907C375.942 146.58 375.888 146.342 375.781 146.193C375.673 146.044 375.505 145.969 375.277 145.969C375.141 145.969 374.999 146.016 374.85 146.109C374.705 146.198 374.551 146.333 374.388 146.515V149H373.877V146.907C373.877 146.58 373.823 146.342 373.716 146.193C373.613 146.044 373.447 145.969 373.219 145.969C372.948 145.969 372.649 146.151 372.323 146.515V149H371.819Z" fill="black"/>
<path d="M364.577 204.084C364.339 204.084 364.129 204.054 363.947 203.993C363.765 203.932 363.606 203.855 363.471 203.762C363.335 203.664 363.219 203.561 363.121 203.454L363.38 203.118C363.515 203.258 363.674 203.384 363.856 203.496C364.042 203.603 364.273 203.657 364.549 203.657C364.829 203.657 365.057 203.58 365.235 203.426C365.417 203.267 365.508 203.057 365.508 202.796C365.508 202.614 365.459 202.453 365.361 202.313C365.267 202.173 365.113 202.066 364.899 201.991C364.689 201.912 364.404 201.872 364.045 201.872V201.473C364.367 201.473 364.621 201.436 364.808 201.361C364.999 201.282 365.137 201.177 365.221 201.046C365.305 200.915 365.347 200.768 365.347 200.605C365.347 200.381 365.274 200.204 365.13 200.073C364.985 199.938 364.789 199.87 364.542 199.87C364.35 199.87 364.173 199.914 364.01 200.003C363.846 200.087 363.699 200.197 363.569 200.332L363.289 200.003C363.461 199.844 363.65 199.714 363.856 199.611C364.061 199.504 364.294 199.45 364.556 199.45C364.808 199.45 365.032 199.494 365.228 199.583C365.424 199.672 365.578 199.8 365.69 199.968C365.806 200.131 365.865 200.332 365.865 200.57C365.865 200.845 365.788 201.072 365.634 201.249C365.484 201.422 365.286 201.552 365.039 201.641V201.669C365.221 201.711 365.386 201.783 365.536 201.886C365.685 201.984 365.804 202.112 365.893 202.271C365.981 202.425 366.026 202.605 366.026 202.81C366.026 203.076 365.96 203.305 365.83 203.496C365.699 203.683 365.524 203.827 365.305 203.93C365.085 204.033 364.843 204.084 364.577 204.084ZM368.099 204.084C367.66 204.084 367.315 203.883 367.063 203.482C366.816 203.076 366.692 202.5 366.692 201.753C366.692 201.002 366.816 200.43 367.063 200.038C367.315 199.646 367.66 199.45 368.099 199.45C368.542 199.45 368.888 199.648 369.135 200.045C369.382 200.437 369.506 201.006 369.506 201.753C369.506 202.5 369.382 203.076 369.135 203.482C368.888 203.883 368.542 204.084 368.099 204.084ZM368.099 203.671C368.281 203.671 368.44 203.603 368.575 203.468C368.715 203.333 368.822 203.123 368.897 202.838C368.972 202.553 369.009 202.192 369.009 201.753C369.009 201.31 368.972 200.95 368.897 200.675C368.822 200.395 368.715 200.19 368.575 200.059C368.44 199.928 368.281 199.863 368.099 199.863C367.917 199.863 367.758 199.928 367.623 200.059C367.488 200.19 367.38 200.395 367.301 200.675C367.226 200.95 367.189 201.31 367.189 201.753C367.189 202.192 367.226 202.553 367.301 202.838C367.38 203.123 367.488 203.333 367.623 203.468C367.758 203.603 367.917 203.671 368.099 203.671ZM371.819 204V200.605H372.239L372.281 201.109H372.302C372.451 200.946 372.614 200.808 372.792 200.696C372.974 200.579 373.163 200.521 373.359 200.521C373.625 200.521 373.83 200.582 373.975 200.703C374.124 200.82 374.231 200.978 374.297 201.179C374.479 200.983 374.661 200.824 374.843 200.703C375.029 200.582 375.223 200.521 375.424 200.521C375.774 200.521 376.033 200.633 376.201 200.857C376.369 201.081 376.453 201.41 376.453 201.844V204H375.942V201.907C375.942 201.58 375.888 201.342 375.781 201.193C375.673 201.044 375.505 200.969 375.277 200.969C375.141 200.969 374.999 201.016 374.85 201.109C374.705 201.198 374.551 201.333 374.388 201.515V204H373.877V201.907C373.877 201.58 373.823 201.342 373.716 201.193C373.613 201.044 373.447 200.969 373.219 200.969C372.948 200.969 372.649 201.151 372.323 201.515V204H371.819Z" fill="black"/>
</svg>
