<svg xmlns="http://www.w3.org/2000/svg" viewBox="0 0 1100 800"><defs><style>.cls-1,.cls-11,.cls-12,.cls-14,.cls-16,.cls-17,.cls-20,.cls-22,.cls-23,.cls-6,.cls-7,.cls-8{fill:none;}.cls-1,.cls-10,.cls-12,.cls-13,.cls-3,.cls-9{stroke:#1d1d1b;}.cls-1,.cls-10,.cls-11,.cls-12,.cls-3,.cls-9{stroke-miterlimit:10;}.cls-1,.cls-3{stroke-width:2px;}.cls-2{fill:#1d1d1b;}.cls-15,.cls-19,.cls-3{fill:#fff;}.cls-21,.cls-4,.cls-9{fill:#b2b2b2;}.cls-15,.cls-16,.cls-18,.cls-4{fill-rule:evenodd;}.cls-10,.cls-13,.cls-5{fill:#dadada;}.cls-11,.cls-14,.cls-15,.cls-16,.cls-17,.cls-18,.cls-20,.cls-22,.cls-23,.cls-6,.cls-7,.cls-8{stroke:#010101;}.cls-10,.cls-11,.cls-14,.cls-15,.cls-16,.cls-17,.cls-18,.cls-20,.cls-6,.cls-9{stroke-width:0.5px;}.cls-12,.cls-13,.cls-7{stroke-width:1.5px;}.cls-8{stroke-width:1.67px;}.cls-13,.cls-14,.cls-15,.cls-16,.cls-17,.cls-18{stroke-miterlimit:6.25;}.cls-17{stroke-linecap:square;}.cls-18{fill:#010101;}.cls-20{stroke-miterlimit:5;}.cls-22{stroke-width:0.5px;}.cls-23{stroke-width:1.5px;}</style></defs><title>GráficoCohetes</title><g id="GRÁFICO"><polyline class="cls-1" points="1046.4 621.38 104.44 621.38 104.44 83.44 95.73 83.44"/><path class="cls-2" d="M162.34,666.32a7.66,7.66,0,0,1-3.05-.62,8.52,8.52,0,0,1-2.55-1.71l1.44-1.65a6.46,6.46,0,0,0,1.95,1.34,5.31,5.31,0,0,0,2.25.51,3.46,3.46,0,0,0,2.21-.62,2,2,0,0,0,.77-1.64,1.91,1.91,0,0,0-.32-1.15,2.89,2.89,0,0,0-.89-.75c-.38-.2-.81-.41-1.31-.62l-2.18-1a7,7,0,0,1-1.5-.84,4.41,4.41,0,0,1-1.22-1.32,3.7,3.7,0,0,1-.48-1.94,3.77,3.77,0,0,1,.68-2.22,4.59,4.59,0,0,1,1.82-1.54,5.89,5.89,0,0,1,2.64-.56,6.52,6.52,0,0,1,2.63.54,6.86,6.86,0,0,1,2.12,1.42l-1.27,1.56a5.93,5.93,0,0,0-1.58-1,4.91,4.91,0,0,0-1.9-.37,3.18,3.18,0,0,0-1.93.54,1.75,1.75,0,0,0-.73,1.5,1.68,1.68,0,0,0,.36,1.11,3,3,0,0,0,1,.72l1.22.57,2.16.91a7.39,7.39,0,0,1,1.66.94,4.18,4.18,0,0,1,1.14,1.34,4.13,4.13,0,0,1,.42,2,4.21,4.21,0,0,1-.66,2.31,4.58,4.58,0,0,1-1.91,1.66A6.61,6.61,0,0,1,162.34,666.32Z"/><path class="cls-2" d="M173.54,666V652.38h-4.63v-2.07h11.71v2.07H176V666Z"/><path class="cls-2" d="M180.31,666l5.21-15.72h2.83L193.56,666H191l-2.55-8.54c-.27-.86-.52-1.73-.76-2.6l-.72-2.63h-.1c-.22.88-.46,1.75-.71,2.63l-.75,2.6L182.81,666Zm2.93-4.48v-1.92h7.32v1.92Z"/><path class="cls-2" d="M195.62,666V650.31h5.14a9.25,9.25,0,0,1,2.89.42,4,4,0,0,1,2,1.43,4.44,4.44,0,0,1,.74,2.71,4.28,4.28,0,0,1-2.77,4.28,7.56,7.56,0,0,1-2.89.52h-2.69V666Zm2.45-8.32h2.4a4.21,4.21,0,0,0,2.63-.71,2.54,2.54,0,0,0,.9-2.13,2.19,2.19,0,0,0-.9-2,4.86,4.86,0,0,0-2.63-.58h-2.4Zm6.15,8.32-3.94-7,1.82-1.37L207,666Z"/><path class="cls-2" d="M213.74,666.32a7.65,7.65,0,0,1-3-.62,8.52,8.52,0,0,1-2.55-1.71l1.44-1.65a6.46,6.46,0,0,0,1.95,1.34,5.27,5.27,0,0,0,2.25.51,3.46,3.46,0,0,0,2.21-.62,2,2,0,0,0,.77-1.64,1.85,1.85,0,0,0-.33-1.15,2.73,2.73,0,0,0-.88-.75c-.38-.2-.82-.41-1.31-.62l-2.19-1a7.49,7.49,0,0,1-1.5-.84,4.51,4.51,0,0,1-1.21-1.32,3.7,3.7,0,0,1-.48-1.94,3.83,3.83,0,0,1,.67-2.22,4.7,4.7,0,0,1,1.83-1.54A5.89,5.89,0,0,1,214,650a6.52,6.52,0,0,1,2.63.54,6.86,6.86,0,0,1,2.12,1.42l-1.27,1.56a5.83,5.83,0,0,0-1.59-1,4.83,4.83,0,0,0-1.89-.37,3.16,3.16,0,0,0-1.93.54,1.76,1.76,0,0,0-.74,1.5,1.68,1.68,0,0,0,.36,1.11,3,3,0,0,0,1,.72l1.23.57,2.16.91a7.32,7.32,0,0,1,1.65.94,4.18,4.18,0,0,1,1.14,1.34,4.13,4.13,0,0,1,.42,2,4.21,4.21,0,0,1-.66,2.31,4.55,4.55,0,0,1-1.9,1.66A6.66,6.66,0,0,1,213.74,666.32Z"/><path class="cls-2" d="M222.21,666V650.31h2.45v6.44h6.77v-6.44h2.45V666h-2.45v-7.15h-6.77V666Z"/><path class="cls-2" d="M238,666V650.31h2.45V666Z"/><path class="cls-2" d="M244.58,666V650.31h4.75a9.78,9.78,0,0,1,3.1.45,4.14,4.14,0,0,1,2.12,1.49,4.58,4.58,0,0,1,.78,2.82,4.79,4.79,0,0,1-.76,2.8,4.66,4.66,0,0,1-2.1,1.65,8,8,0,0,1-3,.54H247v6Zm2.45-7.94h2.16a4.45,4.45,0,0,0,2.81-.74,2.77,2.77,0,0,0,.91-2.28,2.38,2.38,0,0,0-1-2.19,5.46,5.46,0,0,0-2.86-.6H247Z"/><path class="cls-2" d="M389.28,666.32a7.7,7.7,0,0,1-3-.62,8.48,8.48,0,0,1-2.54-1.71l1.44-1.65a6.54,6.54,0,0,0,1.94,1.34,5.35,5.35,0,0,0,2.26.51,3.46,3.46,0,0,0,2.21-.62,2,2,0,0,0,.77-1.64,1.85,1.85,0,0,0-.33-1.15,2.67,2.67,0,0,0-.89-.75c-.37-.2-.81-.41-1.3-.62l-2.19-1a7.49,7.49,0,0,1-1.5-.84,4.37,4.37,0,0,1-1.21-1.32,3.7,3.7,0,0,1-.48-1.94,3.76,3.76,0,0,1,.67-2.22,4.7,4.7,0,0,1,1.83-1.54,5.83,5.83,0,0,1,2.64-.56,6.47,6.47,0,0,1,2.62.54A6.79,6.79,0,0,1,394.3,652L393,653.55a5.83,5.83,0,0,0-1.59-1,4.86,4.86,0,0,0-1.89-.37,3.21,3.21,0,0,0-1.94.54,1.78,1.78,0,0,0-.73,1.5,1.68,1.68,0,0,0,.36,1.11,3,3,0,0,0,1,.72l1.23.57,2.16.91a7.32,7.32,0,0,1,1.65.94,4.18,4.18,0,0,1,1.14,1.34,4.13,4.13,0,0,1,.42,2,4.21,4.21,0,0,1-.66,2.31,4.52,4.52,0,0,1-1.91,1.66A6.58,6.58,0,0,1,389.28,666.32Z"/><path class="cls-2" d="M395.69,666l5.21-15.72h2.83L408.94,666h-2.59l-2.55-8.54c-.27-.86-.53-1.73-.77-2.6l-.72-2.63h-.09c-.23.88-.46,1.75-.71,2.63s-.5,1.74-.76,2.6L398.19,666Zm2.93-4.48v-1.92h7.32v1.92Z"/><path class="cls-2" d="M412.78,666V652.38h-4.63v-2.07h11.71v2.07h-4.63V666Z"/><path class="cls-2" d="M428.33,666.32a7.14,7.14,0,0,1-2.37-.38,4.82,4.82,0,0,1-1.84-1.2,5.48,5.48,0,0,1-1.2-2.16,11.1,11.1,0,0,1-.42-3.27v-9h2.44v9.15a7.45,7.45,0,0,0,.44,2.83,2.79,2.79,0,0,0,1.2,1.46,3.47,3.47,0,0,0,1.75.44,3.6,3.6,0,0,0,1.77-.44,2.85,2.85,0,0,0,1.24-1.46,7.26,7.26,0,0,0,.44-2.83v-9.15h2.36v9a11.1,11.1,0,0,1-.42,3.27,5.6,5.6,0,0,1-1.19,2.16,4.74,4.74,0,0,1-1.84,1.2A7.08,7.08,0,0,1,428.33,666.32Z"/><path class="cls-2" d="M438.19,666V650.31h5.14a9.29,9.29,0,0,1,2.89.42,4,4,0,0,1,2,1.43,4.51,4.51,0,0,1,.74,2.71,4.59,4.59,0,0,1-.74,2.69,4.55,4.55,0,0,1-2,1.59,7.59,7.59,0,0,1-2.89.52h-2.69V666Zm2.45-8.32H443a4.21,4.21,0,0,0,2.63-.71,2.54,2.54,0,0,0,.9-2.13,2.19,2.19,0,0,0-.9-2,4.86,4.86,0,0,0-2.63-.58h-2.4Zm6.14,8.32-3.93-7,1.82-1.37,4.87,8.4Z"/><path class="cls-2" d="M452.16,666V650.31h2.52l5.23,9.29,1.66,3.31h.09c0-.8-.11-1.65-.19-2.56s-.12-1.8-.12-2.64v-7.4h2.33V666h-2.52l-5.23-9.31-1.66-3.29h-.09c.06.8.13,1.64.2,2.52s.11,1.76.11,2.62V666Z"/><path class="cls-2" d="M473.78,666.32a6.43,6.43,0,0,1-3.55-1,6.78,6.78,0,0,1-2.41-2.85,10.17,10.17,0,0,1-.88-4.37,10,10,0,0,1,.88-4.35,6.49,6.49,0,0,1,2.41-2.77,6.57,6.57,0,0,1,9.52,2.77,10,10,0,0,1,.87,4.35,10.17,10.17,0,0,1-.87,4.37,6.85,6.85,0,0,1-2.41,2.85A6.44,6.44,0,0,1,473.78,666.32Zm0-2.13a3.67,3.67,0,0,0,2.3-.75,4.81,4.81,0,0,0,1.5-2.11,9,9,0,0,0,.52-3.22,8.69,8.69,0,0,0-.52-3.18,4.73,4.73,0,0,0-1.5-2,4,4,0,0,0-4.59,0,4.58,4.58,0,0,0-1.5,2,8.68,8.68,0,0,0-.53,3.18,8.94,8.94,0,0,0,.53,3.22,4.66,4.66,0,0,0,1.5,2.11A3.64,3.64,0,0,0,473.78,664.19Z"/><path class="cls-2" d="M491.52,666l-4.94-15.72h2.59l2.35,8.16q.41,1.38.72,2.58t.72,2.58h.1c.27-.91.51-1.77.73-2.58s.45-1.66.71-2.58l2.32-8.16h2.5L494.4,666Z"/><path class="cls-2" d="M793.23,665.47V651.82H788.6v-2.07h11.71v2.07h-4.63v13.65Z"/><path class="cls-2" d="M803,665.47V649.75h5.14a9.25,9.25,0,0,1,2.89.42,4,4,0,0,1,2,1.43,4.44,4.44,0,0,1,.74,2.71,4.28,4.28,0,0,1-2.77,4.28,7.56,7.56,0,0,1-2.89.52h-2.69v6.36Zm2.45-8.32h2.4a4.21,4.21,0,0,0,2.63-.71,2.54,2.54,0,0,0,.9-2.13,2.19,2.19,0,0,0-.9-2,4.86,4.86,0,0,0-2.63-.58h-2.4Zm6.15,8.32-3.94-7,1.82-1.37,4.88,8.4Z"/><path class="cls-2" d="M814.81,665.47,820,649.75h2.83l5.21,15.72h-2.6l-2.54-8.54c-.27-.86-.53-1.73-.77-2.6l-.72-2.63h-.1c-.22.88-.45,1.75-.7,2.63s-.5,1.74-.76,2.6l-2.57,8.54Zm2.93-4.48v-1.92h7.32V661Z"/><path class="cls-2" d="M830.12,665.47V649.75h2.52l5.23,9.29,1.66,3.31h.09c0-.8-.11-1.65-.19-2.56s-.12-1.8-.12-2.64v-7.4h2.33v15.72h-2.52l-5.23-9.31-1.66-3.29h-.09c.06.8.13,1.64.2,2.52s.11,1.76.11,2.62v7.46Z"/><path class="cls-2" d="M850.25,665.76a7.65,7.65,0,0,1-3-.62,8.52,8.52,0,0,1-2.55-1.71l1.44-1.65a6.46,6.46,0,0,0,1.95,1.34,5.31,5.31,0,0,0,2.25.51,3.46,3.46,0,0,0,2.21-.62,2,2,0,0,0,.77-1.64,1.91,1.91,0,0,0-.32-1.15,2.89,2.89,0,0,0-.89-.75c-.38-.2-.82-.41-1.31-.62l-2.18-1a7,7,0,0,1-1.5-.84,4.41,4.41,0,0,1-1.22-1.32,3.7,3.7,0,0,1-.48-1.94,3.83,3.83,0,0,1,.67-2.22,4.7,4.7,0,0,1,1.83-1.54,5.89,5.89,0,0,1,2.64-.56,6.52,6.52,0,0,1,2.63.54,6.86,6.86,0,0,1,2.12,1.42L854,653a5.93,5.93,0,0,0-1.58-1,4.91,4.91,0,0,0-1.9-.37,3.18,3.18,0,0,0-1.93.54,1.76,1.76,0,0,0-.74,1.5,1.68,1.68,0,0,0,.36,1.11,3.14,3.14,0,0,0,1,.72l1.23.57,2.16.91a7.1,7.1,0,0,1,1.65.94,4,4,0,0,1,1.14,1.34,4.13,4.13,0,0,1,.42,1.95,4.28,4.28,0,0,1-.65,2.31,4.64,4.64,0,0,1-1.91,1.66A6.63,6.63,0,0,1,850.25,665.76Z"/><path class="cls-2" d="M858.73,665.47V649.75h4.87a10,10,0,0,1,2.86.38,3.83,3.83,0,0,1,1.95,1.22,3.45,3.45,0,0,1,.71,2.27,4,4,0,0,1-.59,2.09,3,3,0,0,1-1.64,1.32v.09a4.11,4.11,0,0,1,2.22,1.2,3.6,3.6,0,0,1,.87,2.55,4.12,4.12,0,0,1-.78,2.58,4.68,4.68,0,0,1-2.13,1.52,8.79,8.79,0,0,1-3.09.5Zm2.44-9.14h2.14a4.2,4.2,0,0,0,2.61-.65,2.12,2.12,0,0,0,.8-1.73,1.89,1.89,0,0,0-.84-1.76,4.88,4.88,0,0,0-2.5-.52h-2.21Zm0,7.22h2.53a5.11,5.11,0,0,0,2.88-.68,2.38,2.38,0,0,0,1-2.12,2.13,2.13,0,0,0-1-2,5.57,5.57,0,0,0-2.89-.61h-2.53Z"/><path class="cls-2" d="M878.93,665.76a6.43,6.43,0,0,1-3.55-1,6.78,6.78,0,0,1-2.41-2.85,10.17,10.17,0,0,1-.88-4.37,10,10,0,0,1,.88-4.35,6.49,6.49,0,0,1,2.41-2.77,6.57,6.57,0,0,1,9.52,2.77,10,10,0,0,1,.87,4.35,10.17,10.17,0,0,1-.87,4.37,6.85,6.85,0,0,1-2.41,2.85A6.44,6.44,0,0,1,878.93,665.76Zm0-2.13a3.67,3.67,0,0,0,2.3-.75,4.66,4.66,0,0,0,1.5-2.11,9,9,0,0,0,.52-3.22,8.69,8.69,0,0,0-.52-3.18,4.58,4.58,0,0,0-1.5-2,4,4,0,0,0-4.59,0,4.65,4.65,0,0,0-1.5,2,8.69,8.69,0,0,0-.52,3.18,9,9,0,0,0,.52,3.22,4.74,4.74,0,0,0,1.5,2.11A3.64,3.64,0,0,0,878.93,663.63Z"/><path class="cls-2" d="M889,665.47V649.75h5.13a9.31,9.31,0,0,1,2.9.42,4,4,0,0,1,2,1.43,4.44,4.44,0,0,1,.75,2.71,4.31,4.31,0,0,1-2.77,4.28,7.61,7.61,0,0,1-2.9.52h-2.68v6.36Zm2.45-8.32h2.4a4.17,4.17,0,0,0,2.62-.71,2.54,2.54,0,0,0,.9-2.13,2.19,2.19,0,0,0-.9-2,4.82,4.82,0,0,0-2.62-.58h-2.4Zm6.14,8.32-3.94-7,1.83-1.37,4.87,8.4Z"/><path class="cls-2" d="M903,665.47V649.75h4.08a8.73,8.73,0,0,1,4.09.89,5.91,5.91,0,0,1,2.58,2.63,9.38,9.38,0,0,1,.89,4.28,9.58,9.58,0,0,1-.89,4.32,6,6,0,0,1-2.55,2.69,8.15,8.15,0,0,1-4,.91Zm2.44-2h1.47a5.54,5.54,0,0,0,2.85-.67,4.31,4.31,0,0,0,1.76-2,7.85,7.85,0,0,0,.6-3.28,7.7,7.7,0,0,0-.6-3.25,4.17,4.17,0,0,0-1.76-1.92,5.86,5.86,0,0,0-2.85-.63h-1.47Z"/><path class="cls-2" d="M915.61,665.47l5.2-15.72h2.84l5.2,15.72h-2.59l-2.54-8.54c-.27-.86-.53-1.73-.77-2.6l-.72-2.63h-.1c-.22.88-.46,1.75-.7,2.63s-.5,1.74-.76,2.6l-2.57,8.54Zm2.92-4.48v-1.92h7.32V661Z"/><path class="cls-2" d="M930.92,665.47V649.75H935a8.73,8.73,0,0,1,4.09.89,5.91,5.91,0,0,1,2.58,2.63,9.38,9.38,0,0,1,.89,4.28,9.58,9.58,0,0,1-.89,4.32,6.08,6.08,0,0,1-2.54,2.69,8.19,8.19,0,0,1-4,.91Zm2.45-2h1.46a5.58,5.58,0,0,0,2.86-.67,4.35,4.35,0,0,0,1.75-2,7.85,7.85,0,0,0,.6-3.28,7.7,7.7,0,0,0-.6-3.25,4.2,4.2,0,0,0-1.75-1.92,5.9,5.9,0,0,0-2.86-.63h-1.46Z"/><path class="cls-2" d="M951.8,665.76a6.38,6.38,0,0,1-3.55-1,6.8,6.8,0,0,1-2.42-2.85,10.17,10.17,0,0,1-.87-4.37,10,10,0,0,1,.87-4.35,6.57,6.57,0,0,1,11.93,0,9.84,9.84,0,0,1,.88,4.35,10,10,0,0,1-.88,4.37,6.78,6.78,0,0,1-2.41,2.85A6.4,6.4,0,0,1,951.8,665.76Zm0-2.13a3.64,3.64,0,0,0,2.29-.75,4.66,4.66,0,0,0,1.5-2.11,8.94,8.94,0,0,0,.53-3.22,8.68,8.68,0,0,0-.53-3.18,4.58,4.58,0,0,0-1.5-2,4,4,0,0,0-4.58,0,4.58,4.58,0,0,0-1.5,2,8.47,8.47,0,0,0-.53,3.18,8.73,8.73,0,0,0,.53,3.22,4.66,4.66,0,0,0,1.5,2.11A3.62,3.62,0,0,0,951.8,663.63Z"/><path class="cls-2" d="M961.9,665.47V649.75H967a9.29,9.29,0,0,1,2.89.42,4,4,0,0,1,2,1.43,4.51,4.51,0,0,1,.74,2.71A4.59,4.59,0,0,1,972,657a4.55,4.55,0,0,1-2,1.59,7.59,7.59,0,0,1-2.89.52h-2.69v6.36Zm2.45-8.32h2.4a4.21,4.21,0,0,0,2.63-.71,2.54,2.54,0,0,0,.9-2.13,2.19,2.19,0,0,0-.9-2,4.86,4.86,0,0,0-2.63-.58h-2.4Zm6.14,8.32-3.93-7,1.82-1.37,4.87,8.4Z"/><path class="cls-2" d="M985.16,665.76a7.66,7.66,0,0,1-3-.62,8.35,8.35,0,0,1-2.54-1.71l1.43-1.65a6.58,6.58,0,0,0,2,1.34,5.32,5.32,0,0,0,2.26.51,3.43,3.43,0,0,0,2.2-.62,2,2,0,0,0,.77-1.64,1.91,1.91,0,0,0-.32-1.15,2.89,2.89,0,0,0-.89-.75c-.38-.2-.81-.41-1.31-.62l-2.18-1a7,7,0,0,1-1.5-.84,4.25,4.25,0,0,1-1.21-1.32,3.7,3.7,0,0,1-.48-1.94,3.76,3.76,0,0,1,.67-2.22,4.66,4.66,0,0,1,1.82-1.54,5.89,5.89,0,0,1,2.64-.56,6.52,6.52,0,0,1,2.63.54,6.86,6.86,0,0,1,2.12,1.42L988.9,653a5.93,5.93,0,0,0-1.58-1,4.91,4.91,0,0,0-1.9-.37,3.18,3.18,0,0,0-1.93.54,1.75,1.75,0,0,0-.73,1.5,1.68,1.68,0,0,0,.36,1.11,3,3,0,0,0,1,.72l1.22.57,2.16.91a7.39,7.39,0,0,1,1.66.94,4.18,4.18,0,0,1,1.14,1.34,4.13,4.13,0,0,1,.42,1.95,4.21,4.21,0,0,1-.66,2.31,4.58,4.58,0,0,1-1.91,1.66A6.61,6.61,0,0,1,985.16,665.76Z"/><path class="cls-2" d="M996.37,665.47V651.82h-4.64v-2.07h11.72v2.07h-4.64v13.65Z"/><path class="cls-2" d="M1009.8,665.76a7.65,7.65,0,0,1-3-.62,8.52,8.52,0,0,1-2.55-1.71l1.44-1.65a6.46,6.46,0,0,0,2,1.34,5.27,5.27,0,0,0,2.25.51,3.46,3.46,0,0,0,2.21-.62,2,2,0,0,0,.77-1.64,1.85,1.85,0,0,0-.33-1.15,2.73,2.73,0,0,0-.88-.75c-.38-.2-.82-.41-1.31-.62l-2.18-1a7,7,0,0,1-1.5-.84,4.41,4.41,0,0,1-1.22-1.32,3.7,3.7,0,0,1-.48-1.94,3.77,3.77,0,0,1,.68-2.22,4.59,4.59,0,0,1,1.82-1.54,5.89,5.89,0,0,1,2.64-.56,6.52,6.52,0,0,1,2.63.54,6.86,6.86,0,0,1,2.12,1.42l-1.27,1.56a5.83,5.83,0,0,0-1.59-1,4.83,4.83,0,0,0-1.89-.37,3.18,3.18,0,0,0-1.93.54,1.75,1.75,0,0,0-.73,1.5,1.68,1.68,0,0,0,.36,1.11,2.91,2.91,0,0,0,1,.72l1.22.57,2.16.91a7.39,7.39,0,0,1,1.66.94,4.18,4.18,0,0,1,1.14,1.34,4.26,4.26,0,0,1,.42,1.95,4.21,4.21,0,0,1-.66,2.31,4.64,4.64,0,0,1-1.91,1.66A6.66,6.66,0,0,1,1009.8,665.76Z"/><path class="cls-2" d="M621.75,665.76a7.7,7.7,0,0,1-3-.62,8.48,8.48,0,0,1-2.54-1.71l1.44-1.65a6.54,6.54,0,0,0,1.94,1.34,5.35,5.35,0,0,0,2.26.51A3.46,3.46,0,0,0,624,663a2,2,0,0,0,.77-1.64,1.85,1.85,0,0,0-.33-1.15,2.67,2.67,0,0,0-.89-.75c-.37-.2-.81-.41-1.3-.62l-2.19-1a7.49,7.49,0,0,1-1.5-.84,4.37,4.37,0,0,1-1.21-1.32,3.7,3.7,0,0,1-.48-1.94,3.76,3.76,0,0,1,.67-2.22,4.7,4.7,0,0,1,1.83-1.54,5.83,5.83,0,0,1,2.64-.56,6.47,6.47,0,0,1,2.62.54,6.79,6.79,0,0,1,2.13,1.42L625.5,653a5.83,5.83,0,0,0-1.59-1,4.86,4.86,0,0,0-1.89-.37,3.21,3.21,0,0,0-1.94.54,1.78,1.78,0,0,0-.73,1.5,1.68,1.68,0,0,0,.36,1.11,3,3,0,0,0,1,.72l1.23.57,2.16.91a7.32,7.32,0,0,1,1.65.94,4.18,4.18,0,0,1,1.14,1.34,4.13,4.13,0,0,1,.42,1.95,4.21,4.21,0,0,1-.66,2.31,4.52,4.52,0,0,1-1.91,1.66A6.58,6.58,0,0,1,621.75,665.76Z"/><path class="cls-2" d="M636.2,665.76a6.4,6.4,0,0,1-3.55-1,6.71,6.71,0,0,1-2.41-2.85,10,10,0,0,1-.88-4.37,9.84,9.84,0,0,1,.88-4.35,6.43,6.43,0,0,1,2.41-2.77,7,7,0,0,1,7.1,0,6.43,6.43,0,0,1,2.41,2.77,9.84,9.84,0,0,1,.88,4.35,10,10,0,0,1-.88,4.37,6.71,6.71,0,0,1-2.41,2.85A6.4,6.4,0,0,1,636.2,665.76Zm0-2.13a3.64,3.64,0,0,0,2.29-.75,4.66,4.66,0,0,0,1.5-2.11,8.94,8.94,0,0,0,.53-3.22,8.68,8.68,0,0,0-.53-3.18,4.58,4.58,0,0,0-1.5-2,4,4,0,0,0-4.58,0,4.58,4.58,0,0,0-1.5,2,8.68,8.68,0,0,0-.53,3.18,8.94,8.94,0,0,0,.53,3.22,4.66,4.66,0,0,0,1.5,2.11A3.64,3.64,0,0,0,636.2,663.63Z"/><path class="cls-2" d="M648.42,665.47v-6l-4.73-9.77h2.61l1.85,4.2c.24.6.48,1.17.71,1.73s.48,1.14.73,1.73h.1l.78-1.73c.25-.56.49-1.13.73-1.73l1.85-4.2h2.54l-4.73,9.77v6Z"/><path class="cls-2" d="M663.1,665.76a7.08,7.08,0,0,1-2.36-.38,4.85,4.85,0,0,1-1.85-1.2,5.48,5.48,0,0,1-1.2-2.16,11.1,11.1,0,0,1-.42-3.27v-9h2.45v9.15a7.48,7.48,0,0,0,.43,2.83,2.83,2.83,0,0,0,1.2,1.46,3.5,3.5,0,0,0,1.75.44,3.64,3.64,0,0,0,1.78-.44,2.85,2.85,0,0,0,1.24-1.46,7.45,7.45,0,0,0,.44-2.83v-9.15h2.35v9a11.1,11.1,0,0,1-.42,3.27,5.47,5.47,0,0,1-1.19,2.16,4.71,4.71,0,0,1-1.83,1.2A7.1,7.1,0,0,1,663.1,665.76Z"/><path class="cls-2" d="M671.91,665.47V664l7.9-12.19h-7.18v-2.07h10.2v1.47l-7.89,12.19h8v2.06Z"/><line class="cls-3" x1="104.16" y1="352.35" x2="95.44" y2="352.35"/><line class="cls-3" x1="104.16" y1="486.84" x2="95.44" y2="486.84"/><line class="cls-3" x1="104.16" y1="217.87" x2="95.44" y2="217.87"/><path class="cls-2" d="M54.35,86.9v-.85h2.06V79.26H54.79V78.6a6.19,6.19,0,0,0,1.05-.26,5.5,5.5,0,0,0,.81-.37h.78v8.08h1.86v.85Z"/><path class="cls-2" d="M60.54,86.9v-.6c.91-.93,1.69-1.74,2.32-2.43A12.11,12.11,0,0,0,64.31,82a3.14,3.14,0,0,0,.49-1.57,2,2,0,0,0-.43-1.29,1.68,1.68,0,0,0-1.34-.5A1.92,1.92,0,0,0,62,79a3.47,3.47,0,0,0-.89.78l-.61-.59a5.57,5.57,0,0,1,1.19-1,2.87,2.87,0,0,1,1.49-.37,2.92,2.92,0,0,1,1.4.32,2.24,2.24,0,0,1,.92.91,2.68,2.68,0,0,1,.32,1.36,3.53,3.53,0,0,1-.48,1.72A10.61,10.61,0,0,1,64,84c-.56.65-1.21,1.36-2,2.14l.75,0,.75,0h2.7v.88Z"/><path class="cls-2" d="M70.31,87.07a2.3,2.3,0,0,1-2.06-1.21,6.59,6.59,0,0,1-.75-3.45A6.39,6.39,0,0,1,68.25,79a2.4,2.4,0,0,1,4.13,0,6.44,6.44,0,0,1,.75,3.43,6.59,6.59,0,0,1-.75,3.45A2.29,2.29,0,0,1,70.31,87.07Zm0-.83a1.31,1.31,0,0,0,1-.4,2.66,2.66,0,0,0,.64-1.26,8.79,8.79,0,0,0,.22-2.17,8.62,8.62,0,0,0-.22-2.17A2.55,2.55,0,0,0,71.27,79a1.36,1.36,0,0,0-1.91,0,2.74,2.74,0,0,0-.64,1.22,8.56,8.56,0,0,0-.23,2.17,8.73,8.73,0,0,0,.23,2.17,2.85,2.85,0,0,0,.64,1.26A1.3,1.3,0,0,0,70.31,86.24Z"/><path class="cls-2" d="M77.75,86.9V80.11h.84l.08,1h0a4.55,4.55,0,0,1,1-.83,2.06,2.06,0,0,1,1.13-.35,1.88,1.88,0,0,1,1.23.36,2,2,0,0,1,.64,1,6.21,6.21,0,0,1,1.1-1A2,2,0,0,1,85,79.94a1.83,1.83,0,0,1,1.55.67,3.25,3.25,0,0,1,.5,2V86.9H86V82.71a2.48,2.48,0,0,0-.32-1.42,1.15,1.15,0,0,0-1-.45,1.65,1.65,0,0,0-.85.27,4.7,4.7,0,0,0-.93.82v5h-1V82.71a2.49,2.49,0,0,0-.31-1.42,1.14,1.14,0,0,0-1-.45,2.64,2.64,0,0,0-1.8,1.09v5Z"/><path class="cls-2" d="M63.7,355.94a2.89,2.89,0,0,1-1.21-.26,2.49,2.49,0,0,1-1-.81,4.06,4.06,0,0,1-.63-1.34,6.58,6.58,0,0,1-.23-1.86,8.18,8.18,0,0,1,.28-2.32,4.34,4.34,0,0,1,.74-1.54,3,3,0,0,1,1.08-.86,3,3,0,0,1,1.27-.28,2.67,2.67,0,0,1,1.21.26,3.26,3.26,0,0,1,.88.67l-.58.64a2,2,0,0,0-.66-.52,1.8,1.8,0,0,0-.82-.19,2.05,2.05,0,0,0-1.21.39,2.62,2.62,0,0,0-.89,1.29,7.16,7.16,0,0,0-.34,2.46,6.39,6.39,0,0,0,.24,1.87,2.48,2.48,0,0,0,.7,1.18,1.69,1.69,0,0,0,1.15.41,1.43,1.43,0,0,0,.82-.26,1.75,1.75,0,0,0,.58-.72,2.52,2.52,0,0,0,.21-1,2.62,2.62,0,0,0-.19-1.05,1.5,1.5,0,0,0-.57-.69,1.67,1.67,0,0,0-1-.25,2,2,0,0,0-1,.3,3.11,3.11,0,0,0-1,1l0-.84a3.52,3.52,0,0,1,1-.91,2.36,2.36,0,0,1,1.17-.33,2.71,2.71,0,0,1,1.34.31,2.14,2.14,0,0,1,.88.93,3.42,3.42,0,0,1,.3,1.53,3,3,0,0,1-.35,1.48,2.71,2.71,0,0,1-.93,1A2.48,2.48,0,0,1,63.7,355.94Z"/><path class="cls-2" d="M70.31,355.94a2.3,2.3,0,0,1-2.06-1.21,6.59,6.59,0,0,1-.75-3.45,6.42,6.42,0,0,1,.75-3.43,2.39,2.39,0,0,1,4.13,0,6.43,6.43,0,0,1,.75,3.42,6.59,6.59,0,0,1-.75,3.45A2.29,2.29,0,0,1,70.31,355.94Zm0-.82a1.32,1.32,0,0,0,1-.41,2.66,2.66,0,0,0,.64-1.26,8.73,8.73,0,0,0,.22-2.17,8.48,8.48,0,0,0-.22-2.16,2.54,2.54,0,0,0-.64-1.23,1.36,1.36,0,0,0-1.91,0,2.72,2.72,0,0,0-.64,1.23,8.43,8.43,0,0,0-.23,2.16,8.68,8.68,0,0,0,.23,2.17,2.85,2.85,0,0,0,.64,1.26A1.31,1.31,0,0,0,70.31,355.12Z"/><path class="cls-2" d="M77.75,355.77V349h.84l.08,1h0a5.19,5.19,0,0,1,1-.83,2,2,0,0,1,1.13-.34,1.88,1.88,0,0,1,1.23.35,2,2,0,0,1,.64,1,6.21,6.21,0,0,1,1.1-.95,2.08,2.08,0,0,1,1.16-.36,1.81,1.81,0,0,1,1.55.67,3.22,3.22,0,0,1,.5,2v4.31H86v-4.18a2.52,2.52,0,0,0-.32-1.43,1.15,1.15,0,0,0-1-.45,1.65,1.65,0,0,0-.85.27,5.05,5.05,0,0,0-.93.82v5h-1v-4.18a2.53,2.53,0,0,0-.31-1.43,1.14,1.14,0,0,0-1-.45,2.68,2.68,0,0,0-1.8,1.09v5Z"/><path class="cls-2" d="M62.81,221.46a2.61,2.61,0,0,1-1.22-.27,3.07,3.07,0,0,1-.87-.66l.58-.64a1.9,1.9,0,0,0,.67.52,1.77,1.77,0,0,0,.8.19,2.08,2.08,0,0,0,1.22-.39,2.6,2.6,0,0,0,.88-1.3,7.38,7.38,0,0,0,.33-2.45,6.41,6.41,0,0,0-.23-1.87,2.39,2.39,0,0,0-.69-1.18,1.69,1.69,0,0,0-1.15-.41,1.37,1.37,0,0,0-.81.26,1.78,1.78,0,0,0-.58.71,2.39,2.39,0,0,0-.22,1.06,2.62,2.62,0,0,0,.19,1.05,1.39,1.39,0,0,0,.57.69,1.67,1.67,0,0,0,1,.25,2,2,0,0,0,1-.3,3.08,3.08,0,0,0,1-1l0,.86a3.47,3.47,0,0,1-1,.9,2.35,2.35,0,0,1-1.19.34,2.73,2.73,0,0,1-1.34-.31,2.09,2.09,0,0,1-.88-.93,3.34,3.34,0,0,1-.31-1.53,3,3,0,0,1,.36-1.48,2.52,2.52,0,0,1,.94-1,2.41,2.41,0,0,1,1.29-.36,2.7,2.7,0,0,1,1.22.27,2.52,2.52,0,0,1,1,.8A4.07,4.07,0,0,1,66,214.6a7,7,0,0,1,.23,1.86,8.28,8.28,0,0,1-.28,2.32,4.34,4.34,0,0,1-.75,1.54,3,3,0,0,1-1.08.86A2.9,2.9,0,0,1,62.81,221.46Z"/><path class="cls-2" d="M70.31,221.46a2.32,2.32,0,0,1-2.06-1.21,6.61,6.61,0,0,1-.75-3.46,6.38,6.38,0,0,1,.75-3.42,2.4,2.4,0,0,1,4.13,0,6.43,6.43,0,0,1,.75,3.42,6.61,6.61,0,0,1-.75,3.46A2.31,2.31,0,0,1,70.31,221.46Zm0-.83a1.31,1.31,0,0,0,1-.4,2.75,2.75,0,0,0,.64-1.27,10.76,10.76,0,0,0,0-4.33,2.55,2.55,0,0,0-.64-1.22,1.36,1.36,0,0,0-1.91,0,2.74,2.74,0,0,0-.64,1.22,10.3,10.3,0,0,0,0,4.33,3,3,0,0,0,.64,1.27A1.3,1.3,0,0,0,70.31,220.63Z"/><path class="cls-2" d="M77.75,221.29V214.5h.84l.08,1h0a4.9,4.9,0,0,1,1-.84,2.13,2.13,0,0,1,1.13-.34,1.88,1.88,0,0,1,1.23.36,2,2,0,0,1,.64,1,6.29,6.29,0,0,1,1.1-1,2.08,2.08,0,0,1,1.16-.36,1.83,1.83,0,0,1,1.55.67,3.25,3.25,0,0,1,.5,2v4.31H86V217.1a2.48,2.48,0,0,0-.32-1.42,1.15,1.15,0,0,0-1-.45,1.65,1.65,0,0,0-.85.27,4.7,4.7,0,0,0-.93.82v5h-1V217.1a2.49,2.49,0,0,0-.31-1.42,1.14,1.14,0,0,0-1-.45,2.64,2.64,0,0,0-1.8,1.09v5Z"/><path class="cls-2" d="M63.27,490.08A4,4,0,0,1,62,489.9a3.66,3.66,0,0,1-.95-.47,3.83,3.83,0,0,1-.7-.61l.52-.67a4.76,4.76,0,0,0,.95.75,2.66,2.66,0,0,0,1.38.33,2,2,0,0,0,1.38-.47,1.58,1.58,0,0,0,.54-1.26,1.67,1.67,0,0,0-.28-1,1.84,1.84,0,0,0-.93-.65,5,5,0,0,0-1.71-.23v-.8a4.25,4.25,0,0,0,1.53-.23,1.69,1.69,0,0,0,.82-.63,1.56,1.56,0,0,0,.25-.88,1.39,1.39,0,0,0-.43-1.07,1.72,1.72,0,0,0-1.18-.4,2.25,2.25,0,0,0-1.06.26,3.59,3.59,0,0,0-.89.67l-.56-.66a5.17,5.17,0,0,1,1.14-.79,3,3,0,0,1,1.4-.32,3.18,3.18,0,0,1,1.34.27,2.25,2.25,0,0,1,.93.76,2.08,2.08,0,0,1,.35,1.21,2,2,0,0,1-.46,1.35,2.79,2.79,0,0,1-1.2.8v.05a2.89,2.89,0,0,1,1,.43,2.28,2.28,0,0,1,.71.77,2.11,2.11,0,0,1,.27,1.08,2.35,2.35,0,0,1-.39,1.37,2.62,2.62,0,0,1-1,.87A3.35,3.35,0,0,1,63.27,490.08Z"/><path class="cls-2" d="M70.31,490.08a2.3,2.3,0,0,1-2.06-1.21,6.59,6.59,0,0,1-.75-3.45,6.42,6.42,0,0,1,.75-3.43,2.39,2.39,0,0,1,4.13,0,6.43,6.43,0,0,1,.75,3.42,6.59,6.59,0,0,1-.75,3.45A2.29,2.29,0,0,1,70.31,490.08Zm0-.83a1.31,1.31,0,0,0,1-.4,2.66,2.66,0,0,0,.64-1.26,8.73,8.73,0,0,0,.22-2.17,8.48,8.48,0,0,0-.22-2.16,2.54,2.54,0,0,0-.64-1.23,1.36,1.36,0,0,0-1.91,0,2.72,2.72,0,0,0-.64,1.23,8.43,8.43,0,0,0-.23,2.16,8.68,8.68,0,0,0,.23,2.17,2.85,2.85,0,0,0,.64,1.26A1.3,1.3,0,0,0,70.31,489.25Z"/><path class="cls-2" d="M77.75,489.91v-6.79h.84l.08,1h0a4.85,4.85,0,0,1,1-.83,2,2,0,0,1,1.13-.34,1.88,1.88,0,0,1,1.23.35,2,2,0,0,1,.64,1,6.21,6.21,0,0,1,1.1-.95A2.08,2.08,0,0,1,85,483a1.81,1.81,0,0,1,1.55.67,3.22,3.22,0,0,1,.5,2v4.31H86v-4.18a2.52,2.52,0,0,0-.32-1.43,1.15,1.15,0,0,0-1-.45,1.65,1.65,0,0,0-.85.27,5.05,5.05,0,0,0-.93.82v5h-1v-4.18a2.53,2.53,0,0,0-.31-1.43,1.14,1.14,0,0,0-1-.45,2.64,2.64,0,0,0-1.8,1.09v5Z"/><path class="cls-2" d="M411.7,686v-1.16h2v-6.16h-1.64v-.89a9.35,9.35,0,0,0,1.12-.3,5,5,0,0,0,.87-.4h1.06v7.75h1.79V686Z"/><path class="cls-2" d="M420.52,686.15a2.78,2.78,0,0,1-1.33-.29,3.57,3.57,0,0,1-.95-.69l.77-.87a1.88,1.88,0,0,0,.64.5,1.8,1.8,0,0,0,.8.19,1.89,1.89,0,0,0,1.11-.36,2.45,2.45,0,0,0,.8-1.17,6.72,6.72,0,0,0,.3-2.24,6.24,6.24,0,0,0-.22-1.82,2.2,2.2,0,0,0-.64-1.06,1.46,1.46,0,0,0-1-.35,1.26,1.26,0,0,0-.73.22,1.55,1.55,0,0,0-.51.61,2.56,2.56,0,0,0,0,1.91,1.21,1.21,0,0,0,.51.58,1.51,1.51,0,0,0,.82.21,1.85,1.85,0,0,0,.89-.27,2.65,2.65,0,0,0,.88-.91l.05,1a3,3,0,0,1-1,.85,2.22,2.22,0,0,1-1.11.32,2.92,2.92,0,0,1-1.35-.3,2.16,2.16,0,0,1-.9-.92,3.23,3.23,0,0,1-.32-1.54,3,3,0,0,1,.37-1.53,2.67,2.67,0,0,1,1-1,2.79,2.79,0,0,1,1.37-.35,2.86,2.86,0,0,1,1.23.26,2.68,2.68,0,0,1,1,.79,4.22,4.22,0,0,1,.68,1.36,6.41,6.41,0,0,1,.25,1.91,7.86,7.86,0,0,1-.29,2.26,4.42,4.42,0,0,1-.77,1.52,3,3,0,0,1-1.1.87A3.11,3.11,0,0,1,420.52,686.15Z"/><path class="cls-2" d="M428.45,686.15a3.06,3.06,0,0,1-1.24-.26,2.93,2.93,0,0,1-1-.8,4.17,4.17,0,0,1-.68-1.35,6.75,6.75,0,0,1-.25-1.91,7.86,7.86,0,0,1,.29-2.26,4.57,4.57,0,0,1,.77-1.53,3,3,0,0,1,1.1-.86,3,3,0,0,1,1.3-.28,2.9,2.9,0,0,1,1.33.28,3.21,3.21,0,0,1,.95.7l-.77.87a1.89,1.89,0,0,0-.65-.5,1.73,1.73,0,0,0-.79-.19,1.89,1.89,0,0,0-1.11.36,2.4,2.4,0,0,0-.8,1.17,6.72,6.72,0,0,0-.3,2.24,6.24,6.24,0,0,0,.22,1.82,2.2,2.2,0,0,0,.64,1.06,1.46,1.46,0,0,0,1,.35,1.25,1.25,0,0,0,.72-.22,1.46,1.46,0,0,0,.52-.62,2.53,2.53,0,0,0,0-1.9,1.28,1.28,0,0,0-.51-.59,1.61,1.61,0,0,0-.82-.2,1.78,1.78,0,0,0-.88.27,2.5,2.5,0,0,0-.89.91l-.05-1a3.06,3.06,0,0,1,1-.86,2.27,2.27,0,0,1,1.1-.31,2.92,2.92,0,0,1,1.35.3,2.11,2.11,0,0,1,.9.92,3.21,3.21,0,0,1,.33,1.53,3,3,0,0,1-.38,1.53,2.85,2.85,0,0,1-1,1A2.62,2.62,0,0,1,428.45,686.15Z"/><path class="cls-2" d="M434.13,686a21.19,21.19,0,0,1,.34-2.91,11.61,11.61,0,0,1,.79-2.44,13.68,13.68,0,0,1,1.39-2.36h-4.31v-1.2h5.88v.86a12.73,12.73,0,0,0-1.29,1.89,9.14,9.14,0,0,0-.76,1.82,12,12,0,0,0-.41,2c-.09.7-.15,1.49-.19,2.36Z"/><path class="cls-2" d="M439.39,683v-1h3.28v1Z"/><path class="cls-2" d="M443.87,686v-1.16h2v-6.16h-1.64v-.89a9.35,9.35,0,0,0,1.12-.3,5,5,0,0,0,.87-.4h1.06v7.75h1.8V686Z"/><path class="cls-2" d="M452.69,686.15a2.8,2.8,0,0,1-1.33-.29,3.57,3.57,0,0,1-.95-.69l.77-.87a1.82,1.82,0,0,0,.65.5,1.73,1.73,0,0,0,.79.19,1.89,1.89,0,0,0,1.11-.36,2.39,2.39,0,0,0,.8-1.17,6.44,6.44,0,0,0,.31-2.24,6.21,6.21,0,0,0-.23-1.82,2.2,2.2,0,0,0-.64-1.06,1.44,1.44,0,0,0-1-.35,1.26,1.26,0,0,0-.73.22,1.55,1.55,0,0,0-.51.61,2.36,2.36,0,0,0-.19,1,2.22,2.22,0,0,0,.18.94,1.32,1.32,0,0,0,.51.58,1.53,1.53,0,0,0,.83.21,1.81,1.81,0,0,0,.88-.27,2.65,2.65,0,0,0,.88-.91l.06,1a3.15,3.15,0,0,1-1,.85,2.19,2.19,0,0,1-1.11.32,2.92,2.92,0,0,1-1.35-.3,2.22,2.22,0,0,1-.9-.92,3.23,3.23,0,0,1-.32-1.54,3,3,0,0,1,.37-1.53,2.74,2.74,0,0,1,1-1,2.79,2.79,0,0,1,1.37-.35,2.83,2.83,0,0,1,1.23.26,2.6,2.6,0,0,1,1,.79,4,4,0,0,1,.68,1.36,6.41,6.41,0,0,1,.25,1.91,7.52,7.52,0,0,1-.29,2.26,4.26,4.26,0,0,1-.77,1.52,3,3,0,0,1-1.1.87A3.11,3.11,0,0,1,452.69,686.15Z"/><path class="cls-2" d="M459.22,686a19.74,19.74,0,0,1,.34-2.91,11,11,0,0,1,.78-2.44,13.77,13.77,0,0,1,1.4-2.36h-4.31v-1.2h5.88v.86a11.36,11.36,0,0,0-1.29,1.89,9.82,9.82,0,0,0-.77,1.82,13.08,13.08,0,0,0-.4,2c-.09.7-.15,1.49-.19,2.36Z"/><path class="cls-2" d="M467.23,686.15A4.51,4.51,0,0,1,466,686a3.56,3.56,0,0,1-1-.47,4,4,0,0,1-.73-.62l.69-.91a4.4,4.4,0,0,0,.93.71,2.49,2.49,0,0,0,1.25.3,2,2,0,0,0,1.26-.39,1.31,1.31,0,0,0,.48-1.08,1.42,1.42,0,0,0-.25-.85,1.5,1.5,0,0,0-.84-.57,5.07,5.07,0,0,0-1.63-.2v-1a4,4,0,0,0,1.44-.21,1.47,1.47,0,0,0,.75-.54,1.39,1.39,0,0,0,.22-.78,1.2,1.2,0,0,0-.38-1,1.5,1.5,0,0,0-1-.34,2.07,2.07,0,0,0-1,.24,3.6,3.6,0,0,0-.85.63l-.74-.88a4.7,4.7,0,0,1,1.2-.81,3.16,3.16,0,0,1,1.43-.31,3.68,3.68,0,0,1,1.45.27,2.31,2.31,0,0,1,1,.78,2.13,2.13,0,0,1,.36,1.26,2,2,0,0,1-.43,1.29,2.69,2.69,0,0,1-1.15.79v.06a2.78,2.78,0,0,1,1,.43,2.19,2.19,0,0,1,.67.75,2.16,2.16,0,0,1,.26,1.06,2.26,2.26,0,0,1-.42,1.38,2.58,2.58,0,0,1-1.1.87A3.64,3.64,0,0,1,467.23,686.15Z"/><path class="cls-2" d="M398.65,713.8a4.08,4.08,0,0,1-1.26-.18,3.66,3.66,0,0,1-.95-.47,4.2,4.2,0,0,1-.7-.61l.52-.67a4.56,4.56,0,0,0,1,.75,2.66,2.66,0,0,0,1.38.33,2,2,0,0,0,1.38-.47,1.57,1.57,0,0,0,.54-1.25,1.68,1.68,0,0,0-.29-1,1.81,1.81,0,0,0-.92-.65,5.33,5.33,0,0,0-1.72-.23v-.8a4.21,4.21,0,0,0,1.53-.23,1.67,1.67,0,0,0,.82-.62,1.59,1.59,0,0,0,.25-.89,1.39,1.39,0,0,0-.43-1.07,1.7,1.7,0,0,0-1.18-.39,2.27,2.27,0,0,0-1.06.25,3.6,3.6,0,0,0-.88.67l-.56-.66a4.89,4.89,0,0,1,1.13-.79,3,3,0,0,1,1.4-.31,3.22,3.22,0,0,1,1.35.26,2.25,2.25,0,0,1,.93.76,2.1,2.1,0,0,1,.34,1.21,2,2,0,0,1-.45,1.36,2.9,2.9,0,0,1-1.2.79V709a3.13,3.13,0,0,1,1,.43,2.31,2.31,0,0,1,.72.77,2.21,2.21,0,0,1,.26,1.08,2.35,2.35,0,0,1-.39,1.37,2.59,2.59,0,0,1-1.05.88A3.47,3.47,0,0,1,398.65,713.8Z"/><path class="cls-2" d="M404,713.8a.73.73,0,0,1-.54-.22.77.77,0,0,1-.23-.59.78.78,0,0,1,.23-.6.77.77,0,0,1,1.08,0,.88.88,0,0,1,0,1.19A.73.73,0,0,1,404,713.8Z"/><path class="cls-2" d="M409.08,713.8a2.31,2.31,0,0,1-2.06-1.21,6.59,6.59,0,0,1-.75-3.45,6.44,6.44,0,0,1,.75-3.43,2.41,2.41,0,0,1,4.14,0,6.53,6.53,0,0,1,.74,3.42,6.7,6.7,0,0,1-.74,3.45A2.32,2.32,0,0,1,409.08,713.8Zm0-.82a1.32,1.32,0,0,0,1-.41,2.66,2.66,0,0,0,.64-1.26,8.73,8.73,0,0,0,.22-2.17,8.48,8.48,0,0,0-.22-2.16,2.54,2.54,0,0,0-.64-1.23,1.36,1.36,0,0,0-1.91,0,2.72,2.72,0,0,0-.64,1.23,8.43,8.43,0,0,0-.23,2.16,8.68,8.68,0,0,0,.23,2.17,2.85,2.85,0,0,0,.64,1.26A1.31,1.31,0,0,0,409.08,713Z"/><path class="cls-2" d="M416,713.8a2.3,2.3,0,0,1-2.06-1.21,6.59,6.59,0,0,1-.75-3.45,6.44,6.44,0,0,1,.75-3.43,2.4,2.4,0,0,1,4.13,0,6.43,6.43,0,0,1,.75,3.42,6.59,6.59,0,0,1-.75,3.45A2.29,2.29,0,0,1,416,713.8Zm0-.82a1.33,1.33,0,0,0,1-.41,2.66,2.66,0,0,0,.64-1.26,8.73,8.73,0,0,0,.22-2.17,8.48,8.48,0,0,0-.22-2.16,2.54,2.54,0,0,0-.64-1.23,1.35,1.35,0,0,0-1-.39,1.33,1.33,0,0,0-1,.39,2.72,2.72,0,0,0-.64,1.23,8.43,8.43,0,0,0-.23,2.16,8.68,8.68,0,0,0,.23,2.17,2.85,2.85,0,0,0,.64,1.26A1.31,1.31,0,0,0,416,713Z"/><path class="cls-2" d="M422.86,713.8a2.32,2.32,0,0,1-2.07-1.21,6.59,6.59,0,0,1-.75-3.45,6.44,6.44,0,0,1,.75-3.43,2.34,2.34,0,0,1,2.07-1.17,2.31,2.31,0,0,1,2.07,1.18,6.43,6.43,0,0,1,.74,3.42,6.6,6.6,0,0,1-.74,3.45A2.29,2.29,0,0,1,422.86,713.8Zm0-.82a1.35,1.35,0,0,0,1-.41,2.75,2.75,0,0,0,.64-1.26,9.24,9.24,0,0,0,.22-2.17,9,9,0,0,0-.22-2.16,2.63,2.63,0,0,0-.64-1.23,1.37,1.37,0,0,0-1-.39,1.33,1.33,0,0,0-.95.39,2.63,2.63,0,0,0-.64,1.23,8.43,8.43,0,0,0-.23,2.16,8.68,8.68,0,0,0,.23,2.17,2.75,2.75,0,0,0,.64,1.26A1.31,1.31,0,0,0,422.86,713Z"/><path class="cls-2" d="M432.35,713.8a1.62,1.62,0,0,1-1.46-.61,2.8,2.8,0,0,1-.42-1.6v-3.91h-1v-.76l1.07-.08.12-1.91h.86v1.91h1.86v.84H431.5v3.94a1.77,1.77,0,0,0,.23,1,.93.93,0,0,0,.84.35,1.9,1.9,0,0,0,.4-.05,2.54,2.54,0,0,0,.39-.13l.21.77c-.19.07-.39.12-.6.18A2.74,2.74,0,0,1,432.35,713.8Z"/><path class="cls-2" d="M437.33,713.8a3,3,0,0,1-1.54-.42,3.1,3.1,0,0,1-1.14-1.21,4,4,0,0,1-.44-1.92,4,4,0,0,1,.44-1.94,3.1,3.1,0,0,1,1.14-1.21,3,3,0,0,1,1.54-.42,3,3,0,0,1,1.54.42,3.2,3.2,0,0,1,1.15,1.21,4,4,0,0,1,.44,1.94,4,4,0,0,1-.44,1.92,3.2,3.2,0,0,1-1.15,1.21A3,3,0,0,1,437.33,713.8Zm0-.85a1.77,1.77,0,0,0,1.09-.34,2.18,2.18,0,0,0,.73-.94,4,4,0,0,0,0-2.84,2.24,2.24,0,0,0-.73-1,1.89,1.89,0,0,0-2.16,0,2.22,2.22,0,0,0-.72,1,4,4,0,0,0,0,2.84,2.16,2.16,0,0,0,.72.94A1.77,1.77,0,0,0,437.33,713Z"/><path class="cls-2" d="M442.3,713.63v-6.79h.84l.09,1h0a5.81,5.81,0,0,1,1-.84,2.4,2.4,0,0,1,1.24-.33,1.83,1.83,0,0,1,1.58.67,3.31,3.31,0,0,1,.49,2v4.31h-1v-4.18a2.55,2.55,0,0,0-.31-1.43,1.18,1.18,0,0,0-1-.45,1.72,1.72,0,0,0-1,.28,5.72,5.72,0,0,0-1,.82v5Z"/><path class="cls-2" d="M452.59,713.8a3.2,3.2,0,0,1-1.61-.42,3.13,3.13,0,0,1-1.17-1.22,4.46,4.46,0,0,1,0-3.82,3.21,3.21,0,0,1,1.13-1.23,2.7,2.7,0,0,1,1.47-.43,2.58,2.58,0,0,1,1.44.39,2.43,2.43,0,0,1,.92,1.1,4.09,4.09,0,0,1,.32,1.68c0,.12,0,.23,0,.33a1.19,1.19,0,0,1,0,.29h-4.87v-.74h4a2.57,2.57,0,0,0-.47-1.66,1.54,1.54,0,0,0-1.28-.57,1.79,1.79,0,0,0-1,.3,2.17,2.17,0,0,0-.79.89,3.49,3.49,0,0,0-.31,1.56,3.12,3.12,0,0,0,.33,1.51,2.23,2.23,0,0,0,.86.91,2.39,2.39,0,0,0,1.18.31,2.45,2.45,0,0,0,.93-.16,3.87,3.87,0,0,0,.79-.39l.38.67a5.18,5.18,0,0,1-1,.49A3.47,3.47,0,0,1,452.59,713.8Z"/><path class="cls-2" d="M457.9,713.8a1.14,1.14,0,0,1-.63-.16.86.86,0,0,1-.36-.47,2.21,2.21,0,0,1-.12-.78v-8.75h1v8.83a.55.55,0,0,0,.1.37.31.31,0,0,0,.22.11h.1l.16,0,.14.79-.26.06A1.86,1.86,0,0,1,457.9,713.8Z"/><path class="cls-2" d="M461.83,713.8a2.19,2.19,0,0,1-1-.22,1.81,1.81,0,0,1-.72-.65,2,2,0,0,1-.26-1,1.87,1.87,0,0,1,1-1.7,8.63,8.63,0,0,1,3.21-.83,3.6,3.6,0,0,0-.11-.88,1.33,1.33,0,0,0-.44-.68,1.4,1.4,0,0,0-.9-.26,2.71,2.71,0,0,0-1.14.24,7.05,7.05,0,0,0-.92.5l-.41-.7c.2-.13.43-.26.7-.4a4.81,4.81,0,0,1,.9-.35,3.53,3.53,0,0,1,1-.14,2.25,2.25,0,0,1,1.33.35,2,2,0,0,1,.73,1,4,4,0,0,1,.23,1.44v4.2h-.84l-.08-.82h0a6,6,0,0,1-1.07.7A2.58,2.58,0,0,1,461.83,713.8Zm.27-.82a2,2,0,0,0,1-.25,5.28,5.28,0,0,0,1-.71v-2a9.27,9.27,0,0,0-1.9.38,2.29,2.29,0,0,0-1,.6,1.2,1.2,0,0,0-.31.81,1,1,0,0,0,.38.87A1.35,1.35,0,0,0,462.1,713Z"/><path class="cls-2" d="M469.59,713.8a2.47,2.47,0,0,1-2-.93,4.07,4.07,0,0,1-.76-2.62,4,4,0,0,1,.42-1.89,3.13,3.13,0,0,1,1.08-1.24,2.58,2.58,0,0,1,1.46-.44,2.34,2.34,0,0,1,1,.21,4.68,4.68,0,0,1,.9.58l0-1.17v-2.66h1v10h-.84l-.09-.82h0a3.91,3.91,0,0,1-.93.7A2.36,2.36,0,0,1,469.59,713.8Zm.22-.87a2,2,0,0,0,.94-.24,3.55,3.55,0,0,0,.9-.72v-3.68a3.41,3.41,0,0,0-.88-.58,2.35,2.35,0,0,0-.86-.17,1.72,1.72,0,0,0-1,.35,2.3,2.3,0,0,0-.74,1,3.44,3.44,0,0,0-.28,1.41,3.26,3.26,0,0,0,.52,2A1.66,1.66,0,0,0,469.81,712.93Z"/><path class="cls-2" d="M476.58,713.8a2.21,2.21,0,0,1-1-.22,1.81,1.81,0,0,1-.72-.65,2,2,0,0,1-.26-1,1.89,1.89,0,0,1,1-1.7,8.64,8.64,0,0,1,3.22-.83,3.17,3.17,0,0,0-.12-.88,1.33,1.33,0,0,0-.44-.68,1.4,1.4,0,0,0-.9-.26,2.71,2.71,0,0,0-1.14.24,7.05,7.05,0,0,0-.92.5l-.4-.7a7,7,0,0,1,.7-.4,4.71,4.71,0,0,1,.89-.35,3.53,3.53,0,0,1,1-.14,2.25,2.25,0,0,1,1.33.35,2,2,0,0,1,.73,1,4,4,0,0,1,.23,1.44v4.2H479l-.08-.82h0a6,6,0,0,1-1.07.7A2.54,2.54,0,0,1,476.58,713.8Zm.26-.82a2,2,0,0,0,1-.25,5.67,5.67,0,0,0,1-.71v-2a9.25,9.25,0,0,0-1.91.38,2.35,2.35,0,0,0-1,.6,1.2,1.2,0,0,0-.3.81,1,1,0,0,0,.37.87A1.37,1.37,0,0,0,476.84,713Z"/><path class="cls-2" d="M483.79,713.8a3.62,3.62,0,0,1-1.39-.27,4.26,4.26,0,0,1-1.13-.66l.51-.69a5.8,5.8,0,0,0,.93.59,2.44,2.44,0,0,0,1.12.23,1.5,1.5,0,0,0,1.05-.33,1.09,1.09,0,0,0,.35-.8.84.84,0,0,0-.24-.61,2.28,2.28,0,0,0-.6-.42c-.24-.11-.49-.22-.74-.31a7.91,7.91,0,0,1-1-.41,2.66,2.66,0,0,1-.79-.6,1.38,1.38,0,0,1-.31-.94,1.75,1.75,0,0,1,.61-1.35,2.42,2.42,0,0,1,1.7-.55,2.94,2.94,0,0,1,1.15.22,4.19,4.19,0,0,1,.91.53l-.49.66a5,5,0,0,0-.73-.43,2,2,0,0,0-.84-.17,1.39,1.39,0,0,0-1,.31,1,1,0,0,0-.32.72.75.75,0,0,0,.22.56,1.76,1.76,0,0,0,.57.37l.74.31c.33.12.66.26,1,.41a2.28,2.28,0,0,1,.81.61,1.57,1.57,0,0,1,.32,1,1.81,1.81,0,0,1-.28,1,2,2,0,0,1-.82.73A3,3,0,0,1,483.79,713.8Z"/><path class="cls-2" d="M874.79,685.64v-1.16h2v-6.16h-1.63v-.9a7.86,7.86,0,0,0,1.12-.29,5.26,5.26,0,0,0,.86-.41h1.07v7.76H880v1.16Z"/><path class="cls-2" d="M883.61,685.81a2.87,2.87,0,0,1-1.33-.29,3.57,3.57,0,0,1-.95-.69l.77-.87a1.86,1.86,0,0,0,1.44.68,1.82,1.82,0,0,0,1.1-.35,2.38,2.38,0,0,0,.81-1.18,6.66,6.66,0,0,0,.3-2.23,6.19,6.19,0,0,0-.22-1.82,2.15,2.15,0,0,0-.64-1.06,1.44,1.44,0,0,0-1-.36,1.31,1.31,0,0,0-.73.22,1.43,1.43,0,0,0-.51.62,2.18,2.18,0,0,0-.19,1,2.34,2.34,0,0,0,.17.93,1.34,1.34,0,0,0,.51.59,1.55,1.55,0,0,0,.83.2,1.87,1.87,0,0,0,.88-.26,2.57,2.57,0,0,0,.88-.91l.06,1a3,3,0,0,1-1,.86,2.29,2.29,0,0,1-1.1.32,2.77,2.77,0,0,1-1.35-.31,2.13,2.13,0,0,1-.91-.92,3.28,3.28,0,0,1-.32-1.53,3.09,3.09,0,0,1,.37-1.53,2.62,2.62,0,0,1,1-1,2.66,2.66,0,0,1,1.36-.36,3,3,0,0,1,1.23.26,2.66,2.66,0,0,1,1,.8,4.06,4.06,0,0,1,.67,1.35,6.41,6.41,0,0,1,.26,1.92,7.73,7.73,0,0,1-.29,2.25,4.39,4.39,0,0,1-.77,1.53,3.07,3.07,0,0,1-1.11.87A3.18,3.18,0,0,1,883.61,685.81Z"/><path class="cls-2" d="M891.28,685.81a3.58,3.58,0,0,1-1.53-.32,2.58,2.58,0,0,1-1.07-.87,2.2,2.2,0,0,1-.38-1.26,2.11,2.11,0,0,1,.24-1,2.84,2.84,0,0,1,.61-.77,3.86,3.86,0,0,1,.79-.55V681a3.74,3.74,0,0,1-.86-.87,1.93,1.93,0,0,1-.38-1.2,2.22,2.22,0,0,1,.35-1.24,2.29,2.29,0,0,1,.93-.81,3,3,0,0,1,1.34-.29,2.6,2.6,0,0,1,1.89.67,2.29,2.29,0,0,1,.69,1.73,2.07,2.07,0,0,1-.19.85,3.28,3.28,0,0,1-.46.72,3.12,3.12,0,0,1-.57.53v.05a4.49,4.49,0,0,1,.76.53,2.52,2.52,0,0,1,.58.75,2.32,2.32,0,0,1,.21,1,2.07,2.07,0,0,1-.37,1.22,2.51,2.51,0,0,1-1,.86A3.47,3.47,0,0,1,891.28,685.81Zm0-1a1.8,1.8,0,0,0,.82-.18,1.27,1.27,0,0,0,.57-.5,1.32,1.32,0,0,0,.2-.75,1.24,1.24,0,0,0-.3-.87,2.35,2.35,0,0,0-.83-.57c-.35-.16-.72-.33-1.13-.5a3.21,3.21,0,0,0-.78.78,1.74,1.74,0,0,0-.32,1,1.46,1.46,0,0,0,.24.82,1.54,1.54,0,0,0,.63.55A2,2,0,0,0,891.31,684.79Zm.57-4.11a2.8,2.8,0,0,0,.62-.79,1.85,1.85,0,0,0,.21-.86,1.8,1.8,0,0,0-.16-.75,1.23,1.23,0,0,0-.49-.52,1.54,1.54,0,0,0-.77-.19,1.33,1.33,0,0,0-.93.35,1.24,1.24,0,0,0-.38,1,1.23,1.23,0,0,0,.26.81,2.17,2.17,0,0,0,.69.56A9.34,9.34,0,0,0,891.88,680.68Z"/><path class="cls-2" d="M895.44,685.64v-1.16h2v-6.16h-1.63v-.9a7.86,7.86,0,0,0,1.12-.29,5.26,5.26,0,0,0,.86-.41h1.07v7.76h1.79v1.16Z"/><path class="cls-2" d="M901.88,682.64v-1h3.27v1Z"/><path class="cls-2" d="M906.27,685.64v-.83c.86-.84,1.6-1.58,2.21-2.24a11.77,11.77,0,0,0,1.41-1.77,2.91,2.91,0,0,0,.49-1.49,1.67,1.67,0,0,0-.4-1.18,1.46,1.46,0,0,0-1.17-.44,1.82,1.82,0,0,0-1,.29,4,4,0,0,0-.82.73l-.8-.79a5.34,5.34,0,0,1,1.24-1,3.41,3.41,0,0,1,3,0,2.35,2.35,0,0,1,1,.94,3,3,0,0,1,.34,1.42,3.38,3.38,0,0,1-.46,1.65,9.57,9.57,0,0,1-1.23,1.72c-.52.6-1.09,1.24-1.73,1.91l.76-.06.74,0h2.35v1.21Z"/><path class="cls-2" d="M916.35,685.81a2.46,2.46,0,0,1-2.16-1.21,6.26,6.26,0,0,1-.79-3.46,6.09,6.09,0,0,1,.79-3.42,2.57,2.57,0,0,1,4.32,0,6.07,6.07,0,0,1,.8,3.41,6.26,6.26,0,0,1-.8,3.46A2.46,2.46,0,0,1,916.35,685.81Zm0-1.12a1.18,1.18,0,0,0,.83-.35,2.48,2.48,0,0,0,.57-1.13,8.8,8.8,0,0,0,.2-2.07,8.62,8.62,0,0,0-.2-2,2.27,2.27,0,0,0-.57-1.09,1.21,1.21,0,0,0-1.66,0,2.26,2.26,0,0,0-.56,1.09,8.62,8.62,0,0,0-.2,2,8.8,8.8,0,0,0,.2,2.07,2.48,2.48,0,0,0,.56,1.13A1.18,1.18,0,0,0,916.35,684.69Z"/><path class="cls-2" d="M920.53,685.64v-1.16h2v-6.16H920.9v-.9a7.52,7.52,0,0,0,1.12-.29,5,5,0,0,0,.87-.41H924v7.76h1.79v1.16Z"/><path class="cls-2" d="M927,685.64v-1.16h2v-6.16h-1.63v-.9a7.86,7.86,0,0,0,1.12-.29,5.26,5.26,0,0,0,.86-.41h1.07v7.76h1.79v1.16Z"/><path class="cls-2" d="M857.81,713.29v-.6c.91-.93,1.69-1.74,2.32-2.43a11.38,11.38,0,0,0,1.44-1.87,3,3,0,0,0,.49-1.57,2,2,0,0,0-.42-1.29,1.68,1.68,0,0,0-1.34-.5,2,2,0,0,0-1.06.31,3.45,3.45,0,0,0-.89.78l-.6-.59a5.34,5.34,0,0,1,1.19-1,2.87,2.87,0,0,1,1.49-.37,2.92,2.92,0,0,1,1.4.32,2.3,2.3,0,0,1,.92.91,2.79,2.79,0,0,1,.32,1.36,3.53,3.53,0,0,1-.48,1.72,11.17,11.17,0,0,1-1.33,1.84c-.57.65-1.22,1.36-2,2.14l.75-.05.74,0h2.7v.88Z"/><path class="cls-2" d="M865.83,713.46a.74.74,0,0,1-.54-.23.78.78,0,0,1-.23-.58.82.82,0,0,1,.23-.61.73.73,0,0,1,.54-.22.75.75,0,0,1,.55.22.86.86,0,0,1,.22.61.82.82,0,0,1-.22.58A.76.76,0,0,1,865.83,713.46Z"/><path class="cls-2" d="M871,713.46a2.34,2.34,0,0,1-2.07-1.21,6.59,6.59,0,0,1-.75-3.45,6.39,6.39,0,0,1,.75-3.43,2.41,2.41,0,0,1,4.14,0,6.55,6.55,0,0,1,.74,3.43,6.7,6.7,0,0,1-.74,3.45A2.34,2.34,0,0,1,871,713.46Zm0-.83a1.34,1.34,0,0,0,1-.4,2.75,2.75,0,0,0,.63-1.26,8.73,8.73,0,0,0,.23-2.17,8.56,8.56,0,0,0-.23-2.17,2.64,2.64,0,0,0-.63-1.22,1.37,1.37,0,0,0-1-.39,1.35,1.35,0,0,0-1,.39,2.64,2.64,0,0,0-.63,1.22,8.13,8.13,0,0,0-.23,2.17,8.28,8.28,0,0,0,.23,2.17,2.75,2.75,0,0,0,.63,1.26A1.32,1.32,0,0,0,871,712.63Z"/><path class="cls-2" d="M877.7,713.46a4,4,0,0,1-1.26-.18,3.66,3.66,0,0,1-1-.47,4.26,4.26,0,0,1-.7-.61l.52-.67a4.56,4.56,0,0,0,1,.75,2.7,2.7,0,0,0,1.37.32,2,2,0,0,0,1.38-.47,1.56,1.56,0,0,0,.54-1.25,1.67,1.67,0,0,0-.28-1,1.91,1.91,0,0,0-.93-.66,5.22,5.22,0,0,0-1.71-.23v-.79a4,4,0,0,0,1.53-.24,1.67,1.67,0,0,0,.82-.62,1.56,1.56,0,0,0,.25-.88,1.38,1.38,0,0,0-.43-1.07,1.66,1.66,0,0,0-1.18-.4,2.25,2.25,0,0,0-1.06.26,3.55,3.55,0,0,0-.89.66l-.56-.65a5.22,5.22,0,0,1,1.14-.8,3,3,0,0,1,1.4-.31,3.18,3.18,0,0,1,1.34.27,2.18,2.18,0,0,1,.93.76,2.06,2.06,0,0,1,.35,1.21,2,2,0,0,1-.46,1.35,2.77,2.77,0,0,1-1.2.79v.06a2.87,2.87,0,0,1,1,.42,2.21,2.21,0,0,1,.71.78,2.11,2.11,0,0,1,.27,1.08,2.37,2.37,0,0,1-.39,1.37,2.63,2.63,0,0,1-1.05.87A3.35,3.35,0,0,1,877.7,713.46Z"/><path class="cls-2" d="M884.74,713.46a2.32,2.32,0,0,1-2.06-1.21,6.59,6.59,0,0,1-.75-3.45,6.39,6.39,0,0,1,.75-3.43,2.4,2.4,0,0,1,4.13,0,6.44,6.44,0,0,1,.75,3.43,6.59,6.59,0,0,1-.75,3.45A2.31,2.31,0,0,1,884.74,713.46Zm0-.83a1.31,1.31,0,0,0,1-.4,2.66,2.66,0,0,0,.64-1.26,8.79,8.79,0,0,0,.22-2.17,8.62,8.62,0,0,0-.22-2.17,2.55,2.55,0,0,0-.64-1.22,1.36,1.36,0,0,0-1.91,0,2.74,2.74,0,0,0-.64,1.22,8.56,8.56,0,0,0-.23,2.17,8.73,8.73,0,0,0,.23,2.17,2.85,2.85,0,0,0,.64,1.26A1.3,1.3,0,0,0,884.74,712.63Z"/><path class="cls-2" d="M894.23,713.46a1.63,1.63,0,0,1-1.46-.62,2.84,2.84,0,0,1-.41-1.59v-3.91h-1v-.77l1.06-.07.13-1.92h.85v1.92h1.86v.84h-1.86v3.93a1.86,1.86,0,0,0,.23,1,.93.93,0,0,0,.85.36,1.55,1.55,0,0,0,.4-.06l.38-.12.21.77-.6.17A2.78,2.78,0,0,1,894.23,713.46Z"/><path class="cls-2" d="M899.22,713.46a3,3,0,0,1-1.54-.42,3.12,3.12,0,0,1-1.15-1.21,4.55,4.55,0,0,1,0-3.86,3.08,3.08,0,0,1,1.15-1.22,3,3,0,0,1,1.54-.42,2.94,2.94,0,0,1,1.53.42A3.23,3.23,0,0,1,901.9,708a4.45,4.45,0,0,1,0,3.86,3.27,3.27,0,0,1-1.15,1.21A2.94,2.94,0,0,1,899.22,713.46Zm0-.86a1.82,1.82,0,0,0,1.08-.33,2.13,2.13,0,0,0,.73-.95,4,4,0,0,0,0-2.83,2.16,2.16,0,0,0-.73-1,1.87,1.87,0,0,0-2.15,0,2.16,2.16,0,0,0-.73,1,4,4,0,0,0,0,2.83,2.13,2.13,0,0,0,.73.95A1.81,1.81,0,0,0,899.22,712.6Z"/><path class="cls-2" d="M904.19,713.29V706.5H905l.08,1h0a5.1,5.1,0,0,1,1.05-.84,2.29,2.29,0,0,1,1.24-.34A1.85,1.85,0,0,1,909,707a3.32,3.32,0,0,1,.5,2v4.31h-1V709.1a2.48,2.48,0,0,0-.32-1.42,1.16,1.16,0,0,0-1-.45,1.76,1.76,0,0,0-1,.27,5.8,5.8,0,0,0-1,.82v5Z"/><path class="cls-2" d="M914.48,713.46a3.12,3.12,0,0,1-1.62-.43,3.06,3.06,0,0,1-1.17-1.22,3.88,3.88,0,0,1-.43-1.91,3.92,3.92,0,0,1,.43-1.9,3.29,3.29,0,0,1,1.13-1.23,2.72,2.72,0,0,1,1.48-.44,2.58,2.58,0,0,1,1.44.39,2.55,2.55,0,0,1,.92,1.1,4.15,4.15,0,0,1,.31,1.69c0,.11,0,.22,0,.33a1.29,1.29,0,0,1,0,.29h-4.87l0-.75h4a2.58,2.58,0,0,0-.46-1.66,1.6,1.6,0,0,0-1.29-.56,1.89,1.89,0,0,0-1,.29,2.17,2.17,0,0,0-.78.9,3.34,3.34,0,0,0-.31,1.55,3.1,3.1,0,0,0,.32,1.51,2.11,2.11,0,0,0,.86.91,2.29,2.29,0,0,0,1.18.31,2.77,2.77,0,0,0,.94-.15,4.45,4.45,0,0,0,.79-.39l.37.67a5.18,5.18,0,0,1-1,.49A3.45,3.45,0,0,1,914.48,713.46Z"/><path class="cls-2" d="M919.78,713.46a1.23,1.23,0,0,1-.63-.16.93.93,0,0,1-.36-.48,2.22,2.22,0,0,1-.11-.78v-8.75h1v8.84a.56.56,0,0,0,.09.36.28.28,0,0,0,.23.11h.1l.15,0,.14.78-.26.06A1.28,1.28,0,0,1,919.78,713.46Z"/><path class="cls-2" d="M923.72,713.46a2.21,2.21,0,0,1-1-.23,1.65,1.65,0,0,1-.71-.65,2,2,0,0,1,.74-2.74A8.45,8.45,0,0,1,926,709a3.24,3.24,0,0,0-.12-.89,1.3,1.3,0,0,0-.44-.67,1.34,1.34,0,0,0-.9-.26,2.87,2.87,0,0,0-1.14.23,6.55,6.55,0,0,0-.92.51l-.4-.7a6.87,6.87,0,0,1,.7-.41,5.5,5.5,0,0,1,.89-.35,4,4,0,0,1,1-.14,2.32,2.32,0,0,1,1.33.35,2,2,0,0,1,.73,1,4,4,0,0,1,.24,1.44v4.2h-.84l-.09-.83h0a5.72,5.72,0,0,1-1.06.7A2.62,2.62,0,0,1,923.72,713.46Zm.26-.83a2.07,2.07,0,0,0,1-.24,6.25,6.25,0,0,0,1-.71v-2a9.16,9.16,0,0,0-1.91.39,2.34,2.34,0,0,0-1,.59,1.19,1.19,0,0,0-.31.81,1,1,0,0,0,.37.88A1.45,1.45,0,0,0,924,712.63Z"/><path class="cls-2" d="M931.47,713.46a2.49,2.49,0,0,1-2-.93,4.8,4.8,0,0,1-.34-4.52,3.3,3.3,0,0,1,1.09-1.24,2.6,2.6,0,0,1,1.45-.44,2.38,2.38,0,0,1,1,.21,4.42,4.42,0,0,1,.89.59l0-1.18v-2.66h1v10h-.84l-.08-.83h0a3.66,3.66,0,0,1-.93.7A2.37,2.37,0,0,1,931.47,713.46Zm.23-.87a1.83,1.83,0,0,0,.93-.25,3.55,3.55,0,0,0,.9-.72v-3.68a3.11,3.11,0,0,0-.88-.57,2.35,2.35,0,0,0-.86-.17,1.71,1.71,0,0,0-1,.34,2.34,2.34,0,0,0-.74,1,3.93,3.93,0,0,0,.24,3.37A1.67,1.67,0,0,0,931.7,712.59Z"/><path class="cls-2" d="M938.46,713.46a2.24,2.24,0,0,1-1-.23,1.65,1.65,0,0,1-.71-.65,1.89,1.89,0,0,1-.27-1,1.87,1.87,0,0,1,1-1.7,8.33,8.33,0,0,1,3.21-.83,3.24,3.24,0,0,0-.12-.89,1.28,1.28,0,0,0-.43-.67,1.37,1.37,0,0,0-.91-.26,2.87,2.87,0,0,0-1.14.23,5.9,5.9,0,0,0-.91.51l-.41-.7c.2-.13.43-.27.7-.41a5.27,5.27,0,0,1,.9-.35,3.82,3.82,0,0,1,1-.14,2.3,2.3,0,0,1,1.33.35,2.06,2.06,0,0,1,.74,1,4.18,4.18,0,0,1,.23,1.44v4.2h-.84l-.09-.83h0a5.72,5.72,0,0,1-1.06.7A2.62,2.62,0,0,1,938.46,713.46Zm.27-.83a2.06,2.06,0,0,0,1-.24,5.83,5.83,0,0,0,1-.71v-2a9.3,9.3,0,0,0-1.91.39,2.34,2.34,0,0,0-1,.59,1.19,1.19,0,0,0-.31.81,1,1,0,0,0,.37.88A1.46,1.46,0,0,0,938.73,712.63Z"/><path class="cls-2" d="M945.67,713.46a3.45,3.45,0,0,1-1.39-.28,4.42,4.42,0,0,1-1.13-.66l.52-.69a5.11,5.11,0,0,0,.92.59,2.46,2.46,0,0,0,1.12.24,1.43,1.43,0,0,0,1-.34,1.07,1.07,0,0,0,.35-.79.82.82,0,0,0-.24-.61,1.9,1.9,0,0,0-.6-.42c-.24-.12-.49-.22-.74-.32a8.7,8.7,0,0,1-.95-.4,2.42,2.42,0,0,1-.79-.61,1.36,1.36,0,0,1-.32-.93,1.75,1.75,0,0,1,.61-1.36,2.48,2.48,0,0,1,1.7-.55,3,3,0,0,1,1.15.23,3.63,3.63,0,0,1,.91.53l-.49.66a4.42,4.42,0,0,0-.72-.43,1.93,1.93,0,0,0-.85-.18,1.35,1.35,0,0,0-1,.32,1,1,0,0,0-.33.72.76.76,0,0,0,.22.55,1.81,1.81,0,0,0,.57.37c.23.11.48.21.74.31a8.65,8.65,0,0,1,1,.42,2.31,2.31,0,0,1,.8.6,1.54,1.54,0,0,1,.32,1,1.91,1.91,0,0,1-.27,1,2,2,0,0,1-.83.72A2.87,2.87,0,0,1,945.67,713.46Z"/><path class="cls-2" d="M635.87,686v-1.16h2v-6.16h-1.63v-.9a7.86,7.86,0,0,0,1.12-.29,5,5,0,0,0,.87-.41h1.06v7.76h1.79V686Z"/><path class="cls-2" d="M644.69,686.15a2.9,2.9,0,0,1-1.33-.29,3.57,3.57,0,0,1-1-.69l.77-.87a1.92,1.92,0,0,0,1.44.69,1.83,1.83,0,0,0,1.1-.36,2.4,2.4,0,0,0,.81-1.17,6.72,6.72,0,0,0,.3-2.24,6.24,6.24,0,0,0-.22-1.82,2.2,2.2,0,0,0-.64-1.06,1.48,1.48,0,0,0-1-.35,1.23,1.23,0,0,0-.73.22,1.4,1.4,0,0,0-.51.61,2.21,2.21,0,0,0-.19,1,2.39,2.39,0,0,0,.17.94,1.32,1.32,0,0,0,.51.58,1.55,1.55,0,0,0,.83.21,1.78,1.78,0,0,0,.88-.27,2.57,2.57,0,0,0,.88-.91l.06,1a2.94,2.94,0,0,1-1,.85,2.19,2.19,0,0,1-1.1.32,2.8,2.8,0,0,1-1.35-.31,2.08,2.08,0,0,1-.9-.91,3.22,3.22,0,0,1-.33-1.54,3.15,3.15,0,0,1,.37-1.53,2.69,2.69,0,0,1,1-1,2.75,2.75,0,0,1,1.36-.35,2.83,2.83,0,0,1,1.23.26,2.63,2.63,0,0,1,1,.79,4.06,4.06,0,0,1,.67,1.35,6.51,6.51,0,0,1,.26,1.92,7.86,7.86,0,0,1-.29,2.26,4.42,4.42,0,0,1-.77,1.52,3.07,3.07,0,0,1-1.11.87A3,3,0,0,1,644.69,686.15Z"/><path class="cls-2" d="M652.61,686.15a2.84,2.84,0,0,1-1.23-.27,2.7,2.7,0,0,1-1-.79,4.07,4.07,0,0,1-.68-1.35,6.43,6.43,0,0,1-.25-1.92,7.5,7.5,0,0,1,.29-2.25,4.39,4.39,0,0,1,.77-1.53,3,3,0,0,1,1.09-.86,3.12,3.12,0,0,1,1.31-.28,2.93,2.93,0,0,1,1.33.28,3.21,3.21,0,0,1,1,.7l-.77.86a2.1,2.1,0,0,0-.65-.49,1.73,1.73,0,0,0-.79-.19,1.89,1.89,0,0,0-1.11.36,2.4,2.4,0,0,0-.8,1.17,6.66,6.66,0,0,0-.31,2.23,6.11,6.11,0,0,0,.23,1.82,2.19,2.19,0,0,0,.64,1.07,1.46,1.46,0,0,0,1,.35,1.25,1.25,0,0,0,.72-.22,1.46,1.46,0,0,0,.52-.62,2.36,2.36,0,0,0,.19-1,2.2,2.2,0,0,0-.18-.93,1.28,1.28,0,0,0-.51-.59,1.62,1.62,0,0,0-.83-.2,1.81,1.81,0,0,0-.88.27,2.57,2.57,0,0,0-.88.91l0-1a3.06,3.06,0,0,1,1-.86,2.26,2.26,0,0,1,1.1-.32,2.92,2.92,0,0,1,1.35.31,2.16,2.16,0,0,1,.9.92,3.21,3.21,0,0,1,.32,1.53,2.9,2.9,0,0,1-.38,1.53,2.82,2.82,0,0,1-1,1A2.63,2.63,0,0,1,652.61,686.15Z"/><path class="cls-2" d="M658.3,686a19.74,19.74,0,0,1,.34-2.91,11,11,0,0,1,.78-2.44,13.77,13.77,0,0,1,1.4-2.36H656.5v-1.21h5.88v.87a11.9,11.9,0,0,0-1.28,1.89,9.82,9.82,0,0,0-.77,1.82,13.08,13.08,0,0,0-.4,2c-.09.7-.15,1.49-.19,2.36Z"/><path class="cls-2" d="M613.92,713.46a4,4,0,0,1-1.26-.18,3.51,3.51,0,0,1-.95-.47,4.26,4.26,0,0,1-.7-.61l.52-.67a4.76,4.76,0,0,0,1,.75,2.76,2.76,0,0,0,1.38.32,2,2,0,0,0,1.38-.47,1.56,1.56,0,0,0,.54-1.25,1.6,1.6,0,0,0-.29-1,1.83,1.83,0,0,0-.92-.66,5.26,5.26,0,0,0-1.71-.23v-.79a4,4,0,0,0,1.53-.24,1.67,1.67,0,0,0,.82-.62,1.56,1.56,0,0,0,.25-.88,1.42,1.42,0,0,0-.43-1.07,1.67,1.67,0,0,0-1.18-.4,2.25,2.25,0,0,0-1.06.26,3.38,3.38,0,0,0-.89.66l-.56-.65a5.22,5.22,0,0,1,1.14-.8,3,3,0,0,1,1.4-.31,3.18,3.18,0,0,1,1.34.27,2.18,2.18,0,0,1,.93.76,2.06,2.06,0,0,1,.35,1.21,2,2,0,0,1-.46,1.35,2.77,2.77,0,0,1-1.2.79v.06a2.87,2.87,0,0,1,1,.42,2.31,2.31,0,0,1,.71.78,2.11,2.11,0,0,1,.27,1.08,2.31,2.31,0,0,1-.4,1.37,2.6,2.6,0,0,1-1,.87A3.35,3.35,0,0,1,613.92,713.46Z"/><path class="cls-2" d="M621,713.46a2.32,2.32,0,0,1-2.06-1.21,6.59,6.59,0,0,1-.75-3.45,6.39,6.39,0,0,1,.75-3.43,2.4,2.4,0,0,1,4.13,0,6.45,6.45,0,0,1,.74,3.43,6.6,6.6,0,0,1-.74,3.45A2.31,2.31,0,0,1,621,713.46Zm0-.83a1.32,1.32,0,0,0,1-.4,2.66,2.66,0,0,0,.64-1.26,8.79,8.79,0,0,0,.22-2.17,8.62,8.62,0,0,0-.22-2.17,2.55,2.55,0,0,0-.64-1.22,1.35,1.35,0,0,0-1-.39,1.33,1.33,0,0,0-1,.39,2.74,2.74,0,0,0-.64,1.22,8.56,8.56,0,0,0-.23,2.17,8.73,8.73,0,0,0,.23,2.17,2.85,2.85,0,0,0,.64,1.26A1.3,1.3,0,0,0,621,712.63Z"/><path class="cls-2" d="M627.88,713.46a3.43,3.43,0,0,1-1.49-.32,2.52,2.52,0,0,1-1-.87A2.17,2.17,0,0,1,625,711a2.14,2.14,0,0,1,.25-1,2.83,2.83,0,0,1,.65-.81,3.91,3.91,0,0,1,.81-.58v-.05a4.21,4.21,0,0,1-.88-.86,1.89,1.89,0,0,1-.38-1.2,2.16,2.16,0,0,1,1.21-2,2.77,2.77,0,0,1,1.26-.28,2.49,2.49,0,0,1,1.85.67,2.31,2.31,0,0,1,.66,1.7,2.1,2.1,0,0,1-.2.89,3.8,3.8,0,0,1-.49.74,3.58,3.58,0,0,1-.56.55v.06a5.05,5.05,0,0,1,.75.53,2.56,2.56,0,0,1,.58.73,2.19,2.19,0,0,1,.23,1,2.14,2.14,0,0,1-.35,1.2,2.6,2.6,0,0,1-1,.86A3.38,3.38,0,0,1,627.88,713.46Zm0-.77a2.06,2.06,0,0,0,1-.21,1.67,1.67,0,0,0,.65-.58,1.6,1.6,0,0,0,.23-.84,1.41,1.41,0,0,0-.35-1,2.79,2.79,0,0,0-.92-.64c-.38-.18-.79-.36-1.24-.54a3.92,3.92,0,0,0-.94.87,1.87,1.87,0,0,0-.39,1.16,1.67,1.67,0,0,0,.26.91,1.85,1.85,0,0,0,.72.63A2.25,2.25,0,0,0,627.9,712.69Zm.61-4.22a3.78,3.78,0,0,0,.75-.89,2,2,0,0,0,.25-1,1.86,1.86,0,0,0-.18-.82,1.54,1.54,0,0,0-.56-.6,1.71,1.71,0,0,0-.88-.22,1.49,1.49,0,0,0-1.08.41,1.44,1.44,0,0,0-.43,1.09,1.39,1.39,0,0,0,.3.92,2.37,2.37,0,0,0,.79.62A9.92,9.92,0,0,0,628.51,708.47Z"/><path class="cls-2" d="M637.34,713.46a1.62,1.62,0,0,1-1.46-.62,2.76,2.76,0,0,1-.42-1.59v-3.91h-1v-.77l1.07-.07.12-1.92h.86v1.92h1.86v.84h-1.86v3.93a1.77,1.77,0,0,0,.23,1,.91.91,0,0,0,.84.36,1.44,1.44,0,0,0,.4-.06l.39-.12.21.77-.6.17A2.78,2.78,0,0,1,637.34,713.46Z"/><path class="cls-2" d="M642.32,713.46a3,3,0,0,1-1.54-.42,3.17,3.17,0,0,1-1.14-1.21,4.45,4.45,0,0,1,0-3.86,3.13,3.13,0,0,1,1.14-1.22,3,3,0,0,1,1.54-.42,3,3,0,0,1,1.54.42A3.13,3.13,0,0,1,645,708a4.36,4.36,0,0,1,0,3.86,3.17,3.17,0,0,1-1.14,1.21A3,3,0,0,1,642.32,713.46Zm0-.86a1.85,1.85,0,0,0,1.09-.33,2.29,2.29,0,0,0,.73-.95,4,4,0,0,0,0-2.83,2.32,2.32,0,0,0-.73-1,1.89,1.89,0,0,0-2.16,0,2.22,2.22,0,0,0-.72,1,4,4,0,0,0,0,2.83,2.19,2.19,0,0,0,.72.95A1.83,1.83,0,0,0,642.32,712.6Z"/><path class="cls-2" d="M647.29,713.29V706.5h.84l.09,1h0a5,5,0,0,1,1-.84,2.29,2.29,0,0,1,1.24-.34,1.86,1.86,0,0,1,1.58.67,3.33,3.33,0,0,1,.49,2v4.31h-1V709.1a2.49,2.49,0,0,0-.31-1.42,1.18,1.18,0,0,0-1-.45,1.79,1.79,0,0,0-1,.27,6.23,6.23,0,0,0-1,.82v5Z"/><path class="cls-2" d="M657.58,713.46A3.11,3.11,0,0,1,656,713a3.06,3.06,0,0,1-1.17-1.22,3.88,3.88,0,0,1-.44-1.91,3.92,3.92,0,0,1,.44-1.9,3.21,3.21,0,0,1,1.13-1.23,2.72,2.72,0,0,1,1.47-.44,2.58,2.58,0,0,1,1.44.39,2.49,2.49,0,0,1,.92,1.1,4.14,4.14,0,0,1,.32,1.69c0,.11,0,.22,0,.33a2.26,2.26,0,0,1,0,.29h-4.87v-.75h4a2.58,2.58,0,0,0-.47-1.66,1.56,1.56,0,0,0-1.28-.56,1.86,1.86,0,0,0-1,.29,2.26,2.26,0,0,0-.79.9,3.47,3.47,0,0,0-.31,1.55,3.1,3.1,0,0,0,.33,1.51,2.11,2.11,0,0,0,.86.91,2.29,2.29,0,0,0,1.18.31,2.67,2.67,0,0,0,.93-.15,3.87,3.87,0,0,0,.79-.39l.38.67a5.18,5.18,0,0,1-1,.49A3.47,3.47,0,0,1,657.58,713.46Z"/><path class="cls-2" d="M662.89,713.46a1.23,1.23,0,0,1-.63-.16.88.88,0,0,1-.36-.48,2.21,2.21,0,0,1-.12-.78v-8.75h1v8.84a.5.5,0,0,0,.1.36.28.28,0,0,0,.22.11h.1l.16,0,.14.78-.26.06A1.28,1.28,0,0,1,662.89,713.46Z"/><path class="cls-2" d="M666.82,713.46a2.17,2.17,0,0,1-1-.23,1.74,1.74,0,0,1-.72-.65,1.89,1.89,0,0,1-.26-1,1.86,1.86,0,0,1,1-1.7,8.44,8.44,0,0,1,3.21-.83,3.68,3.68,0,0,0-.11-.89,1.3,1.3,0,0,0-.44-.67,1.34,1.34,0,0,0-.9-.26,2.87,2.87,0,0,0-1.14.23,6,6,0,0,0-.92.51l-.41-.7c.2-.13.43-.27.7-.41a5.27,5.27,0,0,1,.9-.35,3.9,3.9,0,0,1,1-.14,2.32,2.32,0,0,1,1.33.35,2,2,0,0,1,.73,1,4,4,0,0,1,.23,1.44v4.2h-.84l-.08-.83h0a5.8,5.8,0,0,1-1.07.7A2.59,2.59,0,0,1,666.82,713.46Zm.27-.83a2.13,2.13,0,0,0,1-.24,5.79,5.79,0,0,0,1-.71v-2a9.19,9.19,0,0,0-1.9.39,2.38,2.38,0,0,0-1,.59,1.24,1.24,0,0,0-.31.81,1,1,0,0,0,.37.88A1.46,1.46,0,0,0,667.09,712.63Z"/><path class="cls-2" d="M674.58,713.46a2.47,2.47,0,0,1-2-.93,4.1,4.1,0,0,1-.76-2.63,4,4,0,0,1,.42-1.89,3.19,3.19,0,0,1,1.08-1.24,2.63,2.63,0,0,1,1.46-.44,2.34,2.34,0,0,1,1,.21,4.77,4.77,0,0,1,.9.59l0-1.18v-2.66h1v10h-.84l-.09-.83h0a3.66,3.66,0,0,1-.93.7A2.37,2.37,0,0,1,674.58,713.46Zm.22-.87a1.87,1.87,0,0,0,.94-.25,3.55,3.55,0,0,0,.9-.72v-3.68a3.11,3.11,0,0,0-.88-.57,2.35,2.35,0,0,0-.86-.17,1.71,1.71,0,0,0-1,.34,2.34,2.34,0,0,0-.74,1,3.24,3.24,0,0,0-.28,1.4,3.36,3.36,0,0,0,.51,2A1.69,1.69,0,0,0,674.8,712.59Z"/><path class="cls-2" d="M681.57,713.46a2.21,2.21,0,0,1-1-.23,1.74,1.74,0,0,1-.72-.65,2,2,0,0,1-.26-1,1.88,1.88,0,0,1,1-1.7,8.45,8.45,0,0,1,3.22-.83,3.24,3.24,0,0,0-.12-.89,1.3,1.3,0,0,0-.44-.67,1.34,1.34,0,0,0-.9-.26,2.87,2.87,0,0,0-1.14.23,6,6,0,0,0-.92.51l-.4-.7a5.92,5.92,0,0,1,.7-.41,5.5,5.5,0,0,1,.89-.35,3.9,3.9,0,0,1,1-.14,2.32,2.32,0,0,1,1.33.35,2,2,0,0,1,.73,1,4,4,0,0,1,.23,1.44v4.2H684l-.08-.83h0a5.48,5.48,0,0,1-1.07.7A2.55,2.55,0,0,1,681.57,713.46Zm.26-.83a2.07,2.07,0,0,0,1-.24,6.25,6.25,0,0,0,1-.71v-2a9.16,9.16,0,0,0-1.91.39,2.38,2.38,0,0,0-1,.59,1.23,1.23,0,0,0-.3.81,1,1,0,0,0,.37.88A1.43,1.43,0,0,0,681.83,712.63Z"/><path class="cls-2" d="M688.78,713.46a3.45,3.45,0,0,1-1.39-.28,4.49,4.49,0,0,1-1.14-.66l.52-.69a5.18,5.18,0,0,0,.93.59,2.44,2.44,0,0,0,1.12.24,1.46,1.46,0,0,0,1-.34,1.07,1.07,0,0,0,.35-.79.82.82,0,0,0-.24-.61,1.9,1.9,0,0,0-.6-.42c-.25-.12-.49-.22-.74-.32a9.77,9.77,0,0,1-1-.4,2.53,2.53,0,0,1-.79-.61,1.36,1.36,0,0,1-.31-.93,1.75,1.75,0,0,1,.61-1.36,2.46,2.46,0,0,1,1.7-.55,3,3,0,0,1,1.15.23,3.82,3.82,0,0,1,.91.53l-.49.66a5,5,0,0,0-.73-.43,1.89,1.89,0,0,0-.84-.18,1.4,1.4,0,0,0-1,.32,1,1,0,0,0-.32.72.72.72,0,0,0,.22.55,1.61,1.61,0,0,0,.57.37c.23.11.48.21.74.31a9.32,9.32,0,0,1,1,.42,2.35,2.35,0,0,1,.81.6,1.6,1.6,0,0,1,.32,1,1.83,1.83,0,0,1-.28,1,2,2,0,0,1-.82.72A2.87,2.87,0,0,1,688.78,713.46Z"/><path class="cls-2" d="M192.81,686.2V685h2v-6.16h-1.64V678a7.86,7.86,0,0,0,1.12-.29,4.36,4.36,0,0,0,.87-.41h1.06V685H198v1.16Z"/><path class="cls-2" d="M201.63,686.37a2.93,2.93,0,0,1-1.33-.29,3.57,3.57,0,0,1-1-.69l.77-.87a1.94,1.94,0,0,0,.65.5,1.83,1.83,0,0,0,1.9-.17,2.37,2.37,0,0,0,.8-1.18,6.38,6.38,0,0,0,.31-2.23,6.16,6.16,0,0,0-.23-1.82,2.15,2.15,0,0,0-.64-1.06,1.41,1.41,0,0,0-1-.35,1.32,1.32,0,0,0-.73.21,1.58,1.58,0,0,0-.51.62,2.33,2.33,0,0,0-.19,1,2.14,2.14,0,0,0,.18.93,1.29,1.29,0,0,0,.51.59,1.53,1.53,0,0,0,.83.2,1.9,1.9,0,0,0,.88-.26,2.65,2.65,0,0,0,.88-.91l.06,1a3.18,3.18,0,0,1-1,.86,2.3,2.3,0,0,1-1.11.32,2.8,2.8,0,0,1-1.35-.31,2.11,2.11,0,0,1-.9-.92,3.16,3.16,0,0,1-.32-1.53,3,3,0,0,1,.37-1.53,2.67,2.67,0,0,1,1-1,2.7,2.7,0,0,1,1.37-.36,3,3,0,0,1,1.23.26,2.63,2.63,0,0,1,1,.8,4.07,4.07,0,0,1,.68,1.35,6.43,6.43,0,0,1,.25,1.92,7.41,7.41,0,0,1-.29,2.25,4.22,4.22,0,0,1-.77,1.53,3.12,3.12,0,0,1-1.1.87A3.27,3.27,0,0,1,201.63,686.37Z"/><path class="cls-2" d="M209.56,686.37a2.84,2.84,0,0,1-1.23-.27,2.76,2.76,0,0,1-1-.8,3.91,3.91,0,0,1-.67-1.34,6.41,6.41,0,0,1-.26-1.92,7.73,7.73,0,0,1,.29-2.25,4.39,4.39,0,0,1,.77-1.53,3.12,3.12,0,0,1,1.1-.87,3.2,3.2,0,0,1,1.3-.28,3,3,0,0,1,1.33.28,3.39,3.39,0,0,1,.95.7l-.77.87a2.05,2.05,0,0,0-.65-.5,1.87,1.87,0,0,0-1.89.17,2.38,2.38,0,0,0-.81,1.18,6.66,6.66,0,0,0-.3,2.23,6.19,6.19,0,0,0,.22,1.82,2.15,2.15,0,0,0,.64,1.06,1.44,1.44,0,0,0,1,.36,1.33,1.33,0,0,0,.72-.22,1.45,1.45,0,0,0,.52-.62,2.24,2.24,0,0,0,.19-1,2.34,2.34,0,0,0-.17-.93,1.34,1.34,0,0,0-.51-.59,1.64,1.64,0,0,0-.83-.2,1.87,1.87,0,0,0-.88.26,2.57,2.57,0,0,0-.88.91l-.06-1a2.94,2.94,0,0,1,1-.86,2.29,2.29,0,0,1,1.1-.32,2.77,2.77,0,0,1,1.35.31,2.13,2.13,0,0,1,.91.92,3.28,3.28,0,0,1,.32,1.53,3,3,0,0,1-.38,1.53,2.79,2.79,0,0,1-1,1A2.6,2.6,0,0,1,209.56,686.37Z"/><path class="cls-2" d="M215.24,686.2a21.19,21.19,0,0,1,.34-2.91,11.7,11.7,0,0,1,.79-2.45,13.61,13.61,0,0,1,1.39-2.35h-4.31v-1.21h5.88v.87A12.68,12.68,0,0,0,218,680a9,9,0,0,0-.76,1.83,12.94,12.94,0,0,0-.41,2c-.09.7-.15,1.49-.19,2.37Z"/><path class="cls-2" d="M163.56,714.46a4.32,4.32,0,0,1-1.26-.17,3.58,3.58,0,0,1-.94-.46,5.18,5.18,0,0,1-.7-.59l.52-.67a4.93,4.93,0,0,0,.94.71,2.55,2.55,0,0,0,1.35.33,2,2,0,0,0,1-.27,1.92,1.92,0,0,0,.73-.74,2.24,2.24,0,0,0,.27-1.12A2.07,2.07,0,0,0,165,710a1.92,1.92,0,0,0-1.43-.54,2.23,2.23,0,0,0-.82.14,4.76,4.76,0,0,0-.75.41l-.56-.35.29-4.27h4.39v.88h-3.49l-.25,2.79a3.88,3.88,0,0,1,.67-.29,2.54,2.54,0,0,1,.76-.1,3.18,3.18,0,0,1,1.39.3,2.29,2.29,0,0,1,1,.91,3,3,0,0,1,.37,1.59,3.05,3.05,0,0,1-.42,1.64,2.72,2.72,0,0,1-1.1,1A3.12,3.12,0,0,1,163.56,714.46Z"/><path class="cls-2" d="M168.89,714.46a.77.77,0,0,1-.54-.22.88.88,0,0,1,0-1.19.74.74,0,0,1,.54-.23.76.76,0,0,1,.55.23.91.91,0,0,1,0,1.19A.8.8,0,0,1,168.89,714.46Z"/><path class="cls-2" d="M174,714.46a2.32,2.32,0,0,1-2.07-1.21,6.59,6.59,0,0,1-.75-3.45,6.39,6.39,0,0,1,.75-3.43,2.4,2.4,0,0,1,4.14,0,6.48,6.48,0,0,1,.74,3.42,6.7,6.7,0,0,1-.74,3.45A2.32,2.32,0,0,1,174,714.46Zm0-.83a1.34,1.34,0,0,0,1-.4,2.75,2.75,0,0,0,.63-1.26,8.68,8.68,0,0,0,.23-2.17,8.56,8.56,0,0,0-.23-2.17,2.64,2.64,0,0,0-.63-1.22,1.37,1.37,0,0,0-1-.39,1.31,1.31,0,0,0-.95.39,2.55,2.55,0,0,0-.64,1.22,8.13,8.13,0,0,0-.23,2.17,8.23,8.23,0,0,0,.23,2.17,2.66,2.66,0,0,0,.64,1.26A1.29,1.29,0,0,0,174,713.63Z"/><path class="cls-2" d="M180.91,714.46a2.31,2.31,0,0,1-2.06-1.21,6.59,6.59,0,0,1-.75-3.45,6.39,6.39,0,0,1,.75-3.43,2.4,2.4,0,0,1,4.14,0,6.48,6.48,0,0,1,.74,3.42,6.7,6.7,0,0,1-.74,3.45A2.32,2.32,0,0,1,180.91,714.46Zm0-.83a1.31,1.31,0,0,0,1-.4,2.66,2.66,0,0,0,.64-1.26,8.73,8.73,0,0,0,.22-2.17,8.62,8.62,0,0,0-.22-2.17,2.55,2.55,0,0,0-.64-1.22,1.36,1.36,0,0,0-1.91,0,2.64,2.64,0,0,0-.63,1.22,8.08,8.08,0,0,0-.24,2.17,8.18,8.18,0,0,0,.24,2.17,2.75,2.75,0,0,0,.63,1.26A1.3,1.3,0,0,0,180.91,713.63Z"/><path class="cls-2" d="M187.8,714.46a2.3,2.3,0,0,1-2.06-1.21,6.59,6.59,0,0,1-.75-3.45,6.39,6.39,0,0,1,.75-3.43,2.39,2.39,0,0,1,4.13,0,6.38,6.38,0,0,1,.75,3.42,6.59,6.59,0,0,1-.75,3.45A2.29,2.29,0,0,1,187.8,714.46Zm0-.83a1.31,1.31,0,0,0,1-.4,2.66,2.66,0,0,0,.64-1.26,8.73,8.73,0,0,0,.22-2.17,8.62,8.62,0,0,0-.22-2.17,2.55,2.55,0,0,0-.64-1.22,1.36,1.36,0,0,0-1.91,0,2.74,2.74,0,0,0-.64,1.22,8.56,8.56,0,0,0-.23,2.17,8.68,8.68,0,0,0,.23,2.17,2.85,2.85,0,0,0,.64,1.26A1.3,1.3,0,0,0,187.8,713.63Z"/><path class="cls-2" d="M197.29,714.46a1.63,1.63,0,0,1-1.46-.62,2.84,2.84,0,0,1-.41-1.59v-3.91h-1v-.77l1.06-.07.13-1.92h.85v1.92h1.86v.84h-1.86v3.94a1.8,1.8,0,0,0,.23,1,.93.93,0,0,0,.85.36,1.55,1.55,0,0,0,.4-.06,2.85,2.85,0,0,0,.38-.12l.21.77-.6.17A2.7,2.7,0,0,1,197.29,714.46Z"/><path class="cls-2" d="M202.28,714.46a3,3,0,0,1-1.54-.42,3.05,3.05,0,0,1-1.15-1.21,4.55,4.55,0,0,1,0-3.86,3.08,3.08,0,0,1,1.15-1.22,3,3,0,0,1,1.54-.42,2.94,2.94,0,0,1,1.53.42A3.15,3.15,0,0,1,205,709a4.45,4.45,0,0,1,0,3.86,3.12,3.12,0,0,1-1.15,1.21A2.94,2.94,0,0,1,202.28,714.46Zm0-.85a1.83,1.83,0,0,0,1.08-.34,2.1,2.1,0,0,0,.73-.94,4,4,0,0,0,0-2.84,2.16,2.16,0,0,0-.73-1,1.87,1.87,0,0,0-2.15,0,2.16,2.16,0,0,0-.73,1,4,4,0,0,0,0,2.84,2.1,2.1,0,0,0,.73.94A1.82,1.82,0,0,0,202.28,713.61Z"/><path class="cls-2" d="M207.25,714.29V707.5h.84l.08,1h0a5.1,5.1,0,0,1,1-.84,2.38,2.38,0,0,1,1.24-.34,1.83,1.83,0,0,1,1.57.68,3.27,3.27,0,0,1,.5,2v4.31h-1v-4.18a2.52,2.52,0,0,0-.32-1.43,1.16,1.16,0,0,0-1-.45,1.78,1.78,0,0,0-1,.27,5.8,5.8,0,0,0-1,.82v5Z"/><path class="cls-2" d="M217.54,714.46a3.13,3.13,0,0,1-2.79-1.64,4.46,4.46,0,0,1,0-3.82,3.29,3.29,0,0,1,1.13-1.23,2.72,2.72,0,0,1,1.48-.44,2.51,2.51,0,0,1,1.44.4,2.44,2.44,0,0,1,.92,1.1,4.1,4.1,0,0,1,.31,1.68c0,.11,0,.22,0,.33a1.29,1.29,0,0,1,0,.29h-4.87l0-.74h4a2.57,2.57,0,0,0-.46-1.66,1.57,1.57,0,0,0-1.29-.57,1.89,1.89,0,0,0-1,.29,2.17,2.17,0,0,0-.78.9,3.34,3.34,0,0,0-.31,1.55,3.29,3.29,0,0,0,.32,1.52,2.23,2.23,0,0,0,.86.91,2.38,2.38,0,0,0,1.18.3,2.77,2.77,0,0,0,.94-.15,4.45,4.45,0,0,0,.79-.39l.37.67a5.18,5.18,0,0,1-1,.49A3.45,3.45,0,0,1,217.54,714.46Z"/><path class="cls-2" d="M222.84,714.46a1.14,1.14,0,0,1-.63-.16.93.93,0,0,1-.36-.48,2.2,2.2,0,0,1-.11-.77V704.3h1v8.83a.56.56,0,0,0,.09.36.29.29,0,0,0,.23.12h.1l.15,0,.14.78-.26.06A1.28,1.28,0,0,1,222.84,714.46Z"/><path class="cls-2" d="M226.78,714.46a2.34,2.34,0,0,1-1-.22,1.68,1.68,0,0,1-.71-.66,2,2,0,0,1,.74-2.74A8.45,8.45,0,0,1,229,710a3.17,3.17,0,0,0-.12-.88,1.33,1.33,0,0,0-.44-.68,1.34,1.34,0,0,0-.9-.26,2.71,2.71,0,0,0-1.14.24,5.66,5.66,0,0,0-.92.5l-.4-.7a6.87,6.87,0,0,1,.7-.41,5.5,5.5,0,0,1,.89-.35,4,4,0,0,1,1-.14,2.32,2.32,0,0,1,1.33.35,2,2,0,0,1,.73,1,4,4,0,0,1,.24,1.44v4.2h-.84l-.09-.82h0a6.27,6.27,0,0,1-1.06.7A2.74,2.74,0,0,1,226.78,714.46Zm.26-.83a2.07,2.07,0,0,0,1-.24,5.67,5.67,0,0,0,1-.71v-2a9.86,9.86,0,0,0-1.91.39,2.34,2.34,0,0,0-1,.59,1.2,1.2,0,0,0-.31.82,1,1,0,0,0,.37.87A1.45,1.45,0,0,0,227,713.63Z"/><path class="cls-2" d="M234.53,714.46a2.49,2.49,0,0,1-2-.93,4.1,4.1,0,0,1-.75-2.63,4.18,4.18,0,0,1,.41-1.89,3.19,3.19,0,0,1,1.09-1.23,2.53,2.53,0,0,1,1.45-.45,2.38,2.38,0,0,1,1,.21,4.42,4.42,0,0,1,.89.59l0-1.17V704.3h1v10h-.84l-.08-.82h-.05a3.91,3.91,0,0,1-.93.7A2.47,2.47,0,0,1,234.53,714.46Zm.23-.87a2,2,0,0,0,.94-.24,4.26,4.26,0,0,0,.89-.72v-3.69a3.11,3.11,0,0,0-.88-.57,2.34,2.34,0,0,0-.85-.17,1.8,1.8,0,0,0-1.05.34,2.34,2.34,0,0,0-.74,1,3.93,3.93,0,0,0,.24,3.37A1.67,1.67,0,0,0,234.76,713.59Z"/><path class="cls-2" d="M241.52,714.46a2.37,2.37,0,0,1-1-.22,1.68,1.68,0,0,1-.71-.66,1.89,1.89,0,0,1-.27-1,1.87,1.87,0,0,1,1-1.7,8.33,8.33,0,0,1,3.21-.83,3.17,3.17,0,0,0-.12-.88,1.31,1.31,0,0,0-.43-.68,1.35,1.35,0,0,0-.91-.26,2.71,2.71,0,0,0-1.14.24,5.16,5.16,0,0,0-.91.5l-.41-.7c.2-.13.43-.27.7-.41a5.27,5.27,0,0,1,.9-.35,3.82,3.82,0,0,1,1-.14,2.3,2.3,0,0,1,1.33.35,2.06,2.06,0,0,1,.74,1,4.18,4.18,0,0,1,.23,1.44v4.2h-.84l-.09-.82h0a6.27,6.27,0,0,1-1.06.7A2.74,2.74,0,0,1,241.52,714.46Zm.27-.83a2.06,2.06,0,0,0,1-.24,5.32,5.32,0,0,0,1-.71v-2a9.74,9.74,0,0,0-1.9.39,2.32,2.32,0,0,0-1,.59,1.2,1.2,0,0,0-.31.82,1,1,0,0,0,.37.87A1.46,1.46,0,0,0,241.79,713.63Z"/><path class="cls-2" d="M248.73,714.46a3.62,3.62,0,0,1-1.39-.27,4.75,4.75,0,0,1-1.13-.67l.52-.68a5,5,0,0,0,.92.58,2.46,2.46,0,0,0,1.12.24,1.47,1.47,0,0,0,1-.33,1.09,1.09,0,0,0,.35-.8.84.84,0,0,0-.24-.61,2.28,2.28,0,0,0-.6-.42c-.24-.12-.49-.22-.74-.32a7.1,7.1,0,0,1-1-.4,2.54,2.54,0,0,1-.79-.6,1.41,1.41,0,0,1-.32-.94,1.75,1.75,0,0,1,.61-1.35,2.44,2.44,0,0,1,1.7-.56,3,3,0,0,1,1.15.23,3.63,3.63,0,0,1,.91.53l-.49.66a4.42,4.42,0,0,0-.72-.43,1.93,1.93,0,0,0-.85-.17,1.35,1.35,0,0,0-1,.31,1,1,0,0,0-.32.72.78.78,0,0,0,.21.56,2.25,2.25,0,0,0,.57.37l.74.3c.34.13.67.26,1,.42a2.22,2.22,0,0,1,.8.61,1.5,1.5,0,0,1,.33,1,1.9,1.9,0,0,1-.28,1,2.12,2.12,0,0,1-.83.73A3,3,0,0,1,248.73,714.46Z"/></g><g id="SATURNO_V" data-name="SATURNO V"><path class="cls-4" d="M455,257.92v64.94l3.32,23.31V563.49l7.47,20.6,10.8,3.75-14.12,2.29h-4.15c1.11,3.64.92,5.48-.42,8.53l5.4,17.49h-45l5.61-17.49a15.87,15.87,0,0,1-.63-8.53h-5.81l-11.62-2.29,10-3.75,7.47-20.6V346.17l3.53-23.31V257.92ZM437.91,590.13h-7.37a12.31,12.31,0,0,1-.41,8.53l3.94,10.41,3.84-10.41C436.78,595.24,436.66,593.36,437.91,590.13Zm12.35,0h1.25c-1.07,4.12-.81,5.92.62,8.53l-3.94,10.41L444,598.66c1.48-2.77,1.65-4.62.62-8.53Z"/><path class="cls-5" d="M438.22,126.16a3,3,0,0,1,2.91-1.67,2.54,2.54,0,0,1,2.7,1.67v28.71l4.36,1.95-2.57,3.35-1.79-.56v6.3l4.36,15.41v24.14l8.51,52.46H425.77l8.09-52.46V181.32l4.36-15.41v-6.3l-1.52.56-2.84-3.35,4.36-1.95Z"/><path class="cls-6" d="M443.83,165.91l4.36,15.41m-4.36-15.41h-5.61m5.61,0v11.82m0-11.82v-6.58m4.36,22H433.86m14.33,0v6m0,18.11V187.35m0,18.11H433.86m14.33,0,8.07,49.75m-1,2.71h1.45l-.44-2.71m-1,2.71H427m28.24,0V265m0,57.89V308.17m0,14.69,1.52,10.67m-1.52-10.67H441.16m17.41,23.31-1.8-12.64m1.8,12.64H441.16m17.41,0v17.18m0,200.14,7.47,20.6m-7.47-20.6v-21.2m0,21.2h-5.7m5.7,0-2.47,24.35m9.94-3.75,10.8,3.75-14.12,2.29m3.32-6-3.32,6m0,0h-4.15m0,0c1.11,3.64.92,5.48-.42,8.53m.42-8.53h-2.7m2.28,8.53,5.4,17.49H448.4m9.75-17.49a9.84,9.84,0,0,1-5.81,0m-28.24,0-5.6,17.49h15.78M424.1,598.66a15.86,15.86,0,0,1-.62-8.53m.62,8.53a11.28,11.28,0,0,0,6.23,0m-6.85-8.53h-5.81m5.81,0H427m-9.34,0L406,587.84l10-3.75m1.66,6-1.66-6m0,0,7.47-20.6m0,0v-21.2m0,21.2h6.25m-6.25,0,3.23,24.35m-3.23-241.67,1.92-12.64m-1.92,12.64h17.68m-17.68,0v17.18M427,322.86V308.17m0,14.69-1.61,10.67M427,322.86h14.15M427,257.92h-1.24l.41-2.71m.83,2.71V265m6.85-59.51V187.35m0,18.11-7.68,49.75m7.68-73.89,4.36-15.41m-4.36,15.41v6m4.36-21.44v11.82m0-11.82v-6.58m-4.36,28h14.33m-24.71,232.3h35.09m-35.09,0v-56.3m0,56.3v2m35.09-2v-56.3m0,56.3v2m-35.09,43.64V421.6m0,43.64H430m-6.53,0V522.5m35.09-57.26V421.6m0,43.64h-5.7m5.7,0V522.5m-2.7,67.63h-4.15m4.15,0,.23-2.29M427,590.13h3.74m-3.74,0-.3-2.29M441,563.49v-21.2m0,21.2h11.85m-11.85,0H429.73m11.29,0-8.82,24.35M441,563.49l8.64,24.35m-18.29,2.29h6.75m-6.75,0h-.62m.62,0,.83-2.29m18.27,2.29h1.25m-1.25,0h-5.6m5.6,0-.81-2.29m2.06,2.29c-1.07,4.12-.81,5.92.62,8.53m0,0-3.94,10.41m0,0-4.16-10.41m4.16,10.41v7.08m-4.16-17.49c1.49-2.77,1.66-4.62.63-8.53m-.63,8.53a13.6,13.6,0,0,1-6.12,0m6.75-8.53h-6.75m0,0c-1.25,3.23-1.13,5.11,0,8.53m0,0-3.84,10.41m0,0-3.95-10.41m3.95,10.41v7.08m-3.95-17.49a12.31,12.31,0,0,0,.42-8.53m3.53,26H448.4M438.22,154.87V126.16a3,3,0,0,1,2.91-1.67,2.54,2.54,0,0,1,2.7,1.67v28.71m-5.61,0-4.36,1.95,2.84,3.35,1.52-.84m0-4.46v4.46m5.61-4.46,4.36,1.95-2.57,3.35-1.79-.84m0-4.46v4.46M435,182.19v4.18m12.26-4.18v4.18m-9.07-4.18v4.18m5.61-4.18v4.18m-2.67-4.18v4.18m-15,68.84h30.08M427,265h28.24M427,265v43.2M455.25,265v43.2m-28.24,0h28.24M425.4,333.53h31.37m-15.61-10.67v23.31m-17.68,17.18h35.09M423.48,421.6H430m28.56,0h-5.7m-22.86,0v43.64m0-43.64h11.15M430,465.24h11.15m0-43.64v43.64m0-43.64h11.71m-11.71,43.64h11.71m0-43.64v43.64m-29.39,77h6.25m-6.25,0V522.5m35.09,19.79h-5.7m5.7,0V522.5M441,542.29h11.85m-11.85,0H429.73m23.14,0v21.2m0,0v24.35m-23.14-45.55v21.2m0,0v24.35m-6.25-65.34h35.09m-31.86,65.34h5.49m17.46,0h6.44"/><path class="cls-7" d="M441.13,124.49a3,3,0,0,0-2.91,1.67v28.71l-4.36,1.95,2.84,3.35,1.52-.56v6.3l-4.36,15.41v24.14l-8.09,52.46H427v64.94l-3.53,23.31V563.49L416,584.09l-10,3.75,11.63,2.29h5.81a15.86,15.86,0,0,0,.62,8.53l-5.6,17.49h45.05l-5.4-17.49c1.34-3,1.53-4.89.42-8.53h4.15l14.12-2.29L466,584.09l-7.47-20.6V346.17l-3.32-23.31V257.92h1.45l-8.51-52.46V181.32l-4.36-15.41v-6.3l2.07.56,2.29-3.35-4.36-1.95V126.16A2.54,2.54,0,0,0,441.13,124.49Z"/><path class="cls-8" d="M430.86,590.66h7.29s-1.84,5,0,8.14l-3.65,10.26-4.09-9.88A10.15,10.15,0,0,0,430.86,590.66Z"/><path class="cls-8" d="M444.69,590.66H452s-1.83,5,0,8.14l-3.64,10.26-4.1-9.88A10.15,10.15,0,0,0,444.69,590.66Z"/></g><g id="TRANSBORDADOR"><rect class="cls-5" x="902.74" y="586.31" width="6.01" height="13.77"/><path class="cls-9" d="M925.72,546.21V456.83s-.76-6.26,5.9-18.58a1.8,1.8,0,0,1,3.14-.06c6.19,10.54,6.06,18.63,6.06,18.63V560.39"/><path class="cls-9" d="M886.3,549V456.77s.76-6.26-5.9-18.58a1.8,1.8,0,0,0-3.14-.05c-6.19,10.53-6.06,18.62-6.06,18.62V560.33"/><path class="cls-9" d="M923.69,532.38,923.43,433s-.4-22-15.54-37.59a2.75,2.75,0,0,0-4,0C888.79,411,888.34,433,888.34,433l-.27,99.36"/><rect class="cls-10" x="870.7" y="587.33" width="16.16" height="6.46"/><polygon class="cls-10" points="882.41 593.79 885.36 606.37 872.2 606.37 875.12 593.79 882.41 593.79"/><path class="cls-10" d="M888.87,587.33h4.8V496.07l-5.6,36.31c-1.21,12.12-5,15.81-5,15.81s-20.54,21-24.47,25.17c-2.23,2.35-3.06,6.53-3.36,9.7a33.42,33.42,0,0,0-.16,4.27h33.81"/><path class="cls-10" d="M923,587h-4.8V495.76l5.6,36.31c1.21,12.12,5,15.82,5,15.82s20.54,21,24.47,25.16c2.23,2.36,3.06,6.53,3.36,9.7a33.45,33.45,0,0,1,.16,4.27H923"/><path class="cls-10" d="M918.15,586.63V490.82s-2.76-24.12-10.28-31.08a2.87,2.87,0,0,0-3.92,0c-7.52,6.94-10.28,31-10.28,31v95.81Z"/><line class="cls-11" x1="889.52" y1="583.05" x2="855.18" y2="583.05"/><polyline class="cls-9" points="891.62 599.97 893.67 612.54 918.65 612.54 920.34 600.08"/><path class="cls-10" d="M902.91,576.36V600H889.29s-3.93-14.84,4.15-23.61Z"/><polygon class="cls-10" points="893.67 599.97 891.13 605.45 898.52 606.84 898.52 599.97 893.67 599.97"/><path class="cls-10" d="M908.57,576.33v23.61h13.62s3.92-14.84-4.16-23.61Z"/><polygon class="cls-10" points="917.8 599.94 920.34 605.42 912.95 606.8 912.95 599.94 917.8 599.94"/><polyline class="cls-10" points="901.44 600.08 899.45 607.99 912.47 607.99 910.75 599.97"/><polygon class="cls-10" points="904.71 574.58 907.51 574.58 906.83 618.38 905.49 618.38 904.71 574.58"/><line class="cls-11" x1="888.31" y1="440.89" x2="923.45" y2="440.89"/><path class="cls-11" d="M898.29,487.42l-1-.22.71-3.39,1,.21a1.29,1.29,0,0,1,1,1.53l-.18.88A1.27,1.27,0,0,1,898.29,487.42Z"/><path class="cls-11" d="M914,487.67l1-.21-.71-3.39-1,.21a1.3,1.3,0,0,0-1,1.53l.19.88A1.27,1.27,0,0,0,914,487.67Z"/><path class="cls-11" d="M912.46,483.05l.89-1-1.79-1.66-.88.95a1,1,0,0,0,.05,1.43l.33.3A1,1,0,0,0,912.46,483.05Z"/><path class="cls-10" d="M899.75,483.38l-.9-1,1.79-1.66.89.95a1,1,0,0,1-.06,1.42l-.32.3A1,1,0,0,1,899.75,483.38Z"/><path class="cls-11" d="M902.6,480.91l-.17-1.31,2.42-.32.17,1.28a1,1,0,0,1-.86,1.14l-.44.06A1,1,0,0,1,902.6,480.91Z"/><path class="cls-11" d="M909.72,481l.18-1.31-2.42-.33-.18,1.29a1,1,0,0,0,.87,1.14l.44.05A1,1,0,0,0,909.72,481Z"/><path class="cls-11" d="M904.48,492.55H903a.51.51,0,0,1-.51-.51v-1.52A.51.51,0,0,1,903,490h1.52a.51.51,0,0,1,.51.51V492A.51.51,0,0,1,904.48,492.55Z"/><path class="cls-11" d="M909.09,492.55h-1.52a.51.51,0,0,1-.51-.51v-1.52a.51.51,0,0,1,.51-.51h1.52a.51.51,0,0,1,.51.51V492A.5.5,0,0,1,909.09,492.55Z"/><line class="cls-11" x1="893.67" y1="494.77" x2="918.15" y2="494.77"/><line class="cls-11" x1="893.67" y1="514.52" x2="918.15" y2="514.52"/><line class="cls-11" x1="893.67" y1="533.81" x2="918.15" y2="533.81"/><line class="cls-11" x1="893.67" y1="553.06" x2="918.15" y2="553.06"/><line class="cls-11" x1="893.67" y1="572.55" x2="918.15" y2="572.55"/><line class="cls-11" x1="871.2" y1="456.76" x2="886.3" y2="456.76"/><line class="cls-11" x1="871.2" y1="471.39" x2="886.3" y2="471.39"/><line class="cls-11" x1="871.2" y1="485.74" x2="886.3" y2="485.74"/><line class="cls-11" x1="871.2" y1="500.33" x2="886.33" y2="500.33"/><line class="cls-11" x1="871.2" y1="514.52" x2="886.3" y2="514.52"/><line class="cls-11" x1="871.2" y1="529.05" x2="886.3" y2="529.05"/><line class="cls-11" x1="871.2" y1="543.96" x2="885.48" y2="543.96"/><rect class="cls-10" x="924.96" y="587.02" width="16.16" height="6.46"/><polygon class="cls-10" points="929.41 593.48 926.46 606.07 939.62 606.07 936.7 593.48 929.41 593.48"/><line class="cls-11" x1="921.72" y1="582.75" x2="956.64" y2="582.75"/><line class="cls-11" x1="940.82" y1="456.82" x2="925.72" y2="456.82"/><line class="cls-11" x1="940.82" y1="471.45" x2="925.72" y2="471.45"/><line class="cls-11" x1="940.82" y1="485.8" x2="925.72" y2="485.8"/><line class="cls-11" x1="940.82" y1="500.39" x2="925.7" y2="500.39"/><line class="cls-11" x1="940.82" y1="514.58" x2="925.72" y2="514.58"/><line class="cls-11" x1="940.82" y1="529.11" x2="925.72" y2="529.11"/><line class="cls-11" x1="940.82" y1="544.02" x2="926.54" y2="544.02"/><path class="cls-12" d="M923.69,532.38,923.43,433s-.4-22-15.54-37.59a2.75,2.75,0,0,0-4,0C888.79,411,888.34,433,888.34,433l-.27,99.36"/><line class="cls-12" x1="940.79" y1="560.23" x2="940.79" y2="560.39"/><path class="cls-12" d="M940.79,560.23V456.82s.13-8.09-6.06-18.63a1.8,1.8,0,0,0-3.14.06c-6.66,12.32-5.9,18.58-5.9,18.58V542"/><path class="cls-12" d="M871.17,560.33V456.76s-.13-8.09,6.06-18.62a1.8,1.8,0,0,1,3.14.05c6.66,12.32,5.9,18.58,5.9,18.58V541.1"/><line class="cls-12" x1="875.09" y1="593.79" x2="875.37" y2="593.79"/><line class="cls-12" x1="870.67" y1="587.33" x2="870.67" y2="586.96"/><polyline class="cls-12" points="870.67 587.33 870.67 593.79 875.09 593.79"/><line class="cls-12" x1="886.83" y1="587.33" x2="886.83" y2="586.96"/><polyline class="cls-12" points="886.83 587.33 886.83 593.79 882.38 593.79"/><line class="cls-12" x1="882.05" y1="593.79" x2="882.38" y2="593.79"/><polyline class="cls-12" points="875.09 593.79 872.17 606.37 885.33 606.37 882.38 593.79"/><line class="cls-12" x1="888.6" y1="587.33" x2="888.84" y2="587.33"/><line class="cls-12" x1="888.6" y1="587.33" x2="886.83" y2="587.33"/><path class="cls-12" d="M870.67,587.33H855a33.42,33.42,0,0,1,.16-4.27c.3-3.17,1.13-7.35,3.36-9.7,1.84-2,7.31-7.58,12.62-13,0,0,14.76-11.62,15.17-18.93a47.68,47.68,0,0,0,1.7-9l5.63-35.51v-6.16s4.54-31.78,12.21-31.74S918,490,918,490l.11,7.44,5.44,33.61"/><path class="cls-12" d="M940.79,560.23c5.24,5.38,10.61,10.9,12.42,12.82,2.23,2.36,3.06,6.53,3.36,9.7a33.45,33.45,0,0,1,.16,4.27H941.09"/><polyline class="cls-12" points="922.78 587.02 922.92 587.02 924.93 587.02"/><path class="cls-12" d="M940.79,560.23c-6.1-6.26-12-12.34-12-12.34s-1.59-1.55-3-5.93"/><line class="cls-12" x1="924.93" y1="587.02" x2="941.09" y2="587.02"/><path class="cls-12" d="M923.72,532.07a46.25,46.25,0,0,0,2,9.89"/><line class="cls-12" x1="891.59" y1="599.97" x2="892.12" y2="603.25"/><polyline class="cls-12" points="905.35 612.54 893.64 612.54 892.53 605.72"/><polyline class="cls-12" points="919.57 605.56 918.62 612.54 906.89 612.54"/><line class="cls-12" x1="919.75" y1="604.21" x2="920.31" y2="600.08"/><path class="cls-12" d="M888.6,587.33a35.87,35.87,0,0,0,.66,12.64h2.33"/><line class="cls-12" x1="891.59" y1="599.97" x2="893.64" y2="599.97"/><polyline class="cls-12" points="892.12 603.25 891.1 605.45 892.53 605.72"/><path class="cls-12" d="M922.78,587a35.92,35.92,0,0,1-.62,12.92h-4.39"/><polyline class="cls-12" points="919.57 605.56 920.31 605.42 919.75 604.21"/><polyline class="cls-12" points="905.35 612.54 905.46 618.38 906.8 618.38 906.89 612.54"/><polyline class="cls-12" points="924.93 587.02 924.93 587.02 941.09 587.02 941.09 587.02"/><polyline class="cls-12" points="924.93 587.02 924.93 593.48 941.09 593.48 941.09 587.02"/><polyline class="cls-12" points="929.38 593.48 926.43 606.07 939.59 606.07 936.67 593.48"/></g><g id="SOYUZ"><polygon class="cls-13" points="652.73 419.65 651.96 420.46 651.2 440.39 648.04 445.4 647.95 455.63 647.23 462.61 647.82 478.45 646.93 538.53 643.31 556.63 637.58 599.61 636.86 609.44 632.79 612.96 636.9 613.18 639.76 613.34 639.11 616.13 645.11 616.07 644.37 613.45 645.98 613.36 649.26 614.17 649.3 615.12 656.7 615.21 656.92 614.22 660.33 613.54 661.59 613.45 660.94 615.99 666.98 616.07 666.12 613.32 673.29 612.91 669.01 609.73 668.49 599.7 668.11 598.3 662.97 556.46 659.07 538.92 657.92 511.97 658.07 478.75 658.59 463.62 657.87 455.79 657.83 445.4 655.03 440.57 654.24 440.53 653.5 420.46 652.73 419.65"/><path class="cls-14" d="M647.77,511.86l-.9,27,12.35,0-1.3-27.06Z"/><path class="cls-15" d="M656,556.73a16.39,16.39,0,0,0-2.93-.36,10.49,10.49,0,0,0-2.62.4h0l.09-.63,5.45-.09Z"/><path class="cls-16" d="M656.11,557.63s1.44-.32,3.83-.59c2.21-.22,3-.27,3.07-.27l2,17.32.59,5,.86,7.53a36.16,36.16,0,0,0-4.15.23c-2.71.27-4.42.4-4.42.4a.72.72,0,0,0-.27,0,20.93,20.93,0,0,0-4.83-.59,13.77,13.77,0,0,0-4.64.86l.14-1.71.4-5.73.36-4.87.32-4.47.31-4.41.36-4.87.27-3.7a4.37,4.37,0,0,1,2.67-.9,5.1,5.1,0,0,1,2.29.36,2.81,2.81,0,0,1,.86.45"/><path class="cls-14" d="M639.7,585.09l4.28.31c1.9.14,4.42.41,4.42.41a14.64,14.64,0,0,1,5-.81,13.77,13.77,0,0,1,4.87.81,29.88,29.88,0,0,1,4.1-.54,36,36,0,0,0,3.84-.45"/><path class="cls-14" d="M640.38,579.59s2.16-.05,4,.09,4.2.4,4.2.4a13.08,13.08,0,0,1,4.73-.81,8.63,8.63,0,0,1,4.15.81s1.49-.27,4.42-.54,3.83-.45,3.83-.45"/><path class="cls-14" d="M641,574.85s2,0,3.69.09,4,.41,4,.41a9.72,9.72,0,0,1,4.47-1,7.36,7.36,0,0,1,4,.9,29,29,0,0,1,4.11-.63c2.79-.27,3.83-.45,3.83-.45"/><path class="cls-14" d="M641.55,570.48s1.89,0,3.47.13l4.33.41a5.15,5.15,0,0,1,3.56-1.08,10.66,10.66,0,0,1,4.19.81,19.52,19.52,0,0,1,3.39-.54c2.61-.27,4-.54,4-.54"/><path class="cls-14" d="M642.09,566.15s1.8,0,3.29.14l4.28.4a4.27,4.27,0,0,1,3.25-1.08,9.72,9.72,0,0,1,4,.81,17.11,17.11,0,0,1,3.2-.54c2.48-.27,3.74-.54,3.74-.54"/><path class="cls-14" d="M642.67,561.51s1.58,0,3,.13,4.37.27,4.37.27.59-1,2.85-1a7.5,7.5,0,0,1,3.6.81,21.78,21.78,0,0,1,3.29-.54l3.61-.41"/><path class="cls-14" d="M657.83,587.16l-.68-16.32L656,556.73"/><line class="cls-14" x1="650.39" y1="556.68" x2="650.39" y2="556.77"/><line class="cls-14" x1="648.13" y1="587.43" x2="648.13" y2="587.52"/><line class="cls-17" x1="657.42" y1="553.03" x2="655.39" y2="553.03"/><line class="cls-17" x1="655.35" y1="553.03" x2="651.06" y2="553.03"/><line class="cls-17" x1="648.58" y1="553.07" x2="648.49" y2="553.07"/><path class="cls-14" d="M647.68,539h0a1.65,1.65,0,0,0-.59.63.72.72,0,0,0-.09.27l-.13-.9Z"/><path class="cls-14" d="M647.68,540c-.18.31-.45.49-.59.45h0v.27"/><path class="cls-15" d="M647.27,541.62c-.22-.4-.27-.81,0-.86s.63.23.86.64.27.81,0,.85S647.54,542,647.27,541.62Z"/><path class="cls-14" d="M647.77,539.82a.7.7,0,0,1-.14.18c-.18.31-.45.49-.58.45h0c-.14-.05-.14-.27-.09-.54a.58.58,0,0,1,.09-.27,1.29,1.29,0,0,1,.58-.63h.14C648,539,648,539.41,647.77,539.82Z"/><path class="cls-14" d="M649.12,556.91s-.4,0-.9-.14-1.49-.18-2-.22-2.8-.27-2.8-.27v0l.72-3.92h0l.77-4.11v0l.9.09,2.21.23.09.76.5,3.79.36,2.8,0,.22v.14Z"/><polyline class="cls-14" points="646.87 538.96 646.64 539.68 646.15 539.73 646.42 540 646.19 541.22 645.97 542.48 645.79 543.38 645.65 544.33 645.47 545.18 645.47 545.18 645.15 546.85 645.15 547.03 645.11 547.03 644.97 547.8 644.93 548.16"/><polyline class="cls-14" points="648 548.48 647.41 544.1 647.05 541.49 647.05 540.72"/><polyline class="cls-17" points="647.32 543.7 647.23 543.65 646.78 543.61 646.06 543.47 645.92 543.47"/><path class="cls-17" d="M645.74,544.42l1.62.22"/><path class="cls-17" d="M646.06,542.57l1,.09"/><path class="cls-17" d="M646.28,541.31H647"/><polyline class="cls-14" points="644.97 547.8 644.66 547.53 645.11 547.03 645.15 547.03"/><polyline class="cls-14" points="645.47 545.18 645.47 545.18 644.97 545.59 644.7 546.58 645.15 546.85"/><path class="cls-14" d="M651.78,541a.75.75,0,0,1,.59-.28c.18,0,.22.28.09.59"/><path class="cls-14" d="M652.55,541.35H653a.33.33,0,0,1-.19,0,.7.7,0,0,1-.22-.55c0-.31.18-.58.41-.58s.4.27.4.58a.7.7,0,0,1-.22.55"/><path class="cls-14" d="M653.54,541.35c-.09-.27-.09-.54.09-.59a.4.4,0,0,1,.41.14"/><path class="cls-14" d="M651.87,539a1.34,1.34,0,0,1,.5.58c.18.41.22.81,0,.86s-.45-.18-.63-.5"/><path class="cls-14" d="M654,539a1.26,1.26,0,0,0-.49.58c-.18.41-.23.81,0,.86s.41-.14.59-.45"/><path class="cls-18" d="M652.41,541.35h-.67V541a.73.73,0,0,1,.58-.28C652.5,540.81,652.55,541,652.41,541.35Z"/><path class="cls-18" d="M652.41,540.45c-.18,0-.45-.18-.63-.5V539h.09a1.34,1.34,0,0,1,.5.58C652.59,540,652.59,540.36,652.41,540.45Z"/><path class="cls-18" d="M653.14,541.26a.26.26,0,0,1-.18,0h.31"/><path class="cls-18" d="M654.08,539v1c-.18.31-.45.49-.58.45s-.18-.45,0-.86a1.34,1.34,0,0,1,.5-.58Z"/><path class="cls-18" d="M654.08,540.9v.45h-.54c-.09-.27-.09-.54.09-.59A.48.48,0,0,1,654.08,540.9Z"/><line class="cls-17" x1="658.41" y1="544.06" x2="653.9" y2="544.06"/><polyline class="cls-17" points="652.1 544.06 647.77 544.1 647.54 544.1"/><path class="cls-15" d="M652.41,540.45c-.18,0-.45-.18-.63-.5a.17.17,0,0,1,0-.13c-.18-.41-.23-.81,0-.86s.14,0,.18,0a1.34,1.34,0,0,1,.5.58C652.59,540,652.59,540.36,652.41,540.45Z"/><path class="cls-15" d="M654.17,539.82a.34.34,0,0,0-.09.18c-.18.31-.45.49-.58.45s-.18-.45,0-.86a1.34,1.34,0,0,1,.5-.58.36.36,0,0,1,.22,0C654.4,539,654.4,539.41,654.17,539.82Z"/><path class="cls-14" d="M653.36,540.72a.68.68,0,0,1-.22.54.26.26,0,0,1-.18,0,.27.27,0,0,1-.19,0,.68.68,0,0,1-.22-.54c0-.32.18-.59.41-.59S653.36,540.4,653.36,540.72Z"/><path class="cls-16" d="M655.35,553a8.21,8.21,0,0,0-2.35-.63,5.34,5.34,0,0,0-1.94.63h4.29Zm.49,3.07,0-.32,0-.27h0l0-.41h0l-.32-2h-4.51v.14l-.4,3-.09.63h0a10.81,10.81,0,0,1,2.62-.41,15.64,15.64,0,0,1,2.93.36Zm-2-12.22-.09-.41v0l-.45-1.9-.05-.18v0l-.13,0a.26.26,0,0,1-.18,0h-.41l-.5,2.75h1.85Z"/><path class="cls-14" d="M650.84,553v.13l-.41,3-.09.63h0l0,.9-.27,3.7-.36,4.87-.32,4.42-.31,4.46-.36,4.87-.41,5.73-.13,1.71-.23.09a.45.45,0,0,1-.14,0,36.46,36.46,0,0,0-4.14-.5c-2.17-.13-4.15-.13-4.15-.13l3.83-30.57h.09v0s2.35.27,2.8.27a18,18,0,0,1,2,.23c.5.09.9.13.9.13l-.09-.72v-.13l0-.23-.36-2.8Z"/><path class="cls-14" d="M655.21,552.13h0l-.45-2.89-.81-5-.05-.23h-1.85l0,.18L650.79,553H651a5.54,5.54,0,0,1,1.94-.63,8.47,8.47,0,0,1,2.34.63h0Z"/><path class="cls-19" d="M652.1,543.92a1.22,1.22,0,0,1,.81-.31,2.79,2.79,0,0,1,1,.22l-.32-1.08h-1.22l-.22,1.17Z"/><path class="cls-14" d="M652.1,543.92a1.22,1.22,0,0,1,.81-.31,2.79,2.79,0,0,1,1,.22l-.32-1.08h-1.22Z"/><path class="cls-15" d="M652.41,541.35l-.13.27c-.23.41-.63.68-.86.63s-.22-.45.05-.85a1.21,1.21,0,0,1,.31-.36.75.75,0,0,1,.59-.28C652.5,540.81,652.55,541,652.41,541.35Z"/><path class="cls-15" d="M654.53,542.25c-.22,0-.63-.22-.85-.63l-.14-.27c-.09-.27-.09-.54.09-.59a.4.4,0,0,1,.41.14,1.24,1.24,0,0,1,.45.5C654.76,541.8,654.76,542.16,654.53,542.25Z"/><polyline class="cls-14" points="653.27 541.35 653.32 541.35 653.32 541.53"/><path class="cls-14" d="M659,539l-.13.9a.72.72,0,0,0-.09-.27,1.4,1.4,0,0,0-.59-.63H659Z"/><path class="cls-15" d="M658.55,541.62c.22-.4.27-.81,0-.86s-.63.23-.86.64-.27.81,0,.85S658.28,542,658.55,541.62Z"/><path class="cls-14" d="M662.92,556v.09h0Zm-2.21-9.88-.22-1.08m-1.18-1.62h0"/><path class="cls-14" d="M659.31,543.43h0m2.66,8.34-.9-4.15-.13-.68v-.09l-.05-.13-.13-.59m-2-5.41v.77l-.09,1-.09,1-.09.94-.32,3.38-.45,4.47m2.8-7.26h0l-1.13-5,.27-.27-.45,0L659,539"/><path class="cls-14" d="M662.92,556.1c-.18,0-2.07.18-2.52.18-.86,0-3.16.4-3.16.4l0-.63.36-3.74h0l4.29-.59,1,4.24Z"/><path class="cls-14" d="M658.77,540.4h0c-.18.05-.4-.13-.58-.4-.05,0-.09-.14-.14-.18a1.17,1.17,0,0,1-.13-.72c0-.05,0-.09.09-.14h.13a1.39,1.39,0,0,1,.59.63.72.72,0,0,1,.09.27h0C658.91,540.13,658.86,540.36,658.77,540.4Z"/><polyline class="cls-14" points="658.73 540.72 658.73 540.49 658.77 540.4"/><line class="cls-14" x1="658.95" y1="538.96" x2="658.82" y2="539.86"/><polyline class="cls-17" points="658.55 543.56 658.82 543.56 659.04 543.51 659.58 543.42"/><line class="cls-17" x1="660.08" y1="543.33" x2="659.58" y2="543.43"/><path class="cls-17" d="M660.31,544.33l-1.81.22"/><path class="cls-17" d="M659.81,542.48l-1.13.09"/><path class="cls-17" d="M659.58,541.22h-.72"/><polyline class="cls-14" points="660.49 545.05 660.49 545 661.07 545.45 661.3 546.45 660.89 546.67 660.85 546.72 660.71 546.13"/><polygon class="cls-14" points="661.34 547.39 661.07 547.62 660.89 546.94 661.34 547.39"/><line class="cls-17" x1="646.46" y1="544.51" x2="646.46" y2="544.51"/><line class="cls-17" x1="645.83" y1="548.25" x2="645.79" y2="548.29"/><path class="cls-17" d="M648,549.29l3.07,0"/><path class="cls-17" d="M654.67,549.29l3.06,0"/><path class="cls-14" d="M655.44,553.07h-.05"/><path class="cls-14" d="M651.06,553a.46.46,0,0,0-.22.13h-.05"/><path class="cls-14" d="M651.47,548.66a9.31,9.31,0,0,1,1.67-.23,6.49,6.49,0,0,1,1.48.23"/><line class="cls-17" x1="648.04" y1="548.48" x2="648" y2="548.48"/><line class="cls-17" x1="644.93" y1="548.16" x2="644.88" y2="548.16"/><path class="cls-17" d="M644.12,552.31l4.37.31"/><line class="cls-17" x1="662.02" y1="551.77" x2="661.97" y2="551.77"/><line class="cls-17" x1="657.64" y1="552.31" x2="657.64" y2="552.31"/><path class="cls-17" d="M658.14,547.84l2.66-.36"/><line class="cls-17" x1="660.08" y1="547.57" x2="660.08" y2="547.57"/><polyline class="cls-14" points="660.89 546.81 660.85 546.72 660.71 546.13"/><path class="cls-14" d="M663,556.82l-.09-.72"/><path class="cls-14" d="M643.31,557l2.88.27c1.44.14,4.15.5,4.15.5"/><path class="cls-14" d="M637.4,601a.14.14,0,0,1-.09,0"/><path class="cls-14" d="M668.6,600.24h0"/><path class="cls-14" d="M639,590.27c.05,0,.05,0,.09,0"/><path class="cls-14" d="M638.89,591.18s2.07,0,4,.13,4.64.27,4.64.27,1.67-1.13,5.37-1.13c4.14,0,5.41,1.18,5.41,1.18s.94-.18,4-.45,5.09-.5,5.09-.5"/><path class="cls-14" d="M638.35,595.37s2.16,0,4.1.13,4.82.28,4.82.28,1.72-1.13,5.55-1.13c4.28,0,5.59,1.17,5.59,1.17s1-.18,4.15-.45,5.28-.5,5.28-.5"/><path class="cls-14" d="M637.94,598.71s2.21,0,4.19.13,4.83.27,4.83.27.58-1.22,5.72-1.22c5.37,0,5.87,1.27,5.87,1.27s.85-.18,4.1-.45,5.37-.5,5.37-.5"/><path class="cls-14" d="M637.58,599.11s2.25,0,4.24.14,5,.27,5,.27.5-1.22,5.73-1.22c5.46,0,6,1.26,6,1.26s.86-.18,4.15-.45,5.46-.49,5.46-.49"/><path class="cls-14" d="M637.58,599.61s2.25,0,4.28.13,5,.27,5,.27.54-1.21,5.77-1.21c5.46,0,6,1.26,6,1.26s.85-.18,4.19-.45,5.5-.5,5.5-.5"/><line class="cls-17" x1="649.75" y1="590.63" x2="649.75" y2="590.77"/><path class="cls-14" d="M639.56,586.89l-1.66,11.77.09.41-.41.49-.18,1.4v3.25l-.5,9"/><path class="cls-14" d="M666.48,586.89l1.67,11.77-.09.41.41.49.18,1.4v3.25l.49,9"/><line class="cls-17" x1="665.31" y1="590.95" x2="665.31" y2="590.91"/><line class="cls-17" x1="647.77" y1="587.52" x2="647.41" y2="591.27"/><path class="cls-17" d="M647.41,591.31l-.68,8.25"/><line class="cls-17" x1="657.96" y1="591.31" x2="657.6" y2="587.21"/><polyline class="cls-17" points="659.22 599.79 659.18 599.52 659.18 599.11 658.91 595.77 658.64 591.58"/><line class="cls-17" x1="656.7" y1="595.14" x2="656.7" y2="594.96"/><path class="cls-14" d="M636.86,609.44l-4.2,3.51,4.11.18"/><path class="cls-14" d="M637.58,604.48s2.3,0,4.33.13,5.05.27,5.05.27.58-1.21,5.91-1.21c5.54,0,6.08,1.26,6.08,1.26s.86-.18,4.24-.45,5.59-.5,5.59-.5"/><path class="cls-14" d="M637.62,604.93s2.3,0,4.33.13,5,.27,5,.27.63-1.21,5.95-1.21c5.55,0,6.09,1.26,6.09,1.26s.85-.18,4.24-.45,5.59-.5,5.59-.5"/><path class="cls-14" d="M637.26,605.38s2.35,0,4.42.13,5.19.28,5.19.28.54-1.22,6-1.22c5.64,0,6.18,1.26,6.18,1.26s.9-.18,4.33-.45,5.68-.5,5.68-.5"/><path class="cls-17" d="M646.78,599.83l0,5.64"/><path class="cls-17" d="M658.5,599.83l.18,5.68"/><line class="cls-14" x1="649.26" y1="614.17" x2="648.76" y2="614.08"/><polyline class="cls-14" points="648.67 614.04 647.18 613.81 647.14 613.81 645.79 613.45 638.93 613.23 636.59 613.18"/><path class="cls-14" d="M640,613.32a5,5,0,0,0-.86,2.75h2.66a4.56,4.56,0,0,0-.58-2.75"/><polygon class="cls-14" points="638.48 613.32 637.72 614.8 637.72 616.61 636.81 616.65 636.9 615.98 636.9 615.84 636.99 615.12 637.49 614.26 637.53 614.17 637.53 614.17 636.81 614.13 636.86 613.36 637.63 613.36 638.48 613.32"/><line class="cls-14" x1="637.62" y1="613.36" x2="637.58" y2="613.32"/><line class="cls-14" x1="637.53" y1="614.17" x2="637.49" y2="614.26"/><line class="cls-14" x1="636.9" y1="615.98" x2="636.86" y2="615.98"/><polygon class="cls-14" points="648.81 614.04 648.76 614.08 648.67 614.04 648.81 614.04"/><path class="cls-14" d="M644.25,613.45a4.66,4.66,0,0,1,.86,2.62h-2.66a4.14,4.14,0,0,1,.59-2.62"/><line class="cls-17" x1="642.45" y1="615.21" x2="642.4" y2="615.21"/><path class="cls-14" d="M647.14,613.81s1.13-.9,5.68-.9,5.68.9,5.68.9"/><polyline class="cls-14" points="658.73 604.75 658.73 604.75 658.68 604.7 658.5 604.57 658.46 604.57"/><path class="cls-14" d="M663.78,604.57v-.05"/><polyline class="cls-17" points="646.96 613.54 646.82 609.75 646.82 609.44 646.69 605.78 646.69 605.56"/><line class="cls-14" x1="667.11" y1="613.36" x2="667.11" y2="613.23"/><line class="cls-14" x1="657.28" y1="614.08" x2="656.79" y2="614.17"/><polyline class="cls-14" points="657.46 614.04 658.86 613.81 660.26 613.45 667.11 613.23 669.46 613.18"/><path class="cls-14" d="M666.12,613.32a5,5,0,0,1,.86,2.75h-2.66a4.56,4.56,0,0,1,.58-2.75"/><line class="cls-17" x1="664.32" y1="615.16" x2="664.27" y2="615.16"/><polygon class="cls-14" points="669.19 615.98 669.28 616.65 668.33 616.61 668.33 614.8 667.57 613.32 668.42 613.36 669.19 613.36 669.28 614.13 668.51 614.17 668.51 614.22 669.05 615.12 669.14 615.84 669.19 615.98"/><line class="cls-14" x1="668.47" y1="613.32" x2="668.42" y2="613.36"/><line class="cls-14" x1="657.46" y1="614.04" x2="657.28" y2="614.08"/><path class="cls-14" d="M661.79,613.45a4.7,4.7,0,0,0-.85,2.62h2.66a4.14,4.14,0,0,0-.59-2.62"/><polyline class="cls-17" points="658.68 605.47 658.68 605.56 658.68 605.56 658.68 605.7 658.64 607.27 658.5 613.54"/><path class="cls-14" d="M649.39,614.22c0-.27.68-.45,1.49-.45s1.49.22,1.49.45"/><path class="cls-17" d="M649.3,615.12h1.45"/><path class="cls-14" d="M652.46,615a.7.7,0,1,1,1.22-.68.56.56,0,0,1,0,.63"/><path class="cls-14" d="M649.35,614.22v.94l7.39,0,0-.9"/><path class="cls-14" d="M653.72,614.22c0-.27.68-.45,1.49-.45s1.49.22,1.49.45"/><path class="cls-17" d="M656.25,615.12H654.8"/><path class="cls-14" d="M655.62,615.12h0"/><path class="cls-14" d="M650.7,615.21a3.2,3.2,0,0,0-.31,1.35h.94a2.57,2.57,0,0,0-.22-1.35"/><path class="cls-14" d="M655,615.21a3.2,3.2,0,0,0-.31,1.35h1a2.51,2.51,0,0,0-.23-1.35"/><path class="cls-14" d="M652.87,615.21a3.12,3.12,0,0,0-.32,1.35h1a2.51,2.51,0,0,0-.23-1.35"/><path class="cls-14" d="M647.81,508.75h10.38L653,507.53l-5.15,1.22Z"/><line class="cls-14" x1="647.81" y1="505.73" x2="647.81" y2="508.75"/><line class="cls-14" x1="658.1" y1="505.73" x2="658.1" y2="508.75"/><path class="cls-14" d="M647.81,508.75h10.33v3.07H647.81Z"/><path class="cls-17" d="M647.81,478.72H658.1"/><path class="cls-14" d="M669,609.57l4.28,3.34-4.1.32"/><line class="cls-17" x1="669.46" y1="609.93" x2="669.46" y2="609.84"/><path class="cls-14" d="M647.81,505H658.1v.81H647.81Z"/><path class="cls-14" d="M647.72,478.45l-.49-4.42V463.84l.72-8.21v-7.39l.09-2.84,2.75-4.87h4.28l2.76,4.87.09,2.84v7.39l.72,8.21V474l-.5,4.42"/><path class="cls-17" d="M647.32,473.9h11.27"/><path class="cls-17" d="M653,473.9V440.57"/><path class="cls-17" d="M648,451.89h9.83"/><path class="cls-17" d="M647.41,463.62h11.18"/><path class="cls-14" d="M647.72,478.45l-1.39-4.64.9-1.31-.09-.72-.63-.23.63-.9"/><line class="cls-14" x1="647.23" y1="473.9" x2="646.37" y2="473.9"/><path class="cls-14" d="M658.19,478.45l1.39-4.64-.9-1.31.09-.72.63-.23-.63-.9"/><polyline class="cls-14" points="659.54 473.9 658.68 473.9 658.68 473.9"/><path class="cls-15" d="M652.82,478.45l-.5-4.55.5-1.31.5,1.22Z"/><polyline class="cls-14" points="654.22 440.39 654.22 436.25 655.03 435.7 654.22 434.76 654.22 434.71 654.22 433.81 653.5 433.09 653.5 427.81 654.13 427.32 653.5 426.51 653.5 420.46 652.73 419.65 651.96 420.46 651.96 426.51 651.29 427.32 651.96 427.81 651.96 433.09 651.24 433.81 651.2 434.71 651.2 434.76 650.38 435.7 651.2 436.25 651.2 440.39"/><path class="cls-17" d="M651.24,436.16h3.07"/><path class="cls-17" d="M652,433h1.45"/><path class="cls-17" d="M652,427.86h1.45"/><path class="cls-17" d="M652,426.55h1.45"/><path class="cls-17" d="M651.38,427.27h2.7"/><path class="cls-17" d="M651.24,433.81h3"/><line class="cls-17" x1="654.26" y1="434.71" x2="654.22" y2="434.71"/><line class="cls-17" x1="651.2" y1="434.71" x2="651.15" y2="434.71"/><path class="cls-17" d="M652,432.5h1.45"/><rect class="cls-20" x="647.79" y="478.75" width="10.28" height="26.22"/></g><g id="STARSHIP"><path class="cls-21" d="M171.43,599.33l14.25-28-.62-210.5-2.63-17.25L185,333.33l0-18h7.75v3h5.75v-3h14.5v3h5c-.25-1-.6-3,0-3h7l.25,18a52.56,52.56,0,0,0,2.25,10.25l-2.5,16.25v211.5l14.75,28v13.75l-2.75.75-10-5.5.2,3.5h-2.75l2.75,4H183.39l2-4h-2.25l.21-3.5-7.21,5.5-4.75-.75Z"/><path class="cls-5" d="M161.92,289.33l23-61.5c-.06-20.72,0-56.09.48-79l-15.73-3.75V134.32l27.65-38.5c3.11-7.09,6.21-12.5,8.35-12.5s5.61,5.38,8.93,12.5l26.57,38.5v11.5l-16,3c.37,20.56.71,51.34.71,79l22.5,61.5v22.25l-16.25,3.75H218.43v3h-5.5v-3h-14.5v3h-5.75v-3H177.93l-16-3.75Z"/><path class="cls-22" d="M184.93,227.83l-23,61.5v22.25l16,3.75m7-87.5c-.06-20.72,0-56.09.48-79m-.48,79,4.75,78.5-4.75,9m0-87.5-7,87.5m48-87.5,22.5,61.5v22.25l-16.25,3.75m-6.25-87.5c0-27.67-.34-58.45-.71-79m.71,79-4.25,78.5,3.25,9m1-87.5,6.25,87.5m-54.25,0h7m0,0h8m-8,0,0,17.75m.7,238.25-14.25,28v13.75l4.75.75,7.21-5.5m2.29-37-2.29,37m2.29-37-.61-208m39.86,208,14.75,28v13.75l-2.75.75-10-5.5m-2-37,2,37m-2-37v-208m0-48h7.25m-7.25,0h-6.81m6.81,0,.08,17.75M197.33,95.82c-4.92,11.21-9.83,26.61-10.9,31.5-.46,2.1-.79,10.32-1,21.5m11.92-53c3.11-7.09,6.21-12.5,8.35-12.5s5.61,5.38,8.93,12.5m-17.28,0-27.65,38.5v10.75l15.73,3.75m29.2-53c5,10.66,9.77,25.21,10.07,31.5.16,3.5.36,11.23.54,21.5m-10.61-53,26.57,38.5v11.5l-16,3M183.39,608.33l-.21,3.5h2.25m41.55-3.5.2,3.5h-2.75m-39,0-2,4h43.79l-2.75-4m-39,0h2.75m36.25,0h-1.5m-30-296.5c.47-12.95,3.58-23.58,5.2-27.5v27.5m-5.2,0c0,1.07,0,2.15,0,3.25h5.25v-3.25m0,0h14.75m0,0v3.25h5.25c0-1.1,0-2.18-.06-3.25m-5.19,0v-27.5c1.61,3.92,4.72,14.55,5.19,27.5M185,333.08h5.7l4.25,15.25-4.25,15h-5.61M185,333.08l-2.55,10.5,2.64,19.75M225,333.08h-5.69l-4.25,15.25,4.25,15h5.61m.08-30.25,2.56,10.5-2.64,19.75m-26,248.5-.75-41.75-10,30.25v11.5m10.75,0-10.75,2v-2m10.75,0h12.75m0,0,11.25,2v-2m-11.25,0,.75-42,10.5,30.5v11.5m-30.5-494.26h26.75c-2.59-9.25-8.9-27.7-13.5-27.5S194.93,108.49,192.43,117.57Z"/><path class="cls-23" d="M161.92,289.33l23-61.5c-.06-20.72,0-56.09.48-79l-15.73-3.75V134.32l27.65-38.5c3.11-7.09,6.21-12.5,8.35-12.5s5.61,5.38,8.93,12.5l26.57,38.5v11.5l-16,3c.37,20.56.71,51.34.71,79l22.5,61.5v22.25l-16.25,3.75h-7.25v256l14.75,28v13.75l-2.75.75-10-5.5.2,3.5h-2.75l2.75,4H183.39l2-4h-2.25l.21-3.5-7.21,5.5-4.75-.75V599.33l14.25-28-.75-256h-7l-16-3.75Z"/></g></svg>