<?xml version="1.0" encoding="utf-8"?>
<!-- Generator: Adobe Illustrator 27.0.0, SVG Export Plug-In . SVG Version: 6.00 Build 0)  -->
<svg version="1.1" id="Capa_1" xmlns="http://www.w3.org/2000/svg" xmlns:xlink="http://www.w3.org/1999/xlink" x="0px" y="0px"
	 viewBox="0 0 1024 768" style="enable-background:new 0 0 1024 768;" xml:space="preserve">
<style type="text/css">
	.st0{fill:#DADADA;stroke:#000000;stroke-width:0.5;stroke-miterlimit:10;}
	.st1{fill:none;stroke:#000000;stroke-width:1.5;stroke-linecap:round;stroke-linejoin:round;stroke-miterlimit:10;}
	.st2{fill:#B2B2B2;stroke:#000000;stroke-width:0.5;stroke-miterlimit:10;}
	.st3{fill:#4D4D4D;stroke:#000000;stroke-width:0.5;stroke-miterlimit:10;}
	.st4{fill:#DADADA;stroke:#000000;stroke-width:0.5;stroke-linecap:round;stroke-linejoin:round;stroke-miterlimit:10;}
	.st5{fill:#73D7F9;}
	.st6{fill:#BBECF9;}
	.st7{fill:none;stroke:#C1272D;stroke-width:2;stroke-linecap:round;stroke-linejoin:round;stroke-miterlimit:10;}
	.st8{fill:#4D4D4D;stroke:#000000;stroke-width:0.5;stroke-linecap:round;stroke-linejoin:round;stroke-miterlimit:10;}
	.st9{fill:none;stroke:#000000;stroke-width:0.5;stroke-linecap:round;stroke-linejoin:round;stroke-miterlimit:10;}
	.st10{fill:none;stroke:#C1272D;stroke-width:2;stroke-linecap:round;stroke-linejoin:round;}
	.st11{fill:none;stroke:#C1272D;stroke-width:2;stroke-linecap:round;stroke-linejoin:round;stroke-dasharray:1.0128,5.0639;}
	.st12{fill:#BBECF9;stroke:#000000;stroke-width:0.5;stroke-linecap:round;stroke-linejoin:round;stroke-miterlimit:10;}
	
		.st13{fill:none;stroke:#C1272D;stroke-width:2;stroke-linecap:round;stroke-linejoin:round;stroke-miterlimit:10;stroke-dasharray:1,5;}
	.st14{fill:none;stroke:#000000;stroke-width:2;stroke-linecap:round;stroke-linejoin:round;stroke-miterlimit:10;}
</style>
<path class="st0" d="M143,696.05c0,0,22.5,2.45,22.5,2.45s30,4,41-3s20.3-3,27.15,0c6.85,3,7.52,2.25,12.18,0.12
	c4.67-2.12,10.39,0.15,12.53,4.01c2.14,3.86,4.14,2.86,7.14,3.86s0,4-1,7s1,2,4,2s-2,1-2,4s4,4,6,3s2,1,2,2s-1,6,1,6s7-1,7,2
	s3,7,6,5s3-5,5-5s0-6,2-8s-2-8-7-11s-15-21-7-26s5-12,9-11s10,1,12-2s9-5,15-6s4-3,8-4s11,1,12-2s9-3,8-8s-3-4-4-7s-6,3-5-2s4-6,1-8
	s-6-4-3-7s6-4,7-4s2,2,1,2s-4,0-4,1s-1,6,1,5s5,0,4,1s0,3,1,3s1,1-2,2s-1,4,0,3s0-1,2-2s3-5,6-6s3-3,1-4s-6-4-4-4
	s3.79,0.92,5.39,1.96c1.61,1.04,2.61,3.04,3.61,1.04s0-4,3-5s6.67-3.01,5.33-5c-1.33-2-4.33,0-3.33-2s2.23,0.11,3.62-1.95
	s4.79-3.84,7.59-3.95s16.79-0.11,18.79-1.11s3-3,4-3s1,0,1,0s0,3,4,2s8.41,0,8.2-2s-1.16-2.36-1.16-2.36S190.5,611.49,143,617.5
	V696.05z"/>
<path class="st1" d="M143,617.5c0,0,470.25-36.35,660.88,1.33"/>
<rect x="823.5" y="599.5" class="st0" width="17" height="17"/>
<rect x="823.5" y="621.5" class="st2" width="17" height="17"/>
<rect x="823.5" y="644.5" class="st3" width="17" height="17"/>
<polygon class="st4" points="483.5,664.5 501.5,661.5 497.5,654.5 659.5,626.5 664.5,633.5 680.5,630.5 704.5,670.5 690.5,673.5 
	694.5,680.5 532.5,709.5 526.5,701.5 509.5,705.5 "/>
<polygon class="st4" points="509.5,705.5 509.5,713.58 483.5,672.5 483.5,664.5 "/>
<polygon class="st4" points="532.5,709.5 532.5,719.37 526.5,709.5 526.5,701.5 "/>
<polygon class="st4" points="509.5,713.58 526.5,709.5 526.5,701.5 509.5,705.5 "/>
<polygon class="st4" points="694.5,680.5 694.5,691.66 532.5,719.37 532.5,709.5 "/>
<polygon class="st4" points="497.5,654.5 497.5,662.17 501.5,661.5 "/>
<polygon class="st4" points="704.5,677.34 704.5,670.5 690.5,673.5 694.09,679.78 "/>
<path class="st1" d="M284.81,705.63"/>
<path class="st1" d="M312.74,375.35"/>
<g>
	<path class="st5" d="M306.25,401c0-0.11-0.07-0.2-0.17-0.24c-0.03-0.01-0.05-0.01-0.08-0.01c-0.08,0-0.15,0.03-0.2,0.1l-1.32,1.68
		l0.77-3.48c0.03-0.12-0.04-0.24-0.15-0.28c-0.03-0.01-0.06-0.02-0.1-0.02c-0.08,0-0.16,0.04-0.21,0.11l-1.3,1.95l0.75-3.76
		c0.01-0.07,0-0.15-0.05-0.21c-0.05-0.06-0.12-0.09-0.19-0.09h-0.68c0.4-1.5,2.21-8.04,4.76-12.4c0.73,0.45,3.13,1.8,5.63,1.9
		c-0.18,1.4-1.02,7.83-1.87,12.25l-0.67-0.67c-0.05-0.05-0.11-0.07-0.18-0.07c-0.02,0-0.05,0-0.07,0.01
		c-0.09,0.03-0.15,0.1-0.17,0.19l-0.5,2.52V399c0-0.13-0.1-0.24-0.23-0.25c-0.01,0-0.02,0-0.02,0c-0.12,0-0.22,0.08-0.25,0.2
		l-0.81,4.26l-0.7-2.28c-0.03-0.1-0.12-0.17-0.22-0.18c-0.01,0-0.01,0-0.02,0c-0.09,0-0.18,0.05-0.22,0.14l-1.53,3.05V401z"/>
	<path d="M308.17,384.69c0.9,0.53,3.01,1.62,5.26,1.79c-0.23,1.75-0.97,7.36-1.75,11.5l-0.33-0.33c-0.1-0.1-0.22-0.15-0.35-0.15
		c-0.05,0-0.1,0.01-0.14,0.02c-0.18,0.05-0.31,0.2-0.35,0.38l-0.15,0.75c-0.08-0.08-0.19-0.14-0.31-0.15c-0.02,0-0.03,0-0.05,0
		c-0.24,0-0.45,0.17-0.49,0.41l-0.62,3.27l-0.41-1.32c-0.06-0.2-0.23-0.33-0.44-0.35c-0.01,0-0.03,0-0.04,0
		c-0.19,0-0.36,0.11-0.45,0.28l-1.05,2.11V401c0-0.21-0.14-0.4-0.34-0.47c-0.05-0.02-0.11-0.03-0.16-0.03
		c-0.15,0-0.3,0.07-0.39,0.19l-0.65,0.83l0.53-2.41c0.05-0.23-0.07-0.47-0.29-0.57c-0.06-0.03-0.13-0.04-0.2-0.04
		c-0.16,0-0.32,0.08-0.42,0.22l-0.6,0.9l0.5-2.52c0.03-0.15-0.01-0.3-0.1-0.42s-0.24-0.18-0.39-0.18h-0.35
		C304.17,394.6,305.86,388.77,308.17,384.69 M308,384c-3,5-5,13-5,13h1l-1,5l2-3l-1,4.54l2-2.54v4l2-4l1,3.24l1-5.24v4l1-5l1,1
		c1-5,2-13,2-13C311,386,308,384,308,384L308,384z"/>
</g>
<g>
	<path class="st6" d="M306.25,401c0-0.11-0.07-0.2-0.17-0.24c-0.03-0.01-0.05-0.01-0.08-0.01c-0.08,0-0.15,0.03-0.2,0.1l-1.32,1.68
		l0.77-3.48c0.03-0.12-0.04-0.24-0.15-0.28c-0.03-0.01-0.06-0.02-0.1-0.02c-0.08,0-0.16,0.04-0.21,0.11l-1.3,1.95l0.75-3.76
		c0.01-0.07,0-0.15-0.05-0.21c-0.05-0.06-0.12-0.09-0.19-0.09h-0.68c0.4-1.5,2.21-8.04,4.76-12.4c0.73,0.45,3.13,1.8,5.63,1.9
		c-0.18,1.4-1.02,7.83-1.87,12.25l-0.67-0.67c-0.05-0.05-0.11-0.07-0.18-0.07c-0.02,0-0.05,0-0.07,0.01
		c-0.09,0.03-0.15,0.1-0.17,0.19l-0.5,2.52V399c0-0.13-0.1-0.24-0.23-0.25c-0.01,0-0.02,0-0.02,0c-0.12,0-0.22,0.08-0.25,0.2
		l-0.81,4.26l-0.7-2.28c-0.03-0.1-0.12-0.17-0.22-0.18c-0.01,0-0.01,0-0.02,0c-0.09,0-0.18,0.05-0.22,0.14l-1.53,3.05V401z"/>
	<path d="M308.17,384.69c0.9,0.53,3.01,1.62,5.26,1.79c-0.23,1.75-0.97,7.36-1.75,11.5l-0.33-0.33c-0.1-0.1-0.22-0.15-0.35-0.15
		c-0.05,0-0.1,0.01-0.14,0.02c-0.18,0.05-0.31,0.2-0.35,0.38l-0.15,0.75c-0.08-0.08-0.19-0.14-0.31-0.15c-0.02,0-0.03,0-0.05,0
		c-0.24,0-0.45,0.17-0.49,0.41l-0.62,3.27l-0.41-1.32c-0.06-0.2-0.23-0.33-0.44-0.35c-0.01,0-0.03,0-0.04,0
		c-0.19,0-0.36,0.11-0.45,0.28l-1.05,2.11V401c0-0.21-0.14-0.4-0.34-0.47c-0.05-0.02-0.11-0.03-0.16-0.03
		c-0.15,0-0.3,0.07-0.39,0.19l-0.65,0.83l0.53-2.41c0.05-0.23-0.07-0.47-0.29-0.57c-0.06-0.03-0.13-0.04-0.2-0.04
		c-0.16,0-0.32,0.08-0.42,0.22l-0.6,0.9l0.5-2.52c0.03-0.15-0.01-0.3-0.1-0.42s-0.24-0.18-0.39-0.18h-0.35
		C304.17,394.6,305.86,388.77,308.17,384.69 M308,384c-3,5-5,13-5,13h1l-1,5l2-3l-1,4.54l2-2.54v4l2-4l1,3.24l1-5.24v4l1-5l1,1
		c1-5,2-13,2-13C311,386,308,384,308,384L308,384z"/>
</g>
<path class="st7" d="M288.3,577.96c0,0,7.7-107.96,17.7-168.72"/>
<path class="st0" d="M439.87,146.62"/>
<g>
	<polyline class="st2" points="372.28,217.84 376.74,221.82 422.5,170.5 418.5,166.5 372.28,217.84 	"/>
	
		<rect x="370.84" y="219.45" transform="matrix(0.7465 0.6654 -0.6654 0.7465 241.4813 -193.0055)" class="st3" width="6.35" height="1.87"/>
	<polygon class="st3" points="371.48,219.38 369.73,220.41 374.48,224.64 375.23,222.72 	"/>
	
		<rect x="371.75" y="221.49" transform="matrix(0.6654 -0.7465 0.7465 0.6654 -41.7367 352.1068)" class="st3" width="0.36" height="2.24"/>
	<polygon class="st8" points="375.23,222.72 372.89,223.22 373.39,221.08 371.21,221.73 371.48,219.38 	"/>
	<polygon class="st1" points="423,170 376.87,221.68 377.12,221.9 375.67,223.52 375.22,223.11 374.58,224.75 372.99,223.33 
		372.74,223.6 371.07,222.11 371.31,221.84 369.83,220.52 371.32,219.64 370.74,219.12 372.18,217.5 372.4,217.7 419,166 	"/>
	<path class="st1" d="M372.25,217.31"/>
</g>
<rect x="435.5" y="157.5" transform="matrix(0.9158 -0.4017 0.4017 0.9158 -27.2846 190.8893)" class="st2" width="12" height="6"/>
<rect x="435.5" y="157.7" transform="matrix(0.9158 -0.4017 0.4017 0.9158 -27.3648 190.9072)" class="st1" width="12" height="6"/>
<path class="st7" d="M351.43,257.86c0,0,9.57-19.86,17.57-30.86"/>
<rect x="283.43" y="605.63" class="st2" width="10.14" height="105.26"/>
<rect x="283.43" y="598.08" class="st0" width="9.72" height="7.56"/>
<rect x="283.77" y="596.99" class="st0" width="9.52" height="1.12"/>
<path class="st0" d="M284.27,606.47v-8.46c0,0-0.5-1.03-1.18,0v7.37C283.08,605.39,283.15,605.91,284.27,606.47z"/>
<path class="st0" d="M292.58,606.47v-8.42c0,0,0.7-1.07,1.3,0v7.58C293.89,605.63,293.56,606.44,292.58,606.47z"/>
<polygon class="st0" points="283.77,596.99 285.45,590.83 291.6,590.83 293.28,596.99 "/>
<path class="st0" d="M285.45,590.83c0-3.36,3.08-3.36,3.08-3.36s3.08,0,3.08,3.36H285.45z"/>
<polygon class="st8" points="288.49,710.89 287.13,714 289.87,714 "/>
<polygon class="st8" points="284.35,710.89 282.99,714 285.73,714 "/>
<polygon class="st8" points="292.54,710.89 291.17,714 293.92,714 "/>
<path class="st9" d="M293.14,618.82"/>
<line class="st9" x1="283.43" y1="618.68" x2="293.56" y2="618.68"/>
<line class="st9" x1="283.43" y1="634.41" x2="293.56" y2="634.41"/>
<line class="st9" x1="283.43" y1="708.19" x2="293.14" y2="708.19"/>
<path class="st2" d="M281.61,711.2h2.57l-0.93-4.24c-0.12-0.56-0.92-0.53-1.01,0.03L281.61,711.2z"/>
<path class="st2" d="M295.03,711.2h-2.57l0.93-4.24c0.12-0.56,0.92-0.53,1.01,0.03L295.03,711.2z"/>
<path class="st1" d="M293.56,606.08l0.32-0.44v-7.58c0,0-0.04-0.51-0.6-0.51v-0.56l-1.68-6.16c0,0,0-3.35-3.08-3.36
	c0,0-3.08,0-3.08,3.36l-1.68,6.16v0.44c0,0-0.56,0.12-0.68,0.59v7.37l0.34,0.52v100.83c0,0-0.95-0.92-1.14,0.09l-0.68,4.37h2.57
	l-1.18,2.8h2.74l-1.38-3.11h4.13l-1.36,3.11h2.74l-1.27-3.11h3.94l-1.36,3.11h2.74l-1.24-2.8h2.36l-0.63-4.21c0,0,0-0.61-0.84-0.44
	V606.08z"/>
<path class="st1" d="M293.56,606.08l0.32-0.44v-7.58c0,0-0.04-0.51-0.6-0.51v-0.56l-1.68-6.16c0,0,0-3.35-3.08-3.36
	c0,0-3.08,0-3.08,3.36l-1.68,6.16v0.44c0,0-0.56,0.12-0.68,0.59v7.37l0.34,0.52v100.83c0,0-0.95-0.92-1.14,0.09l-0.68,4.37h2.57
	l-1.18,2.8h2.74l-1.38-3.11h4.13l-1.36,3.11h2.74l-1.27-3.11h3.94l-1.36,3.11h2.74l-1.24-2.8h2.36l-0.63-4.21c0,0,0-0.61-0.84-0.44
	V606.08z"/>
<rect x="275.38" y="324.06" transform="matrix(0.2865 -0.9581 0.9581 0.2865 -81.2917 549.1104)" class="st2" width="105.26" height="10.14"/>
<rect x="340.18" y="270.17" transform="matrix(0.2865 -0.9581 0.9581 0.2865 -18.0704 525.793)" class="st0" width="7.56" height="9.72"/>
<rect x="340.67" y="270.41" transform="matrix(0.9581 0.2865 -0.2865 0.9581 92.0951 -87.5935)" class="st0" width="9.52" height="1.12"/>
<path class="st0" d="M338.79,278.3l2.42-8.1c0,0-0.18-1.13-1.13-0.34l-2.11,7.06C337.97,276.92,337.88,277.44,338.79,278.3z"/>
<path class="st0" d="M346.76,280.68l2.41-8.07c0,0,0.98-0.82,1.25,0.37l-2.17,7.26C348.25,280.25,347.7,280.94,346.76,280.68z"/>
<polygon class="st0" points="341.03,269.07 344.4,263.65 350.3,265.41 350.15,271.79 "/>
<path class="st0" d="M344.4,263.65c0.96-3.22,3.91-2.33,3.91-2.33s2.95,0.88,1.99,4.1L344.4,263.65z"/>
<polygon class="st8" points="312.92,379.55 310.73,382.14 313.36,382.93 "/>
<polygon class="st8" points="308.96,378.37 306.77,380.96 309.39,381.74 "/>
<polygon class="st8" points="316.8,380.71 314.61,383.3 317.23,384.09 "/>
<path class="st9" d="M343.76,292.67"/>
<line class="st9" x1="334.49" y1="289.76" x2="344.2" y2="292.66"/>
<line class="st9" x1="329.98" y1="304.83" x2="339.69" y2="307.73"/>
<line class="st9" x1="308.85" y1="375.52" x2="318.16" y2="378.3"/>
<path class="st2" d="M306.24,377.88l2.46,0.74l0.33-4.33c0.04-0.57-0.73-0.77-0.98-0.26L306.24,377.88z"/>
<path class="st2" d="M319.11,381.72l-2.46-0.74l2.11-3.8c0.28-0.5,1.04-0.24,0.96,0.32L319.11,381.72z"/>
<path class="st1" d="M347.81,280.59l0.44-0.33l2.17-7.26c0,0,0.1-0.5-0.43-0.66l0.16-0.54l0.15-6.38c0,0,0.96-3.21-1.99-4.1
	c0,0-2.95-0.89-3.91,2.33l-3.37,5.42l-0.13,0.42c0,0-0.57-0.05-0.82,0.37l-2.11,7.06l0.18,0.6l-28.88,96.61c0,0-0.64-1.15-1.12-0.24
	l-1.9,3.99l2.46,0.74l-1.93,2.34l2.63,0.79l-0.43-3.38l3.96,1.18l-2.19,2.59l2.63,0.79l-0.33-3.34l3.77,1.13l-2.19,2.59l2.63,0.79
	l-0.39-3.04l2.26,0.68l0.6-4.21c0,0,0.17-0.58-0.68-0.66L347.81,280.59z"/>
<path class="st1" d="M347.81,280.59l0.44-0.33l2.17-7.26c0,0,0.1-0.5-0.43-0.66l0.16-0.54l0.15-6.38c0,0,0.96-3.21-1.99-4.1
	c0,0-2.95-0.89-3.91,2.33l-3.37,5.42l-0.13,0.42c0,0-0.57-0.05-0.82,0.37l-2.11,7.06l0.18,0.6l-28.88,96.61c0,0-0.64-1.15-1.12-0.24
	l-1.9,3.99l2.46,0.74l-1.93,2.34l2.63,0.79l-0.43-3.38l3.96,1.18l-2.19,2.59l2.63,0.79l-0.33-3.34l3.77,1.13l-2.19,2.59l2.63,0.79
	l-0.39-3.04l2.26,0.68l0.6-4.21c0,0,0.17-0.58-0.68-0.66L347.81,280.59z"/>
<line class="st2" x1="509.45" y1="87.56" x2="514.44" y2="96.38"/>
<rect x="511.35" y="85.07" transform="matrix(0.8704 -0.4923 0.4923 0.8704 22.4729 265.239)" class="st0" width="7.56" height="9.72"/>
<rect x="514.24" y="87.45" transform="matrix(0.4923 0.8704 -0.8704 0.4923 340.1165 -407.0697)" class="st0" width="9.52" height="1.12"/>
<polygon class="st0" points="494.5,98.5 497.5,103.5 514.8,96.03 510.02,87.57 "/>
<path class="st0" d="M509.13,88.7l7.36-4.16c0,0,0.65-0.94-0.58-1.03l-6.42,3.63C509.5,87.14,509.07,87.45,509.13,88.7z"/>
<path class="st0" d="M513.23,95.94l7.33-4.15c0,0,1.27,0.08,0.64,1.13l-6.6,3.73C514.6,96.66,513.73,96.78,513.23,95.94z"/>
<polygon class="st0" points="517.14,83.6 523.33,82.03 526.36,87.39 521.83,91.88 "/>
<polygon class="st8" points="494,98 491.03,103.5 497,104 "/>
<path class="st0" d="M523.33,82.03c2.92-1.65,4.44,1.03,4.44,1.03s1.52,2.68-1.41,4.33L523.33,82.03z"/>
<path class="st1" d="M514.05,96.6l0.55,0.06l6.6-3.73c0,0,0.42-0.29,0.14-0.77l0.49-0.28l4.53-4.49c0,0,2.92-1.65,1.41-4.33
	c0,0-1.51-2.68-4.44-1.03l-6.19,1.57l-0.38,0.22c0,0-0.38-0.43-0.85-0.3l-6.42,3.63l-0.29,0.55"/>
<path class="st1" d="M514.05,96.6l0.55,0.06l6.6-3.73c0,0,0.42-0.29,0.14-0.77l0.49-0.28l4.53-4.49c0,0,2.92-1.65,1.41-4.33
	c0,0-1.51-2.68-4.44-1.03l-6.19,1.57l-0.38,0.22c0,0-0.38-0.43-0.85-0.3l-6.42,3.63l-0.29,0.55L494,98l3,6L514.05,96.6z"/>
<polygon class="st1" points="490.31,104 494,98 497,104 "/>
<polygon class="st8" points="490.49,103.72 484.9,105.28 486.56,108.62 "/>
<polygon class="st1" points="484.24,105.19 490.49,103.72 486.56,108.62 "/>
<g>
	<path class="st6" d="M471.16,118.41c0.06-0.09,0.05-0.22-0.03-0.3c-0.05-0.05-0.12-0.08-0.18-0.08c-0.04,0-0.08,0.01-0.11,0.03
		l-2.53,1.24l1.78-1.85c0.08-0.08,0.09-0.21,0.03-0.3c-0.05-0.08-0.13-0.12-0.21-0.12c-0.02,0-0.05,0-0.07,0.01l-1.48,0.44
		l2.57-1.94c0.1-0.07,0.13-0.21,0.07-0.32c-0.04-0.08-0.13-0.13-0.22-0.13c-0.03,0-0.06,0-0.09,0.02l-1.59,0.59l2.7-2.1
		c0.06-0.04,0.09-0.11,0.1-0.18c0-0.07-0.02-0.14-0.08-0.19l-0.3-0.29c1.21-0.85,6.66-4.63,11.01-6.52c0.09,0.8,0.43,2.79,1.57,4.06
		c-1.03,0.89-5.86,5.03-9.37,7.79l0.09-0.6c0.01-0.1-0.03-0.2-0.12-0.25c-0.04-0.02-0.08-0.03-0.13-0.03
		c-0.05,0-0.11,0.02-0.15,0.05l-1.23,0.96l0.35-0.37c0.09-0.09,0.09-0.24,0.01-0.34c-0.05-0.05-0.12-0.08-0.19-0.08
		c-0.05,0-0.11,0.02-0.15,0.05l-3.06,2.41L471.16,118.41z"/>
	<path d="M482.33,106.78c0.14,0.91,0.5,2.51,1.42,3.67c-1.27,1.09-5.41,4.64-8.68,7.23c0.02-0.2-0.07-0.39-0.25-0.49
		c-0.08-0.05-0.17-0.07-0.25-0.07c-0.11,0-0.22,0.04-0.31,0.1l-0.47,0.37c-0.02-0.03-0.04-0.06-0.06-0.09
		c-0.1-0.11-0.23-0.16-0.37-0.16c-0.11,0-0.22,0.04-0.31,0.11l-1.97,1.55l0.28-0.46c0.12-0.19,0.09-0.43-0.06-0.6
		c-0.1-0.11-0.23-0.16-0.37-0.16c-0.07,0-0.15,0.02-0.22,0.05l-1.24,0.61l0.79-0.82c0.16-0.16,0.19-0.41,0.07-0.61
		c-0.09-0.15-0.26-0.24-0.43-0.24c-0.05,0-0.09,0.01-0.14,0.02l-0.15,0.05l1.47-1.11c0.2-0.15,0.26-0.42,0.14-0.64
		c-0.09-0.16-0.26-0.26-0.44-0.26c-0.06,0-0.12,0.01-0.17,0.03l-0.06,0.02l1.42-1.1c0.11-0.09,0.18-0.22,0.19-0.37
		c0.01-0.14-0.05-0.29-0.15-0.39l-0.08-0.08C473.45,111.89,478.3,108.58,482.33,106.78 M482.75,106.05
		c-5.03,2.1-11.62,6.85-11.62,6.85l0.52,0.5l-3.99,3.1l3.12-1.16l-3.67,2.77l2.8-0.83l-2.78,2.88l3.81-1.88l-1.74,2.83l4.16-3.27
		l-2.78,2.88l3.99-3.1l-0.18,1.22c3.99-3.1,10.07-8.35,10.07-8.35C482.92,108.99,482.75,106.05,482.75,106.05L482.75,106.05z"/>
</g>
<g>
	<g>
		<path class="st10" d="M402.5,180.5c0,0,0.11-0.13,0.33-0.37"/>
		<path class="st11" d="M406.27,176.42c9.99-10.72,37.63-39.7,55.7-52.24"/>
		<path class="st10" d="M464.08,122.77c0.14-0.09,0.28-0.18,0.42-0.27"/>
	</g>
</g>
<path class="st7" d="M418.31,179.11c0,0,135.69-81.11,165.3,150.02"/>
<path class="st12" d="M560.09,200.05l4.88-35.17l0.67,27.55l0.92-5.76l0.65,8.16l2.52-2.96l-2.76,11.89l5.93-6.7l-3.76,11.57
	l5.45-4.7l-5.36,10.78l3.9-1.57l-3.71,4.73l6.67-4.84c0,0-2.47,8.64-11.43,11.12L560.09,200.05z"/>
<path class="st12" d="M590.15,313.71c-9.88-0.24-18.51-6.31-18.51-6.31h8.72l-5.86-6.9l9.11,4.5l-8.78-10.9l5.32,1.53l-9.64-13.13
	l9,6l-10-19l10.64,14c0,0-4.64-43,4.36-76c0,0,11.67,35.31,11.33,73.65l5.67-10.65l-5,17l5-7.93l-3,13.93l6.05-10l-5.05,15l5-3l-5,9
	l5.05-2.55l-5.05,6.55l7-3C606.5,305.5,598.8,313.92,590.15,313.71z"/>
<path class="st13" d="M535.89,81.49C535.89,81.49,572,63,596,60"/>
<path class="st12" d="M553.5,201.5l-17.66-30.81l9.66,25.81l-3-5l2.44,7.81l-3.44-1.81l7,10l-8-4l7.81,9.33l-6.81-2.33l9,8h-4.21
	l5.21,3l-8-2c0,0,5.52,7.1,14.76,6.05L553.5,201.5z"/>
<g>
	<polyline class="st2" points="458.64,199.68 463.92,202.49 496.3,141.84 491.47,138.9 458.64,199.68 	"/>
	
		<rect x="457.75" y="200.81" transform="matrix(0.8822 0.4709 -0.4709 0.8822 149.3094 -193.2873)" class="st3" width="6.35" height="1.87"/>
	<polygon class="st3" points="458.23,201.36 456.77,202.78 462.38,205.77 462.66,203.72 	"/>
	
		<rect x="459.25" y="203.28" transform="matrix(0.4709 -0.8822 0.8822 0.4709 62.7595 513.4434)" class="st3" width="0.36" height="2.24"/>
	<polygon class="st8" points="462.66,203.72 460.5,204.77 460.49,202.57 458.52,203.71 458.23,201.36 	"/>
	<polygon class="st1" points="496.67,141.24 464.01,202.33 464.3,202.48 463.28,204.4 462.74,204.11 462.5,205.85 460.62,204.85 
		460.45,205.17 458.48,204.11 458.65,203.79 456.9,202.86 458.13,201.65 457.45,201.29 458.47,199.37 458.73,199.51 491.84,138.29 	
		"/>
	<path class="st1" d="M458.49,199.17"/>
</g>
<g>
	<path class="st6" d="M595.17,559.37c-0.03-0.1-0.12-0.17-0.23-0.18c0,0-0.01,0-0.01,0c-0.1,0-0.19,0.06-0.23,0.16l-0.8,1.99
		l-0.25-3.55c-0.01-0.12-0.1-0.22-0.22-0.23c-0.01,0-0.02,0-0.03,0c-0.11,0-0.21,0.07-0.24,0.18l-0.7,2.24l-0.34-3.82
		c-0.01-0.07-0.05-0.14-0.11-0.18c-0.04-0.03-0.09-0.04-0.14-0.04c-0.02,0-0.05,0-0.07,0.01l-0.59,0.17c0.2-1.67,1-8.48,1.09-13.21
		c0.61,0.16,2.01,0.47,3.59,0.47c0.83,0,1.59-0.09,2.28-0.26c0.22,1.39,1.23,7.8,1.65,12.28l-0.83-0.45
		c-0.04-0.02-0.08-0.03-0.12-0.03c-0.05,0-0.1,0.01-0.14,0.04c-0.08,0.05-0.12,0.14-0.11,0.23l0.23,2.56l-0.42-1.42
		c-0.03-0.11-0.13-0.18-0.24-0.18c-0.02,0-0.03,0-0.05,0c-0.13,0.02-0.21,0.14-0.2,0.27l0.42,4.31l-1.32-1.99
		c-0.05-0.07-0.12-0.11-0.21-0.11c-0.02,0-0.03,0-0.05,0c-0.1,0.02-0.18,0.1-0.2,0.2l-0.6,3.36L595.17,559.37z"/>
	<path d="M592.55,543.21c0.72,0.17,1.97,0.41,3.35,0.41c0.74,0,1.44-0.07,2.07-0.21c0.28,1.74,1.14,7.34,1.56,11.53l-0.41-0.23
		c-0.07-0.04-0.16-0.06-0.24-0.06c-0.1,0-0.19,0.03-0.27,0.08c-0.15,0.1-0.24,0.28-0.22,0.46l0.07,0.76
		c-0.07-0.04-0.16-0.07-0.25-0.07c-0.03,0-0.06,0-0.1,0.01c-0.25,0.05-0.43,0.28-0.4,0.54l0.32,3.31l-0.76-1.15
		c-0.09-0.14-0.25-0.22-0.42-0.22c-0.03,0-0.07,0-0.1,0.01c-0.2,0.04-0.35,0.2-0.39,0.4l-0.42,2.32l-0.53-1.81
		c-0.06-0.2-0.24-0.35-0.46-0.36c-0.01,0-0.02,0-0.02,0c-0.2,0-0.39,0.12-0.46,0.31l-0.39,0.97l-0.17-2.46
		c-0.02-0.24-0.2-0.43-0.44-0.46c-0.02,0-0.04,0-0.06,0c-0.22,0-0.41,0.14-0.48,0.35l-0.32,1.03l-0.23-2.56
		c-0.01-0.15-0.09-0.28-0.22-0.37c-0.08-0.06-0.18-0.09-0.28-0.09c-0.05,0-0.09,0.01-0.14,0.02l-0.23,0.07
		C591.76,553.66,592.44,547.63,592.55,543.21 M592.06,542.57c-0.06,5.43-1.14,13.88-1.14,13.88l0.96-0.28l0.45,5.08l1.07-3.44
		l0.32,4.64l1.2-3l1.13,3.84l0.79-4.4l1.87,2.83l-0.52-5.31l1.13,3.84l-0.45-5.08l1.24,0.68c-0.45-5.08-1.74-13.04-1.74-13.04
		c-0.81,0.24-1.67,0.32-2.48,0.32C593.84,543.12,592.06,542.57,592.06,542.57L592.06,542.57z"/>
</g>
<g>
	<polyline class="st2" points="558.16,223.55 564.03,222.38 550.64,154.94 545.04,155.73 558.16,223.55 	"/>
	
		<rect x="558.06" y="222.76" transform="matrix(0.9808 -0.1948 0.1948 0.9808 -32.8217 113.5989)" class="st3" width="6.35" height="1.87"/>
	<polygon class="st3" points="558.91,225.11 558.68,227.13 564.91,225.89 563.83,224.14 	"/>
	
		<rect x="560.64" y="226.52" transform="matrix(0.9808 -0.1948 0.1948 0.9808 -33.3974 113.7582)" class="st3" width="2.24" height="0.36"/>
	<polygon class="st8" points="563.83,224.14 562.82,226.31 561.42,224.61 560.63,226.75 558.91,225.11 	"/>
	<polygon class="st1" points="550.54,154.24 563.99,222.2 564.32,222.13 564.74,224.26 564.14,224.38 565.06,225.88 562.97,226.29 
		563.04,226.65 560.84,227.08 560.77,226.73 558.83,227.12 559.02,225.4 558.26,225.55 557.84,223.42 558.12,223.36 544.94,155.03 	
		"/>
	<path class="st1" d="M557.72,223.25"/>
</g>
<g>
	<polyline class="st2" points="587.27,314.06 593.24,313.72 589.32,245.08 583.67,245.08 587.27,314.06 	"/>
	
		<rect x="587.12" y="313.7" transform="matrix(0.9984 -0.057 0.057 0.9984 -16.9832 34.1769)" class="st3" width="6.35" height="1.87"/>
	<polygon class="st3" points="587.79,315.72 587.29,317.68 593.63,317.32 592.8,315.43 	"/>
	
		<rect x="589.28" y="317.51" transform="matrix(0.9984 -0.057 0.057 0.9984 -17.157 34.1876)" class="st3" width="2.24" height="0.36"/>
	<polygon class="st8" points="592.8,315.43 591.5,317.44 590.35,315.57 589.27,317.57 587.79,315.72 	"/>
	<polygon class="st1" points="589.32,244.37 593.23,313.53 593.56,313.51 593.68,315.68 593.07,315.72 593.78,317.33 591.65,317.45 
		591.67,317.81 589.43,317.94 589.41,317.57 587.43,317.69 587.86,316.01 587.09,316.06 586.96,313.89 587.26,313.87 583.67,244.37 
			"/>
	<path class="st1" d="M586.87,313.71"/>
</g>
<rect x="588.5" y="478.5" class="st1" width="14" height="1"/>
<g>
	<polyline class="st2" points="591.4,433.47 597.38,433.25 594.87,364.55 589.21,364.43 591.4,433.47 	"/>
	
		<rect x="591.24" y="433.18" transform="matrix(0.9993 -0.0366 0.0366 0.9993 -15.4773 22.0274)" class="st3" width="6.35" height="1.87"/>
	<polygon class="st3" points="591.89,435.14 591.35,437.1 597.7,436.86 596.91,434.95 	"/>
	
		<rect x="593.33" y="436.98" transform="matrix(0.9993 -0.0366 0.0366 0.9993 -15.5889 22.0308)" class="st3" width="2.24" height="0.36"/>
	<polygon class="st8" points="596.91,434.95 595.57,436.94 594.45,435.04 593.33,437.02 591.89,435.14 	"/>
	<polygon class="st1" points="594.88,363.84 597.37,433.07 597.7,433.06 597.78,435.22 597.17,435.25 597.84,436.87 595.71,436.95 
		595.72,437.31 593.49,437.39 593.47,437.03 591.49,437.1 591.95,435.44 591.18,435.46 591.1,433.3 591.39,433.29 589.23,363.72 	
		"/>
	<path class="st1" d="M591.01,433.11"/>
</g>
<ellipse class="st9" cx="596" cy="667.75" rx="22" ry="11.25"/>
<line class="st7" x1="596.48" y1="569.05" x2="596.48" y2="594.42"/>
<g>
	<polyline class="st2" points="592.45,541.82 598.44,541.84 598.67,473.09 593.02,472.75 592.45,541.82 	"/>
	
		<rect x="592.27" y="541.64" transform="matrix(1 3.315582e-03 -3.315582e-03 1 1.8022 -1.9713)" class="st3" width="6.35" height="1.87"/>
	<polygon class="st3" points="592.88,543.5 592.26,545.44 598.61,545.46 597.9,543.52 	"/>
	
		<rect x="595.18" y="544.51" transform="matrix(3.315582e-03 -1 1 3.315582e-03 47.7581 1139.1761)" class="st3" width="0.36" height="2.24"/>
	<polygon class="st8" points="597.9,543.52 596.48,545.45 595.44,543.51 594.24,545.44 592.88,543.5 	"/>
	<polygon class="st1" points="598.71,472.38 598.44,541.65 598.77,541.65 598.76,543.82 598.15,543.82 598.76,545.47 596.62,545.46 
		596.62,545.83 594.38,545.82 594.38,545.46 592.4,545.45 592.93,543.8 592.15,543.8 592.16,541.63 592.46,541.63 593.07,472.04 	
		"/>
	<path class="st1" d="M592.08,541.45"/>
</g>
<rect x="589" y="607" class="st1" width="14" height="1"/>
<ellipse class="st9" cx="596.51" cy="667.5" rx="39.99" ry="21"/>
<g>
	<polyline class="st2" points="591.99,663.96 597.97,664.05 598.97,595.3 593.33,594.9 591.99,663.96 	"/>
	
		<rect x="591.8" y="663.82" transform="matrix(0.9999 0.0144 -0.0144 0.9999 9.6642 -8.5248)" class="st3" width="6.35" height="1.87"/>
	<polygon class="st3" points="592.4,665.65 591.75,667.58 598.11,667.67 597.42,665.72 	"/>
	
		<rect x="594.67" y="666.68" transform="matrix(0.0144 -0.9999 0.9999 0.0144 -81.4712 1252.9509)" class="st3" width="0.36" height="2.24"/>
	<polygon class="st8" points="597.42,665.72 595.98,667.64 594.96,665.69 593.74,667.61 592.4,665.65 	"/>
	<polygon class="st1" points="599.02,594.6 597.98,663.86 598.31,663.87 598.28,666.04 597.66,666.03 598.25,667.68 596.12,667.65 
		596.12,668.02 593.88,667.98 593.88,667.62 591.9,667.59 592.45,665.95 591.67,665.94 591.7,663.77 592,663.78 593.38,594.19 	"/>
	<path class="st1" d="M591.63,663.58"/>
</g>
<polyline class="st1" points="591.63,659.04 577,674 591.67,665.94 "/>
<polyline class="st1" points="598.11,659.04 615.9,674 598.28,666.04 "/>
<line class="st7" x1="594.52" y1="443.09" x2="595.36" y2="466.42"/>
<line class="st9" x1="589.27" y1="359.74" x2="586.87" y2="342.78"/>
<line class="st9" x1="591.89" y1="359.74" x2="591.01" y2="334.72"/>
<line class="st9" x1="594.94" y1="359.74" x2="595.58" y2="342.78"/>
<polygon class="st0" points="626.17,32.91 632.16,30.7 635.74,35.7 631.71,40.65 "/>
<polygon class="st8" points="604.69,56.7 602.32,62.48 608.31,62.34 "/>
<polygon class="st1" points="601.66,63.05 604.69,56.7 608.31,62.34 "/>
<polygon class="st8" points="601.8,62.76 596.42,64.9 598.42,68.05 "/>
<path class="st0" d="M616.3,44.5h3.87l-4.38-25.31C615.79,19.19,609.63,25.36,616.3,44.5z"/>
<polygon class="st1" points="595.75,64.88 601.8,62.76 598.42,68.05 "/>
<path class="st14" d="M616.32,44.86h3.87l-4.38-25.31C615.8,19.55,609.64,25.72,616.32,44.86z"/>
<path class="st0" d="M622.51,49.93l-0.74-3.79l25.68-0.54C647.45,45.6,642.58,52.83,622.51,49.93z"/>
<path class="st14" d="M622.16,49.99l-0.74-3.79l25.68-0.54C647.1,45.65,642.22,52.88,622.16,49.99z"/>
<polygon class="st0" points="616.32,44.86 622.16,49.99 609.5,61.5 604.5,55.5 "/>
<polygon class="st14" points="616.38,46.01 622.21,51.14 609.56,62.65 604.56,56.65 "/>
<polygon class="st14" points="626.23,32.93 632.21,30.71 635.8,35.72 631.77,40.67 "/>
</svg>
