<?xml version="1.0" encoding="utf-8"?>
<!-- Generator: Adobe Illustrator 26.5.1, SVG Export Plug-In . SVG Version: 6.00 Build 0)  -->
<svg version="1.1" id="Capa_1" xmlns="http://www.w3.org/2000/svg" xmlns:xlink="http://www.w3.org/1999/xlink" x="0px" y="0px"
	 viewBox="0 0 176.5 583.6" style="enable-background:new 0 0 176.5 583.6;" xml:space="preserve">
<style type="text/css">
	.st0{fill:#FFFFFF;}
	.st1{fill:none;stroke:#000000;stroke-width:0.5;stroke-miterlimit:5;}
	.st2{fill-rule:evenodd;clip-rule:evenodd;fill:#FFFFFF;stroke:#000000;stroke-width:0.5;stroke-miterlimit:5;}
	.st3{fill:none;stroke:#000000;stroke-width:0.5;stroke-linecap:square;stroke-miterlimit:5;}
	.st4{fill-rule:evenodd;clip-rule:evenodd;fill:none;stroke:#000000;stroke-width:0.5;stroke-miterlimit:5;}
	.st5{fill-rule:evenodd;clip-rule:evenodd;stroke:#000000;stroke-width:0.5;stroke-miterlimit:5;}
</style>
<rect class="st0" width="176.5" height="583.6"/>
<g transform="matrix(1.25 0 0 -1.25 -282.51 918.36)">
	<g>
		<path class="st1" d="M288.6,517.5l-2-59.9l27.4-0.1l-2.9,60H288.6z"/>
	</g>
	<g>
		<path class="st2" d="M306.8,418c0,0-3.6,0.8-6.5,0.8c-2.4,0-5.2-0.7-5.8-0.9c-0.1,0-0.1,0-0.1,0l0.2,1.4l12.1,0.2L306.8,418z"/>
		<path class="st2" d="M307.1,416c0,0,3.2,0.7,8.5,1.3c4.9,0.5,6.6,0.6,6.8,0.6l4.4-38.4l1.3-11.1l1.9-16.7c0,0-3.3,0.1-9.2-0.5
			c-6-0.6-9.8-0.9-9.8-0.9s-0.2,0.1-0.6,0.1c-1.5,0.4-5.9,1.3-10.7,1.3c-4.9,0-8.9-1.4-10.3-1.9l0.3,3.8l0.9,12.7l0.8,10.8l0.7,9.9
			l0.7,9.8l0.8,10.8l0.6,8.2c1.1,1,3.5,2,5.9,2c3.1,0,3.6-0.3,5.1-0.8C306.2,416.7,307.1,416,307.1,416"/>
	</g>
	<g>
		<g>
			<path class="st1" d="M270.7,355.1c0,0,5.3-0.4,9.5-0.7c4.2-0.3,9.8-0.9,9.8-0.9s4.5,1.8,11,1.8c6.5,0,10.8-1.8,10.8-1.8
				s2.3,0.6,9.1,1.2c6.8,0.6,8.5,1,8.5,1"/>
			<path class="st1" d="M272.2,367.3c0,0,4.8,0.1,8.8-0.2c4-0.3,9.3-0.9,9.3-0.9s4.2,1.8,10.5,1.8c6.2,0,9.2-1.8,9.2-1.8
				s3.3,0.6,9.8,1.2c6.5,0.6,8.5,1,8.5,1"/>
			<path class="st1" d="M273.6,377.8c0,0,4.5,0.1,8.2-0.2c3.7-0.3,8.8-0.9,8.8-0.9s4,2.3,9.9,2.3c5.9,0,8.8-2,8.8-2s3,0.8,9.1,1.4
				c6.2,0.6,8.5,1,8.5,1"/>
			<path class="st1" d="M274.8,387.5c0,0,4.2,0,7.7-0.3c3.5-0.3,9.6-0.9,9.6-0.9s2.4,2.4,7.9,2.4s9.3-1.8,9.3-1.8s1.8,0.6,7.5,1.2
				c5.8,0.6,8.8,1.2,8.8,1.2"/>
			<path class="st1" d="M276,397.1c0,0,4,0,7.3-0.3c3.3-0.3,9.5-0.9,9.5-0.9s2,2.4,7.2,2.4c5.2,0,8.8-1.8,8.8-1.8s1.7,0.6,7.1,1.2
				c5.5,0.6,8.3,1.2,8.3,1.2"/>
			<path class="st1" d="M277.3,407.4c0,0,3.5,0,6.6-0.3c3.2-0.3,9.7-0.6,9.7-0.6s1.3,2.3,6.3,2.3s8-1.8,8-1.8s2,0.6,7.3,1.2
				c5.2,0.6,8,0.9,8,0.9"/>
		</g>
		<g>
			<path class="st1" d="M310.9,350.5l-1.5,36.2l-2.5,31.3"/>
			<line class="st1" x1="294.4" y1="418.1" x2="294.4" y2="417.9"/>
			<line class="st1" x1="289.4" y1="349.9" x2="289.4" y2="349.7"/>
		</g>
		<line class="st3" x1="310" y1="426.2" x2="305.5" y2="426.2"/>
		<line class="st3" x1="305.4" y1="426.2" x2="295.9" y2="426.2"/>
		<line class="st3" x1="290.4" y1="426.1" x2="290.2" y2="426.1"/>
	</g>
	<path class="st4" d="M288.4,457.4L288.4,457.4c-0.4-0.2-0.9-0.7-1.3-1.4c-0.1-0.2-0.2-0.4-0.2-0.6l-0.3,2H288.4z"/>
	<path class="st4" d="M288.4,455.1c-0.4-0.7-1-1.1-1.3-1c0,0,0,0,0,0l0-0.1v-0.5"/>
	<g>
		<path class="st2" d="M287.5,451.5c-0.5,0.9-0.6,1.8-0.1,1.9c0.5,0.1,1.4-0.5,1.9-1.4c0.5-0.9,0.6-1.8,0.1-1.9
			S288.1,450.6,287.5,451.5z"/>
	</g>
	<g>
		<path class="st1" d="M288.6,455.5c-0.1-0.2-0.2-0.3-0.3-0.4c-0.4-0.7-1-1.1-1.3-1c0,0,0,0,0,0c-0.3,0.1-0.3,0.6-0.2,1.2
			c0,0.2,0.1,0.4,0.2,0.6c0.3,0.7,0.9,1.2,1.3,1.4c0.1,0,0.2,0,0.3,0C289.1,457.3,289.1,456.4,288.6,455.5z"/>
		<path class="st1" d="M291.6,417.6c0,0-0.9,0.1-2,0.3c-1.4,0.2-3.3,0.4-4.4,0.5c-1,0-6.2,0.6-6.2,0.6l0,0.1l1.6,8.7l0,0l1.7,9.1
			l0,0.1l2-0.2l4.9-0.5l0.2-1.7l1.1-8.4l0.8-6.2l0.1-0.5l0-0.3L291.6,417.6z"/>
		<polyline class="st1" points="286.6,457.4 286.1,455.8 285,455.7 285.6,455.1 285.1,452.4 284.6,449.6 284.2,447.6 283.9,445.5 
			283.5,443.6 283.5,443.6 282.8,439.9 282.8,439.5 282.7,439.5 282.4,437.8 282.3,437 		"/>
		<polyline class="st1" points="289.1,436.3 287.8,446 287,451.8 287,453.5 		"/>
		<g>
			<polyline class="st3" points="287.6,446.9 287.4,447 286.4,447.1 284.8,447.4 284.5,447.4 			"/>
			<path class="st3" d="M284.1,445.3l3.6-0.5"/>
			<path class="st3" d="M284.8,449.4l2.3-0.2"/>
			<path class="st3" d="M285.3,452.2l1.6,0"/>
		</g>
		<g>
			<polyline class="st1" points="282.4,437.8 281.7,438.4 282.7,439.5 282.8,439.5 			"/>
			<polyline class="st1" points="283.5,443.6 283.5,443.6 282.4,442.7 281.8,440.5 282.8,439.9 			"/>
		</g>
	</g>
	<path class="st4" d="M297.5,452.8c0.4,0.4,0.9,0.7,1.3,0.6c0.4-0.1,0.5-0.6,0.2-1.3"/>
	<path class="st4" d="M299.2,452.1h0.9c-0.1,0-0.3,0-0.4,0.1c-0.3,0.2-0.5,0.7-0.5,1.2c0,0.7,0.4,1.3,0.9,1.3c0.5,0,0.9-0.6,0.9-1.3
		c0-0.5-0.2-1-0.5-1.2"/>
	<path class="st4" d="M301.4,452.1c-0.2,0.6-0.2,1.2,0.2,1.3c0.3,0.1,0.6,0,0.9-0.3"/>
	<path class="st4" d="M297.7,457.3c0.4-0.2,0.8-0.7,1.1-1.3c0.4-0.9,0.5-1.8,0.1-1.9c-0.4-0.1-1,0.4-1.4,1.1"/>
	<path class="st4" d="M302.4,457.3c-0.4-0.2-0.8-0.7-1.1-1.3c-0.4-0.9-0.5-1.8-0.1-1.9c0.4-0.1,0.9,0.3,1.3,1"/>
	<path class="st5" d="M298.9,452.1h-1.5v0.7c0.4,0.4,0.9,0.7,1.3,0.6C299.1,453.3,299.2,452.8,298.9,452.1z"/>
	<path class="st5" d="M298.9,454.1c-0.4-0.1-1,0.4-1.4,1.1v2.1h0.2c0.4-0.2,0.8-0.7,1.1-1.3C299.3,455.1,299.3,454.3,298.9,454.1z"
		/>
	<path class="st5" d="M300.5,452.3c-0.1-0.1-0.3-0.1-0.4-0.1h0.7"/>
	<path class="st5" d="M302.6,457.3v-2.2c-0.4-0.7-1-1.1-1.3-1c-0.4,0.1-0.4,1,0.1,1.9c0.3,0.6,0.7,1.1,1.1,1.3H302.6z"/>
	<path class="st5" d="M302.6,453.1v-1h-1.2c-0.2,0.6-0.2,1.2,0.2,1.3C301.9,453.5,302.2,453.4,302.6,453.1z"/>
	<g>
		<line class="st3" x1="312.2" y1="446.1" x2="302.2" y2="446.1"/>
		<polyline class="st3" points="298.2,446.1 288.6,446 288.1,446 		"/>
	</g>
	<g>
		<path class="st2" d="M298.9,454.1c-0.4-0.1-1,0.4-1.4,1.1c-0.1,0.1-0.1,0.2-0.1,0.3c-0.4,0.9-0.5,1.8-0.1,1.9c0.1,0,0.3,0,0.4-0.1
			c0.4-0.2,0.8-0.7,1.1-1.3C299.3,455.1,299.3,454.3,298.9,454.1z"/>
		<path class="st2" d="M302.8,455.5c-0.1-0.1-0.2-0.3-0.2-0.4c-0.4-0.7-1-1.1-1.3-1c-0.4,0.1-0.4,1,0.1,1.9c0.3,0.6,0.7,1.1,1.1,1.3
			c0.2,0.1,0.3,0.1,0.5,0.1C303.3,457.3,303.3,456.4,302.8,455.5z"/>
	</g>
	<g>
		<path class="st1" d="M301,453.5c0-0.5-0.2-1-0.5-1.2c-0.1-0.1-0.3-0.1-0.4-0.1c-0.1,0-0.3,0-0.4,0.1c-0.3,0.2-0.5,0.7-0.5,1.2
			c0,0.7,0.4,1.3,0.9,1.3S301,454.2,301,453.5z"/>
		<path class="st2" d="M305.4,426.2c-0.7,0.3-3.6,1.4-5.2,1.4c-1.3,0-3.3-0.9-4.3-1.4h0.4L305.4,426.2L305.4,426.2L305.4,426.2z
			 M306.5,419.4l-0.1,0.7l-0.1,0.6v0l-0.1,0.9v0l-0.7,4.5l-9.1,0h-0.9l0-0.3l-0.9-6.6l-0.2-1.4c0,0,0,0,0.1,0
			c0.6,0.2,3.5,0.9,5.8,0.9c3,0,6.5-0.8,6.5-0.8L306.5,419.4z M302.1,446.5l-0.2,0.9l0,0.1l-1,4.2l-0.1,0.4l0,0.1l-0.3,0.1
			c-0.1-0.1-0.3-0.1-0.4-0.1h-0.9l-1.1-6.1h0.1l4,0L302.1,446.5z"/>
		<path class="st4" d="M295.4,426.2l0-0.3l-0.9-6.6l-0.2-1.4c0,0,0,0,0.1,0l-0.1-2l-0.6-8.2l-0.8-10.8l-0.7-9.8l-0.7-9.9l-0.8-10.8
			l-0.9-12.7l-0.3-3.8c-0.3-0.1-0.5-0.2-0.5-0.2s-0.1,0-0.3,0.1c-1.2,0.2-5.2,0.9-9.2,1.1c-4.8,0.3-9.2,0.3-9.2,0.3l8.5,67.8h0.2
			l0-0.1c0,0,5.2-0.6,6.2-0.6c1.1,0,3-0.3,4.4-0.5c1.1-0.2,2-0.3,2-0.3l-0.2,1.6l0,0.3l-0.1,0.5l-0.8,6.2L295.4,426.2z"/>
		<path class="st4" d="M305.1,428.2L305.1,428.2l-1,6.4l-1.8,11.1l-0.1,0.5l-4,0h-0.1l-0.1-0.4l-2.7-19.5h0.5c1,0.5,3,1.4,4.3,1.4
			c1.6,0,4.5-1.1,5.2-1.4h0L305.1,428.2z"/>
	</g>
	<path class="st0" d="M298.2,446.4c0,0,0.7,0.7,1.8,0.7c1,0,2.1-0.5,2.1-0.5l-0.7,2.4h-2.7L298.2,446.4L298.2,446.4z"/>
	<path class="st1" d="M298.2,446.4c0,0,0.7,0.7,1.8,0.7c1,0,2.1-0.5,2.1-0.5l-0.7,2.4h-2.7L298.2,446.4z"/>
	<g>
		<path class="st2" d="M298.9,452.1c-0.1-0.2-0.2-0.4-0.3-0.6c-0.5-0.9-1.4-1.5-1.9-1.4c-0.5,0.1-0.5,1,0.1,1.9
			c0.2,0.3,0.4,0.6,0.7,0.8c0.4,0.4,0.9,0.7,1.3,0.6C299.1,453.3,299.2,452.8,298.9,452.1z"/>
		<path class="st2" d="M303.6,450.1c-0.5-0.1-1.4,0.5-1.9,1.4c-0.1,0.2-0.2,0.4-0.3,0.6c-0.2,0.6-0.2,1.2,0.2,1.3
			c0.3,0.1,0.6,0,0.9-0.3c0.4-0.2,0.7-0.6,1-1.1C304.1,451.1,304.1,450.3,303.6,450.1z"/>
	</g>
	<g>
		<polyline class="st1" points="300.8,452.1 300.9,452.1 300.9,451.7 		"/>
		<path class="st4" d="M313.4,457.4l-0.3-2c0,0.2-0.1,0.4-0.2,0.6c-0.3,0.7-0.9,1.2-1.3,1.4v0H313.4z"/>
	</g>
	<g>
		<path class="st2" d="M312.5,451.5c0.5,0.9,0.6,1.8,0.1,1.9c-0.5,0.1-1.4-0.5-1.9-1.4s-0.6-1.8-0.1-1.9S311.9,450.6,312.5,451.5z"
			/>
	</g>
	<g>
		<path class="st1" d="M322.2,419.6l0-0.2c0,0,0,0,0,0L322.2,419.6z M317.3,441.5l-0.5,2.4 M314.2,447.5L314.2,447.5"/>
		<path class="st1" d="M314.2,447.5L314.2,447.5 M320.1,429l-2,9.2l-0.3,1.5l0,0.2l-0.1,0.3l-0.3,1.3 M312.9,453.5v-1.1v-0.6
			l-0.2-2.3l-0.2-2.2l-0.2-2.1l-0.7-7.5l-1-9.9 M316.8,443.9L316.8,443.9l-2.5,11.1l0.6,0.6l-1,0.1l-0.5,1.7"/>
		<path class="st1" d="M322.2,419.4c-0.4,0-4.6-0.4-5.6-0.4c-1.9-0.1-7-0.9-7-0.9l0.1,1.4l0.8,8.3v0l9.5,1.3l2.1-9.4L322.2,419.4z"
			/>
		<path class="st1" d="M313,454.2C312.9,454.1,312.9,454.1,313,454.2c-0.4-0.1-0.9,0.3-1.3,0.9c-0.1,0.1-0.2,0.3-0.3,0.4
			c-0.3,0.6-0.4,1.3-0.3,1.6c0,0.1,0.1,0.2,0.2,0.3c0.1,0,0.2,0,0.3,0c0.4-0.1,0.9-0.7,1.3-1.4c0.1-0.2,0.2-0.4,0.2-0.6v0
			C313.3,454.8,313.2,454.3,313,454.2z"/>
		<polyline class="st1" points="312.9,453.5 312.9,454 313,454.2 		"/>
		<line class="st1" x1="313.4" y1="457.4" x2="313.1" y2="455.4"/>
		<g>
			<polyline class="st3" points="312.5,447.2 313.1,447.2 313.6,447.3 314.8,447.5 			"/>
			<line class="st3" x1="315.9" y1="447.7" x2="314.8" y2="447.5"/>
			<path class="st3" d="M316.4,445.5l-4-0.5"/>
			<path class="st3" d="M315.3,449.6l-2.5-0.2"/>
			<path class="st3" d="M314.8,452.4l-1.6,0"/>
		</g>
		<g>
			<line class="st1" x1="314.2" y1="447.5" x2="314.2" y2="447.5"/>
			<polyline class="st1" points="316.8,443.9 316.8,444 318.1,443 318.6,440.8 317.7,440.3 317.6,440.2 317.3,441.5 			"/>
			<polygon class="st1" points="318.7,438.7 318.1,438.2 317.7,439.7 			"/>
		</g>
		<g>
			<line class="st3" x1="285.7" y1="445.1" x2="285.7" y2="445.1"/>
			<line class="st3" x1="284.3" y1="436.8" x2="284.2" y2="436.7"/>
			<path class="st3" d="M289.2,434.5l6.8,0.1"/>
			<path class="st3" d="M303.9,434.5l6.8,0.1"/>
		</g>
		<g>
			<path class="st1" d="M305.6,426.1c0,0,0,0-0.1,0c0,0,0,0,0,0"/>
			<path class="st1" d="M295.9,426.2c-0.3-0.1-0.4-0.2-0.5-0.3c0,0-0.1,0-0.1,0"/>
			<path class="st1" d="M296.8,435.9c0,0,2.2,0.5,3.7,0.5c1.5,0,3.3-0.5,3.3-0.5"/>
		</g>
		<g>
			<line class="st3" x1="289.2" y1="436.3" x2="289.1" y2="436.3"/>
			<line class="st3" x1="282.3" y1="437" x2="282.2" y2="437"/>
			<path class="st3" d="M280.5,427.8l9.7-0.7"/>
			<line class="st3" x1="320.2" y1="429" x2="320.1" y2="429"/>
			<line class="st3" x1="310.5" y1="427.8" x2="310.5" y2="427.8"/>
			<path class="st3" d="M311.6,437.7l5.9,0.8"/>
			<line class="st3" x1="315.9" y1="438.3" x2="315.9" y2="438.3"/>
		</g>
	</g>
	<g>
		<polyline class="st1" points="317.7,440 317.6,440.2 317.3,441.5 		"/>
		<path class="st1" d="M322.4,417.8c0,0-0.2,1.6-0.2,1.6"/>
		<path class="st1" d="M278.7,417.5c0,0,3.2-0.3,6.4-0.6s9.2-1.1,9.2-1.1"/>
	</g>
	<g>
		<path class="st1" d="M265.6,319.9c0,0-0.1,0-0.2,0.1"/>
		<path class="st1" d="M334.8,321.5C334.7,321.5,334.7,321.5,334.8,321.5"/>
		<path class="st1" d="M269.2,343.6c0.1,0,0.1,0,0.2,0.1"/>
		<path class="st1" d="M311.3,343.8C311.3,343.8,311.3,343.8,311.3,343.8"/>
		<line class="st1" x1="311.3" y1="343.8" x2="311.3" y2="343.8"/>
	</g>
	<g>
		<g>
			<g>
				<path class="st1" d="M268.9,341.6c0,0,4.6,0,8.8-0.3c4.2-0.3,10.3-0.6,10.3-0.6s3.7,2.5,11.9,2.5c9.2,0,12-2.6,12-2.6
					s2.1,0.4,8.9,1c6.8,0.6,11.3,1.1,11.3,1.1"/>
				<path class="st1" d="M267.7,332.3c0,0,4.8,0,9.1-0.3c4.3-0.3,10.7-0.6,10.7-0.6s3.8,2.5,12.3,2.5c9.5,0,12.4-2.6,12.4-2.6
					s2.1,0.4,9.2,1c7.1,0.6,11.7,1.1,11.7,1.1"/>
			</g>
			<g>
				<path class="st1" d="M266.8,324.9c0,0,4.9,0,9.3-0.3c4.4-0.3,10.7-0.6,10.7-0.6s1.3,2.7,12.7,2.7c11.9,0,13-2.8,13-2.8
					s1.9,0.4,9.1,1c7.2,0.6,11.9,1.1,11.9,1.1"/>
				<path class="st1" d="M266,324c0,0,5,0,9.4-0.3c4.5-0.3,11.1-0.6,11.1-0.6s1.1,2.7,12.7,2.7c12.1,0,13.2-2.8,13.2-2.8
					s1.9,0.4,9.2,1c7.3,0.6,12.1,1.1,12.1,1.1"/>
				<path class="st1" d="M266,322.9c0,0,5,0,9.5-0.3c4.5-0.3,11.1-0.6,11.1-0.6s1.2,2.7,12.8,2.7c12.1,0,13.3-2.8,13.3-2.8
					s1.9,0.4,9.3,1c7.4,0.6,12.2,1.1,12.2,1.1"/>
			</g>
		</g>
		<line class="st3" x1="293" y1="342.8" x2="293" y2="342.5"/>
		<g>
			<path class="st1" d="M270.4,351.1l-3.7-26.1l0.2-0.9l-0.9-1.1l-0.4-3.1v-7.2l-1.1-19.9"/>
			<path class="st1" d="M330.1,351.1l3.7-26.1l-0.2-0.9l0.9-1.1l0.4-3.1v-7.2l1.1-19.9"/>
		</g>
		<g>
			<line class="st3" x1="327.5" y1="342.1" x2="327.5" y2="342.2"/>
			<line class="st3" x1="288.6" y1="349.7" x2="287.8" y2="341.4"/>
			<path class="st3" d="M287.8,341.3l-1.5-18.3"/>
			<line class="st3" x1="311.2" y1="341.3" x2="310.4" y2="350.4"/>
			<polyline class="st3" points="314,322.5 313.9,323.1 313.9,324 313.3,331.4 312.7,340.7 			"/>
			<line class="st3" x1="308.4" y1="332.8" x2="308.4" y2="333.2"/>
		</g>
		<g>
			<path class="st1" d="M264.4,301.1l-9.3-7.8l9.1-0.4"/>
		</g>
		<g>
			<path class="st1" d="M266,312.1c0,0,5.1,0,9.6-0.3c4.6-0.3,11.2-0.6,11.2-0.6s1.3,2.7,13.1,2.7c12.3,0,13.5-2.8,13.5-2.8
				s1.9,0.4,9.4,1c7.5,0.6,12.4,1.1,12.4,1.1"/>
			<path class="st1" d="M266.1,311.1c0,0,5.1,0,9.6-0.3c4.6-0.3,11.1-0.6,11.1-0.6s1.4,2.7,13.2,2.7c12.3,0,13.5-2.8,13.5-2.8
				s1.9,0.4,9.4,1c7.5,0.6,12.4,1.1,12.4,1.1"/>
			<path class="st1" d="M265.3,310.1c0,0,5.2,0,9.8-0.3c4.6-0.3,11.5-0.6,11.5-0.6s1.2,2.7,13.2,2.7c12.5,0,13.7-2.8,13.7-2.8
				s2,0.4,9.6,1s12.6,1.1,12.6,1.1"/>
		</g>
		<g>
			<path class="st3" d="M286.4,322.4l-0.1-12.5"/>
			<path class="st3" d="M312.4,322.4l0.4-12.6"/>
		</g>
	</g>
	<g>
		<g>
			<line class="st1" x1="291.9" y1="290.6" x2="290.8" y2="290.8"/>
			<polyline class="st1" points="290.6,290.9 287.3,291.4 287.2,291.4 284.2,292.2 269,292.7 263.8,292.8 			"/>
			<path class="st1" d="M271.3,292.5c-1.9-2.4-1.9-6.1-1.9-6.1h5.9c0,0,0.4,3.9-1.3,6.1"/>
		</g>
		<g>
			<polygon class="st1" points="268,292.5 266.3,289.2 266.3,285.2 264.3,285.1 264.5,286.6 264.5,286.9 264.7,288.5 265.8,290.4 
				265.9,290.6 265.9,290.6 264.3,290.7 264.4,292.4 266.1,292.4 			"/>
		</g>
		<g>
			<line class="st1" x1="266.1" y1="292.4" x2="266" y2="292.5"/>
			<line class="st1" x1="265.9" y1="290.6" x2="265.8" y2="290.4"/>
			<line class="st1" x1="264.5" y1="286.6" x2="264.4" y2="286.6"/>
			<polygon class="st1" points="290.9,290.9 290.8,290.8 290.6,290.9 			"/>
		</g>
		<g>
			<path class="st1" d="M280.8,292.2c1.9-2.3,1.9-5.8,1.9-5.8h-5.9c0,0-0.4,3.7,1.3,5.8"/>
		</g>
		<line class="st3" x1="276.8" y1="288.3" x2="276.7" y2="288.3"/>
	</g>
	<g>
		<g>
			<path class="st1" d="M287.2,291.4c0,0,2.5,2,12.6,2c10.1,0,12.6-2,12.6-2"/>
			<polyline class="st1" points="312.9,311.5 312.9,311.5 312.8,311.6 312.4,311.9 312.3,311.9 			"/>
		</g>
		<g>
			<path class="st1" d="M324.1,311.9c0,0,0,0.1,0,0.1"/>
		</g>
		<polyline class="st3" points="286.8,292 286.5,300.4 286.5,301.1 286.2,309.2 286.2,309.7 		"/>
		<g>
			<line class="st1" x1="331.5" y1="292.4" x2="331.5" y2="292.7"/>
		</g>
		<g>
			<line class="st1" x1="309.7" y1="290.8" x2="308.6" y2="290.6"/>
			<polyline class="st1" points="310.1,290.9 313.2,291.4 316.3,292.2 331.5,292.7 336.7,292.8 			"/>
			<path class="st1" d="M329.3,292.5c1.9-2.4,1.9-6.1,1.9-6.1h-5.9c0,0-0.4,3.9,1.3,6.1"/>
		</g>
		<line class="st3" x1="325.3" y1="288.4" x2="325.2" y2="288.4"/>
		<g>
			<polygon class="st1" points="336.1,286.6 336.3,285.1 334.2,285.2 334.2,289.2 332.5,292.5 334.4,292.4 336.1,292.4 336.3,290.7 
				334.6,290.6 334.6,290.5 335.8,288.5 336,286.9 			"/>
		</g>
		<g>
			<line class="st1" x1="334.5" y1="292.5" x2="334.4" y2="292.4"/>
			<line class="st1" x1="336.1" y1="286.6" x2="336.1" y2="286.6"/>
			<line class="st1" x1="310.1" y1="290.9" x2="309.7" y2="290.8"/>
		</g>
		<g>
			<path class="st1" d="M319.7,292.2c-1.9-2.3-1.9-5.8-1.9-5.8h5.9c0,0,0.4,3.7-1.3,5.8"/>
		</g>
		<polyline class="st3" points="312.8,309.9 312.8,309.7 312.8,309.7 312.8,309.4 312.7,305.9 312.4,292 		"/>
	</g>
	<g>
		<g>
			<path class="st1" d="M292.2,290.5c0,0.6,1.5,1,3.3,1c1.8,0,3.3-0.5,3.3-1"/>
		</g>
		<path class="st3" d="M292,288.5l3.2,0"/>
		<g>
			<path class="st1" d="M294.3,288.5C294.3,288.5,294.3,288.5,294.3,288.5"/>
			<path class="st1" d="M299,288.7c-0.4,0.7-0.2,1.7,0.6,2.1c0.7,0.4,1.7,0.2,2.1-0.6c0.3-0.5,0.3-1,0-1.4"/>
			<path class="st1" d="M292.1,290.5v-2.1l16.4,0.1l0.1,2"/>
			<path class="st1" d="M301.8,290.5c0,0.6,1.5,1,3.3,1s3.3-0.5,3.3-1"/>
			<line class="st1" x1="304.4" y1="287.9" x2="304.4" y2="287.9"/>
		</g>
		<g>
			<path class="st3" d="M307.4,288.5l-3.2,0"/>
			<path class="st1" d="M306,288.5C306.1,288.5,306.1,288.5,306,288.5"/>
		</g>
		<g>
			<g>
				<path class="st1" d="M295.1,288.3c-0.7-1.2-0.7-3-0.7-3h2.1c0,0,0.2,1.9-0.5,3"/>
				<path class="st1" d="M304.6,288.3c-0.7-1.2-0.7-3-0.7-3h2.1c0,0,0.2,1.9-0.5,3"/>
				<path class="st1" d="M299.9,288.3c-0.7-1.2-0.7-3-0.7-3h2.1c0,0,0.2,1.9-0.5,3"/>
				<path class="st1" d="M288.7,524.4h23l-11.6,2.7L288.7,524.4L288.7,524.4z"/>
				<line class="st1" x1="288.7" y1="531.1" x2="288.7" y2="524.4"/>
				<line class="st1" x1="311.5" y1="531.1" x2="311.5" y2="524.4"/>
			</g>
		</g>
		<g>
			<path class="st1" d="M288.7,524.4h22.9v-6.8h-22.9V524.4z"/>
		</g>
		<g>
			<path class="st3" d="M288.7,591l22.8,0"/>
		</g>
		<g>
			<path class="st1" d="M335.7,300.8l9.5-7.4l-9.1-0.7"/>
			<line class="st3" x1="336.7" y1="300" x2="336.7" y2="300.2"/>
		</g>
	</g>
	<g>
		<path class="st1" d="M288.7,532.8h22.8v-1.8h-22.8V532.8z"/>
	</g>
	<g>
		<path class="st1" d="M288.5,591.6l-1.1,9.8v22.6l1.6,18.2v16.4l0.2,6.3l6.1,10.8h4.6h4.9l6.1-10.8l0.2-6.3v-16.4l1.6-18.2v-22.6
			l-1.1-9.8"/>
		<g>
			<path class="st3" d="M287.6,601.7l25,0"/>
			<path class="st3" d="M300.2,601.7l0,73.9"/>
			<path class="st3" d="M289.2,650.5l21.8,0"/>
			<path class="st3" d="M287.8,624.5l24.8,0"/>
		</g>
		<g>
			<path class="st1" d="M288.5,591.6l-3.1,10.3l2,2.9l-0.2,1.6l-1.4,0.5l1.4,2"/>
			<line class="st1" x1="287.4" y1="601.7" x2="285.5" y2="601.7"/>
		</g>
		<g>
			<path class="st1" d="M311.7,591.6l3.1,10.3l-2,2.9l0.2,1.6l1.4,0.5l-1.4,2"/>
			<polyline class="st1" points="314.7,601.7 312.8,601.7 312.8,601.7 			"/>
		</g>
	</g>
	<path class="st2" d="M299.8,591.6l-1.1,10.1l1.1,2.9l1.1-2.7L299.8,591.6z"/>
	<g>
		<polyline class="st1" points="302.9,676 302.9,685.2 304.7,686.4 302.9,688.5 302.9,688.6 302.9,690.6 301.3,692.2 301.3,703.9 
			302.7,705 301.3,706.8 301.3,720.2 299.6,722 297.9,720.2 297.9,706.8 296.4,705 297.9,703.9 297.9,692.2 296.3,690.6 
			296.2,688.6 296.2,688.5 294.4,686.4 296.2,685.2 296.2,676 		"/>
		<g>
			<path class="st3" d="M296.3,685.4l6.8,0"/>
			<path class="st3" d="M297.9,692.3l3.2,0"/>
			<path class="st3" d="M297.9,703.8l3.2,0"/>
			<path class="st3" d="M297.9,706.7l3.2,0"/>
			<path class="st3" d="M296.6,705.1l6,0"/>
			<path class="st3" d="M296.3,690.6l6.6,0"/>
			<line class="st3" x1="303" y1="688.6" x2="302.9" y2="688.6"/>
			<line class="st3" x1="296.2" y1="688.6" x2="296.1" y2="688.6"/>
			<path class="st3" d="M297.9,693.5l3.2,0"/>
		</g>
	</g>
</g>
<rect x="78.3" y="179.7" class="st2" width="28.5" height="72.7"/>
</svg>
