<?xml version="1.0" encoding="utf-8"?>
<!-- Generator: Adobe Illustrator 27.0.0, SVG Export Plug-In . SVG Version: 6.00 Build 0)  -->
<svg version="1.1" id="Capa_1" xmlns="http://www.w3.org/2000/svg" xmlns:xlink="http://www.w3.org/1999/xlink" x="0px" y="0px"
	 viewBox="0 0 1024 768" style="enable-background:new 0 0 1024 768;" xml:space="preserve">
<style type="text/css">
	.st0{fill:#B2B2B2;}
	.st1{fill:#DADADA;}
	.st2{fill:none;stroke:#010101;stroke-width:0.5;}
	.st3{fill:none;stroke:#010101;stroke-width:1.5;}
	.st4{fill:#B2B2B2;stroke:#000000;stroke-width:0.5;stroke-miterlimit:10;}
	.st5{fill:#DADADA;stroke:#000000;stroke-width:0.5;stroke-miterlimit:10;}
	.st6{font-family:'MyriadPro-Regular';}
	.st7{font-size:8px;}
</style>
<g id="STARSHIP">
	<path class="st0" d="M364.16,649.61l14.25-28l-0.62-210.5l-2.63-17.25l2.57-10.25v-18h7.75v3h5.75v-3h14.5v3h5c-0.25-1-0.6-3,0-3h7
		l0.25,18c0.41,3.48,1.16,6.92,2.25,10.25l-2.5,16.25v211.5l14.75,28v13.75l-2.75,0.75l-10-5.5l0.2,3.5h-2.75l2.75,4h-43.81l2-4
		h-2.25l0.21-3.5l-7.21,5.5l-4.75-0.75L364.16,649.61z"/>
	<path class="st1" d="M354.65,339.61l23-61.5c-0.06-20.72,0-56.09,0.48-79l-15.73-3.75V184.6l27.65-38.5
		c3.11-7.09,6.21-12.5,8.35-12.5c2.14,0,5.61,5.38,8.93,12.5l26.57,38.5v11.5l-16,3c0.37,20.56,0.71,51.34,0.71,79l22.5,61.5v22.25
		l-16.25,3.75h-13.7v3h-5.5v-3h-14.5v3h-5.75v-3h-14.75l-16-3.75L354.65,339.61z"/>
	<path class="st2" d="M377.66,278.11l-23,61.5v22.25l16,3.75 M377.66,278.11c-0.06-20.72,0-56.09,0.48-79 M377.66,278.11l4.75,78.5
		l-4.75,9 M377.66,278.11l-7,87.5 M418.66,278.11l22.5,61.5v22.25l-16.25,3.75 M418.66,278.11c0-27.67-0.34-58.45-0.71-79
		 M418.66,278.11l-4.25,78.5l3.25,9 M418.66,278.11l6.25,87.5 M370.66,365.61h7 M377.66,365.61h8 M377.66,365.61v17.75
		 M378.36,621.61l-14.25,28v13.75l4.75,0.75l7.21-5.5 M378.36,621.61l-2.29,37 M378.36,621.61l-0.61-208 M417.61,621.61l14.75,28
		v13.75l-2.75,0.75l-10-5.5 M417.61,621.61l2,37 M417.61,621.61v-208 M417.61,365.61h7.25 M417.61,365.61h-6.81 M417.61,365.61
		l0.08,17.75 M390.06,146.1c-4.92,11.21-9.83,26.61-10.9,31.5c-0.46,2.1-0.79,10.32-1,21.5 M390.08,146.1
		c3.11-7.09,6.21-12.5,8.35-12.5c2.14,0,5.61,5.38,8.93,12.5 M390.08,146.1l-27.65,38.5v10.75l15.73,3.75 M407.36,146.1
		c5,10.66,9.77,25.21,10.07,31.5c0.16,3.5,0.36,11.23,0.54,21.5 M407.36,146.1l26.57,38.5v11.5l-16,3 M376.12,658.61l-0.21,3.5h2.25
		 M419.71,658.61l0.2,3.5h-2.75 M378.16,662.11l-2,4h43.79l-2.75-4 M378.2,662.11h2.75 M417.2,662.11h-1.5 M385.7,365.61
		c0.47-12.95,3.58-23.58,5.2-27.5v27.5 M385.7,365.61c0,1.07,0,2.15,0,3.25h5.25v-3.25 M390.95,365.61h14.75 M405.7,365.61v3.25
		h5.25c0-1.1,0-2.18-0.06-3.25 M405.7,365.61v-27.5c1.61,3.92,4.72,14.55,5.19,27.5 M377.73,383.36h5.7l4.25,15.25l-4.25,15h-5.61
		 M377.73,383.36l-2.55,10.5l2.64,19.75 M417.73,383.36h-5.69l-4.25,15.25l4.25,15h5.61 M417.73,383.36l2.56,10.5l-2.64,19.75
		 M391.65,662.11l-0.75-41.75l-10,30.25v11.5 M391.65,662.11l-10.75,2v-2 M391.65,662.11h12.75 M404.4,662.11l11.25,2v-2
		 M404.4,662.11l0.75-42l10.5,30.5v11.5 M385.15,167.85h26.75c-2.59-9.25-8.9-27.7-13.5-27.5s-10.74,18.42-13.24,27.5L385.15,167.85
		z"/>
	<path class="st3" d="M354.65,339.61l23-61.5c-0.06-20.72,0-56.09,0.48-79l-15.73-3.75V184.6l27.65-38.5
		c3.11-7.09,6.21-12.5,8.35-12.5c2.14,0,5.61,5.38,8.93,12.5l26.57,38.5v11.5l-16,3c0.37,20.56,0.71,51.34,0.71,79l22.5,61.5v22.25
		l-16.25,3.75h-7.25v256l14.75,28v13.75l-2.75,0.75l-10-5.5l0.2,3.5h-2.75l2.75,4h-43.69l2-4h-2.25l0.21-3.5l-7.21,5.5l-4.75-0.75
		v-13.74l14.25-28l-0.75-256h-7l-16-3.75L354.65,339.61z"/>
</g>
<g>
	<rect x="543.09" y="196.91" class="st4" width="2" height="120.59"/>
	<rect x="523.5" y="199.42" class="st4" width="2" height="119.08"/>
	<rect x="534.5" y="198.46" class="st4" width="2" height="119.08"/>
	<rect x="513.09" y="200.89" class="st4" width="2" height="117.57"/>
	<rect x="546.5" y="200.46" class="st5" width="2" height="117.71"/>
	<rect x="539.5" y="197.58" class="st5" width="2" height="120.59"/>
	<rect x="517.5" y="199.09" class="st5" width="2" height="119.08"/>
	<rect x="528.5" y="199.09" class="st5" width="2" height="119.08"/>
	<rect x="523.18" y="134.65" class="st5" width="10.62" height="49.4"/>
	<polygon class="st5" points="521.09,666 521.09,331.06 553.5,328.26 553.5,660.72 	"/>
	<rect x="509.5" y="200.6" class="st5" width="2" height="117.57"/>
	<polygon class="st5" points="503.33,328.26 521.09,331.06 521.09,666 503.33,660.58 	"/>
	<path class="st5" d="M498,330.66c0,0,30.5,8.17,60.45,0l2.55-21.14c0,0-40.98-3.84-65.99,0L498,330.66z"/>
	<rect x="507.5" y="251.39" class="st5" width="43" height="16.33"/>
	<path class="st5" d="M495.01,255.34c0,0,44.49-6.83,65.99,1.63v-18.41c0,0-32.5-6.38-65.99,0V255.34z"/>
	<path class="st5" d="M499.5,301.09c0,0,34.37,1.67,57.68,0v-25.19c0,0-33.68-4.32-57.68,0V301.09z"/>
	<path class="st5" d="M561.94,210.99c-21.5-2.68-65.99-0.51-65.99-0.51v-2.55c0,0,33.43-6.95,65.99,0V210.99z"/>
	<path class="st5" d="M509.5,201.43c0,0,18-2.88,39,0v-11.4c0,0-21-5.63-39,0V201.43z"/>
	<path class="st5" d="M561.75,229.06c-21.5-2.68-65.99-0.51-65.99-0.51V226c0,0,33.43-6.95,65.99,0V229.06z"/>
	<path class="st5" d="M507,187.49v6.73c0,0,24.28-5.77,43.14,0v-6.69C550.14,187.53,531.5,179.33,507,187.49z"/>
	<rect x="518.5" y="179.33" class="st5" width="21" height="5.77"/>
	<polygon class="st5" points="528.49,113 527.39,134.65 530.5,134.65 	"/>
	<rect x="495.5" y="272.53" class="st5" width="66" height="5.77"/>
	<path class="st3" d="M521.09,666l-17.77-5.42V331.83l-5.33-1.17l-2.99-21.14l14.49-1.38v-6.67l-10-0.38v-22.8h-4v-5.77h14v-4.8h-2
		v-13.86c0,0-12.98,1.58-12.49,1.47v-16.79l14.49-2.04v-8.47l-13.74,0.5V226l13.74-1.99v-14.03l-13.55,0.5v-2.55l13.55-1.97V193.7
		l-2.5,0.52v-6.73c0,0,7.5-2.24,11.5-2.8v-5.37h4.68v-44.68h4.21l1.1-21.65l2.01,21.65h3.3v44.68h5.7v5.38c0,0,8.28,1.42,10.64,2.82
		v6.69l-1.64-0.47v12.04l13.44,2.14v3.06l-13.44-1.02v13.91l13.25,2.12v3.06l-13.25-1.01v8.77l12.5,1.73v18.41
		c0,0-8.5-2.84-10.5-2.77v13.53h-2v4.8h13v5.77h-4.32v22.8l-8.68,0.46v7.06l12.5,0.91l-2.55,21.14l-4.95,1.21v328.85L521.09,666z"/>
</g>
<text transform="matrix(1 0 0 1 375.0869 698.9395)" class="st6 st7">120 m</text>
<text transform="matrix(1 0 0 1 506.9138 698.7431)" class="st6 st7">127,36 m</text>
</svg>
