<?xml version="1.0" encoding="utf-8"?>
<!-- Generator: Adobe Illustrator 27.0.0, SVG Export Plug-In . SVG Version: 6.00 Build 0)  -->
<svg version="1.1" id="Capa_1" xmlns="http://www.w3.org/2000/svg" xmlns:xlink="http://www.w3.org/1999/xlink" x="0px" y="0px"
	 viewBox="0 0 768 1366" style="enable-background:new 0 0 768 1366;" xml:space="preserve">
<style type="text/css">
	.st0{fill:#E6E6E6;stroke:#000000;stroke-miterlimit:10;}
	.st1{fill:none;stroke:#000000;stroke-miterlimit:10;}
</style>
<rect x="197.48" y="1079.71" class="st0" width="85.5" height="34.2"/>
<polygon class="st0" points="259.42,1113.91 275.04,1180.48 205.42,1180.48 220.84,1113.91 "/>
<path class="st0" d="M293.61,1079.71h25.4V596.88L289.38,789c-6.42,64.13-26.56,83.67-26.56,83.67s-108.71,111.15-129.48,133.14
	c-11.77,12.46-16.18,34.54-17.79,51.32c-1.23,12.83-0.83,22.58-0.83,22.58H293.61"/>
<path class="st0" d="M473.91,1078.09h-25.4V595.25l29.63,192.12c6.42,64.13,26.56,83.67,26.56,83.67S613.4,982.2,634.17,1004.19
	c11.77,12.46,16.18,34.54,17.79,51.32c1.23,12.83,0.83,22.58,0.83,22.58H473.91"/>
<path class="st0" d="M448.49,1076.05V569.14c0,0-14.59-127.65-54.35-164.47c-5.87-5.44-14.89-5.44-20.77-0.01
	c-39.77,36.74-54.35,163.87-54.35,163.87v506.91L448.49,1076.05z"/>
<line class="st1" x1="297.03" y1="1057.11" x2="115.34" y2="1057.11"/>
<polyline class="st1" points="308.14,1146.6 319.02,1213.13 451.14,1213.13 460.11,1147.2 "/>
<path class="st0" d="M367.87,1021.69v124.91h-72.07c0,0-20.77-78.5,21.99-124.91H367.87z"/>
<polygon class="st0" points="319.02,1146.6 305.58,1175.6 344.67,1182.93 344.67,1146.6 "/>
<path class="st0" d="M397.81,1021.53v124.91h72.07c0,0,20.77-78.5-21.99-124.91H397.81z"/>
<polygon class="st0" points="446.67,1146.44 460.11,1175.44 421.02,1182.76 421.02,1146.44 "/>
<polyline class="st0" points="360.09,1147.2 349.55,1189.03 418.47,1189.03 409.36,1146.6 "/>
<polygon class="st0" points="377.42,1012.28 392.22,1012.28 388.64,1244 381.51,1244 "/>
<path class="st1" d="M477.81,789l-1.38-525.69c0,0-2.1-116.52-82.21-198.88c-5.74-5.9-15.19-5.9-20.93,0
	c-80.13,82.36-82.52,198.88-82.52,198.88L289.38,789"/>
<path class="st1" d="M280.01,838.02V388.97c0,0,4.02-33.1-31.22-98.3c-3.53-6.53-12.82-6.69-16.59-0.29
	c-32.77,55.73-32.07,98.54-32.07,98.54v547.97"/>
<line class="st1" x1="290.66" y1="304.96" x2="476.53" y2="304.96"/>
<path class="st1" d="M343.42,551.11l-5.38-1.12l3.74-17.94l5.26,1.1c3.7,0.77,6.07,4.4,5.3,8.1l-0.97,4.66
	C350.61,549.53,347.05,551.86,343.42,551.11z"/>
<path class="st1" d="M426.56,552.46l5.38-1.12l-3.74-17.94l-5.26,1.1c-3.7,0.77-6.07,4.4-5.3,8.1l0.97,4.66
	C419.36,550.88,422.92,553.21,426.56,552.46z"/>
<path class="st1" d="M418.4,528l4.74-5.11l-9.48-8.79l-4.68,5.04c-2,2.16-1.88,5.54,0.29,7.54l1.72,1.59
	C413.12,530.25,416.43,530.13,418.4,528z"/>
<path class="st1" d="M351.15,529.77l-4.74-5.11l9.48-8.79l4.68,5.04c2,2.16,1.88,5.54-0.29,7.54l-1.72,1.59
	C356.43,532.02,353.11,531.89,351.15,529.77z"/>
<path class="st1" d="M366.26,516.69l-0.93-6.91l12.81-1.73l0.92,6.81c0.39,2.92-1.65,5.61-4.58,6l-2.32,0.31
	C369.29,521.57,366.65,519.56,366.26,516.69z"/>
<path class="st1" d="M403.92,516.94l0.93-6.91l-12.81-1.73l-0.92,6.81c-0.39,2.92,1.65,5.61,4.58,6l2.32,0.31
	C400.89,521.82,403.53,519.81,403.92,516.94z"/>
<path class="st1" d="M376.17,578.3h-8.04c-1.49,0-2.7-1.21-2.7-2.7v-8.04c0-1.49,1.21-2.7,2.7-2.7h8.04c1.49,0,2.7,1.21,2.7,2.7
	v8.04C378.87,577.09,377.66,578.3,376.17,578.3z"/>
<path class="st1" d="M400.6,578.3h-8.04c-1.49,0-2.7-1.21-2.7-2.7v-8.04c0-1.49,1.21-2.7,2.7-2.7h8.04c1.49,0,2.7,1.21,2.7,2.7v8.04
	C403.3,577.09,402.09,578.3,400.6,578.3z"/>
<line class="st1" x1="319.02" y1="590" x2="448.49" y2="590"/>
<line class="st1" x1="319.02" y1="694.53" x2="448.49" y2="694.53"/>
<line class="st1" x1="319.02" y1="796.55" x2="448.49" y2="796.55"/>
<line class="st1" x1="319.02" y1="898.42" x2="448.49" y2="898.42"/>
<line class="st1" x1="319.02" y1="1001.54" x2="448.49" y2="1001.54"/>
<line class="st1" x1="200.13" y1="388.92" x2="280.01" y2="388.92"/>
<line class="st1" x1="200.13" y1="466.3" x2="280.01" y2="466.3"/>
<line class="st1" x1="200.13" y1="542.26" x2="280.01" y2="542.26"/>
<line class="st1" x1="200.13" y1="619.42" x2="280.15" y2="619.42"/>
<line class="st1" x1="200.13" y1="694.53" x2="280.01" y2="694.53"/>
<line class="st1" x1="200.13" y1="771.4" x2="280.01" y2="771.4"/>
<line class="st1" x1="200.13" y1="850.25" x2="275.68" y2="850.25"/>
<rect x="484.54" y="1078.09" transform="matrix(-1 -4.488821e-11 4.488821e-11 -1 1054.5791 2190.3718)" class="st0" width="85.5" height="34.2"/>
<polygon class="st0" points="508.1,1112.29 492.48,1178.86 562.1,1178.86 546.68,1112.29 "/>
<line class="st1" x1="467.42" y1="1055.49" x2="652.18" y2="1055.49"/>
<path class="st1" d="M488.58,838.34V389.28c0,0-4.02-33.1,31.22-98.3c3.53-6.53,12.82-6.69,16.59-0.29
	c32.77,55.73,32.07,98.54,32.07,98.54v547.97"/>
<line class="st1" x1="568.46" y1="389.24" x2="488.58" y2="389.24"/>
<line class="st1" x1="568.46" y1="466.62" x2="488.58" y2="466.62"/>
<line class="st1" x1="568.46" y1="542.58" x2="488.58" y2="542.58"/>
<line class="st1" x1="568.46" y1="619.74" x2="488.44" y2="619.74"/>
<line class="st1" x1="568.46" y1="694.84" x2="488.58" y2="694.84"/>
<line class="st1" x1="568.46" y1="771.72" x2="488.58" y2="771.72"/>
<line class="st1" x1="568.46" y1="850.57" x2="492.91" y2="850.57"/>
</svg>
